# Wavefront OBJ file
# Exported by Maverick Model 3D 1.3.15
# Mon Sep 14 12:07:32 2026

mtllib shop.mtl

# 112 Vertices
v 5.0 5.0 5.0
v 5.0 -0.0 5.0
v -5.0 5.0 5.0
v -5.0 -0.0 5.0
v -2.457 -0.0 5.0
v -2.457 2.854 5.0
v -1.197 -0.0 5.0
v -1.197 2.854 5.0
v 2.471 -0.0 5.0
v 3.483 2.821 5.0
v 2.471 2.821 5.0
v 3.483 -0.0 5.0
v -2.457 -0.0 4.327
v -2.457 2.854 4.327
v -1.197 -0.0 4.327
v -1.197 2.854 4.327
v 2.471 -0.0 4.327
v 3.483 2.821 4.327
v 2.471 2.821 4.327
v 3.483 -0.0 4.327
v -1.183 0.009 5.001
v -1.183 0.349 5.001
v -1.183 0.349 4.651
v -2.474 0.009 5.001
v -2.474 0.349 4.651
v -2.474 0.349 5.001
v -1.183 0.6 4.651
v -1.183 0.6 4.323
v -2.474 0.6 4.323
v -2.474 0.6 4.651
v 3.512 0.009 5.001
v 3.512 0.349 5.001
v 3.512 0.349 4.652
v 2.462 0.009 5.001
v 2.462 0.349 4.652
v 2.462 0.349 5.001
v 3.512 0.6 4.652
v 3.512 0.6 4.325
v 2.462 0.6 4.325
v 2.462 0.6 4.652
v 0.397 0.819 5.128
v 0.98 0.819 5.128
v 0.397 4.884 5.128
v 0.98 4.884 5.128
v 0.98 0.819 4.992
v 0.397 0.819 4.992
v 0.98 4.884 4.992
v 0.397 4.884 4.992
v 0.345 0.695 5.182
v 1.041 0.695 5.182
v 1.041 0.695 4.992
v 0.345 0.695 4.992
v 0.345 0.001 5.182
v 1.041 0.001 5.182
v 1.041 0.001 4.992
v 0.345 0.001 4.992
v -4.892 0.819 5.128
v -4.31 0.819 5.128
v -4.892 4.884 5.128
v -4.31 4.884 5.128
v -4.31 0.819 4.992
v -4.892 0.819 4.992
v -4.31 4.884 4.992
v -4.892 4.884 4.992
v -4.944 0.695 5.182
v -4.248 0.695 5.182
v -4.248 0.695 4.992
v -4.944 0.695 4.992
v -4.944 0.001 5.182
v -4.248 0.001 5.182
v -4.248 0.001 4.992
v -4.944 0.001 4.992
v -4.308 4.817 5.245
v -4.308 4.817 4.982
v -4.308 4.65 5.082
v -4.308 3.758 5.086
v -4.308 3.59 5.207
v -4.308 3.59 4.984
v 0.393 4.817 5.245
v 0.393 4.817 4.982
v 0.393 4.65 5.082
v 0.393 3.758 5.086
v 0.393 3.59 5.207
v 0.393 3.59 4.984
v 0.965 4.817 5.245
v 0.965 4.817 4.982
v 0.965 4.65 5.082
v 0.965 3.758 5.086
v 0.965 3.59 5.207
v 0.965 3.59 4.984
v 4.998 4.817 5.245
v 4.998 4.817 4.982
v 4.998 4.65 5.082
v 4.998 3.758 5.086
v 4.998 3.59 5.207
v 4.998 3.59 4.984
v 0.268 4.884 5.245
v 1.121 4.884 5.245
v 0.268 5.0 5.245
v 1.121 5.0 5.245
v 1.121 4.884 4.99
v 0.268 4.884 4.99
v 1.121 5.0 4.99
v 0.268 5.0 4.99
v -4.999 4.884 5.245
v -4.2 4.884 5.245
v -4.999 5.0 5.245
v -4.2 5.0 5.245
v -4.2 4.884 4.99
v -4.999 4.884 4.99
v -4.2 5.0 4.99
v -4.999 5.0 4.99

# 462 Texture Coordinates
vt 0.271288 0.23013
vt 0.365231 0.23013
vt 0.365231 0.115753
vt 0.365231 0.115753
vt 0.271288 0.115753
vt 0.271288 0.23013
vt 0.371568 0.09756
vt 0.371568 0.245837
vt 0.262753 0.245837
vt 0.262753 0.245837
vt 0.262753 0.09756
vt 0.371568 0.09756
vt 0.371568 0.245837
vt 0.371568 0.09756
vt 0.262753 0.09756
vt 0.262753 0.09756
vt 0.262753 0.245837
vt 0.371568 0.245837
vt 0.371568 0.09756
vt 0.371568 0.244111
vt 0.262753 0.244111
vt 0.262753 0.244111
vt 0.262753 0.09756
vt 0.371568 0.09756
vt 0.754211 0.227683
vt 0.835867 0.227683
vt 0.835867 0.095876
vt 0.835867 0.095876
vt 0.754211 0.095876
vt 0.754211 0.227683
vt 0.371568 0.244111
vt 0.371568 0.09756
vt 0.262753 0.09756
vt 0.262753 0.09756
vt 0.262753 0.244111
vt 0.371568 0.244111
vt 0.254322 0.570802
vt 0.380323 0.570802
vt 0.0 1.0
vt 0.0 0.0
vt 0.254322 0.0
vt 0.254322 0.570802
vt 0.0 0.0
vt 0.254322 0.570802
vt 0.0 1.0
vt 0.380323 0.570802
vt 0.747105 0.564158
vt 1.0 1.0
vt 0.380323 0.570802
vt 1.0 1.0
vt 0.0 1.0
vt 0.747105 0.564158
vt 0.380323 0.570802
vt 0.380323 0.0
vt 0.747105 0.0
vt 0.747105 0.564158
vt 0.380323 0.0
vt 1.0 1.0
vt 0.747105 0.564158
vt 0.8483 0.564158
vt 0.8483 0.564158
vt 0.8483 0.0
vt 1.0 0.0
vt 0.8483 0.564158
vt 1.0 0.0
vt 1.0 1.0
vt 0.380323 0.570802
vt 0.254322 0.570802
vt 0.254322 0.0
vt 0.254322 0.0
vt 0.380323 0.0
vt 0.380323 0.570802
vt 0.747105 0.0
vt 0.8483 0.564158
vt 0.747105 0.564158
vt 0.8483 0.0
vt 0.8483 0.564158
vt 0.747105 0.0
vt 0.37127 0.031756
vt 0.258861 0.008449
vt 0.37127 0.008449
vt 0.37127 0.031756
vt 0.258861 0.031756
vt 0.258861 0.008449
vt 0.591243 0.329652
vt 0.571881 0.202047
vt 0.591243 0.202047
vt 0.591243 0.329652
vt 0.571881 0.329652
vt 0.571881 0.202047
vt 0.37127 0.075211
vt 0.258861 0.031756
vt 0.37127 0.031756
vt 0.37127 0.075211
vt 0.258861 0.075211
vt 0.258861 0.031756
vt 0.571755 0.329652
vt 0.54181 0.202047
vt 0.571755 0.202047
vt 0.571755 0.329652
vt 0.54181 0.329652
vt 0.54181 0.202047
vt 0.835965 0.027545
vt 0.750321 0.007941
vt 0.836991 0.007941
vt 0.835965 0.027545
vt 0.749295 0.027545
vt 0.750321 0.007941
vt 0.592302 0.307134
vt 0.572644 0.220802
vt 0.592302 0.220802
vt 0.592302 0.307134
vt 0.572644 0.307134
vt 0.572644 0.220802
vt 0.836991 0.06528
vt 0.749295 0.027545
vt 0.835965 0.027545
vt 0.836991 0.06528
vt 0.750321 0.06528
vt 0.749295 0.027545
vt 0.572516 0.307134
vt 0.542113 0.220802
vt 0.572516 0.220802
vt 0.572516 0.307134
vt 0.542113 0.307134
vt 0.542113 0.220802
vt 0.539224 0.172994
vt 0.594121 0.172994
vt 0.539224 0.998061
vt 0.594121 0.172994
vt 0.594121 0.998061
vt 0.539224 0.998061
vt 0.539224 0.998061
vt 0.539224 0.172994
vt 0.539224 0.172994
vt 0.539224 0.998061
vt 0.539224 0.998061
vt 0.539224 0.172994
vt 0.594121 0.998061
vt 0.594121 0.172994
vt 0.594121 0.172994
vt 0.594121 0.998061
vt 0.594121 0.998061
vt 0.594121 0.172994
vt 0.539224 0.998061
vt 0.594121 0.998061
vt 0.539224 0.998061
vt 0.539224 0.998061
vt 0.594121 0.998061
vt 0.594121 0.998061
vt 0.594121 0.172994
vt 0.539224 0.172994
vt 0.594121 0.172994
vt 0.594121 0.172994
vt 0.539224 0.172994
vt 0.539224 0.172994
vt 0.534323 0.147959
vt 0.599901 0.147959
vt 0.539224 0.172994
vt 0.599901 0.147959
vt 0.594121 0.172994
vt 0.539224 0.172994
vt 0.539224 0.172994
vt 0.534323 0.147959
vt 0.534323 0.147959
vt 0.539224 0.172994
vt 0.539224 0.172994
vt 0.534323 0.147959
vt 0.594121 0.172994
vt 0.599901 0.147959
vt 0.599901 0.147959
vt 0.594121 0.172994
vt 0.594121 0.172994
vt 0.599901 0.147959
vt 0.539224 0.172994
vt 0.594121 0.172994
vt 0.539224 0.172994
vt 0.539224 0.172994
vt 0.594121 0.172994
vt 0.594121 0.172994
vt 0.599901 0.007089
vt 0.534323 0.007089
vt 0.599901 0.007089
vt 0.599901 0.007089
vt 0.534323 0.007089
vt 0.534323 0.007089
vt 0.599901 0.147959
vt 0.599901 0.007089
vt 0.599901 0.007089
vt 0.599901 0.007089
vt 0.599901 0.147959
vt 0.599901 0.147959
vt 0.534323 0.147959
vt 0.534323 0.007089
vt 0.599901 0.007089
vt 0.599901 0.007089
vt 0.599901 0.147959
vt 0.534323 0.147959
vt 0.534323 0.147959
vt 0.534323 0.007089
vt 0.534323 0.007089
vt 0.534323 0.007089
vt 0.534323 0.147959
vt 0.534323 0.147959
vt 0.599901 0.147959
vt 0.534323 0.147959
vt 0.599901 0.147959
vt 0.534323 0.147959
vt 0.534323 0.147959
vt 0.599901 0.147959
vt 0.006867 0.170348
vt 0.06599 0.170348
vt 0.006867 0.996634
vt 0.06599 0.170348
vt 0.06599 0.996634
vt 0.006867 0.996634
vt 0.006867 0.996634
vt 0.006867 0.170348
vt 0.006867 0.170348
vt 0.006867 0.996634
vt 0.006867 0.996634
vt 0.006867 0.170348
vt 0.06599 0.996634
vt 0.06599 0.170348
vt 0.06599 0.170348
vt 0.06599 0.996634
vt 0.06599 0.996634
vt 0.06599 0.170348
vt 0.006867 0.996634
vt 0.06599 0.996634
vt 0.006867 0.996634
vt 0.006867 0.996634
vt 0.06599 0.996634
vt 0.06599 0.996634
vt 0.06599 0.170348
vt 0.006867 0.170348
vt 0.06599 0.170348
vt 0.06599 0.170348
vt 0.006867 0.170348
vt 0.006867 0.170348
vt 0.001588 0.145279
vt 0.072215 0.145279
vt 0.006867 0.170348
vt 0.072215 0.145279
vt 0.06599 0.170348
vt 0.006867 0.170348
vt 0.006867 0.170348
vt 0.001588 0.145279
vt 0.001588 0.145279
vt 0.006867 0.170348
vt 0.006867 0.170348
vt 0.001588 0.145279
vt 0.06599 0.170348
vt 0.072215 0.145279
vt 0.072215 0.145279
vt 0.06599 0.170348
vt 0.06599 0.170348
vt 0.072215 0.145279
vt 0.006867 0.170348
vt 0.06599 0.170348
vt 0.006867 0.170348
vt 0.006867 0.170348
vt 0.06599 0.170348
vt 0.06599 0.170348
vt 0.072215 0.004198
vt 0.001588 0.004198
vt 0.072215 0.004198
vt 0.072215 0.004198
vt 0.001588 0.004198
vt 0.001588 0.004198
vt 0.072215 0.145279
vt 0.072215 0.004198
vt 0.072215 0.004198
vt 0.072215 0.004198
vt 0.072215 0.145279
vt 0.072215 0.145279
vt 0.001588 0.145279
vt 0.001588 0.004198
vt 0.072215 0.004198
vt 0.072215 0.004198
vt 0.072215 0.145279
vt 0.001588 0.145279
vt 0.001588 0.145279
vt 0.001588 0.004198
vt 0.001588 0.004198
vt 0.001588 0.004198
vt 0.001588 0.145279
vt 0.001588 0.145279
vt 0.072215 0.145279
vt 0.001588 0.145279
vt 0.072215 0.145279
vt 0.001588 0.145279
vt 0.001588 0.145279
vt 0.072215 0.145279
vt 0.530902 0.912085
vt 0.530902 0.943288
vt 0.530902 0.943288
vt 0.530902 0.745818
vt 0.530902 0.714595
vt 0.530902 0.714595
vt 0.530902 0.912085
vt 0.530902 0.745818
vt 0.530902 0.714595
vt 0.530902 0.912085
vt 0.530902 0.714595
vt 0.530902 0.943288
vt 0.067668 0.943288
vt 0.530902 0.943288
vt 0.530902 0.943288
vt 0.530902 0.943288
vt 0.067668 0.943288
vt 0.067668 0.943288
vt 0.067668 0.912085
vt 0.530902 0.912085
vt 0.530902 0.943288
vt 0.530902 0.943288
vt 0.067668 0.943288
vt 0.067668 0.912085
vt 0.067668 0.714595
vt 0.530902 0.714595
vt 0.530902 0.745818
vt 0.530902 0.745818
vt 0.067668 0.745818
vt 0.067668 0.714595
vt 0.067668 0.714595
vt 0.530902 0.714595
vt 0.530902 0.714595
vt 0.530902 0.714595
vt 0.067668 0.714595
vt 0.067668 0.714595
vt 0.067668 0.745818
vt 0.530902 0.745818
vt 0.530902 0.912085
vt 0.530902 0.912085
vt 0.067668 0.912085
vt 0.067668 0.745818
vt 0.067668 0.943288
vt 0.067668 0.943288
vt 0.067668 0.912085
vt 0.067668 0.714595
vt 0.067668 0.714595
vt 0.067668 0.745818
vt 0.067668 0.714595
vt 0.067668 0.745818
vt 0.067668 0.912085
vt 0.067668 0.943288
vt 0.067668 0.714595
vt 0.067668 0.912085
vt 0.99826 0.914311
vt 0.99826 0.946274
vt 0.99826 0.946274
vt 0.99826 0.743993
vt 0.99826 0.712008
vt 0.99826 0.712008
vt 0.99826 0.914311
vt 0.99826 0.743993
vt 0.99826 0.712008
vt 0.99826 0.914311
vt 0.99826 0.712008
vt 0.99826 0.946274
vt 0.597865 0.946274
vt 0.99826 0.946274
vt 0.99826 0.946274
vt 0.99826 0.946274
vt 0.597865 0.946274
vt 0.597865 0.946274
vt 0.597865 0.914311
vt 0.99826 0.914311
vt 0.99826 0.946274
vt 0.99826 0.946274
vt 0.597865 0.946274
vt 0.597865 0.914311
vt 0.597865 0.712008
vt 0.99826 0.712008
vt 0.99826 0.743993
vt 0.99826 0.743993
vt 0.597865 0.743993
vt 0.597865 0.712008
vt 0.597865 0.712008
vt 0.99826 0.712008
vt 0.99826 0.712008
vt 0.99826 0.712008
vt 0.597865 0.712008
vt 0.597865 0.712008
vt 0.597865 0.743993
vt 0.99826 0.743993
vt 0.99826 0.914311
vt 0.99826 0.914311
vt 0.597865 0.914311
vt 0.597865 0.743993
vt 0.597865 0.946274
vt 0.597865 0.946274
vt 0.597865 0.914311
vt 0.597865 0.712008
vt 0.597865 0.712008
vt 0.597865 0.743993
vt 0.597865 0.712008
vt 0.597865 0.743993
vt 0.597865 0.914311
vt 0.597865 0.946274
vt 0.597865 0.712008
vt 0.597865 0.914311
vt 0.537848 0.504002
vt 0.596569 0.504002
vt 0.537848 0.521018
vt 0.596569 0.504002
vt 0.596569 0.521018
vt 0.537848 0.521018
vt 0.577099 0.51974
vt 0.588353 0.505001
vt 0.577099 0.505001
vt 0.577099 0.51974
vt 0.588353 0.51974
vt 0.588353 0.505001
vt 0.588353 0.51974
vt 0.577099 0.505001
vt 0.588353 0.505001
vt 0.588353 0.51974
vt 0.577099 0.51974
vt 0.577099 0.505001
vt 0.542531 0.519999
vt 0.588746 0.504003
vt 0.542531 0.504003
vt 0.542531 0.519999
vt 0.588746 0.519999
vt 0.588746 0.504003
vt 0.588746 0.519999
vt 0.542531 0.504003
vt 0.588746 0.504003
vt 0.588746 0.519999
vt 0.542531 0.519999
vt 0.542531 0.504003
vt 0.537848 0.504002
vt 0.596569 0.504002
vt 0.537848 0.521018
vt 0.596569 0.504002
vt 0.596569 0.521018
vt 0.537848 0.521018
vt 0.577099 0.51974
vt 0.588353 0.505001
vt 0.577099 0.505001
vt 0.577099 0.51974
vt 0.588353 0.51974
vt 0.588353 0.505001
vt 0.588353 0.51974
vt 0.577099 0.505001
vt 0.588353 0.505001
vt 0.588353 0.51974
vt 0.577099 0.51974
vt 0.577099 0.505001
vt 0.542531 0.519999
vt 0.588746 0.504003
vt 0.542531 0.504003
vt 0.542531 0.519999
vt 0.588746 0.519999
vt 0.588746 0.504003
vt 0.588746 0.519999
vt 0.542531 0.504003
vt 0.588746 0.504003
vt 0.588746 0.519999
vt 0.542531 0.519999
vt 0.542531 0.504003

# 462 Vertex Normals
vn 0.0 -1.0 0.0
vn 0.0 -1.0 0.0
vn 0.0 -1.0 0.0
vn 0.0 -1.0 0.0
vn 0.0 -1.0 0.0
vn 0.0 -1.0 0.0
vn 1.0 0.0 0.0
vn 1.0 0.0 0.0
vn 1.0 0.0 0.0
vn 1.0 0.0 0.0
vn 1.0 0.0 0.0
vn 1.0 0.0 0.0
vn -1.0 0.0 0.0
vn -1.0 0.0 0.0
vn -1.0 0.0 0.0
vn -1.0 0.0 0.0
vn -1.0 0.0 0.0
vn -1.0 0.0 0.0
vn 1.0 0.0 0.0
vn 1.0 0.0 0.0
vn 1.0 0.0 0.0
vn 1.0 0.0 0.0
vn 1.0 0.0 0.0
vn 1.0 0.0 0.0
vn 0.0 -1.0 0.0
vn 0.0 -1.0 0.0
vn 0.0 -1.0 0.0
vn 0.0 -1.0 0.0
vn 0.0 -1.0 0.0
vn 0.0 -1.0 0.0
vn -1.0 0.0 0.0
vn -1.0 0.0 0.0
vn -1.0 0.0 0.0
vn -1.0 0.0 0.0
vn -1.0 0.0 0.0
vn -1.0 0.0 0.0
vn 0.0 -0.0 1.0
vn 0.0 -0.0 1.0
vn 0.0 -0.0 1.0
vn 0.0 0.0 1.0
vn 0.0 0.0 1.0
vn 0.0 -0.0 1.0
vn 0.0 0.0 1.0
vn 0.0 -0.0 1.0
vn 0.0 -0.0 1.0
vn 0.0 -0.0 1.0
vn 0.0 0.0 1.0
vn 0.0 0.0 1.0
vn 0.0 -0.0 1.0
vn 0.0 0.0 1.0
vn 0.0 -0.0 1.0
vn 0.0 0.0 1.0
vn 0.0 -0.0 1.0
vn 0.0 0.0 1.0
vn 0.0 0.0 1.0
vn 0.0 0.0 1.0
vn 0.0 0.0 1.0
vn 0.0 0.0 1.0
vn 0.0 0.0 1.0
vn 0.0 0.0 1.0
vn 0.0 0.0 1.0
vn 0.0 0.0 1.0
vn 0.0 0.0 1.0
vn 0.0 0.0 1.0
vn 0.0 0.0 1.0
vn 0.0 0.0 1.0
vn 0.0 0.0 1.0
vn 0.0 0.0 1.0
vn 0.0 0.0 1.0
vn 0.0 0.0 1.0
vn 0.0 0.0 1.0
vn 0.0 0.0 1.0
vn 0.0 0.0 1.0
vn 0.0 0.0 1.0
vn 0.0 0.0 1.0
vn 0.0 0.0 1.0
vn 0.0 0.0 1.0
vn 0.0 0.0 1.0
vn 0.0 0.0 1.0
vn 0.0 0.0 1.0
vn 0.0 0.0 1.0
vn 0.0 0.0 1.0
vn 0.0 0.0 1.0
vn 0.0 0.0 1.0
vn 0.0 1.0 0.0
vn 0.0 1.0 0.0
vn 0.0 1.0 0.0
vn 0.0 1.0 0.0
vn 0.0 1.0 0.0
vn 0.0 1.0 0.0
vn 0.0 0.0 1.0
vn 0.0 0.0 1.0
vn 0.0 0.0 1.0
vn 0.0 0.0 1.0
vn 0.0 0.0 1.0
vn 0.0 0.0 1.0
vn 0.0 1.0 0.0
vn 0.0 1.0 0.0
vn 0.0 1.0 0.0
vn 0.0 1.0 0.0
vn 0.0 1.0 0.0
vn 0.0 1.0 0.0
vn 0.0 0.0 1.0
vn 0.0 0.0 1.0
vn 0.0 0.0 1.0
vn 0.0 0.0 1.0
vn 0.0 0.0 1.0
vn 0.0 0.0 1.0
vn 0.0 1.0 0.0
vn 0.0 1.0 0.0
vn 0.0 1.0 0.0
vn 0.0 1.0 0.0
vn 0.0 1.0 0.0
vn 0.0 1.0 0.0
vn 0.0 0.0 1.0
vn 0.0 0.0 1.0
vn 0.0 0.0 1.0
vn 0.0 0.0 1.0
vn 0.0 0.0 1.0
vn 0.0 0.0 1.0
vn 0.0 1.0 0.0
vn 0.0 1.0 0.0
vn 0.0 1.0 0.0
vn 0.0 1.0 0.0
vn 0.0 1.0 0.0
vn 0.0 1.0 0.0
vn 0.0 0.271239 0.962512
vn 0.0 0.135619 0.990761
vn 0.0 0.0 1.0
vn 0.0 0.135619 0.990761
vn 0.0 0.0 1.0
vn 0.0 0.0 1.0
vn -1.0 0.0 0.0
vn -0.991356 0.131197 0.0
vn -0.964961 0.262394 0.0
vn -1.0 0.0 0.0
vn -1.0 0.0 0.0
vn -0.991356 0.131197 0.0
vn 1.0 0.0 0.0
vn 0.988592 0.150616 0.0
vn 0.953551 0.301232 0.0
vn 1.0 0.0 0.0
vn 1.0 0.0 0.0
vn 0.988592 0.150616 0.0
vn 0.0 1.0 0.0
vn 0.0 1.0 0.0
vn 0.0 1.0 0.0
vn 0.0 1.0 0.0
vn 0.0 1.0 0.0
vn 0.0 1.0 0.0
vn 0.0 -1.0 0.0
vn 0.0 -1.0 0.0
vn 0.0 -1.0 0.0
vn 0.0 -1.0 0.0
vn 0.0 -1.0 0.0
vn 0.0 -1.0 0.0
vn -0.260335 0.504186 0.823421
vn 0.360346 0.739195 0.568983
vn -0.374999 0.726252 0.576137
vn 0.360346 0.739195 0.568983
vn 0.251777 0.516484 0.818445
vn -0.374999 0.726252 0.576137
vn -0.578061 0.72593 0.372654
vn -0.810984 0.585068 0.0
vn -0.69158 0.642578 0.329865
vn -0.578061 0.72593 0.372654
vn -0.903435 0.428725 0.0
vn -0.810984 0.585068 0.0
vn 0.696035 0.718008 0.0
vn 0.678107 0.657871 0.327682
vn 0.79627 0.604941 0.0
vn 0.696035 0.718008 0.0
vn 0.815477 0.51808 0.258053
vn 0.678107 0.657871 0.327682
vn -0.417423 0.808415 0.414997
vn 0.528481 0.848945 0.0
vn -0.553748 0.832684 0.0
vn -0.417423 0.808415 0.414997
vn 0.399935 0.820406 0.40864
vn 0.528481 0.848945 0.0
vn 0.0 -1.0 0.0
vn 0.0 -1.0 0.0
vn 0.0 -1.0 0.0
vn 0.0 -1.0 0.0
vn 0.0 -1.0 0.0
vn 0.0 -1.0 0.0
vn 0.973987 0.226602 0.0
vn 1.0 0.0 0.0
vn 1.0 0.0 0.0
vn 1.0 0.0 0.0
vn 0.973987 0.226602 0.0
vn 0.973987 0.226602 0.0
vn 0.0 0.13562 0.990761
vn 0.0 0.0 1.0
vn 0.0 0.0 1.0
vn 0.0 0.0 1.0
vn 0.0 0.271239 0.962512
vn 0.0 0.13562 0.990761
vn -0.980356 0.197238 0.0
vn -1.0 0.0 0.0
vn -1.0 0.0 0.0
vn -1.0 0.0 0.0
vn -0.980356 0.197238 0.0
vn -0.980356 0.197238 0.0
vn 0.528481 0.848945 0.0
vn -0.553748 0.832684 0.0
vn 0.399934 0.820406 0.408639
vn -0.553748 0.832684 0.0
vn -0.417423 0.808415 0.414997
vn 0.399934 0.820406 0.408639
vn 0.0 0.27124 0.962512
vn 0.0 0.13562 0.990761
vn 0.0 0.0 1.0
vn 0.0 0.13562 0.990761
vn 0.0 0.0 1.0
vn 0.0 0.0 1.0
vn -1.0 0.0 0.0
vn -0.991356 0.131196 0.0
vn -0.964961 0.262392 0.0
vn -1.0 0.0 0.0
vn -1.0 0.0 0.0
vn -0.991356 0.131196 0.0
vn 1.0 0.0 0.0
vn 0.988273 0.152696 0.0
vn 0.952227 0.305393 0.0
vn 1.0 0.0 0.0
vn 1.0 0.0 0.0
vn 0.988273 0.152696 0.0
vn 0.0 1.0 0.0
vn 0.0 1.0 0.0
vn 0.0 1.0 0.0
vn 0.0 1.0 0.0
vn 0.0 1.0 0.0
vn 0.0 1.0 0.0
vn 0.0 -1.0 0.0
vn 0.0 -1.0 0.0
vn 0.0 -1.0 0.0
vn 0.0 -1.0 0.0
vn 0.0 -1.0 0.0
vn 0.0 -1.0 0.0
vn -0.260336 0.504185 0.823421
vn 0.358722 0.740556 0.568239
vn -0.374999 0.726251 0.576137
vn 0.358722 0.740556 0.568239
vn 0.25081 0.517781 0.817923
vn -0.374999 0.726251 0.576137
vn -0.578062 0.72593 0.372654
vn -0.810985 0.585066 0.0
vn -0.691581 0.642577 0.329865
vn -0.578062 0.72593 0.372654
vn -0.903436 0.428724 0.0
vn -0.810985 0.585066 0.0
vn 0.693852 0.720117 0.0
vn 0.676627 0.659503 0.327463
vn 0.794655 0.607062 0.0
vn 0.693852 0.720117 0.0
vn 0.814515 0.519615 0.258004
vn 0.676627 0.659503 0.327463
vn -0.417424 0.808415 0.414997
vn 0.525732 0.850651 0.0
vn -0.553749 0.832683 0.0
vn -0.417424 0.808415 0.414997
vn 0.398012 0.821667 0.407982
vn 0.525732 0.850651 0.0
vn 0.0 -1.0 0.0
vn 0.0 -1.0 0.0
vn 0.0 -1.0 0.0
vn 0.0 -1.0 0.0
vn 0.0 -1.0 0.0
vn 0.0 -1.0 0.0
vn 0.973249 0.229752 0.0
vn 1.0 0.0 0.0
vn 1.0 0.0 0.0
vn 1.0 0.0 0.0
vn 0.973249 0.229752 0.0
vn 0.973249 0.229752 0.0
vn 0.0 0.13562 0.990761
vn 0.0 0.0 1.0
vn 0.0 0.0 1.0
vn 0.0 0.0 1.0
vn 0.0 0.27124 0.962512
vn 0.0 0.13562 0.990761
vn -0.980356 0.197236 0.0
vn -1.0 0.0 0.0
vn -1.0 0.0 0.0
vn -1.0 0.0 0.0
vn -0.980356 0.197236 0.0
vn -0.980356 0.197236 0.0
vn 0.525732 0.85065 0.0
vn -0.553749 0.832684 0.0
vn 0.398012 0.821667 0.407982
vn -0.553749 0.832684 0.0
vn -0.417424 0.808415 0.414997
vn 0.398012 0.821667 0.407982
vn 1.0 0.0 0.0
vn 1.0 0.0 0.0
vn 1.0 0.0 0.0
vn 1.0 0.0 0.0
vn 1.0 0.0 0.0
vn 1.0 0.0 0.0
vn 1.0 0.0 0.0
vn 1.0 0.0 0.0
vn 1.0 0.0 0.0
vn 1.0 0.0 0.0
vn 1.0 0.0 0.0
vn 1.0 0.0 0.0
vn 0.0 1.0 0.0
vn 0.0 1.0 0.0
vn 0.0 1.0 0.0
vn 0.0 1.0 0.0
vn 0.0 1.0 0.0
vn 0.0 1.0 0.0
vn 0.0 -0.497002 0.86775
vn 0.0 -0.2461 0.969244
vn 0.0 -0.698485 0.715624
vn 0.0 -0.698485 0.715624
vn 0.0 -0.698485 0.715624
vn 0.0 -0.497002 0.86775
vn 0.0 0.584432 0.811443
vn 0.0 0.584432 0.811443
vn 0.0 0.408354 0.912824
vn 0.0 0.408354 0.912824
vn 0.0 0.206518 0.978443
vn 0.0 0.584432 0.811443
vn 0.0 -1.0 0.0
vn 0.0 -1.0 0.0
vn 0.0 -1.0 0.0
vn 0.0 -1.0 0.0
vn 0.0 -1.0 0.0
vn 0.0 -1.0 0.0
vn 0.0 0.206518 0.978443
vn 0.0 0.408354 0.912824
vn 0.0 -0.2461 0.969244
vn 0.0 -0.2461 0.969244
vn 0.0 -0.497002 0.86775
vn 0.0 0.206518 0.978443
vn -1.0 0.0 0.0
vn -1.0 0.0 -0.000002
vn -1.0 0.0 -0.0
vn -1.0 0.0 -0.0
vn -1.0 0.0 0.0
vn -1.0 0.0 0.000001
vn -1.0 0.0 -0.0
vn -1.0 0.0 0.000001
vn -1.0 0.0 -0.0
vn -1.0 0.0 -0.000002
vn -1.0 0.0 -0.0
vn -1.0 0.0 -0.0
vn 1.0 0.0 0.000001
vn 1.0 0.0 0.000002
vn 1.0 0.0 0.0
vn 1.0 0.0 0.0
vn 1.0 0.0 0.0
vn 1.0 0.0 0.000001
vn 1.0 0.0 0.000001
vn 1.0 0.0 0.0
vn 1.0 0.0 0.000001
vn 1.0 0.0 0.000001
vn 1.0 0.0 0.000001
vn 1.0 0.0 0.000002
vn 0.0 1.0 0.0
vn 0.0 1.0 0.0
vn 0.0 1.0 0.0
vn 0.0 1.0 0.0
vn 0.0 1.0 0.0
vn 0.0 1.0 0.0
vn 0.0 -0.497001 0.86775
vn 0.0 -0.2461 0.969244
vn 0.0 -0.698485 0.715625
vn 0.0 -0.698485 0.715625
vn 0.0 -0.698485 0.715625
vn 0.0 -0.497001 0.86775
vn 0.0 0.584432 0.811443
vn 0.0 0.584432 0.811443
vn 0.0 0.408354 0.912824
vn 0.0 0.408354 0.912824
vn 0.0 0.206518 0.978443
vn 0.0 0.584432 0.811443
vn 0.0 -1.0 0.0
vn 0.0 -1.0 0.0
vn 0.0 -1.0 0.0
vn 0.0 -1.0 0.0
vn 0.0 -1.0 0.0
vn 0.0 -1.0 0.0
vn 0.0 0.206518 0.978443
vn 0.0 0.408354 0.912824
vn 0.0 -0.2461 0.969244
vn 0.0 -0.2461 0.969244
vn 0.0 -0.497001 0.86775
vn 0.0 0.206518 0.978443
vn -1.0 0.0 0.0
vn -1.0 0.0 0.0
vn -1.0 0.0 -0.0
vn -1.0 0.0 -0.0
vn -1.0 0.0 0.0
vn -1.0 0.0 -0.0
vn -1.0 0.0 -0.0
vn -1.0 0.0 -0.0
vn -1.0 0.0 -0.0
vn -1.0 0.0 0.0
vn -1.0 0.0 -0.0
vn -1.0 0.0 -0.0
vn 0.0 0.0 1.0
vn 0.0 0.0 1.0
vn 0.0 0.0 1.0
vn 0.0 0.0 1.0
vn 0.0 0.0 1.0
vn 0.0 0.0 1.0
vn -1.0 0.0 0.0
vn -1.0 0.0 0.0
vn -1.0 0.0 0.0
vn -1.0 0.0 0.0
vn -1.0 0.0 0.0
vn -1.0 0.0 0.0
vn 1.0 0.0 0.0
vn 1.0 0.0 0.0
vn 1.0 0.0 0.0
vn 1.0 0.0 0.0
vn 1.0 0.0 0.0
vn 1.0 0.0 0.0
vn 0.0 1.0 0.0
vn 0.0 1.0 0.0
vn 0.0 1.0 0.0
vn 0.0 1.0 0.0
vn 0.0 1.0 0.0
vn 0.0 1.0 0.0
vn 0.0 -1.0 0.0
vn 0.0 -1.0 0.0
vn 0.0 -1.0 0.0
vn 0.0 -1.0 0.0
vn 0.0 -1.0 0.0
vn 0.0 -1.0 0.0
vn 0.0 0.0 1.0
vn 0.0 0.0 1.0
vn 0.0 0.0 1.0
vn 0.0 0.0 1.0
vn 0.0 0.0 1.0
vn 0.0 0.0 1.0
vn -1.0 0.0 0.0
vn -1.0 0.0 0.0
vn -1.0 0.0 0.0
vn -1.0 0.0 0.0
vn -1.0 0.0 0.0
vn -1.0 0.0 0.0
vn 1.0 0.0 0.0
vn 1.0 0.0 0.0
vn 1.0 0.0 0.0
vn 1.0 0.0 0.0
vn 1.0 0.0 0.0
vn 1.0 0.0 0.0
vn 0.0 1.0 0.0
vn 0.0 1.0 0.0
vn 0.0 1.0 0.0
vn 0.0 1.0 0.0
vn 0.0 1.0 0.0
vn 0.0 1.0 0.0
vn 0.0 -1.0 0.0
vn 0.0 -1.0 0.0
vn 0.0 -1.0 0.0
vn 0.0 -1.0 0.0
vn 0.0 -1.0 0.0
vn 0.0 -1.0 0.0

# group, 154 grouped triangles

usemtl shop.jpg
o group
g group

f 14/1/1 16/2/2 8/3/3
f 8/4/4 6/5/5 14/6/6
f 13/7/7 14/8/8 6/9/9
f 6/10/10 5/11/11 13/12/12
f 16/13/13 15/14/14 7/15/15
f 7/16/16 8/17/17 16/18/18
f 17/19/19 19/20/20 11/21/21
f 11/22/22 9/23/23 17/24/24
f 19/25/25 18/26/26 10/27/27
f 10/28/28 11/29/29 19/30/30
f 18/31/31 20/32/32 12/33/33
f 12/34/34 10/35/35 18/36/36
f 6/37/37 8/38/38 3/39/39
f 4/40/40 5/41/41 6/42/42
f 4/43/43 6/44/44 3/45/45
f 8/46/46 11/47/47 1/48/48
f 8/49/49 1/50/50 3/51/51
f 11/52/52 8/53/53 7/54/54
f 9/55/55 11/56/56 7/57/57
f 1/58/58 11/59/59 10/60/60
f 10/61/61 12/62/62 2/63/63
f 10/64/64 2/65/65 1/66/66
f 16/67/67 14/68/68 13/69/69
f 13/70/70 15/71/71 16/72/72
f 17/73/73 18/74/74 19/75/75
f 20/76/76 18/77/77 17/78/78
f 22/79/79 24/80/80 21/81/81
f 22/82/82 26/83/83 24/84/84
f 22/85/85 25/86/86 26/87/87
f 22/88/88 23/89/89 25/90/90
f 27/91/91 25/92/92 23/93/93
f 27/94/94 30/95/95 25/96/96
f 27/97/97 29/98/98 30/99/99
f 27/100/100 28/101/101 29/102/102
f 32/103/103 34/104/104 31/105/105
f 32/106/106 36/107/107 34/108/108
f 32/109/109 35/110/110 36/111/111
f 32/112/112 33/113/113 35/114/114
f 37/115/115 35/116/116 33/117/117
f 37/118/118 40/119/119 35/120/120
f 37/121/121 39/122/122 40/123/123
f 37/124/124 38/125/125 39/126/126
f 41/127/127 42/128/128 43/129/129
f 42/130/130 44/131/131 43/132/132
f 43/133/133 46/134/134 41/135/135
f 43/136/136 48/137/137 46/138/138
f 47/139/139 42/140/140 45/141/141
f 47/142/142 44/143/143 42/144/144
f 43/145/145 47/146/146 48/147/147
f 43/148/148 44/149/149 47/150/150
f 42/151/151 46/152/152 45/153/153
f 42/154/154 41/155/155 46/156/156
f 49/157/157 50/158/158 41/159/159
f 50/160/160 42/161/161 41/162/162
f 41/163/163 52/164/164 49/165/165
f 41/166/166 46/167/167 52/168/168
f 45/169/169 50/170/170 51/171/171
f 45/172/172 42/173/173 50/174/174
f 41/175/175 45/176/176 46/177/177
f 41/178/178 42/179/179 45/180/180
f 54/181/181 56/182/182 55/183/183
f 54/184/184 53/185/185 56/186/186
f 50/187/187 54/188/188 55/189/189
f 55/190/190 51/191/191 50/192/192
f 49/193/193 53/194/194 54/195/195
f 54/196/196 50/197/197 49/198/198
f 52/199/199 56/200/200 53/201/201
f 53/202/202 49/203/203 52/204/204
f 51/205/205 52/206/206 50/207/207
f 52/208/208 49/209/209 50/210/210
f 57/211/211 58/212/212 59/213/213
f 58/214/214 60/215/215 59/216/216
f 59/217/217 62/218/218 57/219/219
f 59/220/220 64/221/221 62/222/222
f 63/223/223 58/224/224 61/225/225
f 63/226/226 60/227/227 58/228/228
f 59/229/229 63/230/230 64/231/231
f 59/232/232 60/233/233 63/234/234
f 58/235/235 62/236/236 61/237/237
f 58/238/238 57/239/239 62/240/240
f 65/241/241 66/242/242 57/243/243
f 66/244/244 58/245/245 57/246/246
f 57/247/247 68/248/248 65/249/249
f 57/250/250 62/251/251 68/252/252
f 61/253/253 66/254/254 67/255/255
f 61/256/256 58/257/257 66/258/258
f 57/259/259 61/260/260 62/261/261
f 57/262/262 58/263/263 61/264/264
f 70/265/265 72/266/266 71/267/267
f 70/268/268 69/269/269 72/270/270
f 66/271/271 70/272/272 71/273/273
f 71/274/274 67/275/275 66/276/276
f 65/277/277 69/278/278 70/279/279
f 70/280/280 66/281/281 65/282/282
f 68/283/283 72/284/284 69/285/285
f 69/286/286 65/287/287 68/288/288
f 67/289/289 68/290/290 66/291/291
f 68/292/292 65/293/293 66/294/294
f 81/295/295 80/296/296 79/297/297
f 82/298/298 83/299/299 84/300/300
f 81/301/301 82/302/302 84/303/303
f 81/304/304 84/305/305 80/306/306
f 73/307/307 79/308/308 80/309/309
f 80/310/310 74/311/311 73/312/312
f 75/313/313 81/314/314 79/315/315
f 79/316/316 73/317/317 75/318/318
f 77/319/319 83/320/320 82/321/321
f 82/322/322 76/323/323 77/324/324
f 78/325/325 84/326/326 83/327/327
f 83/328/328 77/329/329 78/330/330
f 76/331/331 82/332/332 81/333/333
f 81/334/334 75/335/335 76/336/336
f 73/337/337 74/338/338 75/339/339
f 78/340/340 77/341/341 76/342/342
f 78/343/343 76/344/344 75/345/345
f 74/346/346 78/347/347 75/348/348
f 93/349/349 92/350/350 91/351/351
f 94/352/352 95/353/353 96/354/354
f 93/355/355 94/356/356 96/357/357
f 93/358/358 96/359/359 92/360/360
f 85/361/361 91/362/362 92/363/363
f 92/364/364 86/365/365 85/366/366
f 87/367/367 93/368/368 91/369/369
f 91/370/370 85/371/371 87/372/372
f 89/373/373 95/374/374 94/375/375
f 94/376/376 88/377/377 89/378/378
f 90/379/379 96/380/380 95/381/381
f 95/382/382 89/383/383 90/384/384
f 88/385/385 94/386/386 93/387/387
f 93/388/388 87/389/389 88/390/390
f 85/391/391 86/392/392 87/393/393
f 90/394/394 89/395/395 88/396/396
f 90/397/397 88/398/398 87/399/399
f 86/400/400 90/401/401 87/402/402
f 97/403/403 98/404/404 99/405/405
f 98/406/406 100/407/407 99/408/408
f 99/409/409 102/410/410 97/411/411
f 99/412/412 104/413/413 102/414/414
f 103/415/415 98/416/416 101/417/417
f 103/418/418 100/419/419 98/420/420
f 99/421/421 103/422/422 104/423/423
f 99/424/424 100/425/425 103/426/426
f 98/427/427 102/428/428 101/429/429
f 98/430/430 97/431/431 102/432/432
f 105/433/433 106/434/434 107/435/435
f 106/436/436 108/437/437 107/438/438
f 107/439/439 110/440/440 105/441/441
f 107/442/442 112/443/443 110/444/444
f 111/445/445 106/446/446 109/447/447
f 111/448/448 108/449/449 106/450/450
f 107/451/451 111/452/452 112/453/453
f 107/454/454 108/455/455 111/456/456
f 106/457/457 110/458/458 109/459/459
f 106/460/460 105/461/461 110/462/462
