# Wavefront OBJ file
# Exported by Maverick Model 3D 1.3.15
# Mon Sep 14 12:12:22 2026

mtllib floor.mtl

# 60 Vertices
v 5.0 5.0 5.0
v 5.0 -0.0 5.0
v -5.0 5.0 5.0
v -5.0 -0.0 5.0
v -3.941 0.34 5.148
v -2.298 0.34 5.148
v -3.941 0.093 5.148
v -2.298 0.093 5.148
v -2.298 0.34 4.991
v -3.941 0.34 4.991
v -2.298 0.093 4.991
v -3.941 0.093 4.991
v -0.952 0.334 5.148
v 0.717 0.334 5.148
v -0.952 0.071 5.148
v 0.717 0.071 5.148
v 0.717 0.334 4.991
v -0.952 0.334 4.991
v 0.717 0.071 4.991
v -0.952 0.071 4.991
v 2.147 0.333 5.148
v 3.806 0.333 5.148
v 2.147 0.091 5.148
v 3.806 0.091 5.148
v 3.806 0.333 4.991
v 2.147 0.333 4.991
v 3.806 0.091 4.991
v 2.147 0.091 4.991
v -4.864 4.213 5.119
v 4.859 4.213 5.119
v -4.864 4.654 5.119
v 4.859 4.654 5.119
v 4.859 4.213 4.978
v -4.864 4.213 4.978
v 4.859 4.654 4.978
v -4.864 4.654 4.978
v -3.253 3.456 5.12
v -2.969 3.456 5.12
v -3.334 4.654 5.189
v -2.857 4.654 5.189
v -2.969 3.456 4.978
v -3.253 3.456 4.978
v -2.857 4.654 4.978
v -3.334 4.654 4.978
v -0.279 3.456 5.12
v 0.042 3.456 5.12
v -0.37 4.654 5.189
v 0.169 4.654 5.189
v 0.042 3.456 4.978
v -0.279 3.456 4.978
v 0.169 4.654 4.978
v -0.37 4.654 4.978
v 2.825 3.456 5.12
v 3.146 3.456 5.12
v 2.734 4.654 5.189
v 3.273 4.654 5.189
v 3.146 3.456 4.978
v 2.825 3.456 4.978
v 3.273 4.654 4.978
v 2.734 4.654 4.978

# 216 Texture Coordinates
vt 0.0 1.0
vt 0.0 0.0
vt 1.0 0.0
vt 1.0 0.0
vt 1.0 1.0
vt 0.0 1.0
vt 0.249794 0.841904
vt 0.389494 0.929197
vt 0.249794 0.929197
vt 0.249794 0.841904
vt 0.389494 0.841904
vt 0.389494 0.929197
vt 0.249794 0.929197
vt 0.249794 0.929197
vt 0.249794 0.841904
vt 0.249794 0.929197
vt 0.249794 0.841904
vt 0.249794 0.841904
vt 0.389494 0.929197
vt 0.389494 0.929197
vt 0.389494 0.841904
vt 0.389494 0.929197
vt 0.389494 0.841904
vt 0.389494 0.841904
vt 0.252697 0.919936
vt 0.384546 0.919936
vt 0.252697 0.843428
vt 0.384546 0.919936
vt 0.384546 0.843428
vt 0.252697 0.843428
vt 0.384546 0.919936
vt 0.252697 0.919936
vt 0.384546 0.843428
vt 0.252697 0.919936
vt 0.252697 0.843428
vt 0.384546 0.843428
vt 0.555269 0.842137
vt 0.696268 0.934927
vt 0.555269 0.934927
vt 0.555269 0.842137
vt 0.696268 0.842137
vt 0.696268 0.934927
vt 0.555269 0.934927
vt 0.555269 0.934927
vt 0.555269 0.842137
vt 0.555269 0.934927
vt 0.555269 0.842137
vt 0.555269 0.842137
vt 0.696268 0.934927
vt 0.696268 0.934927
vt 0.696268 0.842137
vt 0.696268 0.934927
vt 0.696268 0.842137
vt 0.696268 0.842137
vt 0.557679 0.921759
vt 0.695923 0.921759
vt 0.557679 0.847627
vt 0.695923 0.921759
vt 0.695923 0.847627
vt 0.557679 0.847627
vt 0.695923 0.921759
vt 0.557679 0.921759
vt 0.695923 0.847627
vt 0.557679 0.921759
vt 0.557679 0.847627
vt 0.695923 0.847627
vt 0.844757 0.845458
vt 0.980372 0.929726
vt 0.844757 0.929725
vt 0.844757 0.845458
vt 0.980372 0.845458
vt 0.980372 0.929726
vt 0.844757 0.929725
vt 0.844757 0.929725
vt 0.844757 0.845458
vt 0.844757 0.929725
vt 0.844757 0.845458
vt 0.844757 0.845458
vt 0.980372 0.929726
vt 0.980372 0.929726
vt 0.980372 0.845458
vt 0.980372 0.929726
vt 0.980372 0.845458
vt 0.980372 0.845458
vt 0.85169 0.914006
vt 0.980252 0.914006
vt 0.85169 0.84027
vt 0.980252 0.914006
vt 0.980252 0.84027
vt 0.85169 0.84027
vt 0.980252 0.914006
vt 0.85169 0.914006
vt 0.980252 0.84027
vt 0.85169 0.914006
vt 0.85169 0.84027
vt 0.980252 0.84027
vt 0.012934 0.843884
vt 0.984361 0.843884
vt 0.012934 0.919881
vt 0.984361 0.843884
vt 0.984361 0.919881
vt 0.012934 0.919881
vt 0.012934 0.919881
vt 0.012934 0.843884
vt 0.012934 0.843884
vt 0.012934 0.919881
vt 0.012934 0.919881
vt 0.012934 0.843884
vt 0.984361 0.919881
vt 0.984361 0.843884
vt 0.984361 0.843884
vt 0.984361 0.919881
vt 0.984361 0.919881
vt 0.984361 0.843884
vt 0.012934 0.919881
vt 0.984361 0.919881
vt 0.012934 0.919881
vt 0.012934 0.919881
vt 0.984361 0.919881
vt 0.984361 0.919881
vt 0.984361 0.843884
vt 0.012934 0.843884
vt 0.984361 0.843884
vt 0.984361 0.843884
vt 0.012934 0.843884
vt 0.012934 0.843884
vt 0.176333 0.719917
vt 0.206726 0.719917
vt 0.167708 0.920748
vt 0.206726 0.719917
vt 0.218743 0.920748
vt 0.167708 0.920748
vt 0.167708 0.920748
vt 0.176333 0.719917
vt 0.176333 0.719917
vt 0.167708 0.920748
vt 0.167708 0.920748
vt 0.176333 0.719917
vt 0.218743 0.920748
vt 0.206726 0.719917
vt 0.206726 0.719917
vt 0.218743 0.920748
vt 0.218743 0.920748
vt 0.206726 0.719917
vt 0.167708 0.920748
vt 0.218743 0.920748
vt 0.167708 0.920748
vt 0.167708 0.920748
vt 0.218743 0.920748
vt 0.218743 0.920748
vt 0.206726 0.719917
vt 0.176333 0.719917
vt 0.206726 0.719917
vt 0.206726 0.719917
vt 0.176333 0.719917
vt 0.176333 0.719917
vt 0.471111 0.719917
vt 0.501504 0.719917
vt 0.462489 0.920748
vt 0.501504 0.719917
vt 0.51352 0.920748
vt 0.462489 0.920748
vt 0.462489 0.920748
vt 0.471111 0.719917
vt 0.471111 0.719917
vt 0.462489 0.920748
vt 0.462489 0.920748
vt 0.471111 0.719917
vt 0.51352 0.920748
vt 0.501504 0.719917
vt 0.501504 0.719917
vt 0.51352 0.920748
vt 0.51352 0.920748
vt 0.501504 0.719917
vt 0.462489 0.920748
vt 0.51352 0.920748
vt 0.462489 0.920748
vt 0.462489 0.920748
vt 0.51352 0.920748
vt 0.51352 0.920748
vt 0.501504 0.719917
vt 0.471111 0.719917
vt 0.501504 0.719917
vt 0.501504 0.719917
vt 0.471111 0.719917
vt 0.471111 0.719917
vt 0.777665 0.720932
vt 0.808058 0.720932
vt 0.769039 0.921763
vt 0.808058 0.720932
vt 0.820074 0.921763
vt 0.769039 0.921763
vt 0.769039 0.921763
vt 0.777665 0.720932
vt 0.777665 0.720932
vt 0.769039 0.921763
vt 0.769039 0.921763
vt 0.777665 0.720932
vt 0.820074 0.921763
vt 0.808058 0.720932
vt 0.808058 0.720932
vt 0.820074 0.921763
vt 0.820074 0.921763
vt 0.808058 0.720932
vt 0.769039 0.921763
vt 0.820074 0.921763
vt 0.769039 0.921763
vt 0.769039 0.921763
vt 0.820074 0.921763
vt 0.820074 0.921763
vt 0.808058 0.720932
vt 0.777665 0.720932
vt 0.808058 0.720932
vt 0.808058 0.720932
vt 0.777665 0.720932
vt 0.777665 0.720932

# 216 Vertex Normals
vn 0.0 0.0 1.0
vn 0.0 0.0 1.0
vn 0.0 0.0 1.0
vn 0.0 0.0 1.0
vn 0.0 0.0 1.0
vn 0.0 0.0 1.0
vn 0.0 0.0 1.0
vn 0.0 0.0 1.0
vn 0.0 0.0 1.0
vn 0.0 0.0 1.0
vn 0.0 0.0 1.0
vn 0.0 0.0 1.0
vn -1.0 0.0 0.0
vn -1.0 0.0 0.0
vn -1.0 0.0 0.0
vn -1.0 0.0 0.0
vn -1.0 0.0 0.0
vn -1.0 0.0 0.0
vn 1.0 0.0 0.0
vn 1.0 0.0 0.0
vn 1.0 0.0 0.0
vn 1.0 0.0 0.0
vn 1.0 0.0 0.0
vn 1.0 0.0 0.0
vn 0.0 -1.0 0.0
vn 0.0 -1.0 0.0
vn 0.0 -1.0 0.0
vn 0.0 -1.0 0.0
vn 0.0 -1.0 0.0
vn 0.0 -1.0 0.0
vn 0.0 1.0 0.0
vn 0.0 1.0 0.0
vn 0.0 1.0 0.0
vn 0.0 1.0 0.0
vn 0.0 1.0 0.0
vn 0.0 1.0 0.0
vn 0.0 0.0 1.0
vn 0.0 0.0 1.0
vn 0.0 0.0 1.0
vn 0.0 0.0 1.0
vn 0.0 0.0 1.0
vn 0.0 0.0 1.0
vn -1.0 0.0 0.0
vn -1.0 0.0 0.0
vn -1.0 0.0 0.0
vn -1.0 0.0 0.0
vn -1.0 0.0 0.0
vn -1.0 0.0 0.0
vn 1.0 0.0 0.0
vn 1.0 0.0 0.0
vn 1.0 0.0 0.0
vn 1.0 0.0 0.0
vn 1.0 0.0 0.0
vn 1.0 0.0 0.0
vn 0.0 -1.0 0.0
vn 0.0 -1.0 0.0
vn 0.0 -1.0 0.0
vn 0.0 -1.0 0.0
vn 0.0 -1.0 0.0
vn 0.0 -1.0 0.0
vn 0.0 1.0 0.0
vn 0.0 1.0 0.0
vn 0.0 1.0 0.0
vn 0.0 1.0 0.0
vn 0.0 1.0 0.0
vn 0.0 1.0 0.0
vn 0.0 0.0 1.0
vn 0.0 0.0 1.0
vn 0.0 0.0 1.0
vn 0.0 0.0 1.0
vn 0.0 0.0 1.0
vn 0.0 0.0 1.0
vn -1.0 0.0 0.0
vn -1.0 0.0 0.0
vn -1.0 0.0 0.0
vn -1.0 0.0 0.0
vn -1.0 0.0 0.0
vn -1.0 0.0 0.0
vn 1.0 0.0 0.0
vn 1.0 0.0 0.0
vn 1.0 0.0 0.0
vn 1.0 0.0 0.0
vn 1.0 0.0 0.0
vn 1.0 0.0 0.0
vn 0.0 -1.0 0.0
vn 0.0 -1.0 0.0
vn 0.0 -1.0 0.0
vn 0.0 -1.0 0.0
vn 0.0 -1.0 0.0
vn 0.0 -1.0 0.0
vn 0.0 1.0 0.0
vn 0.0 1.0 0.0
vn 0.0 1.0 0.0
vn 0.0 1.0 0.0
vn 0.0 1.0 0.0
vn 0.0 1.0 0.0
vn 0.0 0.0 1.0
vn 0.0 0.0 1.0
vn 0.0 0.0 1.0
vn 0.0 0.0 1.0
vn 0.0 0.0 1.0
vn 0.0 0.0 1.0
vn -1.0 0.0 0.0
vn -1.0 0.0 0.0
vn -1.0 0.0 0.0
vn -1.0 0.0 0.0
vn -1.0 0.0 0.0
vn -1.0 0.0 0.0
vn 1.0 0.0 0.0
vn 1.0 0.0 0.0
vn 1.0 0.0 0.0
vn 1.0 0.0 0.0
vn 1.0 0.0 0.0
vn 1.0 0.0 0.0
vn 0.0 1.0 0.0
vn 0.0 1.0 0.0
vn 0.0 1.0 0.0
vn 0.0 1.0 0.0
vn 0.0 1.0 0.0
vn 0.0 1.0 0.0
vn 0.0 -1.0 0.0
vn 0.0 -1.0 0.0
vn 0.0 -1.0 0.0
vn 0.0 -1.0 0.0
vn 0.0 -1.0 0.0
vn 0.0 -1.0 0.0
vn 0.0 -0.72716 0.686468
vn 0.0 -0.72716 0.686468
vn 0.0 -0.057523 0.998344
vn 0.0 -0.72716 0.686468
vn 0.0 -0.057523 0.998344
vn 0.0 -0.057523 0.998344
vn -0.99772 -0.067484 0.0
vn -0.682831 -0.730577 0.0
vn -0.682831 -0.730577 0.0
vn -0.99772 -0.067484 0.0
vn -0.99772 -0.067484 0.0
vn -0.682831 -0.730577 0.0
vn 0.995655 -0.093119 0.0
vn 0.67338 -0.739296 0.0
vn 0.67338 -0.739296 0.0
vn 0.995655 -0.093119 0.0
vn 0.995655 -0.093119 0.0
vn 0.67338 -0.739296 0.0
vn 0.0 1.0 0.0
vn 0.0 1.0 0.0
vn 0.0 1.0 0.0
vn 0.0 1.0 0.0
vn 0.0 1.0 0.0
vn 0.0 1.0 0.0
vn 0.547097 -0.632259 0.548574
vn -0.682831 -0.730577 0.0
vn 0.67338 -0.739296 0.0
vn 0.547097 -0.632259 0.548574
vn -0.552775 -0.623296 0.55312
vn -0.682831 -0.730577 0.0
vn 0.0 -0.72716 0.686468
vn 0.0 -0.72716 0.686468
vn 0.0 -0.057523 0.998344
vn 0.0 -0.72716 0.686468
vn 0.0 -0.057523 0.998344
vn 0.0 -0.057523 0.998344
vn -0.997125 -0.07577 0.0
vn -0.67979 -0.733407 0.0
vn -0.67979 -0.733407 0.0
vn -0.997125 -0.07577 0.0
vn -0.997125 -0.07577 0.0
vn -0.67979 -0.733407 0.0
vn 0.994424 -0.105459 0.0
vn 0.668783 -0.743458 0.0
vn 0.668783 -0.743458 0.0
vn 0.994424 -0.105459 0.0
vn 0.994424 -0.105459 0.0
vn 0.668783 -0.743458 0.0
vn 0.0 1.0 0.0
vn 0.0 1.0 0.0
vn 0.0 1.0 0.0
vn 0.0 1.0 0.0
vn 0.0 1.0 0.0
vn 0.0 1.0 0.0
vn 0.54428 -0.636537 0.546425
vn -0.67979 -0.733407 0.0
vn 0.668783 -0.743458 0.0
vn 0.54428 -0.636537 0.546425
vn -0.550965 -0.626205 0.551638
vn -0.67979 -0.733407 0.0
vn 0.0 -0.72716 0.686468
vn 0.0 -0.72716 0.686468
vn 0.0 -0.057523 0.998344
vn 0.0 -0.72716 0.686468
vn 0.0 -0.057523 0.998344
vn 0.0 -0.057523 0.998344
vn -0.997125 -0.07577 0.0
vn -0.67979 -0.733407 0.0
vn -0.67979 -0.733407 0.0
vn -0.997125 -0.07577 0.0
vn -0.997125 -0.07577 0.0
vn -0.67979 -0.733407 0.0
vn 0.994424 -0.105459 0.0
vn 0.668783 -0.743458 0.0
vn 0.668783 -0.743458 0.0
vn 0.994424 -0.105459 0.0
vn 0.994424 -0.105459 0.0
vn 0.668783 -0.743458 0.0
vn 0.0 1.0 0.0
vn 0.0 1.0 0.0
vn 0.0 1.0 0.0
vn 0.0 1.0 0.0
vn 0.0 1.0 0.0
vn 0.0 1.0 0.0
vn 0.54428 -0.636537 0.546425
vn -0.67979 -0.733407 0.0
vn 0.668783 -0.743458 0.0
vn 0.54428 -0.636537 0.546425
vn -0.550965 -0.626205 0.551639
vn -0.67979 -0.733407 0.0

# group, 72 grouped triangles

usemtl floor.jpg
o group
g group

f 3/1/1 4/2/2 2/3/3
f 2/4/4 1/5/5 3/6/6
f 7/7/7 6/8/8 5/9/9
f 7/10/10 8/11/11 6/12/12
f 5/13/13 10/14/14 7/15/15
f 10/16/16 12/17/17 7/18/18
f 9/19/19 6/20/20 11/21/21
f 6/22/22 8/23/23 11/24/24
f 12/25/25 11/26/26 7/27/27
f 11/28/28 8/29/29 7/30/30
f 9/31/31 10/32/32 6/33/33
f 10/34/34 5/35/35 6/36/36
f 15/37/37 14/38/38 13/39/39
f 15/40/40 16/41/41 14/42/42
f 13/43/43 18/44/44 15/45/45
f 18/46/46 20/47/47 15/48/48
f 17/49/49 14/50/50 19/51/51
f 14/52/52 16/53/53 19/54/54
f 20/55/55 19/56/56 15/57/57
f 19/58/58 16/59/59 15/60/60
f 17/61/61 18/62/62 14/63/63
f 18/64/64 13/65/65 14/66/66
f 23/67/67 22/68/68 21/69/69
f 23/70/70 24/71/71 22/72/72
f 21/73/73 26/74/74 23/75/75
f 26/76/76 28/77/77 23/78/78
f 25/79/79 22/80/80 27/81/81
f 22/82/82 24/83/83 27/84/84
f 28/85/85 27/86/86 23/87/87
f 27/88/88 24/89/89 23/90/90
f 25/91/91 26/92/92 22/93/93
f 26/94/94 21/95/95 22/96/96
f 29/97/97 30/98/98 31/99/99
f 30/100/100 32/101/101 31/102/102
f 31/103/103 34/104/104 29/105/105
f 31/106/106 36/107/107 34/108/108
f 35/109/109 30/110/110 33/111/111
f 35/112/112 32/113/113 30/114/114
f 31/115/115 35/116/116 36/117/117
f 31/118/118 32/119/119 35/120/120
f 30/121/121 34/122/122 33/123/123
f 30/124/124 29/125/125 34/126/126
f 37/127/127 38/128/128 39/129/129
f 38/130/130 40/131/131 39/132/132
f 39/133/133 42/134/134 37/135/135
f 39/136/136 44/137/137 42/138/138
f 43/139/139 38/140/140 41/141/141
f 43/142/142 40/143/143 38/144/144
f 39/145/145 43/146/146 44/147/147
f 39/148/148 40/149/149 43/150/150
f 38/151/151 42/152/152 41/153/153
f 38/154/154 37/155/155 42/156/156
f 45/157/157 46/158/158 47/159/159
f 46/160/160 48/161/161 47/162/162
f 47/163/163 50/164/164 45/165/165
f 47/166/166 52/167/167 50/168/168
f 51/169/169 46/170/170 49/171/171
f 51/172/172 48/173/173 46/174/174
f 47/175/175 51/176/176 52/177/177
f 47/178/178 48/179/179 51/180/180
f 46/181/181 50/182/182 49/183/183
f 46/184/184 45/185/185 50/186/186
f 53/187/187 54/188/188 55/189/189
f 54/190/190 56/191/191 55/192/192
f 55/193/193 58/194/194 53/195/195
f 55/196/196 60/197/197 58/198/198
f 59/199/199 54/200/200 57/201/201
f 59/202/202 56/203/203 54/204/204
f 55/205/205 59/206/206 60/207/207
f 55/208/208 56/209/209 59/210/210
f 54/211/211 58/212/212 57/213/213
f 54/214/214 53/215/215 58/216/216
