# Wavefront OBJ file
# Exported by Maverick Model 3D 1.3.15
# Mon Sep 14 11:45:33 2026

mtllib shop.mtl

# 48 Vertices
v 5.0 4.68 5.0
v -5.0 4.68 5.0
v 5.0 0.0 5.0
v -5.0 0.0 5.0
v -5.0 3.76 6.31
v 5.0 3.76 6.31
v -5.0 3.629 6.3
v 5.0 3.629 6.3
v -5.0 3.629 6.3
v 5.0 3.629 6.3
v -5.0 4.754 5.16
v 5.0 4.754 5.16
v -5.0 4.893 5.16
v 5.0 4.893 5.16
v 1.781 1.217 5.17
v 4.511 1.217 5.17
v 1.781 1.282 5.17
v 4.511 1.282 5.17
v 4.511 1.217 5.0
v 1.781 1.217 5.0
v 4.511 1.282 5.0
v 1.781 1.282 5.0
v -4.291 1.271 5.17
v -0.691 1.271 5.17
v -4.291 1.336 5.17
v -0.691 1.336 5.17
v -0.691 1.271 5.0
v -4.291 1.271 5.0
v -0.691 1.336 5.0
v -4.291 1.336 5.0
v -0.16 0.223 5.29
v 1.14 0.223 5.29
v -0.16 0.464 5.29
v 1.14 0.464 5.29
v 1.4 0.223 5.0
v -0.35 0.223 5.0
v 1.4 0.464 5.0
v -0.35 0.464 5.0
v -0.31 0.0 5.58
v 1.28 0.0 5.58
v -0.31 0.227 5.58
v 1.28 0.227 5.58
v 1.75 0.0 4.99
v -0.71 0.0 4.99
v 1.75 0.227 4.99
v -0.71 0.227 4.99
v -5.0 5.0 5.0
v 5.0 5.0 5.0

# 180 Texture Coordinates
vt 0.0 1.0
vt 0.0 0.446723
vt 0.999224 0.446723
vt 0.999224 0.446723
vt 0.999224 1.0
vt 0.0 1.0
vt 0.053992 0.429643
vt 0.053992 0.33465
vt 0.967369 0.33465
vt 0.967369 0.33465
vt 0.967369 0.429643
vt 0.053992 0.429643
vt 0.967369 0.33465
vt 0.053992 0.33465
vt 0.053992 0.429643
vt 0.053992 0.429643
vt 0.967369 0.429643
vt 0.967369 0.33465
vt 0.053992 0.33465
vt 0.053992 0.321682
vt 0.967369 0.321682
vt 0.967369 0.321682
vt 0.967369 0.33465
vt 0.053992 0.33465
vt 0.967369 0.321682
vt 0.053992 0.321682
vt 0.053992 0.33465
vt 0.053992 0.33465
vt 0.967369 0.33465
vt 0.967369 0.321682
vt 0.0 0.974962
vt 0.99986 0.974962
vt 0.0 0.989632
vt 0.99986 0.974962
vt 0.99986 0.989632
vt 0.0 0.989632
vt 0.6771 0.59073
vt 0.949185 0.591018
vt 0.6771 0.597993
vt 0.949185 0.591018
vt 0.949185 0.598282
vt 0.6771 0.597993
vt 0.6771 0.597993
vt 0.6771 0.59073
vt 0.6771 0.59073
vt 0.6771 0.597993
vt 0.6771 0.597993
vt 0.6771 0.59073
vt 0.949185 0.598282
vt 0.949185 0.591018
vt 0.949185 0.591018
vt 0.949185 0.598282
vt 0.949185 0.598282
vt 0.949185 0.591018
vt 0.6771 0.597993
vt 0.949185 0.598282
vt 0.6771 0.597993
vt 0.6771 0.597993
vt 0.949185 0.598282
vt 0.949185 0.598282
vt 0.949185 0.591018
vt 0.6771 0.59073
vt 0.949185 0.591018
vt 0.949185 0.591018
vt 0.6771 0.59073
vt 0.6771 0.59073
vt 0.076417 0.594437
vt 0.425518 0.59487
vt 0.076417 0.604451
vt 0.425518 0.59487
vt 0.425518 0.604884
vt 0.076417 0.604451
vt 0.076417 0.604451
vt 0.076417 0.594437
vt 0.076417 0.594437
vt 0.076417 0.604451
vt 0.076417 0.604451
vt 0.076417 0.594437
vt 0.425518 0.604884
vt 0.425518 0.59487
vt 0.425518 0.59487
vt 0.425518 0.604884
vt 0.425518 0.604884
vt 0.425518 0.59487
vt 0.076417 0.604451
vt 0.425518 0.604884
vt 0.076417 0.604451
vt 0.076417 0.604451
vt 0.425518 0.604884
vt 0.425518 0.604884
vt 0.425518 0.59487
vt 0.076417 0.594437
vt 0.425518 0.59487
vt 0.425518 0.59487
vt 0.076417 0.594437
vt 0.076417 0.594437
vt 0.488699 0.469625
vt 0.602962 0.469625
vt 0.488699 0.501325
vt 0.602962 0.469625
vt 0.602962 0.501325
vt 0.488699 0.501325
vt 0.488699 0.501325
vt 0.471964 0.469625
vt 0.488699 0.469625
vt 0.488699 0.501325
vt 0.471964 0.501325
vt 0.471964 0.469625
vt 0.626 0.501325
vt 0.602962 0.469625
vt 0.626 0.469625
vt 0.626 0.501325
vt 0.602962 0.501325
vt 0.602962 0.469625
vt 0.570092 0.326053
vt 0.646588 0.332672
vt 0.56077 0.332672
vt 0.570092 0.326053
vt 0.633753 0.326053
vt 0.646588 0.332672
vt 0.633753 0.326053
vt 0.56077 0.332672
vt 0.646588 0.332672
vt 0.633753 0.326053
vt 0.570092 0.326053
vt 0.56077 0.332672
vt 0.475979 0.448014
vt 0.615703 0.448014
vt 0.475979 0.469452
vt 0.615703 0.448014
vt 0.615703 0.469452
vt 0.475979 0.469452
vt 0.475979 0.469452
vt 0.440457 0.448014
vt 0.475979 0.448014
vt 0.475979 0.469452
vt 0.440457 0.469452
vt 0.440457 0.448014
vt 0.656524 0.469452
vt 0.615703 0.448014
vt 0.656524 0.448014
vt 0.656524 0.469452
vt 0.615703 0.469452
vt 0.615703 0.448014
vt 0.563006 0.319347
vt 0.663593 0.332894
vt 0.543215 0.332894
vt 0.563006 0.319347
vt 0.640851 0.319347
vt 0.663593 0.332894
vt 0.640851 0.319347
vt 0.543215 0.332894
vt 0.663593 0.332894
vt 0.640851 0.319347
vt 0.563006 0.319347
vt 0.543215 0.332894
vt 0.0 0.967643
vt 0.99986 0.967643
vt 0.0 0.974962
vt 0.99986 0.967643
vt 0.99986 0.974962
vt 0.0 0.974962
vt 0.0 0.989632
vt 0.99986 0.989632
vt 0.0 1.0
vt 0.99986 0.989632
vt 0.99986 1.0
vt 0.0 1.0
vt 0.985221 0.991414
vt 0.985221 0.980186
vt 1.0 0.974242
vt 1.0 1.0
vt 0.985221 0.991414
vt 1.0 0.974242
vt 1.0 0.974242
vt 0.985221 0.980186
vt 0.985221 0.991414
vt 1.0 0.974242
vt 0.985221 0.991414
vt 1.0 1.0

# 180 Vertex Normals
vn 0.0 0.20019 0.979757
vn 0.0 0.0 1.0
vn 0.0 0.0 1.0
vn 0.0 0.0 1.0
vn 0.0 -0.38193 0.924191
vn 0.0 0.20019 0.979757
vn 0.0 0.461231 0.88728
vn 0.0 0.251214 0.967931
vn 0.0 0.588224 0.808698
vn 0.0 0.588224 0.808698
vn 0.0 0.461231 0.88728
vn 0.0 0.461231 0.88728
vn 0.0 -0.588224 -0.808698
vn 0.0 -0.251214 -0.967931
vn 0.0 -0.961255 -0.275661
vn 0.0 -0.961255 -0.275661
vn 0.0 -0.995014 0.099731
vn 0.0 -0.588224 -0.808698
vn 0.0 0.251214 0.967931
vn 0.0 -0.075896 0.997116
vn 0.0 -0.075896 0.997116
vn 0.0 -0.075896 0.997116
vn 0.0 0.588224 0.808698
vn 0.0 0.251214 0.967931
vn 0.0 0.075896 -0.997116
vn 0.0 0.075896 -0.997116
vn 0.0 -0.251214 -0.967931
vn 0.0 -0.251214 -0.967931
vn 0.0 -0.588224 -0.808698
vn 0.0 0.075896 -0.997116
vn 0.0 -0.702672 0.711514
vn 0.0 -0.351336 0.936249
vn 0.0 0.309602 0.950866
vn 0.0 -0.351336 0.936249
vn 0.0 0.619205 0.78523
vn 0.0 0.309602 0.950866
vn 0.0 0.0 1.0
vn 0.0 0.0 1.0
vn 0.0 0.0 1.0
vn 0.0 0.0 1.0
vn 0.0 0.0 1.0
vn 0.0 0.0 1.0
vn -1.0 0.0 0.0
vn -1.0 0.0 0.0
vn -1.0 0.0 0.0
vn -1.0 0.0 0.0
vn -1.0 0.0 0.0
vn -1.0 0.0 0.0
vn 1.0 0.0 0.0
vn 1.0 0.0 0.0
vn 1.0 0.0 0.0
vn 1.0 0.0 0.0
vn 1.0 0.0 0.0
vn 1.0 0.0 0.0
vn 0.0 1.0 0.0
vn 0.0 1.0 0.0
vn 0.0 1.0 0.0
vn 0.0 1.0 0.0
vn 0.0 1.0 0.0
vn 0.0 1.0 0.0
vn 0.0 -1.0 0.0
vn 0.0 -1.0 0.0
vn 0.0 -1.0 0.0
vn 0.0 -1.0 0.0
vn 0.0 -1.0 0.0
vn 0.0 -1.0 0.0
vn 0.0 0.0 1.0
vn 0.0 0.0 1.0
vn 0.0 0.0 1.0
vn 0.0 0.0 1.0
vn 0.0 0.0 1.0
vn 0.0 0.0 1.0
vn -1.0 0.0 0.0
vn -1.0 0.0 0.0
vn -1.0 0.0 0.0
vn -1.0 0.0 0.0
vn -1.0 0.0 0.0
vn -1.0 0.0 0.0
vn 1.0 0.0 0.0
vn 1.0 0.0 0.0
vn 1.0 0.0 0.0
vn 1.0 0.0 0.0
vn 1.0 0.0 0.0
vn 1.0 0.0 0.0
vn 0.0 1.0 0.0
vn 0.0 1.0 0.0
vn 0.0 1.0 0.0
vn 0.0 1.0 0.0
vn 0.0 1.0 0.0
vn 0.0 1.0 0.0
vn 0.0 -1.0 0.0
vn 0.0 -1.0 0.0
vn 0.0 -1.0 0.0
vn 0.0 -1.0 0.0
vn 0.0 -1.0 0.0
vn 0.0 -1.0 0.0
vn -0.475381 0.0 0.87978
vn 0.40771 0.0 0.913111
vn -0.475381 0.0 0.87978
vn 0.40771 0.0 0.913111
vn 0.40771 0.0 0.913111
vn -0.475381 0.0 0.87978
vn -0.475381 0.0 0.87978
vn -0.836461 0.0 0.548026
vn -0.475381 0.0 0.87978
vn -0.475381 0.0 0.87978
vn -0.836461 0.0 0.548026
vn -0.836461 0.0 0.548026
vn 0.74457 0.0 0.667545
vn 0.40771 0.0 0.913111
vn 0.74457 0.0 0.667545
vn 0.74457 0.0 0.667545
vn 0.40771 0.0 0.913111
vn 0.40771 0.0 0.913111
vn 0.0 1.0 0.0
vn 0.0 1.0 0.0
vn 0.0 1.0 0.0
vn 0.0 1.0 0.0
vn 0.0 1.0 0.0
vn 0.0 1.0 0.0
vn 0.0 -1.0 0.0
vn 0.0 -1.0 0.0
vn 0.0 -1.0 0.0
vn 0.0 -1.0 0.0
vn 0.0 -1.0 0.0
vn 0.0 -1.0 0.0
vn -0.468424 0.0 0.883504
vn 0.434122 0.0 0.900854
vn -0.468424 0.0 0.883504
vn 0.434122 0.0 0.900854
vn 0.434122 0.0 0.900854
vn -0.468424 0.0 0.883504
vn -0.468424 0.0 0.883504
vn -0.827709 0.0 0.561158
vn -0.468424 0.0 0.883504
vn -0.468424 0.0 0.883504
vn -0.827709 0.0 0.561158
vn -0.827709 0.0 0.561158
vn 0.782161 0.0 0.623077
vn 0.434122 0.0 0.900854
vn 0.782161 0.0 0.623077
vn 0.782161 0.0 0.623077
vn 0.434122 0.0 0.900854
vn 0.434122 0.0 0.900854
vn 0.0 1.0 0.0
vn 0.0 1.0 0.0
vn 0.0 1.0 0.0
vn 0.0 1.0 0.0
vn 0.0 1.0 0.0
vn 0.0 1.0 0.0
vn 0.0 -1.0 0.0
vn 0.0 -1.0 0.0
vn 0.0 -1.0 0.0
vn 0.0 -1.0 0.0
vn 0.0 -1.0 0.0
vn 0.0 -1.0 0.0
vn 0.0 -0.894736 0.446596
vn 0.0 -0.901575 0.432624
vn 0.0 -0.702672 0.711514
vn 0.0 -0.901575 0.432624
vn 0.0 -0.351336 0.936249
vn 0.0 -0.702672 0.711514
vn 0.0 0.309602 0.950866
vn 0.0 0.619205 0.78523
vn 0.0 0.83189 0.554941
vn 0.0 0.619205 0.78523
vn 0.0 0.83189 0.554941
vn 0.0 0.83189 0.554941
vn 1.0 0.0 0.0
vn 1.0 0.0 0.0
vn 1.0 0.0 0.0
vn 1.0 0.0 0.0
vn 1.0 0.0 0.0
vn 1.0 0.0 0.0
vn -1.0 0.0 -0.0
vn -1.0 0.0 -0.000003
vn -1.0 0.0 -0.0
vn -1.0 0.0 -0.0
vn -1.0 0.0 -0.0
vn -1.0 0.0 0.000002

# group, 60 grouped triangles

usemtl shop.jpg
o group
g group

f 2/1/1 4/2/2 3/3/3
f 3/4/4 1/5/5 2/6/6
f 2/7/7 5/8/8 6/9/9
f 6/10/10 1/11/11 2/12/12
f 6/13/13 5/14/14 2/15/15
f 2/16/16 1/17/17 6/18/18
f 5/19/19 7/20/20 8/21/21
f 8/22/22 6/23/23 5/24/24
f 10/25/25 9/26/26 5/27/27
f 5/28/28 6/29/29 10/30/30
f 11/31/31 12/32/32 13/33/33
f 12/34/34 14/35/35 13/36/36
f 15/37/37 16/38/38 17/39/39
f 16/40/40 18/41/41 17/42/42
f 17/43/43 20/44/44 15/45/45
f 17/46/46 22/47/47 20/48/48
f 21/49/49 16/50/50 19/51/51
f 21/52/52 18/53/53 16/54/54
f 17/55/55 21/56/56 22/57/57
f 17/58/58 18/59/59 21/60/60
f 16/61/61 20/62/62 19/63/63
f 16/64/64 15/65/65 20/66/66
f 23/67/67 24/68/68 25/69/69
f 24/70/70 26/71/71 25/72/72
f 25/73/73 28/74/74 23/75/75
f 25/76/76 30/77/77 28/78/78
f 29/79/79 24/80/80 27/81/81
f 29/82/82 26/83/83 24/84/84
f 25/85/85 29/86/86 30/87/87
f 25/88/88 26/89/89 29/90/90
f 24/91/91 28/92/92 27/93/93
f 24/94/94 23/95/95 28/96/96
f 31/97/97 32/98/98 33/99/99
f 32/100/100 34/101/101 33/102/102
f 33/103/103 36/104/104 31/105/105
f 33/106/106 38/107/107 36/108/108
f 37/109/109 32/110/110 35/111/111
f 37/112/112 34/113/113 32/114/114
f 33/115/115 37/116/116 38/117/117
f 33/118/118 34/119/119 37/120/120
f 32/121/121 36/122/122 35/123/123
f 32/124/124 31/125/125 36/126/126
f 39/127/127 40/128/128 41/129/129
f 40/130/130 42/131/131 41/132/132
f 41/133/133 44/134/134 39/135/135
f 41/136/136 46/137/137 44/138/138
f 45/139/139 40/140/140 43/141/141
f 45/142/142 42/143/143 40/144/144
f 41/145/145 45/146/146 46/147/147
f 41/148/148 42/149/149 45/150/150
f 40/151/151 44/152/152 43/153/153
f 40/154/154 39/155/155 44/156/156
f 2/157/157 1/158/158 11/159/159
f 1/160/160 12/161/161 11/162/162
f 13/163/163 14/164/164 47/165/165
f 14/166/166 48/167/167 47/168/168
f 14/169/169 12/170/170 1/171/171
f 48/172/172 14/173/173 1/174/174
f 2/175/175 11/176/176 13/177/177
f 2/178/178 13/179/179 47/180/180
