# Wavefront OBJ file
# Exported by Maverick Model 3D 1.3.15
# Mon Sep 14 12:10:20 2026

mtllib floor.mtl

# 28 Vertices
v 5.0 5.0 5.0
v 5.0 0.0 5.0
v -5.0 5.0 5.0
v -5.0 0.0 5.0
v -4.11 1.094 5.148
v -2.112 1.094 5.148
v -4.11 0.844 5.148
v -2.112 0.844 5.148
v -2.112 1.094 4.991
v -4.11 1.094 4.991
v -2.112 0.844 4.991
v -4.11 0.844 4.991
v -1.13 1.088 5.148
v 0.868 1.088 5.148
v -1.13 0.859 5.148
v 0.868 0.859 5.148
v 0.868 1.088 4.991
v -1.13 1.088 4.991
v 0.868 0.859 4.991
v -1.13 0.859 4.991
v 1.973 1.071 5.148
v 3.967 1.071 5.148
v 1.973 0.873 5.148
v 3.967 0.873 5.148
v 3.967 1.071 4.991
v 1.973 1.071 4.991
v 3.967 0.873 4.991
v 1.973 0.873 4.991

# 96 Texture Coordinates
vt 0.0 1.0
vt 0.0 0.0
vt 1.0 0.0
vt 1.0 0.0
vt 1.0 1.0
vt 0.0 1.0
vt 0.09312 0.17603
vt 0.285289 0.210434
vt 0.09312 0.210434
vt 0.09312 0.17603
vt 0.285289 0.17603
vt 0.285289 0.210434
vt 0.09312 0.210434
vt 0.09312 0.210434
vt 0.09312 0.17603
vt 0.09312 0.210434
vt 0.09312 0.17603
vt 0.09312 0.17603
vt 0.285289 0.210434
vt 0.285289 0.210434
vt 0.285289 0.17603
vt 0.285289 0.210434
vt 0.285289 0.17603
vt 0.285289 0.17603
vt 0.097113 0.206784
vt 0.278483 0.206784
vt 0.097113 0.176631
vt 0.278483 0.206784
vt 0.278483 0.176631
vt 0.097113 0.176631
vt 0.278483 0.206784
vt 0.097113 0.206784
vt 0.278483 0.176631
vt 0.097113 0.206784
vt 0.097113 0.176631
vt 0.278483 0.176631
vt 0.391131 0.176122
vt 0.582437 0.212692
vt 0.391131 0.212692
vt 0.391131 0.176122
vt 0.582437 0.176122
vt 0.582437 0.212692
vt 0.391131 0.212692
vt 0.391131 0.212692
vt 0.391131 0.176122
vt 0.391131 0.212692
vt 0.391131 0.176122
vt 0.391131 0.176122
vt 0.582437 0.212692
vt 0.582437 0.212692
vt 0.582437 0.176122
vt 0.582437 0.212692
vt 0.582437 0.176122
vt 0.582437 0.176122
vt 0.394401 0.207502
vt 0.581969 0.207502
vt 0.394401 0.178286
vt 0.581969 0.207502
vt 0.581969 0.178286
vt 0.394401 0.178286
vt 0.581969 0.207502
vt 0.394401 0.207502
vt 0.581969 0.178286
vt 0.394401 0.207502
vt 0.394401 0.178286
vt 0.581969 0.178286
vt 0.7016 0.177431
vt 0.891269 0.210642
vt 0.7016 0.210642
vt 0.7016 0.177431
vt 0.891269 0.177431
vt 0.891269 0.210642
vt 0.7016 0.210642
vt 0.7016 0.210642
vt 0.7016 0.177431
vt 0.7016 0.210642
vt 0.7016 0.177431
vt 0.7016 0.177431
vt 0.891269 0.210642
vt 0.891269 0.210642
vt 0.891269 0.177431
vt 0.891269 0.210642
vt 0.891269 0.177431
vt 0.891269 0.177431
vt 0.711296 0.204447
vt 0.891101 0.204447
vt 0.711296 0.175386
vt 0.891101 0.204447
vt 0.891101 0.175386
vt 0.711296 0.175386
vt 0.891101 0.204447
vt 0.711296 0.204447
vt 0.891101 0.175386
vt 0.711296 0.204447
vt 0.711296 0.175386
vt 0.891101 0.175386

# 96 Vertex Normals
vn 0.0 0.0 1.0
vn 0.0 0.0 1.0
vn 0.0 0.0 1.0
vn 0.0 0.0 1.0
vn 0.0 0.0 1.0
vn 0.0 0.0 1.0
vn 0.0 0.0 1.0
vn 0.0 0.0 1.0
vn 0.0 0.0 1.0
vn 0.0 0.0 1.0
vn 0.0 0.0 1.0
vn 0.0 0.0 1.0
vn -1.0 0.0 0.0
vn -1.0 0.0 0.0
vn -1.0 0.0 0.0
vn -1.0 0.0 0.0
vn -1.0 0.0 0.0
vn -1.0 0.0 0.0
vn 1.0 0.0 0.0
vn 1.0 0.0 0.0
vn 1.0 0.0 0.0
vn 1.0 0.0 0.0
vn 1.0 0.0 0.0
vn 1.0 0.0 0.0
vn 0.0 -1.0 0.0
vn 0.0 -1.0 0.0
vn 0.0 -1.0 0.0
vn 0.0 -1.0 0.0
vn 0.0 -1.0 0.0
vn 0.0 -1.0 0.0
vn 0.0 1.0 0.0
vn 0.0 1.0 0.0
vn 0.0 1.0 0.0
vn 0.0 1.0 0.0
vn 0.0 1.0 0.0
vn 0.0 1.0 0.0
vn 0.0 0.0 1.0
vn 0.0 0.0 1.0
vn 0.0 0.0 1.0
vn 0.0 0.0 1.0
vn 0.0 0.0 1.0
vn 0.0 0.0 1.0
vn -1.0 0.0 0.0
vn -1.0 0.0 0.0
vn -1.0 0.0 0.0
vn -1.0 0.0 0.0
vn -1.0 0.0 0.0
vn -1.0 0.0 0.0
vn 1.0 0.0 0.0
vn 1.0 0.0 0.0
vn 1.0 0.0 0.0
vn 1.0 0.0 0.0
vn 1.0 0.0 0.0
vn 1.0 0.0 0.0
vn 0.0 -1.0 0.0
vn 0.0 -1.0 0.0
vn 0.0 -1.0 0.0
vn 0.0 -1.0 0.0
vn 0.0 -1.0 0.0
vn 0.0 -1.0 0.0
vn 0.0 1.0 0.0
vn 0.0 1.0 0.0
vn 0.0 1.0 0.0
vn 0.0 1.0 0.0
vn 0.0 1.0 0.0
vn 0.0 1.0 0.0
vn 0.0 0.0 1.0
vn 0.0 0.0 1.0
vn 0.0 0.0 1.0
vn 0.0 0.0 1.0
vn 0.0 0.0 1.0
vn 0.0 0.0 1.0
vn -1.0 0.0 0.0
vn -1.0 0.0 0.0
vn -1.0 0.0 0.0
vn -1.0 0.0 0.0
vn -1.0 0.0 0.0
vn -1.0 0.0 0.0
vn 1.0 0.0 0.0
vn 1.0 0.0 0.0
vn 1.0 0.0 0.0
vn 1.0 0.0 0.0
vn 1.0 0.0 0.0
vn 1.0 0.0 0.0
vn 0.0 -1.0 0.0
vn 0.0 -1.0 0.0
vn 0.0 -1.0 0.0
vn 0.0 -1.0 0.0
vn 0.0 -1.0 0.0
vn 0.0 -1.0 0.0
vn 0.0 1.0 0.0
vn 0.0 1.0 0.0
vn 0.0 1.0 0.0
vn 0.0 1.0 0.0
vn 0.0 1.0 0.0
vn 0.0 1.0 0.0

# group, 32 grouped triangles

usemtl floor.jpg
o group
g group

f 3/1/1 4/2/2 2/3/3
f 2/4/4 1/5/5 3/6/6
f 7/7/7 6/8/8 5/9/9
f 7/10/10 8/11/11 6/12/12
f 5/13/13 10/14/14 7/15/15
f 10/16/16 12/17/17 7/18/18
f 9/19/19 6/20/20 11/21/21
f 6/22/22 8/23/23 11/24/24
f 12/25/25 11/26/26 7/27/27
f 11/28/28 8/29/29 7/30/30
f 9/31/31 10/32/32 6/33/33
f 10/34/34 5/35/35 6/36/36
f 15/37/37 14/38/38 13/39/39
f 15/40/40 16/41/41 14/42/42
f 13/43/43 18/44/44 15/45/45
f 18/46/46 20/47/47 15/48/48
f 17/49/49 14/50/50 19/51/51
f 14/52/52 16/53/53 19/54/54
f 20/55/55 19/56/56 15/57/57
f 19/58/58 16/59/59 15/60/60
f 17/61/61 18/62/62 14/63/63
f 18/64/64 13/65/65 14/66/66
f 23/67/67 22/68/68 21/69/69
f 23/70/70 24/71/71 22/72/72
f 21/73/73 26/74/74 23/75/75
f 26/76/76 28/77/77 23/78/78
f 25/79/79 22/80/80 27/81/81
f 22/82/82 24/83/83 27/84/84
f 28/85/85 27/86/86 23/87/87
f 27/88/88 24/89/89 23/90/90
f 25/91/91 26/92/92 22/93/93
f 26/94/94 21/95/95 22/96/96
