# Wavefront OBJ file
# Exported by Maverick Model 3D 1.3.15
# Mon Sep 21 20:54:24 2026

mtllib road.mtl

# 13 Vertices
v -5.0 0.2 -5.0
v -5.0 0.2 5.0
v -3.0 0.0 5.0
v -3.0 0.2 5.0
v -3.0 0.2 -3.0
v -3.0 -0.0 -3.0
v 5.0 0.2 5.0
v 5.0 0.2 -5.0
v 3.0 0.0 -3.0
v 3.0 0.2 -3.0
v 3.0 0.2 5.0
v 3.0 0.0 5.0
v -5.0 0.2 -5.0

# 42 Texture Coordinates
vt 0.155942 0.0
vt 0.0 0.779708
vt 0.0 0.0
vt 0.155942 0.0
vt 0.155942 0.623767
vt 0.0 0.779708
vt 0.15254 0.001164
vt 0.132909 0.625138
vt 0.132889 0.0012
vt 0.15254 0.001164
vt 0.152561 0.625102
vt 0.132909 0.625138
vt 0.852401 0.590398
vt 1.0 0.0
vt 1.0 0.737997
vt 0.852401 0.590398
vt 0.852401 0.0
vt 1.0 0.0
vt 0.852572 0.587007
vt 0.876659 0.000732
vt 0.874787 0.586957
vt 0.852572 0.587007
vt 0.85181 0.00061
vt 0.876659 0.000732
vt 0.154998 0.844203
vt 0.851538 0.001292
vt 0.852799 0.843557
vt 0.154998 0.844203
vt 0.154998 0.0
vt 0.851538 0.001292
vt 0.850991 0.799412
vt 0.998957 0.000492
vt 0.997314 0.99957
vt 0.850991 0.799412
vt 0.851977 0.199965
vt 0.998957 0.000492
vt 0.851858 0.803667
vt 0.874772 0.202846
vt 0.872991 0.803616
vt 0.851858 0.803667
vt 0.851133 0.202722
vt 0.874772 0.202846

# 42 Vertex Normals
vn 0.0 1.0 0.0
vn 0.0 1.0 0.0
vn 0.0 1.0 0.0
vn 0.0 1.0 0.0
vn 0.0 1.0 0.0
vn 0.0 1.0 0.0
vn 1.0 0.0 0.0
vn 1.0 0.0 0.0
vn 1.0 0.0 0.0
vn 1.0 0.0 0.0
vn 1.0 0.0 0.0
vn 1.0 0.0 0.0
vn 0.0 1.0 0.0
vn 0.0 1.0 0.0
vn 0.0 1.0 0.0
vn 0.0 1.0 0.0
vn 0.0 1.0 0.0
vn 0.0 1.0 0.0
vn -1.0 0.0 0.0
vn -1.0 0.0 0.0
vn -1.0 0.0 0.0
vn -1.0 0.0 0.0
vn -1.0 0.0 0.0
vn -1.0 0.0 0.0
vn 0.0 1.0 0.0
vn 0.0 1.0 0.0
vn 0.0 1.0 0.0
vn 0.0 1.0 0.0
vn 0.0 1.0 0.0
vn 0.0 1.0 0.0
vn 0.0 1.0 0.0
vn 0.0 1.0 0.0
vn 0.0 1.0 0.0
vn 0.0 1.0 0.0
vn 0.0 1.0 0.0
vn 0.0 1.0 0.0
vn 0.0 0.0 1.0
vn 0.0 0.0 1.0
vn 0.0 0.0 1.0
vn 0.0 0.0 1.0
vn 0.0 0.0 1.0
vn 0.0 0.0 1.0

# group, 14 grouped triangles

usemtl road.jpg
o group
g group

f 4/1/1 1/2/2 2/3/3
f 4/4/4 5/5/5 1/6/6
f 3/7/7 5/8/8 4/9/9
f 3/10/10 6/11/11 5/12/12
f 10/13/13 7/14/14 8/15/15
f 10/16/16 11/17/17 7/18/18
f 9/19/19 11/20/20 10/21/21
f 9/22/22 12/23/23 11/24/24
f 6/25/25 12/26/26 9/27/27
f 6/28/28 3/29/29 12/30/30
f 5/31/31 8/32/32 13/33/33
f 5/34/34 10/35/35 8/36/36
f 6/37/37 10/38/38 5/39/39
f 6/40/40 9/41/41 10/42/42
