# Wavefront OBJ file
# Exported by Maverick Model 3D 1.3.15
# Sun Sep 27 09:50:51 2026

mtllib side.mtl

# 4 Vertices
v 5.0 5.0 -5.0
v 5.0 0.0 -5.0
v 5.0 5.0 5.0
v 5.0 -0.0 5.0

# 6 Texture Coordinates
vt 0.000944 1.0
vt 0.000944 0.0
vt 1.0 0.0
vt 1.0 0.0
vt 1.0 1.0
vt 0.000944 1.0

# 6 Vertex Normals
vn 1.0 0.0 0.001001
vn 1.0 0.0 0.001001
vn 1.0 0.0 0.001001
vn 1.0 0.0 0.001001
vn 1.0 0.0 0.001001
vn 1.0 0.0 0.001001

# group, 2 grouped triangles

usemtl side.jpg
o group
g group

f 3/1/1 4/2/2 2/3/3
f 2/4/4 1/5/5 3/6/6
