# Wavefront OBJ file
# Exported by Maverick Model 3D 1.3.15
# Mon Sep 14 11:22:20 2026

mtllib floor.mtl

# 36 Vertices
v 5.0 5.0 5.0
v 5.0 0.0 5.0
v -5.0 5.0 5.0
v -5.0 0.0 5.0
v -4.294 0.789 5.195
v -2.538 0.789 5.195
v -4.294 0.682 5.195
v -2.538 0.682 5.195
v -2.538 0.789 4.998
v -4.294 0.789 4.998
v -2.538 0.682 4.998
v -4.294 0.682 4.998
v -0.947 0.789 5.195
v 0.818 0.789 5.195
v -0.947 0.682 5.195
v 0.818 0.682 5.195
v 0.818 0.789 4.998
v -0.947 0.789 4.998
v 0.818 0.682 4.998
v -0.947 0.682 4.998
v 2.368 0.789 5.195
v 4.139 0.789 5.195
v 2.368 0.682 5.195
v 4.139 0.682 5.195
v 4.139 0.789 4.998
v 2.368 0.789 4.998
v 4.139 0.682 4.998
v 2.368 0.682 4.998
v -5.0 4.88 5.177
v 5.0 4.88 5.177
v -5.0 5.0 5.177
v 5.0 5.0 5.177
v 5.0 4.798 5.0
v -5.0 4.798 5.0
v 5.0 5.0 5.0
v -5.0 5.0 5.0

# 126 Texture Coordinates
vt 0.0 1.0
vt 0.0 0.0
vt 1.0 0.0
vt 1.0 0.0
vt 1.0 1.0
vt 0.0 1.0
vt 0.072244 0.137895
vt 0.250519 0.156457
vt 0.072244 0.156457
vt 0.072244 0.137895
vt 0.250519 0.137895
vt 0.250519 0.156457
vt 0.072244 0.156457
vt 0.072244 0.156457
vt 0.072244 0.137895
vt 0.072244 0.156457
vt 0.072244 0.137895
vt 0.072244 0.137895
vt 0.250519 0.156457
vt 0.250519 0.156457
vt 0.250519 0.137895
vt 0.250519 0.156457
vt 0.250519 0.137895
vt 0.250519 0.137895
vt 0.072244 0.137895
vt 0.250519 0.137895
vt 0.072244 0.137895
vt 0.250519 0.137895
vt 0.250519 0.137895
vt 0.072244 0.137895
vt 0.250519 0.156457
vt 0.072244 0.156457
vt 0.250519 0.156457
vt 0.072244 0.156457
vt 0.072244 0.156457
vt 0.250519 0.156457
vt 0.403192 0.137895
vt 0.581466 0.156457
vt 0.403192 0.156457
vt 0.403192 0.137895
vt 0.581466 0.137895
vt 0.581466 0.156457
vt 0.403192 0.156457
vt 0.403192 0.156457
vt 0.403192 0.137895
vt 0.403192 0.156457
vt 0.403192 0.137895
vt 0.403192 0.137895
vt 0.581466 0.156457
vt 0.581466 0.156457
vt 0.581466 0.137895
vt 0.581466 0.156457
vt 0.581466 0.137895
vt 0.581466 0.137895
vt 0.403192 0.137895
vt 0.581466 0.137895
vt 0.403192 0.137895
vt 0.581466 0.137895
vt 0.581466 0.137895
vt 0.403192 0.137895
vt 0.581466 0.156457
vt 0.403192 0.156457
vt 0.581466 0.156457
vt 0.403192 0.156457
vt 0.403192 0.156457
vt 0.581466 0.156457
vt 0.734569 0.137895
vt 0.912844 0.156457
vt 0.734569 0.156457
vt 0.734569 0.137895
vt 0.912844 0.137895
vt 0.912844 0.156457
vt 0.734569 0.156457
vt 0.734569 0.156457
vt 0.734569 0.137895
vt 0.734569 0.156457
vt 0.734569 0.137895
vt 0.734569 0.137895
vt 0.912844 0.156457
vt 0.912844 0.156457
vt 0.912844 0.137895
vt 0.912844 0.156457
vt 0.912844 0.137895
vt 0.912844 0.137895
vt 0.734569 0.137895
vt 0.912844 0.137895
vt 0.734569 0.137895
vt 0.912844 0.137895
vt 0.912844 0.137895
vt 0.734569 0.137895
vt 0.912844 0.156457
vt 0.734569 0.156457
vt 0.912844 0.156457
vt 0.734569 0.156457
vt 0.734569 0.156457
vt 0.912844 0.156457
vt 0.0 0.978161
vt 0.997485 0.978161
vt 0.0 1.0
vt 0.997485 0.978161
vt 0.997485 1.0
vt 0.0 1.0
vt 0.0 1.0
vt 0.0 0.963262
vt 0.0 0.978161
vt 0.0 1.0
vt 0.0 1.0
vt 0.0 0.963262
vt 0.997485 1.0
vt 0.997485 0.978161
vt 0.997485 0.963262
vt 0.997485 1.0
vt 0.997485 1.0
vt 0.997485 0.978161
vt 0.0 1.0
vt 0.997485 1.0
vt 0.0 1.0
vt 0.0 1.0
vt 0.997485 1.0
vt 0.997485 1.0
vt 0.997485 0.978161
vt 0.0 0.963262
vt 0.997485 0.963262
vt 0.997485 0.978161
vt 0.0 0.978161
vt 0.0 0.963262

# 126 Vertex Normals
vn 0.0 0.0 1.0
vn 0.0 0.0 1.0
vn 0.0 0.0 1.0
vn 0.0 0.0 1.0
vn 0.0 0.0 1.0
vn 0.0 0.0 1.0
vn 0.0 0.0 1.0
vn 0.0 0.0 1.0
vn 0.0 0.0 1.0
vn 0.0 0.0 1.0
vn 0.0 0.0 1.0
vn 0.0 0.0 1.0
vn -1.0 0.0 0.0
vn -1.0 0.0 0.0
vn -1.0 0.0 0.0
vn -1.0 0.0 0.0
vn -1.0 0.0 0.0
vn -1.0 0.0 0.0
vn 1.0 0.0 0.0
vn 1.0 0.0 0.0
vn 1.0 0.0 0.0
vn 1.0 0.0 0.0
vn 1.0 0.0 0.0
vn 1.0 0.0 0.0
vn 0.0 -1.0 0.0
vn 0.0 -1.0 0.0
vn 0.0 -1.0 0.0
vn 0.0 -1.0 0.0
vn 0.0 -1.0 0.0
vn 0.0 -1.0 0.0
vn 0.0 1.0 0.0
vn 0.0 1.0 0.0
vn 0.0 1.0 0.0
vn 0.0 1.0 0.0
vn 0.0 1.0 0.0
vn 0.0 1.0 0.0
vn 0.0 0.0 1.0
vn 0.0 0.0 1.0
vn 0.0 0.0 1.0
vn 0.0 0.0 1.0
vn 0.0 0.0 1.0
vn 0.0 0.0 1.0
vn -1.0 0.0 0.0
vn -1.0 0.0 0.0
vn -1.0 0.0 0.0
vn -1.0 0.0 0.0
vn -1.0 0.0 0.0
vn -1.0 0.0 0.0
vn 1.0 0.0 0.0
vn 1.0 0.0 0.0
vn 1.0 0.0 0.0
vn 1.0 0.0 0.0
vn 1.0 0.0 0.0
vn 1.0 0.0 0.0
vn 0.0 -1.0 0.0
vn 0.0 -1.0 0.0
vn 0.0 -1.0 0.0
vn 0.0 -1.0 0.0
vn 0.0 -1.0 0.0
vn 0.0 -1.0 0.0
vn 0.0 1.0 0.0
vn 0.0 1.0 0.0
vn 0.0 1.0 0.0
vn 0.0 1.0 0.0
vn 0.0 1.0 0.0
vn 0.0 1.0 0.0
vn 0.0 0.0 1.0
vn 0.0 0.0 1.0
vn 0.0 0.0 1.0
vn 0.0 0.0 1.0
vn 0.0 0.0 1.0
vn 0.0 0.0 1.0
vn -1.0 0.0 0.0
vn -1.0 0.0 0.0
vn -1.0 0.0 0.0
vn -1.0 0.0 0.0
vn -1.0 0.0 0.0
vn -1.0 0.0 0.0
vn 1.0 0.0 0.0
vn 1.0 0.0 0.0
vn 1.0 0.0 0.0
vn 1.0 0.0 0.0
vn 1.0 0.0 0.0
vn 1.0 0.0 0.0
vn 0.0 -1.0 0.0
vn 0.0 -1.0 0.0
vn 0.0 -1.0 0.0
vn 0.0 -1.0 0.0
vn 0.0 -1.0 0.0
vn 0.0 -1.0 0.0
vn 0.0 1.0 0.0
vn 0.0 1.0 0.0
vn 0.0 1.0 0.0
vn 0.0 1.0 0.0
vn 0.0 1.0 0.0
vn 0.0 1.0 0.0
vn 0.0 -0.538388 0.842697
vn 0.0 -0.538388 0.842697
vn 0.0 0.0 1.0
vn 0.0 -0.538388 0.842697
vn 0.0 0.0 1.0
vn 0.0 0.0 1.0
vn -1.0 0.0 0.0
vn -1.0 0.0 0.0
vn -1.0 0.0 0.0
vn -1.0 0.0 0.0
vn -1.0 0.0 0.0
vn -1.0 0.0 0.0
vn 1.0 0.0 0.0
vn 1.0 0.0 0.0
vn 1.0 0.0 0.0
vn 1.0 0.0 0.0
vn 1.0 0.0 0.0
vn 1.0 0.0 0.0
vn 0.0 1.0 0.0
vn 0.0 1.0 0.0
vn 0.0 1.0 0.0
vn 0.0 1.0 0.0
vn 0.0 1.0 0.0
vn 0.0 1.0 0.0
vn 0.0 -0.538388 0.842697
vn 0.0 -0.907396 0.420276
vn 0.0 -0.907396 0.420276
vn 0.0 -0.538388 0.842697
vn 0.0 -0.538388 0.842697
vn 0.0 -0.907396 0.420276

# group, 42 grouped triangles

usemtl floor.jpg
o group
g group

f 3/1/1 4/2/2 2/3/3
f 2/4/4 1/5/5 3/6/6
f 7/7/7 6/8/8 5/9/9
f 7/10/10 8/11/11 6/12/12
f 5/13/13 10/14/14 7/15/15
f 10/16/16 12/17/17 7/18/18
f 9/19/19 6/20/20 11/21/21
f 6/22/22 8/23/23 11/24/24
f 12/25/25 11/26/26 7/27/27
f 11/28/28 8/29/29 7/30/30
f 9/31/31 10/32/32 6/33/33
f 10/34/34 5/35/35 6/36/36
f 15/37/37 14/38/38 13/39/39
f 15/40/40 16/41/41 14/42/42
f 13/43/43 18/44/44 15/45/45
f 18/46/46 20/47/47 15/48/48
f 17/49/49 14/50/50 19/51/51
f 14/52/52 16/53/53 19/54/54
f 20/55/55 19/56/56 15/57/57
f 19/58/58 16/59/59 15/60/60
f 17/61/61 18/62/62 14/63/63
f 18/64/64 13/65/65 14/66/66
f 23/67/67 22/68/68 21/69/69
f 23/70/70 24/71/71 22/72/72
f 21/73/73 26/74/74 23/75/75
f 26/76/76 28/77/77 23/78/78
f 25/79/79 22/80/80 27/81/81
f 22/82/82 24/83/83 27/84/84
f 28/85/85 27/86/86 23/87/87
f 27/88/88 24/89/89 23/90/90
f 25/91/91 26/92/92 22/93/93
f 26/94/94 21/95/95 22/96/96
f 29/97/97 30/98/98 31/99/99
f 30/100/100 32/101/101 31/102/102
f 31/103/103 34/104/104 29/105/105
f 31/106/106 36/107/107 34/108/108
f 35/109/109 30/110/110 33/111/111
f 35/112/112 32/113/113 30/114/114
f 31/115/115 35/116/116 36/117/117
f 31/118/118 32/119/119 35/120/120
f 30/121/121 34/122/122 33/123/123
f 30/124/124 29/125/125 34/126/126
