# Wavefront OBJ file
# Exported by Maverick Model 3D 1.3.15
# Sat Sep 26 13:15:27 2026

mtllib prop.mtl

# 185 Vertices
v -0.002371 0.002133 -0.274528
v -0.202146 0.002133 -0.191779
v -0.284896 0.002133 0.007996
v -0.202146 0.002133 0.207772
v -0.002371 0.002133 0.290521
v 0.197404 0.002133 0.207772
v 0.280153 0.002133 0.007997
v 0.197404 0.002133 -0.191778
v -0.002371 0.078961 -0.274528
v -0.202146 0.078961 -0.191778
v -0.284896 0.078961 0.007997
v -0.202146 0.078961 0.207772
v -0.002371 0.078961 0.290521
v 0.197404 0.078961 0.207772
v 0.280153 0.078961 0.007997
v 0.197404 0.078961 -0.191778
v -0.002371 0.002133 0.007996
v -0.002371 0.15049 -0.197492
v -0.147673 0.15049 -0.137306
v -0.20786 0.15049 0.007997
v -0.147673 0.15049 0.153299
v -0.002371 0.15049 0.213485
v 0.142931 0.15049 0.153299
v 0.203117 0.15049 0.007997
v 0.142931 0.15049 -0.137306
v -0.002371 0.88436 -0.116763
v -0.090589 0.88436 -0.080222
v -0.127131 0.88436 0.007997
v -0.090589 0.88436 0.096215
v -0.002371 0.88436 0.132756
v 0.085847 0.88436 0.096215
v 0.122388 0.88436 0.007997
v 0.085847 0.88436 -0.080222
v -0.002371 0.924359 -0.073157
v -0.059755 0.924359 -0.049387
v -0.083524 0.924359 0.007997
v -0.059755 0.924359 0.065381
v -0.002371 0.924359 0.08915
v 0.055013 0.924359 0.065381
v 0.078782 0.924359 0.007997
v 0.055013 0.924359 -0.049387
v -0.002371 3.679987 -0.073157
v -0.059755 3.679987 -0.049387
v -0.083524 3.679987 0.007997
v -0.059755 3.679987 0.065381
v -0.002371 3.679987 0.08915
v 0.055013 3.679987 0.065381
v 0.078782 3.679987 0.007997
v 0.055013 3.679987 -0.049387
v -0.002371 3.8391 -0.10674
v -0.083502 3.8391 -0.073134
v -0.117107 3.8391 0.007997
v -0.083502 3.8391 0.089127
v -0.002371 3.8391 0.122733
v 0.07876 3.8391 0.089127
v 0.112365 3.8391 0.007997
v 0.07876 3.8391 -0.073134
v -0.002371 3.868588 -0.073157
v -0.059755 3.868588 -0.049387
v -0.083524 3.868588 0.007997
v -0.059755 3.868588 0.065381
v -0.002371 3.868588 0.08915
v 0.055013 3.868588 0.065381
v 0.078782 3.868588 0.007997
v 0.055013 3.868588 -0.049387
v -0.002371 4.336537 -0.073157
v -0.059755 4.336537 -0.049387
v -0.083524 4.336537 0.007997
v -0.059755 4.336537 0.065381
v -0.002371 4.336537 0.08915
v 0.055013 4.336537 0.065381
v 0.078782 4.336537 0.007997
v 0.055013 4.336537 -0.049387
v -0.002371 4.425696 -0.164627
v -0.124435 4.425696 -0.114067
v -0.174995 4.425696 0.007997
v -0.124435 4.425696 0.13006
v -0.002371 4.425696 0.18062
v 0.119692 4.425696 0.13006
v 0.170252 4.425696 0.007997
v 0.119692 4.425696 -0.114067
v -0.002371 4.502219 -0.083293
v -0.066923 4.502219 -0.056555
v -0.093661 4.502219 0.007997
v -0.066923 4.502219 0.072548
v -0.002371 4.502219 0.099286
v 0.06218 4.502219 0.072548
v 0.088918 4.502219 0.007997
v 0.06218 4.502219 -0.056555
v -0.002371 4.547214 -0.127225
v -0.140444 4.547214 -0.130076
v -0.138522 4.547214 0.007997
v -0.140444 4.547214 0.146069
v -0.002371 4.547214 0.143219
v 0.135702 4.547214 0.146069
v 0.13772 4.547214 0.007997
v 0.135702 4.547214 -0.130076
v -0.002371 4.667087 -0.161526
v -0.171893 4.667087 -0.161526
v -0.171893 4.667087 0.007997
v -0.171893 4.667087 0.177519
v -0.002371 4.667087 0.177519
v 0.167151 4.667087 0.177519
v 0.167151 4.667087 0.007997
v 0.167151 4.667087 -0.161526
v -0.002371 4.667087 0.007997
v -0.171893 4.667087 -0.161526
v -0.171893 4.667087 0.177519
v 0.167151 4.667087 0.177519
v 0.167151 4.667087 -0.161526
v -0.153807 4.667087 -0.161526
v -0.171893 4.667087 -0.136772
v -0.171893 4.667087 0.159433
v -0.153807 4.667087 0.177519
v 0.149065 4.667087 0.177519
v 0.167151 4.667087 0.159433
v 0.167151 4.667087 -0.136772
v 0.149065 4.667087 -0.161526
v -0.303365 5.236226 -0.292997
v -0.303365 5.236226 0.30899
v 0.298623 5.236226 0.30899
v 0.298623 5.236226 -0.292997
v -0.275106 5.236226 -0.292997
v -0.303365 5.236226 -0.26696
v -0.303365 5.236226 0.278508
v -0.275106 5.236226 0.30899
v 0.274808 5.236226 0.30899
v 0.298623 5.236226 0.278508
v 0.298623 5.236226 -0.26696
v 0.274808 5.236226 -0.292997
v -0.306686 5.235259 0.308457
v 0.30792 5.235259 0.308457
v -0.179701 5.403854 0.184305
v 0.180935 5.403854 0.184305
v 0.30792 5.235259 -0.292439
v -0.306686 5.235259 -0.292439
v 0.180935 5.403854 -0.168287
v -0.179701 5.403854 -0.168287
v -0.003592 4.887608 0.008009
v -0.003592 4.75329 0.008009
v -0.003592 4.854029 0.06617
v 0.030595 4.78687 0.055062
v 0.051723 4.854029 0.025982
v 0.051723 4.78687 -0.009964
v 0.030595 4.854029 -0.039045
v -0.003592 4.78687 -0.050153
v -0.037778 4.854029 -0.039045
v -0.058907 4.78687 -0.009964
v -0.058907 4.854029 0.025982
v -0.037778 4.78687 0.055062
v -0.035528 4.87861 0.018386
v -0.035724 4.859461 0.052235
v -0.003592 4.87861 0.041588
v 0.016146 4.762287 0.035175
v -0.003592 4.781437 0.062675
v -0.023329 4.762287 0.035175
v 0.02854 4.859461 0.052235
v 0.028344 4.87861 0.018386
v 0.048399 4.859461 -0.008884
v 0.016146 4.87861 -0.019157
v -0.003592 4.859461 -0.046657
v -0.023329 4.87861 -0.019157
v -0.055582 4.859461 -0.008884
v -0.055582 4.781437 0.024902
v -0.035528 4.762287 -0.002368
v -0.035724 4.781437 -0.036217
v -0.003592 4.762287 -0.025571
v 0.02854 4.781437 -0.036217
v 0.028344 4.762287 -0.002368
v 0.048399 4.781437 0.024902
v 0.017161 4.820449 0.071881
v 0.050741 4.820449 0.047484
v 0.063567 4.820449 0.008009
v 0.050741 4.820449 -0.031466
v 0.017161 4.820449 -0.055863
v -0.024345 4.820449 -0.055863
v -0.057925 4.820449 -0.031466
v -0.070751 4.820449 0.008009
v -0.057925 4.820449 0.047484
v -0.024345 4.820449 0.071881
v 0.016146 4.658117 0.035175
v -0.023329 4.658117 0.035175
v -0.035528 4.658117 -0.002368
v -0.003592 4.658117 -0.025571
v 0.028344 4.658117 -0.002368

# 1026 Texture Coordinates
vt -0.003426 0.030493
vt 0.114259 0.030493
vt -0.003426 0.385588
vt 0.114259 0.030493
vt 0.114259 0.385588
vt -0.003426 0.385588
vt 0.114259 0.030493
vt 0.226248 0.030494
vt 0.114259 0.385588
vt 0.226248 0.030494
vt 0.226249 0.385588
vt 0.114259 0.385588
vt 0.226248 0.030494
vt 0.338238 0.030494
vt 0.226249 0.385588
vt 0.338238 0.030494
vt 0.338238 0.385588
vt 0.226249 0.385588
vt 0.338238 0.030494
vt 0.455923 0.030494
vt 0.338238 0.385588
vt 0.455923 0.030494
vt 0.455923 0.385588
vt 0.338238 0.385588
vt 0.455923 0.030494
vt 0.584152 0.030494
vt 0.455923 0.385588
vt 0.584152 0.030494
vt 0.584152 0.385588
vt 0.455923 0.385588
vt 0.584152 0.030494
vt 0.722405 0.030493
vt 0.584152 0.385588
vt 0.722405 0.030493
vt 0.722405 0.385588
vt 0.584152 0.385588
vt 0.722405 0.030493
vt 0.860658 0.030493
vt 0.722405 0.385588
vt 0.860658 0.030493
vt 0.860658 0.385588
vt 0.722405 0.385588
vt 0.860658 0.030493
vt 0.988888 0.030493
vt 0.860658 0.385588
vt 0.988888 0.030493
vt 0.988888 0.385588
vt 0.860658 0.385588
vt 0.240527 0.030493
vt 0.130634 0.030493
vt 0.015152 0.030493
vt 0.240527 0.030493
vt 0.240527 0.030493
vt 0.130634 0.030493
vt 0.240527 0.030493
vt 0.35042 0.030493
vt 0.240527 0.030493
vt 0.240527 0.030493
vt 0.465902 0.030493
vt 0.35042 0.030493
vt 0.240527 0.030493
vt 0.59173 0.030493
vt 0.465902 0.030493
vt 0.240527 0.030493
vt 0.727395 0.030493
vt 0.59173 0.030493
vt 1.214263 0.030493
vt 0.86306 0.030493
vt 0.727395 0.030493
vt 0.240527 0.030493
vt 0.015152 0.030493
vt -0.110676 0.030493
vt 0.609826 0.738856
vt 0.609826 0.978123
vt 0.299861 0.978123
vt 0.609826 0.738856
vt 0.299861 0.978123
vt 0.299861 0.738856
vt 0.609826 0.738856
vt 0.299861 0.738856
vt 0.299861 0.499591
vt 0.609826 0.738856
vt 0.299861 0.499591
vt 0.609826 0.499591
vt 0.609826 0.738856
vt 0.609826 0.499591
vt 0.919791 0.499591
vt 0.609826 0.738856
vt 0.919791 0.499591
vt 0.919791 0.738856
vt 0.609826 0.738856
vt 0.919791 0.738856
vt 0.919791 0.978123
vt 0.609826 0.738856
vt 0.919791 0.978123
vt 0.609826 0.978123
vt 0.103855 0.37952
vt 0.107553 0.549752
vt 0.002143 0.549752
vt 0.002143 0.549752
vt -0.004093 0.37952
vt 0.103855 0.37952
vt 0.206579 0.37952
vt 0.206579 0.549752
vt 0.107553 0.549752
vt 0.107553 0.549752
vt 0.103855 0.37952
vt 0.206579 0.37952
vt 0.309302 0.37952
vt 0.305605 0.549752
vt 0.206579 0.549752
vt 0.206579 0.549752
vt 0.206579 0.37952
vt 0.309302 0.37952
vt 0.41725 0.37952
vt 0.411014 0.549752
vt 0.305605 0.549752
vt 0.305605 0.549752
vt 0.309302 0.37952
vt 0.41725 0.37952
vt 0.53487 0.37952
vt 0.529406 0.549752
vt 0.411014 0.549752
vt 0.411014 0.549752
vt 0.41725 0.37952
vt 0.53487 0.37952
vt 0.661684 0.37952
vt 0.661684 0.549752
vt 0.529406 0.549752
vt 0.529406 0.549752
vt 0.53487 0.37952
vt 0.661684 0.37952
vt 0.788499 0.37952
vt 0.793963 0.549752
vt 0.661684 0.549752
vt 0.661684 0.549752
vt 0.661684 0.37952
vt 0.788499 0.37952
vt 0.906118 0.37952
vt 0.912354 0.549752
vt 0.793963 0.549752
vt 0.793963 0.549752
vt 0.788499 0.37952
vt 0.906118 0.37952
vt 0.117465 0.025918
vt 0.125571 0.373771
vt 0.024455 0.373771
vt 0.024455 0.373771
vt 0.009713 0.025918
vt 0.117465 0.025918
vt 0.218691 0.025918
vt 0.218691 0.373771
vt 0.125571 0.373771
vt 0.125571 0.373771
vt 0.117465 0.025918
vt 0.218691 0.025918
vt 0.319916 0.025918
vt 0.31181 0.373771
vt 0.218691 0.373771
vt 0.218691 0.373771
vt 0.218691 0.025918
vt 0.319916 0.025918
vt 0.427668 0.025918
vt 0.412926 0.373771
vt 0.31181 0.373771
vt 0.31181 0.373771
vt 0.319916 0.025918
vt 0.427668 0.025918
vt 0.548689 0.025918
vt 0.534029 0.373771
vt 0.412926 0.373771
vt 0.412926 0.373771
vt 0.427668 0.025918
vt 0.548689 0.025918
vt 0.683906 0.025918
vt 0.683906 0.373771
vt 0.534029 0.373771
vt 0.534029 0.373771
vt 0.548689 0.025918
vt 0.683906 0.025918
vt 0.819123 0.025918
vt 0.833783 0.373771
vt 0.683906 0.373771
vt 0.683906 0.373771
vt 0.683906 0.025918
vt 0.819123 0.025918
vt 0.940144 0.025918
vt 0.954886 0.373771
vt 0.833783 0.373771
vt 0.833783 0.373771
vt 0.819123 0.025918
vt 0.940144 0.025918
vt 0.135423 0.37569
vt 0.141948 0.49972
vt 0.050505 0.49972
vt 0.050505 0.49972
vt 0.034468 0.37569
vt 0.135423 0.37569
vt 0.228394 0.37569
vt 0.225528 0.49972
vt 0.141948 0.49972
vt 0.141948 0.49972
vt 0.135423 0.37569
vt 0.228394 0.37569
vt 0.321365 0.37569
vt 0.309109 0.49972
vt 0.225528 0.49972
vt 0.225528 0.49972
vt 0.228394 0.37569
vt 0.321365 0.37569
vt 0.422319 0.37569
vt 0.400552 0.49972
vt 0.309109 0.49972
vt 0.309109 0.49972
vt 0.321365 0.37569
vt 0.422319 0.37569
vt 0.543229 0.37569
vt 0.517014 0.49972
vt 0.400552 0.49972
vt 0.400552 0.49972
vt 0.422319 0.37569
vt 0.543229 0.37569
vt 0.692867 0.37569
vt 0.690002 0.49972
vt 0.517014 0.49972
vt 0.517014 0.49972
vt 0.543229 0.37569
vt 0.692867 0.37569
vt 0.842505 0.37569
vt 0.86299 0.49972
vt 0.690002 0.49972
vt 0.690002 0.49972
vt 0.692867 0.37569
vt 0.842505 0.37569
vt 0.963415 0.37569
vt 0.979452 0.49972
vt 0.86299 0.49972
vt 0.86299 0.49972
vt 0.842505 0.37569
vt 0.963415 0.37569
vt 0.285557 0.426403
vt 0.285557 0.98532
vt 0.213643 0.98532
vt 0.213643 0.98532
vt 0.213643 0.426403
vt 0.285557 0.426403
vt 0.351289 0.426403
vt 0.351289 0.98532
vt 0.285557 0.98532
vt 0.285557 0.98532
vt 0.285557 0.426403
vt 0.351289 0.426403
vt 0.417021 0.426403
vt 0.417021 0.98532
vt 0.351289 0.98532
vt 0.351289 0.98532
vt 0.351289 0.426403
vt 0.417021 0.426403
vt 0.488935 0.426403
vt 0.488935 0.98532
vt 0.417021 0.98532
vt 0.417021 0.98532
vt 0.417021 0.426403
vt 0.488935 0.426403
vt 0.580526 0.426403
vt 0.580526 0.98532
vt 0.488935 0.98532
vt 0.488935 0.98532
vt 0.488935 0.426403
vt 0.580526 0.426403
vt 0.716572 0.426403
vt 0.716572 0.98532
vt 0.580526 0.98532
vt 0.580526 0.98532
vt 0.580526 0.426403
vt 0.716572 0.426403
vt 0.852618 0.426403
vt 0.852618 0.98532
vt 0.716572 0.98532
vt 0.716572 0.98532
vt 0.716572 0.426403
vt 0.852618 0.426403
vt 0.944209 0.426403
vt 0.944209 0.98532
vt 0.852618 0.98532
vt 0.852618 0.98532
vt 0.852618 0.426403
vt 0.944209 0.426403
vt 0.2225 0.034956
vt 0.210034 0.366158
vt 0.123534 0.366158
vt 0.123534 0.366158
vt 0.142943 0.034956
vt 0.2225 0.034956
vt 0.295216 0.034956
vt 0.289485 0.366158
vt 0.210034 0.366158
vt 0.210034 0.366158
vt 0.2225 0.034956
vt 0.295216 0.034956
vt 0.367932 0.034956
vt 0.368936 0.366158
vt 0.289485 0.366158
vt 0.289485 0.366158
vt 0.295216 0.034956
vt 0.367932 0.034956
vt 0.447488 0.034956
vt 0.455436 0.366158
vt 0.368936 0.366158
vt 0.368936 0.366158
vt 0.367932 0.034956
vt 0.447488 0.034956
vt 0.548812 0.034956
vt 0.560322 0.366158
vt 0.455436 0.366158
vt 0.455436 0.366158
vt 0.447488 0.034956
vt 0.548812 0.034956
vt 0.699313 0.034956
vt 0.693582 0.366158
vt 0.560322 0.366158
vt 0.560322 0.366158
vt 0.548812 0.034956
vt 0.699313 0.034956
vt 0.849815 0.034956
vt 0.826843 0.366158
vt 0.693582 0.366158
vt 0.693582 0.366158
vt 0.699313 0.034956
vt 0.849815 0.034956
vt 0.951138 0.034956
vt 0.931729 0.366158
vt 0.826843 0.366158
vt 0.826843 0.366158
vt 0.849815 0.034956
vt 0.951138 0.034956
vt 0.210034 0.380381
vt 0.213904 0.617169
vt 0.134347 0.617169
vt 0.134347 0.617169
vt 0.123534 0.380381
vt 0.210034 0.380381
vt 0.289485 0.380381
vt 0.28662 0.617169
vt 0.213904 0.617169
vt 0.213904 0.617169
vt 0.210034 0.380381
vt 0.289485 0.380381
vt 0.368936 0.380381
vt 0.359336 0.617169
vt 0.28662 0.617169
vt 0.28662 0.617169
vt 0.289485 0.380381
vt 0.368936 0.380381
vt 0.455436 0.380381
vt 0.438892 0.617169
vt 0.359336 0.617169
vt 0.359336 0.617169
vt 0.368936 0.380381
vt 0.455436 0.380381
vt 0.560322 0.380381
vt 0.540216 0.617169
vt 0.438892 0.617169
vt 0.438892 0.617169
vt 0.455436 0.380381
vt 0.560322 0.380381
vt 0.693582 0.380381
vt 0.690717 0.617169
vt 0.540216 0.617169
vt 0.540216 0.617169
vt 0.560322 0.380381
vt 0.693582 0.380381
vt 0.826843 0.380381
vt 0.841219 0.617169
vt 0.690717 0.617169
vt 0.690717 0.617169
vt 0.693582 0.380381
vt 0.826843 0.380381
vt 0.931729 0.380381
vt 0.942542 0.617169
vt 0.841219 0.617169
vt 0.841219 0.617169
vt 0.826843 0.380381
vt 0.931729 0.380381
vt 0.307487 0.38989
vt 0.307487 0.752443
vt 0.22515 0.752443
vt 0.22515 0.752443
vt 0.22515 0.38989
vt 0.307487 0.38989
vt 0.382744 0.38989
vt 0.382744 0.752443
vt 0.307487 0.752443
vt 0.307487 0.752443
vt 0.307487 0.38989
vt 0.382744 0.38989
vt 0.458001 0.38989
vt 0.458001 0.752443
vt 0.382744 0.752443
vt 0.382744 0.752443
vt 0.382744 0.38989
vt 0.458001 0.38989
vt 0.540338 0.38989
vt 0.540338 0.752443
vt 0.458001 0.752443
vt 0.458001 0.752443
vt 0.458001 0.38989
vt 0.540338 0.38989
vt 0.645202 0.38989
vt 0.645202 0.752443
vt 0.540338 0.752443
vt 0.540338 0.752443
vt 0.540338 0.38989
vt 0.645202 0.38989
vt 0.800964 0.38989
vt 0.800964 0.752443
vt 0.645202 0.752443
vt 0.645202 0.752443
vt 0.645202 0.38989
vt 0.800964 0.38989
vt 0.956725 0.38989
vt 0.956725 0.752443
vt 0.800964 0.752443
vt 0.800964 0.752443
vt 0.800964 0.38989
vt 0.956725 0.38989
vt 1.061589 0.38989
vt 1.061589 0.752443
vt 0.956725 0.752443
vt 0.956725 0.752443
vt 0.956725 0.38989
vt 1.061589 0.38989
vt 0.203975 0.024838
vt 0.192398 0.077627
vt 0.100336 0.077627
vt 0.100336 0.077627
vt 0.123163 0.024838
vt 0.203975 0.024838
vt 0.277838 0.024838
vt 0.277838 0.077627
vt 0.192398 0.077627
vt 0.192398 0.077627
vt 0.203975 0.024838
vt 0.277838 0.024838
vt 0.351702 0.024838
vt 0.363278 0.077627
vt 0.277838 0.077627
vt 0.277838 0.077627
vt 0.277838 0.024838
vt 0.351702 0.024838
vt 0.432514 0.024838
vt 0.455341 0.077627
vt 0.363278 0.077627
vt 0.363278 0.077627
vt 0.351702 0.024838
vt 0.432514 0.024838
vt 0.535436 0.024838
vt 0.562451 0.077627
vt 0.455341 0.077627
vt 0.455341 0.077627
vt 0.432514 0.024838
vt 0.535436 0.024838
vt 0.688312 0.024838
vt 0.688312 0.077627
vt 0.562451 0.077627
vt 0.562451 0.077627
vt 0.535436 0.024838
vt 0.688312 0.024838
vt 0.841189 0.024838
vt 0.814173 0.077627
vt 0.688312 0.077627
vt 0.688312 0.077627
vt 0.688312 0.024838
vt 0.841189 0.024838
vt 0.944111 0.024838
vt 0.921284 0.077627
vt 0.814173 0.077627
vt 0.814173 0.077627
vt 0.841189 0.024838
vt 0.944111 0.024838
vt 0.16848 0.381459
vt 0.173865 0.447254
vt 0.096273 0.447254
vt 0.096273 0.447254
vt 0.080086 0.381459
vt 0.16848 0.381459
vt 0.250515 0.381459
vt 0.244785 0.447254
vt 0.173865 0.447254
vt 0.173865 0.447254
vt 0.16848 0.381459
vt 0.250515 0.381459
vt 0.332551 0.381459
vt 0.315705 0.447254
vt 0.244785 0.447254
vt 0.244785 0.447254
vt 0.250515 0.381459
vt 0.332551 0.381459
vt 0.420944 0.381459
vt 0.393296 0.447254
vt 0.315705 0.447254
vt 0.315705 0.447254
vt 0.332551 0.381459
vt 0.420944 0.381459
vt 0.523786 0.381459
vt 0.492117 0.447254
vt 0.393296 0.447254
vt 0.393296 0.447254
vt 0.420944 0.381459
vt 0.523786 0.381459
vt 0.644632 0.381459
vt 0.638901 0.447254
vt 0.492117 0.447254
vt 0.492117 0.447254
vt 0.523786 0.381459
vt 0.644632 0.381459
vt 0.765477 0.381459
vt 0.785685 0.447254
vt 0.638901 0.447254
vt 0.638901 0.447254
vt 0.644632 0.381459
vt 0.765477 0.381459
vt 0.868319 0.381459
vt 0.884506 0.447254
vt 0.785685 0.447254
vt 0.785685 0.447254
vt 0.765477 0.381459
vt 0.868319 0.381459
vt 0.254417 0.807267
vt 0.165521 0.807267
vt 0.182108 0.743278
vt 0.182108 0.743278
vt 0.268681 0.743278
vt 0.254417 0.807267
vt 0.347811 0.743278
vt 0.347811 0.807267
vt 0.254417 0.807267
vt 0.254417 0.807267
vt 0.268681 0.743278
vt 0.347811 0.743278
vt 0.441205 0.807267
vt 0.347811 0.807267
vt 0.347811 0.743278
vt 0.347811 0.743278
vt 0.426942 0.743278
vt 0.441205 0.807267
vt 0.513515 0.743278
vt 0.530101 0.807267
vt 0.441205 0.807267
vt 0.441205 0.807267
vt 0.426942 0.743278
vt 0.513515 0.743278
vt 0.655997 0.807267
vt 0.530101 0.807267
vt 0.513515 0.743278
vt 0.513515 0.743278
vt 0.623776 0.743278
vt 0.655997 0.807267
vt 0.787552 0.743278
vt 0.787552 0.807267
vt 0.655997 0.807267
vt 0.655997 0.807267
vt 0.623776 0.743278
vt 0.787552 0.743278
vt 0.919107 0.807267
vt 0.787552 0.807267
vt 0.787552 0.743278
vt 0.787552 0.743278
vt 0.951329 0.743278
vt 0.919107 0.807267
vt 1.061589 0.743278
vt 1.045003 0.807267
vt 0.919107 0.807267
vt 0.919107 0.807267
vt 0.951329 0.743278
vt 1.061589 0.743278
vt 0.388921 0.660563
vt 0.386642 0.977741
vt 0.309056 0.977741
vt 0.309056 0.977741
vt 0.315149 0.660563
vt 0.388921 0.660563
vt 0.466426 0.660563
vt 0.466426 0.977741
vt 0.386642 0.977741
vt 0.386642 0.977741
vt 0.388921 0.660563
vt 0.466426 0.660563
vt 0.54393 0.660563
vt 0.546209 0.977741
vt 0.466426 0.977741
vt 0.466426 0.977741
vt 0.466426 0.660563
vt 0.54393 0.660563
vt 0.617702 0.660563
vt 0.623795 0.977741
vt 0.546209 0.977741
vt 0.546209 0.977741
vt 0.54393 0.660563
vt 0.617702 0.660563
vt 0.722179 0.660563
vt 0.725876 0.977741
vt 0.623795 0.977741
vt 0.623795 0.977741
vt 0.617702 0.660563
vt 0.722179 0.660563
vt 0.831353 0.660563
vt 0.831353 0.977741
vt 0.725876 0.977741
vt 0.725876 0.977741
vt 0.722179 0.660563
vt 0.831353 0.660563
vt 0.940526 0.660563
vt 0.93683 0.977741
vt 0.831353 0.977741
vt 0.831353 0.977741
vt 0.831353 0.660563
vt 0.940526 0.660563
vt 1.045003 0.660563
vt 1.038911 0.977741
vt 0.93683 0.977741
vt 0.93683 0.977741
vt 0.940526 0.660563
vt 1.045003 0.660563
vt 1.0 0.0
vt 1.0 0.862805
vt 0.023649 0.862805
vt 0.023649 0.862805
vt 0.023649 0.0
vt 1.0 0.0
vt 1.0 0.0
vt 1.0 0.862805
vt 0.023649 0.862805
vt 0.023649 0.862805
vt 0.023649 0.0
vt 1.0 0.0
vt 1.0 0.0
vt 1.0 0.862805
vt 0.023649 0.862805
vt 0.023649 0.862805
vt 0.023649 0.0
vt 1.0 0.0
vt 1.0 0.0
vt 1.0 0.862805
vt 0.023649 0.862805
vt 0.023649 0.862805
vt 0.023649 0.0
vt 1.0 0.0
vt 1.0 0.0
vt 1.0 0.862805
vt 0.023649 0.862805
vt 0.023649 0.862805
vt 0.023649 0.0
vt 1.0 0.0
vt 1.0 0.0
vt 1.0 0.862805
vt 0.023649 0.862805
vt 0.023649 0.862805
vt 0.023649 0.0
vt 1.0 0.0
vt 1.0 0.0
vt 1.0 0.862805
vt 0.023649 0.862805
vt 0.023649 0.862805
vt 0.023649 0.0
vt 1.0 0.0
vt 1.0 0.0
vt 1.0 0.862805
vt 0.023649 0.862805
vt 0.023649 0.862805
vt 0.023649 0.0
vt 1.0 0.0
vt 1.0 0.0
vt 1.0 0.862805
vt 0.023649 0.862805
vt 0.023649 0.862805
vt 0.023649 0.0
vt 1.0 0.0
vt 1.0 0.0
vt 1.0 0.862805
vt 0.023649 0.862805
vt 0.023649 0.862805
vt 0.023649 0.0
vt 1.0 0.0
vt 1.0 0.0
vt 1.0 0.862805
vt 0.023649 0.862805
vt 0.023649 0.862805
vt 0.023649 0.0
vt 1.0 0.0
vt 1.0 0.0
vt 1.0 0.862805
vt 0.023649 0.862805
vt 0.023649 0.862805
vt 0.023649 0.0
vt 1.0 0.0
vt 1.0 0.0
vt 1.0 0.862805
vt 0.023649 0.862805
vt 0.023649 0.862805
vt 0.023649 0.0
vt 1.0 0.0
vt 1.0 0.0
vt 1.0 0.862805
vt 0.023649 0.862805
vt 0.023649 0.862805
vt 0.023649 0.0
vt 1.0 0.0
vt 1.0 0.0
vt 1.0 0.862805
vt 0.023649 0.862805
vt 0.023649 0.862805
vt 0.023649 0.0
vt 1.0 0.0
vt 1.0 0.0
vt 1.0 0.862805
vt 0.023649 0.862805
vt 0.023649 0.862805
vt 0.023649 0.0
vt 1.0 0.0
vt 0.242902 0.445284
vt 0.820049 0.445284
vt 0.362147 0.556666
vt 0.820049 0.445284
vt 0.700804 0.556666
vt 0.362147 0.556666
vt 0.820049 0.984375
vt 0.242902 0.984375
vt 0.700804 0.872993
vt 0.242902 0.984375
vt 0.362147 0.872993
vt 0.700804 0.872993
vt 0.362147 0.556666
vt 0.242902 0.984375
vt 0.242902 0.445284
vt 0.362147 0.556666
vt 0.362147 0.872993
vt 0.242902 0.984375
vt 0.700804 0.872993
vt 0.820049 0.445284
vt 0.820049 0.984375
vt 0.700804 0.872993
vt 0.700804 0.556666
vt 0.820049 0.445284
vt 0.362147 0.556666
vt 0.700804 0.872993
vt 0.362147 0.872993
vt 0.362147 0.556666
vt 0.700804 0.556666
vt 0.700804 0.872993
vt 0.161884 0.897052
vt 0.008251 0.993315
vt 0.161884 0.993315
vt 0.161884 0.897052
vt 0.008251 0.897052
vt 0.008251 0.993315
vt 0.057489 0.974317
vt 0.057489 0.921512
vt 0.162162 0.921512
vt 0.057489 0.974317
vt 0.057489 0.921512
vt 0.162162 0.921512
vt 0.057489 0.974317
vt 0.057489 0.921512
vt 0.162162 0.921512
vt 0.057489 0.974317
vt 0.057489 0.921512
vt 0.162162 0.921512
vt 0.057489 0.974317
vt 0.057489 0.921512
vt 0.162162 0.921512
vt 0.057489 0.974317
vt 0.057489 0.921512
vt 0.162162 0.921512
vt 0.057489 0.974317
vt 0.057489 0.921512
vt 0.162162 0.921512
vt 0.057489 0.974317
vt 0.057489 0.921512
vt 0.162162 0.921512
vt 0.057489 0.974317
vt 0.057489 0.921512
vt 0.162162 0.921512
vt 0.057489 0.974317
vt 0.057489 0.921512
vt 0.162162 0.921512
vt 0.057489 0.974317
vt 0.057489 0.921512
vt 0.162162 0.921512
vt 0.057489 0.974317
vt 0.057489 0.921512
vt 0.162162 0.921512
vt 0.057489 0.974317
vt 0.057489 0.921512
vt 0.162162 0.921512
vt 0.057489 0.974317
vt 0.057489 0.921512
vt 0.162162 0.921512
vt 0.057489 0.974317
vt 0.057489 0.921512
vt 0.162162 0.921512
vt 0.057489 0.974317
vt 0.057489 0.921512
vt 0.162162 0.921512
vt 0.057489 0.974317
vt 0.057489 0.921512
vt 0.162162 0.921512
vt 0.057489 0.974317
vt 0.057489 0.921512
vt 0.162162 0.921512
vt 0.057489 0.974317
vt 0.057489 0.921512
vt 0.162162 0.921512
vt 0.057489 0.974317
vt 0.057489 0.921512
vt 0.162162 0.921512
vt 0.057489 0.974317
vt 0.057489 0.921512
vt 0.162162 0.921512
vt 0.057489 0.974317
vt 0.057489 0.921512
vt 0.162162 0.921512
vt 0.057489 0.974317
vt 0.057489 0.921512
vt 0.162162 0.921512
vt 0.057489 0.974317
vt 0.057489 0.921512
vt 0.162162 0.921512
vt 0.057489 0.974317
vt 0.057489 0.921512
vt 0.162162 0.921512
vt 0.057489 0.974317
vt 0.057489 0.921512
vt 0.162162 0.921512
vt 0.057489 0.974317
vt 0.057489 0.921512
vt 0.162162 0.921512
vt 0.057489 0.974317
vt 0.057489 0.921512
vt 0.162162 0.921512
vt 0.057489 0.974317
vt 0.057489 0.921512
vt 0.162162 0.921512
vt 0.057489 0.974317
vt 0.057489 0.921512
vt 0.162162 0.921512
vt 0.057489 0.974317
vt 0.057489 0.921512
vt 0.162162 0.921512
vt 0.057489 0.974317
vt 0.057489 0.921512
vt 0.162162 0.921512
vt 0.057489 0.974317
vt 0.057489 0.921512
vt 0.162162 0.921512
vt 0.057489 0.974317
vt 0.057489 0.921512
vt 0.162162 0.921512
vt 0.057489 0.974317
vt 0.057489 0.921512
vt 0.162162 0.921512
vt 0.057489 0.974317
vt 0.057489 0.921512
vt 0.162162 0.921512
vt 0.057489 0.974317
vt 0.057489 0.921512
vt 0.162162 0.921512
vt 0.057489 0.974317
vt 0.057489 0.921512
vt 0.162162 0.921512
vt 0.057489 0.974317
vt 0.057489 0.921512
vt 0.162162 0.921512
vt 0.057489 0.974317
vt 0.057489 0.921512
vt 0.162162 0.921512
vt 0.057489 0.974317
vt 0.057489 0.921512
vt 0.162162 0.921512
vt 0.057489 0.974317
vt 0.057489 0.921512
vt 0.162162 0.921512
vt 0.057489 0.974317
vt 0.057489 0.921512
vt 0.162162 0.921512
vt 0.057489 0.974317
vt 0.057489 0.921512
vt 0.162162 0.921512
vt 0.057489 0.974317
vt 0.057489 0.921512
vt 0.162162 0.921512
vt 0.057489 0.974317
vt 0.057489 0.921512
vt 0.162162 0.921512
vt 0.057489 0.974317
vt 0.057489 0.921512
vt 0.162162 0.921512
vt 0.057489 0.974317
vt 0.057489 0.921512
vt 0.162162 0.921512
vt 0.057489 0.974317
vt 0.057489 0.921512
vt 0.162162 0.921512
vt 0.057489 0.974317
vt 0.057489 0.921512
vt 0.162162 0.921512
vt 0.057489 0.974317
vt 0.057489 0.921512
vt 0.162162 0.921512
vt 0.057489 0.974317
vt 0.057489 0.921512
vt 0.162162 0.921512
vt 0.057489 0.974317
vt 0.057489 0.921512
vt 0.162162 0.921512
vt 0.057489 0.974317
vt 0.057489 0.921512
vt 0.162162 0.921512
vt 0.057489 0.974317
vt 0.057489 0.921512
vt 0.162162 0.921512
vt 0.057489 0.974317
vt 0.057489 0.921512
vt 0.162162 0.921512
vt 0.057489 0.974317
vt 0.057489 0.921512
vt 0.162162 0.921512
vt 0.057489 0.974317
vt 0.057489 0.921512
vt 0.162162 0.921512
vt 0.057489 0.974317
vt 0.057489 0.921512
vt 0.162162 0.921512
vt 0.057489 0.974317
vt 0.057489 0.921512
vt 0.162162 0.921512
vt 0.057489 0.974317
vt 0.057489 0.921512
vt 0.162162 0.921512
vt 0.057489 0.974317
vt 0.057489 0.921512
vt 0.162162 0.921512
vt 0.057489 0.974317
vt 0.057489 0.921512
vt 0.162162 0.921512
vt 0.057489 0.974317
vt 0.057489 0.921512
vt 0.162162 0.921512
vt 0.057489 0.974317
vt 0.057489 0.921512
vt 0.162162 0.921512
vt 0.057489 0.974317
vt 0.057489 0.921512
vt 0.162162 0.921512
vt 0.057489 0.974317
vt 0.057489 0.921512
vt 0.162162 0.921512
vt 0.057489 0.974317
vt 0.057489 0.921512
vt 0.162162 0.921512
vt 0.057489 0.974317
vt 0.057489 0.921512
vt 0.162162 0.921512
vt 0.057489 0.974317
vt 0.057489 0.921512
vt 0.162162 0.921512
vt 0.057489 0.974317
vt 0.057489 0.921512
vt 0.162162 0.921512
vt 0.057489 0.974317
vt 0.057489 0.921512
vt 0.162162 0.921512
vt 0.057489 0.974317
vt 0.057489 0.921512
vt 0.162162 0.921512
vt 0.057489 0.974317
vt 0.057489 0.921512
vt 0.162162 0.921512
vt 0.057489 0.974317
vt 0.057489 0.921512
vt 0.162162 0.921512
vt 0.057489 0.974317
vt 0.057489 0.921512
vt 0.162162 0.921512
vt 0.057489 0.974317
vt 0.057489 0.921512
vt 0.162162 0.921512
vt 0.057489 0.974317
vt 0.057489 0.921512
vt 0.162162 0.921512
vt 0.057489 0.974317
vt 0.057489 0.921512
vt 0.162162 0.921512
vt 0.057489 0.974317
vt 0.057489 0.921512
vt 0.162162 0.921512
vt 0.057489 0.974317
vt 0.057489 0.921512
vt 0.162162 0.921512
vt 0.057489 0.974317
vt 0.057489 0.921512
vt 0.162162 0.921512
vt 0.057489 0.974317
vt 0.057489 0.921512
vt 0.162162 0.921512
vt 0.057489 0.974317
vt 0.057489 0.921512
vt 0.162162 0.921512
vt 0.057489 0.974317
vt 0.057489 0.921512
vt 0.162162 0.921512
vt 0.057489 0.974317
vt 0.057489 0.921512
vt 0.162162 0.921512
vt 0.057489 0.974317
vt 0.057489 0.921512
vt 0.162162 0.921512
vt 0.057489 0.974317
vt 0.057489 0.921512
vt 0.162162 0.921512
vt 0.057489 0.974317
vt 0.057489 0.921512
vt 0.162162 0.921512
vt 0.162162 0.921512
vt 0.057489 0.921512
vt 0.057489 0.974317

# 1026 Vertex Normals
vn 0.136776 0.0 -0.990602
vn -0.603748 0.000006 -0.797176
vn -0.021471 0.407808 -0.912815
vn -0.603748 0.000006 -0.797176
vn -0.66064 0.407809 -0.630276
vn -0.021471 0.407808 -0.912815
vn -0.603748 0.000006 -0.797176
vn -0.990602 0.000002 -0.136775
vn -0.66064 0.407809 -0.630276
vn -0.990602 0.000002 -0.136775
vn -0.912816 0.407806 0.021471
vn -0.66064 0.407809 -0.630276
vn -0.990602 0.000002 -0.136775
vn -0.797174 -0.000002 0.603749
vn -0.912816 0.407806 0.021471
vn -0.797174 -0.000002 0.603749
vn -0.630274 0.407807 0.660642
vn -0.912816 0.407806 0.021471
vn -0.797174 -0.000002 0.603749
vn -0.136773 0.0 0.990602
vn -0.630274 0.407807 0.660642
vn -0.136773 0.0 0.990602
vn 0.021471 0.407806 0.912816
vn -0.630274 0.407807 0.660642
vn -0.136773 0.0 0.990602
vn 0.603747 0.0 0.797176
vn 0.021471 0.407806 0.912816
vn 0.603747 0.0 0.797176
vn 0.660641 0.407807 0.630275
vn 0.021471 0.407806 0.912816
vn 0.603747 0.0 0.797176
vn 0.990602 0.0 0.136773
vn 0.660641 0.407807 0.630275
vn 0.990602 0.0 0.136773
vn 0.912816 0.407806 -0.021471
vn 0.660641 0.407807 0.630275
vn 0.990602 0.0 0.136773
vn 0.797176 0.0 -0.603746
vn 0.912816 0.407806 -0.021471
vn 0.797176 0.0 -0.603746
vn 0.630277 0.407806 -0.66064
vn 0.912816 0.407806 -0.021471
vn 0.797176 0.0 -0.603746
vn 0.136776 0.0 -0.990602
vn 0.630277 0.407806 -0.66064
vn 0.136776 0.0 -0.990602
vn -0.021471 0.407808 -0.912815
vn 0.630277 0.407806 -0.66064
vn -0.0 -1.0 0.0
vn 0.0 -1.0 0.0
vn 0.0 -1.0 0.0
vn -0.0 -1.0 0.0
vn 0.0 -1.0 0.0
vn 0.0 -1.0 0.0
vn -0.0 -1.0 0.0
vn -0.0 -1.0 0.0
vn 0.0 -1.0 0.0
vn -0.0 -1.0 0.0
vn -0.0 -1.0 0.0
vn -0.0 -1.0 0.0
vn -0.0 -1.0 0.0
vn 0.0 -1.0 0.0
vn -0.0 -1.0 0.0
vn -0.0 -1.0 0.0
vn -0.0 -1.0 0.0
vn 0.0 -1.0 0.0
vn -0.0 -1.0 0.0
vn -0.0 -1.0 0.0
vn -0.0 -1.0 0.0
vn -0.0 -1.0 0.0
vn 0.0 -1.0 0.0
vn -0.0 -1.0 0.0
vn 0.0 1.0 0.0
vn 0.0 1.0 0.0
vn 0.0 1.0 0.0
vn 0.0 1.0 0.0
vn 0.0 1.0 0.0
vn 0.0 1.0 0.0
vn 0.0 1.0 0.0
vn 0.0 1.0 0.0
vn 0.0 1.0 0.0
vn 0.0 1.0 0.0
vn 0.0 1.0 0.0
vn 0.0 1.0 0.0
vn 0.0 1.0 0.0
vn 0.0 1.0 0.0
vn 0.0 1.0 0.0
vn 0.0 1.0 0.0
vn 0.0 1.0 0.0
vn 0.0 1.0 0.0
vn 0.0 1.0 0.0
vn 0.0 1.0 0.0
vn 0.0 1.0 0.0
vn 0.0 1.0 0.0
vn 0.0 1.0 0.0
vn 0.0 1.0 0.0
vn -0.66064 0.407809 -0.630276
vn -0.614602 0.455877 -0.643771
vn 0.020623 0.455877 -0.889804
vn 0.020623 0.455877 -0.889804
vn -0.021471 0.407808 -0.912815
vn -0.66064 0.407809 -0.630276
vn -0.912816 0.407806 0.021471
vn -0.889803 0.455879 -0.020623
vn -0.614602 0.455877 -0.643771
vn -0.614602 0.455877 -0.643771
vn -0.66064 0.407809 -0.630276
vn -0.912816 0.407806 0.021471
vn -0.630274 0.407807 0.660642
vn -0.643766 0.455878 0.614606
vn -0.889803 0.455879 -0.020623
vn -0.889803 0.455879 -0.020623
vn -0.912816 0.407806 0.021471
vn -0.630274 0.407807 0.660642
vn 0.021471 0.407806 0.912816
vn -0.020624 0.455878 0.889803
vn -0.643766 0.455878 0.614606
vn -0.643766 0.455878 0.614606
vn -0.630274 0.407807 0.660642
vn 0.021471 0.407806 0.912816
vn 0.660641 0.407807 0.630275
vn 0.614603 0.455878 0.643769
vn -0.020624 0.455878 0.889803
vn -0.020624 0.455878 0.889803
vn 0.021471 0.407806 0.912816
vn 0.660641 0.407807 0.630275
vn 0.912816 0.407806 -0.021471
vn 0.889804 0.455877 0.020624
vn 0.614603 0.455878 0.643769
vn 0.614603 0.455878 0.643769
vn 0.660641 0.407807 0.630275
vn 0.912816 0.407806 -0.021471
vn 0.630277 0.407806 -0.66064
vn 0.64377 0.455877 -0.614602
vn 0.889804 0.455877 0.020624
vn 0.889804 0.455877 0.020624
vn 0.912816 0.407806 -0.021471
vn 0.630277 0.407806 -0.66064
vn -0.021471 0.407808 -0.912815
vn 0.020623 0.455877 -0.889804
vn 0.64377 0.455877 -0.614602
vn 0.64377 0.455877 -0.614602
vn 0.630277 0.407806 -0.66064
vn -0.021471 0.407808 -0.912815
vn -0.614602 0.455877 -0.643771
vn -0.642964 0.458715 -0.613334
vn -0.020951 0.458714 -0.888337
vn -0.020951 0.458714 -0.888337
vn 0.020623 0.455877 -0.889804
vn -0.614602 0.455877 -0.643771
vn -0.889803 0.455879 -0.020623
vn -0.888335 0.458717 0.020955
vn -0.642964 0.458715 -0.613334
vn -0.642964 0.458715 -0.613334
vn -0.614602 0.455877 -0.643771
vn -0.889803 0.455879 -0.020623
vn -0.643766 0.455878 0.614606
vn -0.613332 0.458713 0.642967
vn -0.888335 0.458717 0.020955
vn -0.888335 0.458717 0.020955
vn -0.889803 0.455879 -0.020623
vn -0.643766 0.455878 0.614606
vn -0.020624 0.455878 0.889803
vn 0.020952 0.458712 0.888338
vn -0.613332 0.458713 0.642967
vn -0.613332 0.458713 0.642967
vn -0.643766 0.455878 0.614606
vn -0.020624 0.455878 0.889803
vn 0.614603 0.455878 0.643769
vn 0.642965 0.458712 0.613335
vn 0.020952 0.458712 0.888338
vn 0.020952 0.458712 0.888338
vn -0.020624 0.455878 0.889803
vn 0.614603 0.455878 0.643769
vn 0.889804 0.455877 0.020624
vn 0.888338 0.458712 -0.020951
vn 0.642965 0.458712 0.613335
vn 0.642965 0.458712 0.613335
vn 0.614603 0.455878 0.643769
vn 0.889804 0.455877 0.020624
vn 0.64377 0.455877 -0.614602
vn 0.613334 0.458715 -0.642963
vn 0.888338 0.458712 -0.020951
vn 0.888338 0.458712 -0.020951
vn 0.889804 0.455877 0.020624
vn 0.64377 0.455877 -0.614602
vn 0.020623 0.455877 -0.889804
vn -0.020951 0.458714 -0.888337
vn 0.613334 0.458715 -0.642963
vn 0.613334 0.458715 -0.642963
vn 0.64377 0.455877 -0.614602
vn 0.020623 0.455877 -0.889804
vn -0.642964 0.458715 -0.613334
vn -0.629103 0.410737 -0.659942
vn 0.021815 0.410736 -0.911493
vn 0.021815 0.410736 -0.911493
vn -0.020951 0.458714 -0.888337
vn -0.642964 0.458715 -0.613334
vn -0.888335 0.458717 0.020955
vn -0.911493 0.410736 -0.02181
vn -0.629103 0.410737 -0.659942
vn -0.629103 0.410737 -0.659942
vn -0.642964 0.458715 -0.613334
vn -0.888335 0.458717 0.020955
vn -0.613332 0.458713 0.642967
vn -0.659948 0.410733 0.6291
vn -0.911493 0.410736 -0.02181
vn -0.911493 0.410736 -0.02181
vn -0.888335 0.458717 0.020955
vn -0.613332 0.458713 0.642967
vn 0.020952 0.458712 0.888338
vn -0.021812 0.410733 0.911495
vn -0.659948 0.410733 0.6291
vn -0.659948 0.410733 0.6291
vn -0.613332 0.458713 0.642967
vn 0.020952 0.458712 0.888338
vn 0.642965 0.458712 0.613335
vn 0.6291 0.410733 0.659948
vn -0.021812 0.410733 0.911495
vn -0.021812 0.410733 0.911495
vn 0.020952 0.458712 0.888338
vn 0.642965 0.458712 0.613335
vn 0.888338 0.458712 -0.020951
vn 0.911495 0.410733 0.021812
vn 0.6291 0.410733 0.659948
vn 0.6291 0.410733 0.659948
vn 0.642965 0.458712 0.613335
vn 0.888338 0.458712 -0.020951
vn 0.613334 0.458715 -0.642963
vn 0.659951 0.410735 -0.629096
vn 0.911495 0.410733 0.021812
vn 0.911495 0.410733 0.021812
vn 0.888338 0.458712 -0.020951
vn 0.613334 0.458715 -0.642963
vn -0.020951 0.458714 -0.888337
vn 0.021815 0.410736 -0.911493
vn 0.659951 0.410735 -0.629096
vn 0.659951 0.410735 -0.629096
vn 0.613334 0.458715 -0.642963
vn -0.020951 0.458714 -0.888337
vn -0.629103 0.410737 -0.659942
vn -0.704183 -0.103981 -0.702363
vn -0.001282 -0.103981 -0.994578
vn -0.001282 -0.103981 -0.994578
vn 0.021815 0.410736 -0.911493
vn -0.629103 0.410737 -0.659942
vn -0.911493 0.410736 -0.02181
vn -0.994579 -0.103981 0.001282
vn -0.704183 -0.103981 -0.702363
vn -0.704183 -0.103981 -0.702363
vn -0.629103 0.410737 -0.659942
vn -0.911493 0.410736 -0.02181
vn -0.659948 0.410733 0.6291
vn -0.702367 -0.10398 0.704179
vn -0.994579 -0.103981 0.001282
vn -0.994579 -0.103981 0.001282
vn -0.911493 0.410736 -0.02181
vn -0.659948 0.410733 0.6291
vn -0.021812 0.410733 0.911495
vn 0.00128 -0.10398 0.994579
vn -0.702367 -0.10398 0.704179
vn -0.702367 -0.10398 0.704179
vn -0.659948 0.410733 0.6291
vn -0.021812 0.410733 0.911495
vn 0.6291 0.410733 0.659948
vn 0.70418 -0.10398 0.702366
vn 0.00128 -0.10398 0.994579
vn 0.00128 -0.10398 0.994579
vn -0.021812 0.410733 0.911495
vn 0.6291 0.410733 0.659948
vn 0.911495 0.410733 0.021812
vn 0.994579 -0.10398 -0.001281
vn 0.70418 -0.10398 0.702366
vn 0.70418 -0.10398 0.702366
vn 0.6291 0.410733 0.659948
vn 0.911495 0.410733 0.021812
vn 0.659951 0.410735 -0.629096
vn 0.702373 -0.103981 -0.704174
vn 0.994579 -0.10398 -0.001281
vn 0.994579 -0.10398 -0.001281
vn 0.911495 0.410733 0.021812
vn 0.659951 0.410735 -0.629096
vn 0.021815 0.410736 -0.911493
vn -0.001282 -0.103981 -0.994578
vn 0.702373 -0.103981 -0.704174
vn 0.702373 -0.103981 -0.704174
vn 0.659951 0.410735 -0.629096
vn 0.021815 0.410736 -0.911493
vn -0.704183 -0.103981 -0.702363
vn -0.684294 0.326617 -0.651969
vn -0.022852 0.326616 -0.944881
vn -0.022852 0.326616 -0.944881
vn -0.001282 -0.103981 -0.994578
vn -0.704183 -0.103981 -0.702363
vn -0.994579 -0.103981 0.001282
vn -0.944881 0.326615 0.022854
vn -0.684294 0.326617 -0.651969
vn -0.684294 0.326617 -0.651969
vn -0.704183 -0.103981 -0.702363
vn -0.994579 -0.103981 0.001282
vn -0.702367 -0.10398 0.704179
vn -0.651974 0.326613 0.68429
vn -0.944881 0.326615 0.022854
vn -0.944881 0.326615 0.022854
vn -0.994579 -0.103981 0.001282
vn -0.702367 -0.10398 0.704179
vn 0.00128 -0.10398 0.994579
vn 0.02285 0.326614 0.944882
vn -0.651974 0.326613 0.68429
vn -0.651974 0.326613 0.68429
vn -0.702367 -0.10398 0.704179
vn 0.00128 -0.10398 0.994579
vn 0.70418 -0.10398 0.702366
vn 0.684292 0.326614 0.651972
vn 0.02285 0.326614 0.944882
vn 0.02285 0.326614 0.944882
vn 0.00128 -0.10398 0.994579
vn 0.70418 -0.10398 0.702366
vn 0.994579 -0.10398 -0.001281
vn 0.944881 0.326615 -0.022851
vn 0.684292 0.326614 0.651972
vn 0.684292 0.326614 0.651972
vn 0.70418 -0.10398 0.702366
vn 0.994579 -0.10398 -0.001281
vn 0.702373 -0.103981 -0.704174
vn 0.651976 0.326617 -0.684287
vn 0.944881 0.326615 -0.022851
vn 0.944881 0.326615 -0.022851
vn 0.994579 -0.10398 -0.001281
vn 0.702373 -0.103981 -0.704174
vn -0.001282 -0.103981 -0.994578
vn -0.022852 0.326616 -0.944881
vn 0.651976 0.326617 -0.684287
vn 0.651976 0.326617 -0.684287
vn 0.702373 -0.103981 -0.704174
vn -0.001282 -0.103981 -0.994578
vn -0.684294 0.326617 -0.651969
vn -0.624817 0.421194 -0.657418
vn 0.023062 0.421195 -0.906677
vn 0.023062 0.421195 -0.906677
vn -0.022852 0.326616 -0.944881
vn -0.684294 0.326617 -0.651969
vn -0.944881 0.326615 0.022854
vn -0.906679 0.421191 -0.023059
vn -0.624817 0.421194 -0.657418
vn -0.624817 0.421194 -0.657418
vn -0.684294 0.326617 -0.651969
vn -0.944881 0.326615 0.022854
vn -0.651974 0.326613 0.68429
vn -0.657426 0.42119 0.624812
vn -0.906679 0.421191 -0.023059
vn -0.906679 0.421191 -0.023059
vn -0.944881 0.326615 0.022854
vn -0.651974 0.326613 0.68429
vn 0.02285 0.326614 0.944882
vn -0.023059 0.42119 0.906679
vn -0.657426 0.42119 0.624812
vn -0.657426 0.42119 0.624812
vn -0.651974 0.326613 0.68429
vn 0.02285 0.326614 0.944882
vn 0.684292 0.326614 0.651972
vn 0.624812 0.421191 0.657425
vn -0.023059 0.42119 0.906679
vn -0.023059 0.42119 0.906679
vn 0.02285 0.326614 0.944882
vn 0.684292 0.326614 0.651972
vn 0.944881 0.326615 -0.022851
vn 0.906677 0.421194 0.023059
vn 0.624812 0.421191 0.657425
vn 0.624812 0.421191 0.657425
vn 0.684292 0.326614 0.651972
vn 0.944881 0.326615 -0.022851
vn 0.651976 0.326617 -0.684287
vn 0.657427 0.421194 -0.624809
vn 0.906677 0.421194 0.023059
vn 0.906677 0.421194 0.023059
vn 0.944881 0.326615 -0.022851
vn 0.651976 0.326617 -0.684287
vn -0.022852 0.326616 -0.944881
vn 0.023062 0.421195 -0.906677
vn 0.657427 0.421194 -0.624809
vn 0.657427 0.421194 -0.624809
vn 0.651976 0.326617 -0.684287
vn -0.022852 0.326616 -0.944881
vn -0.624817 0.421194 -0.657418
vn -0.663366 -0.396076 -0.634878
vn -0.020142 -0.396077 -0.917997
vn -0.020142 -0.396077 -0.917997
vn 0.023062 0.421195 -0.906677
vn -0.624817 0.421194 -0.657418
vn -0.906679 0.421191 -0.023059
vn -0.917997 -0.396077 0.02014
vn -0.663366 -0.396076 -0.634878
vn -0.663366 -0.396076 -0.634878
vn -0.624817 0.421194 -0.657418
vn -0.906679 0.421191 -0.023059
vn -0.657426 0.42119 0.624812
vn -0.63488 -0.396077 0.663363
vn -0.917997 -0.396077 0.02014
vn -0.917997 -0.396077 0.02014
vn -0.906679 0.421191 -0.023059
vn -0.657426 0.42119 0.624812
vn -0.023059 0.42119 0.906679
vn 0.020139 -0.396074 0.917998
vn -0.63488 -0.396077 0.663363
vn -0.63488 -0.396077 0.663363
vn -0.657426 0.42119 0.624812
vn -0.023059 0.42119 0.906679
vn 0.624812 0.421191 0.657425
vn 0.663363 -0.396075 0.634881
vn 0.020139 -0.396074 0.917998
vn 0.020139 -0.396074 0.917998
vn -0.023059 0.42119 0.906679
vn 0.624812 0.421191 0.657425
vn 0.906677 0.421194 0.023059
vn 0.917997 -0.396075 -0.020139
vn 0.663363 -0.396075 0.634881
vn 0.663363 -0.396075 0.634881
vn 0.624812 0.421191 0.657425
vn 0.906677 0.421194 0.023059
vn 0.657427 0.421194 -0.624809
vn 0.634887 -0.396075 -0.663358
vn 0.917997 -0.396075 -0.020139
vn 0.917997 -0.396075 -0.020139
vn 0.906677 0.421194 0.023059
vn 0.657427 0.421194 -0.624809
vn 0.023062 0.421195 -0.906677
vn -0.020142 -0.396077 -0.917997
vn 0.634887 -0.396075 -0.663358
vn 0.634887 -0.396075 -0.663358
vn 0.657427 0.421194 -0.624809
vn 0.023062 0.421195 -0.906677
vn -0.663366 -0.396076 -0.634878
vn -0.635645 -0.194514 -0.747074
vn -0.180666 -0.447112 -0.876043
vn -0.180666 -0.447112 -0.876043
vn -0.020142 -0.396077 -0.917997
vn -0.663366 -0.396076 -0.634878
vn -0.917997 -0.396077 0.02014
vn -0.97773 -0.194514 -0.07879
vn -0.747205 -0.447115 -0.491704
vn -0.747205 -0.447115 -0.491704
vn -0.663366 -0.396076 -0.634878
vn -0.917997 -0.396077 0.02014
vn -0.63488 -0.396077 0.663363
vn -0.747073 -0.194513 0.635647
vn -0.876042 -0.447115 0.180664
vn -0.876042 -0.447115 0.180664
vn -0.917997 -0.396077 0.02014
vn -0.63488 -0.396077 0.663363
vn 0.020139 -0.396074 0.917998
vn -0.078789 -0.19451 0.977731
vn -0.491704 -0.447113 0.747207
vn -0.491704 -0.447113 0.747207
vn -0.63488 -0.396077 0.663363
vn 0.020139 -0.396074 0.917998
vn 0.663363 -0.396075 0.634881
vn 0.635647 -0.194511 0.747073
vn 0.180664 -0.44711 0.876044
vn 0.180664 -0.44711 0.876044
vn 0.020139 -0.396074 0.917998
vn 0.663363 -0.396075 0.634881
vn 0.917997 -0.396075 -0.020139
vn 0.977731 -0.194511 0.078793
vn 0.747206 -0.447111 0.491707
vn 0.747206 -0.447111 0.491707
vn 0.663363 -0.396075 0.634881
vn 0.917997 -0.396075 -0.020139
vn 0.634887 -0.396075 -0.663358
vn 0.747076 -0.194511 -0.635643
vn 0.876044 -0.447111 -0.180662
vn 0.876044 -0.447111 -0.180662
vn 0.917997 -0.396075 -0.020139
vn 0.634887 -0.396075 -0.663358
vn -0.020142 -0.396077 -0.917997
vn 0.078789 -0.194511 -0.977731
vn 0.49171 -0.447113 -0.747203
vn 0.49171 -0.447113 -0.747203
vn 0.634887 -0.396075 -0.663358
vn -0.020142 -0.396077 -0.917997
vn -0.485905 0.463287 -0.741122
vn -0.548986 0.725081 -0.415779
vn -0.09419 0.72508 -0.682193
vn -0.09419 0.72508 -0.682193
vn -0.082856 0.212997 -0.973533
vn -0.485905 0.463287 -0.741122
vn -0.867641 0.463286 -0.180461
vn -0.682194 0.725079 0.094192
vn -0.548986 0.725081 -0.415779
vn -0.548986 0.725081 -0.415779
vn -0.74698 0.212996 -0.629805
vn -0.867641 0.463286 -0.180461
vn -0.741121 0.463286 0.485907
vn -0.415778 0.725081 0.548987
vn -0.682194 0.725079 0.094192
vn -0.682194 0.725079 0.094192
vn -0.973534 0.212995 0.082854
vn -0.741121 0.463286 0.485907
vn -0.18046 0.463286 0.86764
vn 0.094194 0.72508 0.682192
vn -0.415778 0.725081 0.548987
vn -0.415778 0.725081 0.548987
vn -0.629803 0.212997 0.746981
vn -0.18046 0.463286 0.86764
vn 0.485909 0.463286 0.74112
vn 0.548989 0.725079 0.415779
vn 0.094194 0.72508 0.682192
vn 0.094194 0.72508 0.682192
vn 0.082856 0.212997 0.973533
vn 0.485909 0.463286 0.74112
vn 0.86764 0.463286 0.180464
vn 0.682193 0.72508 -0.094189
vn 0.548989 0.725079 0.415779
vn 0.548989 0.725079 0.415779
vn 0.746981 0.212996 0.629804
vn 0.86764 0.463286 0.180464
vn 0.741121 0.463288 -0.485905
vn 0.415779 0.725081 -0.548986
vn 0.682193 0.72508 -0.094189
vn 0.682193 0.72508 -0.094189
vn 0.973534 0.212996 -0.082853
vn 0.741121 0.463288 -0.485905
vn 0.180463 0.463287 -0.86764
vn -0.09419 0.72508 -0.682193
vn 0.415779 0.725081 -0.548986
vn 0.415779 0.725081 -0.548986
vn 0.629807 0.212997 -0.746978
vn 0.180463 0.463287 -0.86764
vn -0.395261 -0.719137 -0.571499
vn -0.00003 -0.452997 -0.891512
vn 0.000001 -0.822964 -0.568093
vn 0.000001 -0.822964 -0.568093
vn -0.280832 -0.917751 -0.280832
vn -0.395261 -0.719137 -0.571499
vn -0.563754 -0.825943 0.0
vn -0.890815 -0.454367 0.000014
vn -0.395261 -0.719137 -0.571499
vn -0.395261 -0.719137 -0.571499
vn -0.280832 -0.917751 -0.280832
vn -0.563754 -0.825943 0.0
vn -0.569327 -0.718653 0.399255
vn -0.890815 -0.454367 0.000014
vn -0.563754 -0.825943 0.0
vn -0.563754 -0.825943 0.0
vn -0.280831 -0.917751 0.280833
vn -0.569327 -0.718653 0.399255
vn 0.0 -0.822968 0.568088
vn 0.00003 -0.452998 0.891511
vn -0.569327 -0.718653 0.399255
vn -0.569327 -0.718653 0.399255
vn -0.280831 -0.917751 0.280833
vn 0.0 -0.822968 0.568088
vn 0.386667 -0.720355 0.575827
vn 0.00003 -0.452998 0.891511
vn 0.0 -0.822968 0.568088
vn 0.0 -0.822968 0.568088
vn 0.28083 -0.917752 0.28083
vn 0.386667 -0.720355 0.575827
vn 0.54614 -0.837694 0.0
vn 0.888318 -0.459229 -0.000015
vn 0.386667 -0.720355 0.575827
vn 0.386667 -0.720355 0.575827
vn 0.28083 -0.917752 0.28083
vn 0.54614 -0.837694 0.0
vn 0.564665 -0.717781 -0.407362
vn 0.888318 -0.459229 -0.000015
vn 0.54614 -0.837694 0.0
vn 0.54614 -0.837694 0.0
vn 0.280832 -0.917752 -0.280829
vn 0.564665 -0.717781 -0.407362
vn 0.000001 -0.822964 -0.568093
vn -0.00003 -0.452997 -0.891512
vn 0.564665 -0.717781 -0.407362
vn 0.564665 -0.717781 -0.407362
vn 0.280832 -0.917752 -0.280829
vn 0.000001 -0.822964 -0.568093
vn -0.395261 -0.719137 -0.571499
vn -0.84401 -0.33753 -0.416798
vn 0.006616 -0.268001 -0.963396
vn 0.006616 -0.268001 -0.963396
vn -0.00003 -0.452997 -0.891512
vn -0.395261 -0.719137 -0.571499
vn -0.890815 -0.454367 0.000014
vn -0.964681 -0.263384 -0.00447
vn -0.84401 -0.33753 -0.416798
vn -0.84401 -0.33753 -0.416798
vn -0.395261 -0.719137 -0.571499
vn -0.890815 -0.454367 0.000014
vn -0.569327 -0.718653 0.399255
vn -0.414371 -0.34018 0.844141
vn -0.964681 -0.263384 -0.00447
vn -0.964681 -0.263384 -0.00447
vn -0.890815 -0.454367 0.000014
vn -0.569327 -0.718653 0.399255
vn 0.00003 -0.452998 0.891511
vn -0.006614 -0.267996 0.963397
vn -0.414371 -0.34018 0.844141
vn -0.414371 -0.34018 0.844141
vn -0.569327 -0.718653 0.399255
vn 0.00003 -0.452998 0.891511
vn 0.386667 -0.720355 0.575827
vn 0.843286 -0.326193 0.427162
vn -0.006614 -0.267996 0.963397
vn -0.006614 -0.267996 0.963397
vn 0.00003 -0.452998 0.891511
vn 0.386667 -0.720355 0.575827
vn 0.888318 -0.459229 -0.000015
vn 0.969877 -0.243551 -0.004731
vn 0.843286 -0.326193 0.427162
vn 0.843286 -0.326193 0.427162
vn 0.386667 -0.720355 0.575827
vn 0.888318 -0.459229 -0.000015
vn 0.564665 -0.717781 -0.407362
vn 0.414368 -0.340183 -0.844141
vn 0.969877 -0.243551 -0.004731
vn 0.969877 -0.243551 -0.004731
vn 0.888318 -0.459229 -0.000015
vn 0.564665 -0.717781 -0.407362
vn -0.00003 -0.452997 -0.891512
vn 0.006616 -0.268001 -0.963396
vn 0.414368 -0.340183 -0.844141
vn 0.414368 -0.340183 -0.844141
vn 0.564665 -0.717781 -0.407362
vn -0.00003 -0.452997 -0.891512
vn -0.427169 -0.296028 -0.854338
vn -0.854338 -0.296029 -0.427169
vn 0.0 -0.225073 -0.974342
vn 0.0 -0.225073 -0.974342
vn 0.0 -0.225073 -0.974342
vn -0.427169 -0.296028 -0.854338
vn -0.974342 -0.225074 0.0
vn -0.974342 -0.225074 0.0
vn -0.854338 -0.296029 -0.427169
vn -0.854338 -0.296029 -0.427169
vn -0.427169 -0.296028 -0.854338
vn -0.974342 -0.225074 0.0
vn -0.854338 -0.296029 0.427169
vn -0.427169 -0.296029 0.854338
vn -0.974342 -0.225074 0.0
vn -0.974342 -0.225074 0.0
vn -0.974342 -0.225074 0.0
vn -0.854338 -0.296029 0.427169
vn 0.0 -0.225073 0.974342
vn 0.0 -0.225073 0.974342
vn -0.427169 -0.296029 0.854338
vn -0.427169 -0.296029 0.854338
vn -0.854338 -0.296029 0.427169
vn 0.0 -0.225073 0.974342
vn 0.427169 -0.296029 0.854338
vn 0.854338 -0.296029 0.427169
vn 0.0 -0.225073 0.974342
vn 0.0 -0.225073 0.974342
vn 0.0 -0.225073 0.974342
vn 0.427169 -0.296029 0.854338
vn 0.974342 -0.225074 0.0
vn 0.974342 -0.225074 0.0
vn 0.854338 -0.296029 0.427169
vn 0.854338 -0.296029 0.427169
vn 0.427169 -0.296029 0.854338
vn 0.974342 -0.225074 0.0
vn 0.854338 -0.296029 -0.427169
vn 0.427169 -0.296029 -0.854338
vn 0.974342 -0.225074 0.0
vn 0.974342 -0.225074 0.0
vn 0.974342 -0.225074 0.0
vn 0.854338 -0.296029 -0.427169
vn 0.0 -0.225073 -0.974342
vn 0.0 -0.225073 -0.974342
vn 0.427169 -0.296029 -0.854338
vn 0.427169 -0.296029 -0.854338
vn 0.854338 -0.296029 -0.427169
vn 0.0 -0.225073 -0.974342
vn 0.0 0.225073 0.974342
vn 0.854338 0.296029 0.427169
vn 0.427169 0.296028 0.854338
vn 0.427169 0.296028 0.854338
vn 0.0 0.225073 0.974342
vn 0.0 0.225073 0.974342
vn 0.854338 0.296029 0.427169
vn 0.974342 0.225074 0.0
vn 0.974342 0.225074 0.0
vn 0.974342 0.225074 0.0
vn 0.427169 0.296028 0.854338
vn 0.854338 0.296029 0.427169
vn 0.974342 0.225074 0.0
vn 0.427169 0.296029 -0.854338
vn 0.854338 0.296029 -0.427169
vn 0.854338 0.296029 -0.427169
vn 0.974342 0.225074 0.0
vn 0.974342 0.225074 0.0
vn 0.427169 0.296029 -0.854338
vn 0.0 0.225073 -0.974342
vn 0.0 0.225073 -0.974342
vn 0.0 0.225073 -0.974342
vn 0.854338 0.296029 -0.427169
vn 0.427169 0.296029 -0.854338
vn 0.0 0.225073 -0.974342
vn -0.854338 0.296029 -0.427169
vn -0.427169 0.296029 -0.854338
vn -0.427169 0.296029 -0.854338
vn 0.0 0.225073 -0.974342
vn 0.0 0.225073 -0.974342
vn -0.854338 0.296029 -0.427169
vn -0.974342 0.225074 0.0
vn -0.974342 0.225074 0.0
vn -0.974342 0.225074 0.0
vn -0.427169 0.296029 -0.854338
vn -0.854338 0.296029 -0.427169
vn -0.974342 0.225074 0.0
vn -0.427169 0.296029 0.854338
vn -0.854338 0.296029 0.427169
vn -0.854338 0.296029 0.427169
vn -0.974342 0.225074 0.0
vn -0.974342 0.225074 0.0
vn -0.427169 0.296029 0.854338
vn 0.0 0.225073 0.974342
vn 0.0 0.225073 0.974342
vn 0.0 0.225073 0.974342
vn -0.854338 0.296029 0.427169
vn -0.427169 0.296029 0.854338
vn -0.484908 0.725199 0.488827
vn 0.484908 0.725199 0.488827
vn -0.323342 0.888371 0.325956
vn 0.484908 0.725199 0.488827
vn 0.323343 0.888371 0.325956
vn -0.323342 0.888371 0.325956
vn 0.484908 0.725199 -0.488827
vn -0.484907 0.725199 -0.488826
vn 0.323343 0.888371 -0.325956
vn -0.484907 0.725199 -0.488826
vn -0.323342 0.888371 -0.325956
vn 0.323343 0.888371 -0.325956
vn -0.323342 0.888371 0.325956
vn -0.484907 0.725199 -0.488826
vn -0.484908 0.725199 0.488827
vn -0.323342 0.888371 0.325956
vn -0.323342 0.888371 -0.325956
vn -0.484907 0.725199 -0.488826
vn 0.323343 0.888371 -0.325956
vn 0.484908 0.725199 0.488827
vn 0.484908 0.725199 -0.488827
vn 0.323343 0.888371 -0.325956
vn 0.323343 0.888371 0.325956
vn 0.484908 0.725199 0.488827
vn -0.323342 0.888371 0.325956
vn 0.323343 0.888371 -0.325956
vn -0.323342 0.888371 -0.325956
vn -0.323342 0.888371 0.325956
vn 0.323343 0.888371 0.325956
vn 0.323343 0.888371 -0.325956
vn 0.0 -1.0 0.0
vn 0.0 -1.0 0.0
vn 0.0 -1.0 0.0
vn 0.0 -1.0 0.0
vn 0.0 -1.0 0.0
vn 0.0 -1.0 0.0
vn -0.0 1.0 0.0
vn -0.472646 0.867768 0.15357
vn 0.0 0.867765 0.496976
vn -0.0 1.0 0.0
vn 0.0 0.867765 0.496976
vn 0.472646 0.867767 0.153578
vn -0.0 1.0 0.0
vn 0.472646 0.867767 0.153578
vn 0.292108 0.867769 -0.402057
vn -0.0 1.0 0.0
vn 0.292108 0.867769 -0.402057
vn -0.29211 0.867767 -0.402059
vn -0.0 1.0 0.0
vn -0.29211 0.867767 -0.402059
vn -0.472646 0.867768 0.15357
vn -0.000002 0.478849 0.877897
vn 0.309017 -0.000003 0.951056
vn 0.488445 0.556272 0.672297
vn 0.83493 0.478848 0.271288
vn 1.0 -0.000004 -0.000003
vn 0.79033 0.556272 -0.256788
vn 0.51601 0.478847 -0.710239
vn 0.309012 -0.000001 -0.951058
vn -0.000003 0.556274 -0.830999
vn -0.516011 0.478853 -0.710234
vn -0.809018 0.000003 -0.587783
vn -0.790323 0.556278 -0.256797
vn -0.834931 0.478851 0.271278
vn -0.809015 -0.000013 0.587788
vn -0.488445 0.556272 0.672296
vn 0.834937 -0.478834 -0.271289
vn 1.0 -0.000004 -0.000003
vn 0.790334 -0.556264 0.256794
vn 0.0 -0.47883 -0.877907
vn 0.309012 -0.000001 -0.951058
vn 0.488457 -0.55626 -0.672298
vn -0.834939 -0.478836 -0.271279
vn -0.809018 0.000003 -0.587783
vn -0.488458 -0.556259 -0.672298
vn -0.516019 -0.478842 0.710235
vn -0.809015 -0.000013 0.587788
vn -0.790327 -0.556269 0.256803
vn 0.516019 -0.478835 0.71024
vn 0.309017 -0.000003 0.951056
vn -0.000003 -0.556267 0.831003
vn -0.834931 0.478851 0.271278
vn -0.488445 0.556272 0.672296
vn -0.472646 0.867768 0.15357
vn -0.000002 0.478849 0.877897
vn 0.0 0.867765 0.496976
vn -0.488445 0.556272 0.672296
vn -0.472646 0.867768 0.15357
vn -0.488445 0.556272 0.672296
vn 0.0 0.867765 0.496976
vn 0.516019 -0.478835 0.71024
vn -0.000003 -0.556267 0.831003
vn 0.576598 -0.535709 0.616888
vn -0.516019 -0.478842 0.710235
vn -0.40852 -0.535707 0.739006
vn -0.000003 -0.556267 0.831003
vn 0.576598 -0.535709 0.616888
vn -0.000003 -0.556267 0.831003
vn -0.40852 -0.535707 0.739006
vn -0.000002 0.478849 0.877897
vn 0.488445 0.556272 0.672297
vn 0.0 0.867765 0.496976
vn 0.83493 0.478848 0.271288
vn 0.472646 0.867767 0.153578
vn 0.488445 0.556272 0.672297
vn 0.0 0.867765 0.496976
vn 0.488445 0.556272 0.672297
vn 0.472646 0.867767 0.153578
vn 0.83493 0.478848 0.271288
vn 0.79033 0.556272 -0.256788
vn 0.472646 0.867767 0.153578
vn 0.51601 0.478847 -0.710239
vn 0.292108 0.867769 -0.402057
vn 0.79033 0.556272 -0.256788
vn 0.472646 0.867767 0.153578
vn 0.79033 0.556272 -0.256788
vn 0.292108 0.867769 -0.402057
vn 0.51601 0.478847 -0.710239
vn -0.000003 0.556274 -0.830999
vn 0.292108 0.867769 -0.402057
vn -0.516011 0.478853 -0.710234
vn -0.29211 0.867767 -0.402059
vn -0.000003 0.556274 -0.830999
vn 0.292108 0.867769 -0.402057
vn -0.000003 0.556274 -0.830999
vn -0.29211 0.867767 -0.402059
vn -0.516011 0.478853 -0.710234
vn -0.790323 0.556278 -0.256797
vn -0.29211 0.867767 -0.402059
vn -0.834931 0.478851 0.271278
vn -0.472646 0.867768 0.15357
vn -0.790323 0.556278 -0.256797
vn -0.29211 0.867767 -0.402059
vn -0.790323 0.556278 -0.256797
vn -0.472646 0.867768 0.15357
vn -0.516019 -0.478842 0.710235
vn -0.790327 -0.556269 0.256803
vn -0.40852 -0.535707 0.739006
vn -0.834939 -0.478836 -0.271279
vn -0.829077 -0.535707 -0.160152
vn -0.790327 -0.556269 0.256803
vn -0.40852 -0.535707 0.739006
vn -0.790327 -0.556269 0.256803
vn -0.829077 -0.535707 -0.160152
vn -0.834939 -0.478836 -0.271279
vn -0.488458 -0.556259 -0.672298
vn -0.829077 -0.535707 -0.160152
vn 0.0 -0.47883 -0.877907
vn -0.103877 -0.535708 -0.83799
vn -0.488458 -0.556259 -0.672298
vn -0.829077 -0.535707 -0.160152
vn -0.488458 -0.556259 -0.672298
vn -0.103877 -0.535708 -0.83799
vn 0.0 -0.47883 -0.877907
vn 0.488457 -0.55626 -0.672298
vn -0.103877 -0.535708 -0.83799
vn 0.834937 -0.478834 -0.271289
vn 0.764876 -0.535706 -0.357747
vn 0.488457 -0.55626 -0.672298
vn -0.103877 -0.535708 -0.83799
vn 0.488457 -0.55626 -0.672298
vn 0.764876 -0.535706 -0.357747
vn 0.834937 -0.478834 -0.271289
vn 0.790334 -0.556264 0.256794
vn 0.764876 -0.535706 -0.357747
vn 0.516019 -0.478835 0.71024
vn 0.576598 -0.535709 0.616888
vn 0.790334 -0.556264 0.256794
vn 0.764876 -0.535706 -0.357747
vn 0.790334 -0.556264 0.256794
vn 0.576598 -0.535709 0.616888
vn 0.516019 -0.478835 0.71024
vn 0.809015 -0.000003 0.587788
vn 0.309017 -0.000003 0.951056
vn 0.83493 0.478848 0.271288
vn 0.488445 0.556272 0.672297
vn 0.809015 -0.000003 0.587788
vn 0.309017 -0.000003 0.951056
vn 0.809015 -0.000003 0.587788
vn 0.488445 0.556272 0.672297
vn 0.834937 -0.478834 -0.271289
vn 0.809018 -0.000008 -0.587784
vn 1.0 -0.000004 -0.000003
vn 0.51601 0.478847 -0.710239
vn 0.79033 0.556272 -0.256788
vn 0.809018 -0.000008 -0.587784
vn 1.0 -0.000004 -0.000003
vn 0.809018 -0.000008 -0.587784
vn 0.79033 0.556272 -0.256788
vn 0.0 -0.47883 -0.877907
vn -0.309013 0.000003 -0.951058
vn 0.309012 -0.000001 -0.951058
vn -0.516011 0.478853 -0.710234
vn -0.000003 0.556274 -0.830999
vn -0.309013 0.000003 -0.951058
vn 0.309012 -0.000001 -0.951058
vn -0.309013 0.000003 -0.951058
vn -0.000003 0.556274 -0.830999
vn -0.834939 -0.478836 -0.271279
vn -1.0 -0.000003 -0.000003
vn -0.809018 0.000003 -0.587783
vn -0.834931 0.478851 0.271278
vn -0.790323 0.556278 -0.256797
vn -1.0 -0.000003 -0.000003
vn -0.809018 0.000003 -0.587783
vn -1.0 -0.000003 -0.000003
vn -0.790323 0.556278 -0.256797
vn -0.516019 -0.478842 0.710235
vn -0.309019 -0.000006 0.951056
vn -0.809015 -0.000013 0.587788
vn -0.000002 0.478849 0.877897
vn -0.488445 0.556272 0.672296
vn -0.309019 -0.000006 0.951056
vn -0.809015 -0.000013 0.587788
vn -0.309019 -0.000006 0.951056
vn -0.488445 0.556272 0.672296
vn 0.83493 0.478848 0.271288
vn 0.809015 -0.000003 0.587788
vn 1.0 -0.000004 -0.000003
vn 0.516019 -0.478835 0.71024
vn 0.790334 -0.556264 0.256794
vn 0.809015 -0.000003 0.587788
vn 1.0 -0.000004 -0.000003
vn 0.809015 -0.000003 0.587788
vn 0.790334 -0.556264 0.256794
vn 0.51601 0.478847 -0.710239
vn 0.809018 -0.000008 -0.587784
vn 0.309012 -0.000001 -0.951058
vn 0.834937 -0.478834 -0.271289
vn 0.488457 -0.55626 -0.672298
vn 0.809018 -0.000008 -0.587784
vn 0.309012 -0.000001 -0.951058
vn 0.809018 -0.000008 -0.587784
vn 0.488457 -0.55626 -0.672298
vn -0.516011 0.478853 -0.710234
vn -0.309013 0.000003 -0.951058
vn -0.809018 0.000003 -0.587783
vn 0.0 -0.47883 -0.877907
vn -0.488458 -0.556259 -0.672298
vn -0.309013 0.000003 -0.951058
vn -0.809018 0.000003 -0.587783
vn -0.309013 0.000003 -0.951058
vn -0.488458 -0.556259 -0.672298
vn -0.834931 0.478851 0.271278
vn -1.0 -0.000003 -0.000003
vn -0.809015 -0.000013 0.587788
vn -0.834939 -0.478836 -0.271279
vn -0.790327 -0.556269 0.256803
vn -1.0 -0.000003 -0.000003
vn -0.809015 -0.000013 0.587788
vn -1.0 -0.000003 -0.000003
vn -0.790327 -0.556269 0.256803
vn -0.000002 0.478849 0.877897
vn -0.309019 -0.000006 0.951056
vn 0.309017 -0.000003 0.951056
vn -0.516019 -0.478842 0.710235
vn -0.000003 -0.556267 0.831003
vn -0.309019 -0.000006 0.951056
vn 0.309017 -0.000003 0.951056
vn -0.309019 -0.000006 0.951056
vn -0.000003 -0.556267 0.831003
vn -0.40852 -0.535707 0.739006
vn -0.761689 0.0 0.647943
vn 0.38085 0.0 0.924637
vn 0.38085 0.0 0.924637
vn 0.576598 -0.535709 0.616888
vn -0.40852 -0.535707 0.739006
vn -0.829077 -0.535707 -0.160152
vn -0.851603 0.0 -0.524187
vn -0.761689 0.0 0.647943
vn -0.761689 0.0 0.647943
vn -0.40852 -0.535707 0.739006
vn -0.829077 -0.535707 -0.160152
vn -0.103877 -0.535708 -0.83799
vn 0.235378 0.0 -0.971904
vn -0.851603 0.0 -0.524187
vn -0.851603 0.0 -0.524187
vn -0.829077 -0.535707 -0.160152
vn -0.103877 -0.535708 -0.83799
vn 0.764876 -0.535706 -0.357747
vn 0.997071 0.0 -0.076486
vn 0.235378 0.0 -0.971904
vn 0.235378 0.0 -0.971904
vn -0.103877 -0.535708 -0.83799
vn 0.764876 -0.535706 -0.357747
vn 0.576598 -0.535709 0.616888
vn 0.38085 0.0 0.924637
vn 0.997071 0.0 -0.076486
vn 0.997071 0.0 -0.076486
vn 0.764876 -0.535706 -0.357747
vn 0.576598 -0.535709 0.616888
vn 0.152124 0.965929 -0.20938
vn -0.152123 0.96593 -0.209375
vn 0.000001 1.0 -0.000002
vn 0.246133 0.965931 0.07997
vn 0.152124 0.965929 -0.20938
vn 0.000001 1.0 -0.000002
vn 0.0 0.965931 0.258798
vn 0.246133 0.965931 0.07997
vn 0.000001 1.0 -0.000002
vn -0.246131 0.965931 0.079975
vn 0.0 0.965931 0.258798
vn 0.000001 1.0 -0.000002
vn -0.152123 0.96593 -0.209375
vn -0.246131 0.965931 0.079975
vn 0.000001 1.0 -0.000002

# group, 342 grouped triangles

usemtl prop.jpg
o group
g group

f 1/1/1 2/2/2 9/3/3
f 2/4/4 10/5/5 9/6/6
f 2/7/7 3/8/8 10/9/9
f 3/10/10 11/11/11 10/12/12
f 3/13/13 4/14/14 11/15/15
f 4/16/16 12/17/17 11/18/18
f 4/19/19 5/20/20 12/21/21
f 5/22/22 13/23/23 12/24/24
f 5/25/25 6/26/26 13/27/27
f 6/28/28 14/29/29 13/30/30
f 6/31/31 7/32/32 14/33/33
f 7/34/34 15/35/35 14/36/36
f 7/37/37 8/38/38 15/39/39
f 8/40/40 16/41/41 15/42/42
f 8/43/43 1/44/44 16/45/45
f 1/46/46 9/47/47 16/48/48
f 17/49/49 2/50/50 1/51/51
f 17/52/52 3/53/53 2/54/54
f 17/55/55 4/56/56 3/57/57
f 17/58/58 5/59/59 4/60/60
f 17/61/61 6/62/62 5/63/63
f 17/64/64 7/65/65 6/66/66
f 17/67/67 8/68/68 7/69/69
f 17/70/70 1/71/71 8/72/72
f 106/73/73 98/74/74 99/75/75
f 106/76/76 99/77/77 100/78/78
f 106/79/79 100/80/80 101/81/81
f 106/82/82 101/83/83 102/84/84
f 106/85/85 102/86/86 103/87/87
f 106/88/88 103/89/89 104/90/90
f 106/91/91 104/92/92 105/93/93
f 106/94/94 105/95/95 98/96/96
f 10/97/97 19/98/98 18/99/99
f 18/100/100 9/101/101 10/102/102
f 11/103/103 20/104/104 19/105/105
f 19/106/106 10/107/107 11/108/108
f 12/109/109 21/110/110 20/111/111
f 20/112/112 11/113/113 12/114/114
f 13/115/115 22/116/116 21/117/117
f 21/118/118 12/119/119 13/120/120
f 14/121/121 23/122/122 22/123/123
f 22/124/124 13/125/125 14/126/126
f 15/127/127 24/128/128 23/129/129
f 23/130/130 14/131/131 15/132/132
f 16/133/133 25/134/134 24/135/135
f 24/136/136 15/137/137 16/138/138
f 9/139/139 18/140/140 25/141/141
f 25/142/142 16/143/143 9/144/144
f 19/145/145 27/146/146 26/147/147
f 26/148/148 18/149/149 19/150/150
f 20/151/151 28/152/152 27/153/153
f 27/154/154 19/155/155 20/156/156
f 21/157/157 29/158/158 28/159/159
f 28/160/160 20/161/161 21/162/162
f 22/163/163 30/164/164 29/165/165
f 29/166/166 21/167/167 22/168/168
f 23/169/169 31/170/170 30/171/171
f 30/172/172 22/173/173 23/174/174
f 24/175/175 32/176/176 31/177/177
f 31/178/178 23/179/179 24/180/180
f 25/181/181 33/182/182 32/183/183
f 32/184/184 24/185/185 25/186/186
f 18/187/187 26/188/188 33/189/189
f 33/190/190 25/191/191 18/192/192
f 27/193/193 35/194/194 34/195/195
f 34/196/196 26/197/197 27/198/198
f 28/199/199 36/200/200 35/201/201
f 35/202/202 27/203/203 28/204/204
f 29/205/205 37/206/206 36/207/207
f 36/208/208 28/209/209 29/210/210
f 30/211/211 38/212/212 37/213/213
f 37/214/214 29/215/215 30/216/216
f 31/217/217 39/218/218 38/219/219
f 38/220/220 30/221/221 31/222/222
f 32/223/223 40/224/224 39/225/225
f 39/226/226 31/227/227 32/228/228
f 33/229/229 41/230/230 40/231/231
f 40/232/232 32/233/233 33/234/234
f 26/235/235 34/236/236 41/237/237
f 41/238/238 33/239/239 26/240/240
f 35/241/241 43/242/242 42/243/243
f 42/244/244 34/245/245 35/246/246
f 36/247/247 44/248/248 43/249/249
f 43/250/250 35/251/251 36/252/252
f 37/253/253 45/254/254 44/255/255
f 44/256/256 36/257/257 37/258/258
f 38/259/259 46/260/260 45/261/261
f 45/262/262 37/263/263 38/264/264
f 39/265/265 47/266/266 46/267/267
f 46/268/268 38/269/269 39/270/270
f 40/271/271 48/272/272 47/273/273
f 47/274/274 39/275/275 40/276/276
f 41/277/277 49/278/278 48/279/279
f 48/280/280 40/281/281 41/282/282
f 34/283/283 42/284/284 49/285/285
f 49/286/286 41/287/287 34/288/288
f 43/289/289 51/290/290 50/291/291
f 50/292/292 42/293/293 43/294/294
f 44/295/295 52/296/296 51/297/297
f 51/298/298 43/299/299 44/300/300
f 45/301/301 53/302/302 52/303/303
f 52/304/304 44/305/305 45/306/306
f 46/307/307 54/308/308 53/309/309
f 53/310/310 45/311/311 46/312/312
f 47/313/313 55/314/314 54/315/315
f 54/316/316 46/317/317 47/318/318
f 48/319/319 56/320/320 55/321/321
f 55/322/322 47/323/323 48/324/324
f 49/325/325 57/326/326 56/327/327
f 56/328/328 48/329/329 49/330/330
f 42/331/331 50/332/332 57/333/333
f 57/334/334 49/335/335 42/336/336
f 51/337/337 59/338/338 58/339/339
f 58/340/340 50/341/341 51/342/342
f 52/343/343 60/344/344 59/345/345
f 59/346/346 51/347/347 52/348/348
f 53/349/349 61/350/350 60/351/351
f 60/352/352 52/353/353 53/354/354
f 54/355/355 62/356/356 61/357/357
f 61/358/358 53/359/359 54/360/360
f 55/361/361 63/362/362 62/363/363
f 62/364/364 54/365/365 55/366/366
f 56/367/367 64/368/368 63/369/369
f 63/370/370 55/371/371 56/372/372
f 57/373/373 65/374/374 64/375/375
f 64/376/376 56/377/377 57/378/378
f 50/379/379 58/380/380 65/381/381
f 65/382/382 57/383/383 50/384/384
f 59/385/385 67/386/386 66/387/387
f 66/388/388 58/389/389 59/390/390
f 60/391/391 68/392/392 67/393/393
f 67/394/394 59/395/395 60/396/396
f 61/397/397 69/398/398 68/399/399
f 68/400/400 60/401/401 61/402/402
f 62/403/403 70/404/404 69/405/405
f 69/406/406 61/407/407 62/408/408
f 63/409/409 71/410/410 70/411/411
f 70/412/412 62/413/413 63/414/414
f 64/415/415 72/416/416 71/417/417
f 71/418/418 63/419/419 64/420/420
f 65/421/421 73/422/422 72/423/423
f 72/424/424 64/425/425 65/426/426
f 58/427/427 66/428/428 73/429/429
f 73/430/430 65/431/431 58/432/432
f 67/433/433 75/434/434 74/435/435
f 74/436/436 66/437/437 67/438/438
f 68/439/439 76/440/440 75/441/441
f 75/442/442 67/443/443 68/444/444
f 69/445/445 77/446/446 76/447/447
f 76/448/448 68/449/449 69/450/450
f 70/451/451 78/452/452 77/453/453
f 77/454/454 69/455/455 70/456/456
f 71/457/457 79/458/458 78/459/459
f 78/460/460 70/461/461 71/462/462
f 72/463/463 80/464/464 79/465/465
f 79/466/466 71/467/467 72/468/468
f 73/469/469 81/470/470 80/471/471
f 80/472/472 72/473/473 73/474/474
f 66/475/475 74/476/476 81/477/477
f 81/478/478 73/479/479 66/480/480
f 75/481/481 83/482/482 82/483/483
f 82/484/484 74/485/485 75/486/486
f 76/487/487 84/488/488 83/489/489
f 83/490/490 75/491/491 76/492/492
f 77/493/493 85/494/494 84/495/495
f 84/496/496 76/497/497 77/498/498
f 78/499/499 86/500/500 85/501/501
f 85/502/502 77/503/503 78/504/504
f 79/505/505 87/506/506 86/507/507
f 86/508/508 78/509/509 79/510/510
f 80/511/511 88/512/512 87/513/513
f 87/514/514 79/515/515 80/516/516
f 81/517/517 89/518/518 88/519/519
f 88/520/520 80/521/521 81/522/522
f 74/523/523 82/524/524 89/525/525
f 89/526/526 81/527/527 74/528/528
f 91/529/529 90/530/530 82/531/531
f 82/532/532 83/533/533 91/534/534
f 84/535/535 92/536/536 91/537/537
f 91/538/538 83/539/539 84/540/540
f 93/541/541 92/542/542 84/543/543
f 84/544/544 85/545/545 93/546/546
f 86/547/547 94/548/548 93/549/549
f 93/550/550 85/551/551 86/552/552
f 95/553/553 94/554/554 86/555/555
f 86/556/556 87/557/557 95/558/558
f 88/559/559 96/560/560 95/561/561
f 95/562/562 87/563/563 88/564/564
f 97/565/565 96/566/566 88/567/567
f 88/568/568 89/569/569 97/570/570
f 82/571/571 90/572/572 97/573/573
f 97/574/574 89/575/575 82/576/576
f 91/577/577 99/578/578 98/579/579
f 98/580/580 90/581/581 91/582/582
f 92/583/583 100/584/584 99/585/585
f 99/586/586 91/587/587 92/588/588
f 93/589/589 101/590/590 100/591/591
f 100/592/592 92/593/593 93/594/594
f 94/595/595 102/596/596 101/597/597
f 101/598/598 93/599/599 94/600/600
f 95/601/601 103/602/602 102/603/603
f 102/604/604 94/605/605 95/606/606
f 96/607/607 104/608/608 103/609/609
f 103/610/610 95/611/611 96/612/612
f 97/613/613 105/614/614 104/615/615
f 104/616/616 96/617/617 97/618/618
f 90/619/619 98/620/620 105/621/621
f 105/622/622 97/623/623 90/624/624
f 107/625/625 119/626/626 123/627/627
f 123/628/628 111/629/629 107/630/630
f 112/631/631 124/632/632 119/633/633
f 119/634/634 107/635/635 112/636/636
f 108/637/637 120/638/638 125/639/639
f 125/640/640 113/641/641 108/642/642
f 114/643/643 126/644/644 120/645/645
f 120/646/646 108/647/647 114/648/648
f 109/649/649 121/650/650 127/651/651
f 127/652/652 115/653/653 109/654/654
f 116/655/655 128/656/656 121/657/657
f 121/658/658 109/659/659 116/660/660
f 110/661/661 122/662/662 129/663/663
f 129/664/664 117/665/665 110/666/666
f 118/667/667 130/668/668 122/669/669
f 122/670/670 110/671/671 118/672/672
f 123/673/673 119/674/674 107/675/675
f 107/676/676 111/677/677 123/678/678
f 119/679/679 124/680/680 112/681/681
f 112/682/682 107/683/683 119/684/684
f 125/685/685 120/686/686 108/687/687
f 108/688/688 113/689/689 125/690/690
f 120/691/691 126/692/692 114/693/693
f 114/694/694 108/695/695 120/696/696
f 127/697/697 121/698/698 109/699/699
f 109/700/700 115/701/701 127/702/702
f 121/703/703 128/704/704 116/705/705
f 116/706/706 109/707/707 121/708/708
f 129/709/709 122/710/710 110/711/711
f 110/712/712 117/713/713 129/714/714
f 122/715/715 130/716/716 118/717/717
f 118/718/718 110/719/719 122/720/720
f 131/721/721 132/722/722 133/723/723
f 132/724/724 134/725/725 133/726/726
f 135/727/727 136/728/728 137/729/729
f 136/730/730 138/731/731 137/732/732
f 133/733/733 136/734/734 131/735/735
f 133/736/736 138/737/737 136/738/738
f 137/739/739 132/740/740 135/741/741
f 137/742/742 134/743/743 132/744/744
f 133/745/745 137/746/746 138/747/747
f 133/748/748 134/749/749 137/750/750
f 132/751/751 136/752/752 135/753/753
f 132/754/754 131/755/755 136/756/756
f 139/757/757 151/758/758 153/759/759
f 139/760/760 153/761/761 158/762/762
f 139/763/763 158/764/764 160/765/765
f 139/766/766 160/767/767 162/768/768
f 139/769/769 162/770/770 151/771/771
f 141/772/772 171/773/773 157/774/774
f 143/775/775 173/776/776 159/777/777
f 145/778/778 175/779/779 161/780/780
f 147/781/781 177/782/782 163/783/783
f 149/784/784 179/785/785 152/786/786
f 144/787/787 173/788/788 170/789/789
f 146/790/790 175/791/791 168/792/792
f 148/793/793 177/794/794 166/795/795
f 150/796/796 179/797/797 164/798/798
f 142/799/799 171/800/800 155/801/801
f 149/802/802 152/803/803 151/804/804
f 141/805/805 153/806/806 152/807/807
f 151/808/808 152/809/809 153/810/810
f 142/811/811 155/812/812 154/813/813
f 150/814/814 156/815/815 155/816/816
f 154/817/817 155/818/818 156/819/819
f 141/820/820 157/821/821 153/822/822
f 143/823/823 158/824/824 157/825/825
f 153/826/826 157/827/827 158/828/828
f 143/829/829 159/830/830 158/831/831
f 145/832/832 160/833/833 159/834/834
f 158/835/835 159/836/836 160/837/837
f 145/838/838 161/839/839 160/840/840
f 147/841/841 162/842/842 161/843/843
f 160/844/844 161/845/845 162/846/846
f 147/847/847 163/848/848 162/849/849
f 149/850/850 151/851/851 163/852/852
f 162/853/853 163/854/854 151/855/855
f 150/856/856 164/857/857 156/858/858
f 148/859/859 165/860/860 164/861/861
f 156/862/862 164/863/863 165/864/864
f 148/865/865 166/866/866 165/867/867
f 146/868/868 167/869/869 166/870/870
f 165/871/871 166/872/872 167/873/873
f 146/874/874 168/875/875 167/876/876
f 144/877/877 169/878/878 168/879/879
f 167/880/880 168/881/881 169/882/882
f 144/883/883 170/884/884 169/885/885
f 142/886/886 154/887/887 170/888/888
f 169/889/889 170/890/890 154/891/891
f 142/892/892 172/893/893 171/894/894
f 143/895/895 157/896/896 172/897/897
f 171/898/898 172/899/899 157/900/900
f 144/901/901 174/902/902 173/903/903
f 145/904/904 159/905/905 174/906/906
f 173/907/907 174/908/908 159/909/909
f 146/910/910 176/911/911 175/912/912
f 147/913/913 161/914/914 176/915/915
f 175/916/916 176/917/917 161/918/918
f 148/919/919 178/920/920 177/921/921
f 149/922/922 163/923/923 178/924/924
f 177/925/925 178/926/926 163/927/927
f 150/928/928 180/929/929 179/930/930
f 141/931/931 152/932/932 180/933/933
f 179/934/934 180/935/935 152/936/936
f 143/937/937 172/938/938 173/939/939
f 142/940/940 170/941/941 172/942/942
f 173/943/943 172/944/944 170/945/945
f 145/946/946 174/947/947 175/948/948
f 144/949/949 168/950/950 174/951/951
f 175/952/952 174/953/953 168/954/954
f 147/955/955 176/956/956 177/957/957
f 146/958/958 166/959/959 176/960/960
f 177/961/961 176/962/962 166/963/963
f 149/964/964 178/965/965 179/966/966
f 148/967/967 164/968/968 178/969/969
f 179/970/970 178/971/971 164/972/972
f 141/973/973 180/974/974 171/975/975
f 150/976/976 155/977/977 180/978/978
f 171/979/979 180/980/980 155/981/981
f 156/982/982 182/983/983 181/984/984
f 181/985/985 154/986/986 156/987/987
f 165/988/988 183/989/989 182/990/990
f 182/991/991 156/992/992 165/993/993
f 167/994/994 184/995/995 183/996/996
f 183/997/997 165/998/998 167/999/999
f 169/1000/1000 185/1001/1001 184/1002/1002
f 184/1003/1003 167/1004/1004 169/1005/1005
f 154/1006/1006 181/1007/1007 185/1008/1008
f 185/1009/1009 169/1010/1010 154/1011/1011
f 156/1012/1012 154/1013/1013 140/1014/1014
f 165/1015/1015 156/1016/1016 140/1017/1017
f 167/1018/1018 165/1019/1019 140/1020/1020
f 169/1021/1021 167/1022/1022 140/1023/1023
f 154/1024/1024 169/1025/1025 140/1026/1026
