# Wavefront OBJ file
# Exported by Maverick Model 3D 1.3.15
# Mon Sep 14 08:45:58 2026

mtllib prop.mtl

# 60 Vertices
v -4.889972 0.080183 5.013155
v -4.889972 0.080183 6.349592
v -4.889972 2.385419 5.013155
v -4.889972 2.385419 6.349592
v -1.720228 0.080183 6.349592
v -1.720228 0.080183 5.013155
v -1.720228 2.385419 6.349592
v -1.720228 2.385419 5.013155
v -2.290245 4.938061 5.644251
v -4.357735 0.096573 5.644251
v -2.520236 4.938061 5.644251
v -4.587726 0.096573 5.644251
v -2.290245 4.938061 6.322459
v -4.357735 0.096573 6.322459
v -2.520236 4.938061 6.322459
v -4.587726 0.096573 6.322459
v -2.797338 4.595932 6.340319
v -2.434133 4.595932 6.340319
v -2.797338 4.595932 5.612726
v -2.434133 4.595932 5.612725
v -2.993588 4.142588 6.340319
v -2.630383 4.142588 6.340319
v -2.993588 4.142588 5.612726
v -2.630383 4.142588 5.612725
v -3.193928 3.666854 6.340319
v -2.830723 3.666854 6.340319
v -3.193928 3.666854 5.612726
v -2.830723 3.666854 5.612725
v -3.390179 3.213508 6.340319
v -3.026973 3.213508 6.340319
v -3.390179 3.213508 5.612726
v -3.026973 3.213508 5.612725
v -3.598693 2.704193 6.340319
v -3.235488 2.704193 6.340319
v -3.598693 2.704193 5.612726
v -3.235488 2.704193 5.612725
v -3.794944 2.250847 6.340319
v -3.431739 2.250847 6.340319
v -3.794944 2.250847 5.612726
v -3.431739 2.250847 5.612725
v -3.987106 1.791905 6.340319
v -3.623901 1.791905 6.340319
v -3.987106 1.791905 5.612726
v -3.623901 1.791905 5.612725
v -4.183356 1.338558 6.340319
v -3.820151 1.338558 6.340319
v -4.183356 1.338558 5.612726
v -3.820151 1.338558 5.612725
v -4.36734 0.890809 6.340319
v -4.004135 0.890809 6.340319
v -4.36734 0.890809 5.612726
v -4.004135 0.890809 5.612725
v -4.56359 0.437463 6.340319
v -4.200385 0.437463 6.340319
v -4.56359 0.437463 5.612726
v -4.200385 0.437463 5.612725
v -4.92936 0.051242 6.090931
v -4.92936 0.051242 5.330057
v -4.92936 4.926948 6.090931
v -4.92936 4.926948 5.330057

# 264 Texture Coordinates
vt 0.62195 0.0
vt 1.0 0.0
vt 0.62195 0.492702
vt 1.0 0.0
vt 1.0 0.492702
vt 0.62195 0.492702
vt 1.0 0.0
vt 0.62195 0.0
vt 1.0 0.492702
vt 0.62195 0.0
vt 0.62195 0.492702
vt 1.0 0.492702
vt 1.0 0.499749
vt 0.000005 0.0
vt 1.0 0.0
vt 1.0 0.499749
vt 0.000005 0.499749
vt 0.000005 0.0
vt 0.000608 0.492961
vt 0.506203 1.009176
vt 0.506203 0.492961
vt 0.000608 0.492961
vt 0.000608 1.009176
vt 0.506203 1.009176
vt 0.62195 0.0
vt 1.0 0.0
vt 0.62195 0.492702
vt 1.0 0.0
vt 1.0 0.492702
vt 0.62195 0.492702
vt 1.0 0.0
vt 0.62195 0.0
vt 1.0 0.492702
vt 0.62195 0.0
vt 0.62195 0.492702
vt 1.0 0.492702
vt 1.0 0.499749
vt 0.000005 0.0
vt 1.0 0.0
vt 1.0 0.499749
vt 0.000005 0.499749
vt 0.000005 0.0
vt 0.000608 0.492961
vt 0.506203 1.009176
vt 0.506203 0.492961
vt 0.000608 0.492961
vt 0.000608 1.009176
vt 0.506203 1.009176
vt 0.62195 0.492702
vt 1.0 0.0
vt 0.62195 0.0
vt 0.62195 0.492702
vt 1.0 0.492702
vt 1.0 0.0
vt 1.0 0.492702
vt 0.62195 0.0
vt 1.0 0.0
vt 1.0 0.492702
vt 0.62195 0.492702
vt 0.62195 0.0
vt 1.0 0.0
vt 0.000005 0.0
vt 1.0 0.499749
vt 0.000005 0.0
vt 0.000005 0.499749
vt 1.0 0.499749
vt 0.506203 0.492961
vt 0.506203 1.009176
vt 0.000608 0.492961
vt 0.506203 1.009176
vt 0.000608 1.009176
vt 0.000608 0.492961
vt 0.62195 0.492702
vt 1.0 0.0
vt 0.62195 0.0
vt 0.62195 0.492702
vt 1.0 0.492702
vt 1.0 0.0
vt 1.0 0.492702
vt 0.62195 0.0
vt 1.0 0.0
vt 1.0 0.492702
vt 0.62195 0.492702
vt 0.62195 0.0
vt 1.0 0.0
vt 0.000005 0.0
vt 1.0 0.499749
vt 0.000005 0.0
vt 0.000005 0.499749
vt 1.0 0.499749
vt 0.506203 0.492961
vt 0.506203 1.009176
vt 0.000608 0.492961
vt 0.506203 1.009176
vt 0.000608 1.009176
vt 0.000608 0.492961
vt 0.515152 0.954545
vt 0.515152 0.507945
vt 0.942296 0.507945
vt 0.515152 0.954545
vt 0.515152 0.507945
vt 0.942296 0.507945
vt 0.942296 0.507945
vt 0.515152 0.507945
vt 0.515152 0.954545
vt 0.942296 0.507945
vt 0.515152 0.507945
vt 0.515152 0.954545
vt 0.515152 0.954545
vt 0.515152 0.507945
vt 0.942296 0.507945
vt 0.515152 0.954545
vt 0.515152 0.507945
vt 0.942296 0.507945
vt 0.942296 0.507945
vt 0.515152 0.507945
vt 0.515152 0.954545
vt 0.942296 0.507945
vt 0.515152 0.507945
vt 0.515152 0.954545
vt 0.506065 0.995426
vt 0.506065 0.493186
vt 1.0 0.493186
vt 1.0 0.493186
vt 1.0 0.995426
vt 0.506065 0.995426
vt 1.0 0.493186
vt 0.506065 0.493186
vt 0.506065 0.995426
vt 0.506065 0.995426
vt 1.0 0.995426
vt 1.0 0.493186
vt 0.506065 0.995426
vt 0.506065 0.493186
vt 1.0 0.493186
vt 1.0 0.493186
vt 1.0 0.995426
vt 0.506065 0.995426
vt 1.0 0.493186
vt 0.506065 0.493186
vt 0.506065 0.995426
vt 0.506065 0.995426
vt 1.0 0.995426
vt 1.0 0.493186
vt 0.506065 0.995426
vt 0.506065 0.493186
vt 1.0 0.493186
vt 1.0 0.493186
vt 1.0 0.995426
vt 0.506065 0.995426
vt 1.0 0.493186
vt 0.506065 0.493186
vt 0.506065 0.995426
vt 0.506065 0.995426
vt 1.0 0.995426
vt 1.0 0.493186
vt 0.506065 0.995426
vt 0.506065 0.493186
vt 1.0 0.493186
vt 1.0 0.493186
vt 1.0 0.995426
vt 0.506065 0.995426
vt 1.0 0.493186
vt 0.506065 0.493186
vt 0.506065 0.995426
vt 0.506065 0.995426
vt 1.0 0.995426
vt 1.0 0.493186
vt 0.506065 0.995426
vt 0.506065 0.493186
vt 1.0 0.493186
vt 1.0 0.493186
vt 1.0 0.995426
vt 0.506065 0.995426
vt 1.0 0.493186
vt 0.506065 0.493186
vt 0.506065 0.995426
vt 0.506065 0.995426
vt 1.0 0.995426
vt 1.0 0.493186
vt 0.506065 0.995426
vt 0.506065 0.493186
vt 1.0 0.493186
vt 1.0 0.493186
vt 1.0 0.995426
vt 0.506065 0.995426
vt 1.0 0.493186
vt 0.506065 0.493186
vt 0.506065 0.995426
vt 0.506065 0.995426
vt 1.0 0.995426
vt 1.0 0.493186
vt 0.506065 0.995426
vt 0.506065 0.493186
vt 1.0 0.493186
vt 1.0 0.493186
vt 1.0 0.995426
vt 0.506065 0.995426
vt 1.0 0.493186
vt 0.506065 0.493186
vt 0.506065 0.995426
vt 0.506065 0.995426
vt 1.0 0.995426
vt 1.0 0.493186
vt 0.506065 0.995426
vt 0.506065 0.493186
vt 1.0 0.493186
vt 1.0 0.493186
vt 1.0 0.995426
vt 0.506065 0.995426
vt 1.0 0.493186
vt 0.506065 0.493186
vt 0.506065 0.995426
vt 0.506065 0.995426
vt 1.0 0.995426
vt 1.0 0.493186
vt 0.506065 0.995426
vt 0.506065 0.493186
vt 1.0 0.493186
vt 1.0 0.493186
vt 1.0 0.995426
vt 0.506065 0.995426
vt 1.0 0.493186
vt 0.506065 0.493186
vt 0.506065 0.995426
vt 0.506065 0.995426
vt 1.0 0.995426
vt 1.0 0.493186
vt 0.506065 0.995426
vt 0.506065 0.493186
vt 1.0 0.493186
vt 1.0 0.493186
vt 1.0 0.995426
vt 0.506065 0.995426
vt 1.0 0.493186
vt 0.506065 0.493186
vt 0.506065 0.995426
vt 0.506065 0.995426
vt 1.0 0.995426
vt 1.0 0.493186
vt 1.0 0.499749
vt 0.000005 0.0
vt 1.0 0.0
vt 1.0 0.499749
vt 0.000005 0.499749
vt 0.000005 0.0
vt 1.0 0.499749
vt 0.000005 0.0
vt 1.0 0.0
vt 1.0 0.499749
vt 0.000005 0.499749
vt 0.000005 0.0
vt 1.0 0.0
vt 0.000005 0.0
vt 1.0 0.499749
vt 0.000005 0.0
vt 0.000005 0.499749
vt 1.0 0.499749
vt 1.0 0.0
vt 0.000005 0.0
vt 1.0 0.499749
vt 0.000005 0.0
vt 0.000005 0.499749
vt 1.0 0.499749

# 264 Vertex Normals
vn -1.0 0.0 0.0
vn -1.0 0.0 0.0
vn -1.0 0.0 0.0
vn -1.0 0.0 0.0
vn -1.0 0.0 0.0
vn -1.0 0.0 0.0
vn 1.0 0.0 0.0
vn 1.0 0.0 0.0
vn 1.0 0.0 0.0
vn 1.0 0.0 0.0
vn 1.0 0.0 0.0
vn 1.0 0.0 0.0
vn 0.0 0.0 1.0
vn 0.0 0.0 1.0
vn 0.0 0.0 1.0
vn 0.0 0.0 1.0
vn 0.0 0.0 1.0
vn 0.0 0.0 1.0
vn 0.0 -1.0 0.0
vn 0.0 -1.0 0.0
vn 0.0 -1.0 0.0
vn 0.0 -1.0 0.0
vn 0.0 -1.0 0.0
vn 0.0 -1.0 0.0
vn -1.0 0.0 0.0
vn -1.0 0.0 0.0
vn -1.0 0.0 0.0
vn -1.0 0.0 0.0
vn -1.0 0.0 0.0
vn -1.0 0.0 0.0
vn 1.0 0.0 0.0
vn 1.0 0.0 0.0
vn 1.0 0.0 0.0
vn 1.0 0.0 0.0
vn 1.0 0.0 0.0
vn 1.0 0.0 0.0
vn 0.0 0.0 1.0
vn 0.0 0.0 1.0
vn 0.0 0.0 1.0
vn 0.0 0.0 1.0
vn 0.0 0.0 1.0
vn 0.0 0.0 1.0
vn 0.0 -1.0 0.0
vn 0.0 -1.0 0.0
vn 0.0 -1.0 0.0
vn 0.0 -1.0 0.0
vn 0.0 -1.0 0.0
vn 0.0 -1.0 0.0
vn 1.0 0.0 0.0
vn 1.0 0.0 0.0
vn 1.0 0.0 0.0
vn 1.0 0.0 0.0
vn 1.0 0.0 0.0
vn 1.0 0.0 0.0
vn -1.0 0.0 0.0
vn -1.0 0.0 0.0
vn -1.0 0.0 0.0
vn -1.0 0.0 0.0
vn -1.0 0.0 0.0
vn -1.0 0.0 0.0
vn 0.0 0.0 -1.0
vn 0.0 0.0 -1.0
vn 0.0 0.0 -1.0
vn 0.0 0.0 -1.0
vn 0.0 0.0 -1.0
vn 0.0 0.0 -1.0
vn 0.0 1.0 0.0
vn 0.0 1.0 0.0
vn 0.0 1.0 0.0
vn 0.0 1.0 0.0
vn 0.0 1.0 0.0
vn 0.0 1.0 0.0
vn 1.0 0.0 0.0
vn 1.0 0.0 0.0
vn 1.0 0.0 0.0
vn 1.0 0.0 0.0
vn 1.0 0.0 0.0
vn 1.0 0.0 0.0
vn -1.0 0.0 0.0
vn -1.0 0.0 0.0
vn -1.0 0.0 0.0
vn -1.0 0.0 0.0
vn -1.0 0.0 0.0
vn -1.0 0.0 0.0
vn 0.0 0.0 -1.0
vn 0.0 0.0 -1.0
vn 0.0 0.0 -1.0
vn 0.0 0.0 -1.0
vn 0.0 0.0 -1.0
vn 0.0 0.0 -1.0
vn 0.0 1.0 0.0
vn 0.0 1.0 0.0
vn 0.0 1.0 0.0
vn 0.0 1.0 0.0
vn 0.0 1.0 0.0
vn 0.0 1.0 0.0
vn 0.0 0.0 -1.0
vn 0.0 -0.000001 -1.0
vn 0.0 0.0 -1.0
vn 0.0 0.0 -1.0
vn 0.0 0.000001 -1.0
vn 0.0 0.0 -1.0
vn 0.0 0.0 1.0
vn 0.0 0.0 1.0
vn 0.0 0.0 1.0
vn 0.0 0.0 1.0
vn 0.0 -0.0 1.0
vn 0.0 0.0 1.0
vn 0.0 0.0 -1.0
vn 0.0 0.0 -1.0
vn 0.0 0.0 -1.0
vn 0.0 0.0 -1.0
vn 0.0 0.0 -1.0
vn 0.0 0.0 -1.0
vn 0.0 0.0 1.0
vn 0.0 -0.0 1.0
vn 0.0 0.0 1.0
vn 0.0 0.0 1.0
vn 0.0 0.0 1.0
vn 0.0 0.0 1.0
vn 0.0 1.0 0.0
vn 0.0 1.0 0.0
vn 0.0 1.0 0.0
vn 0.0 1.0 0.0
vn 0.000001 1.0 0.0
vn 0.0 1.0 0.0
vn -0.0 -1.0 0.0
vn 0.0 -1.0 0.0
vn -0.0 -1.0 0.0
vn -0.0 -1.0 0.0
vn -0.000001 -1.0 0.0
vn -0.0 -1.0 0.0
vn 0.0 1.0 0.0
vn 0.0 1.0 0.0
vn 0.0 1.0 0.0
vn 0.0 1.0 0.0
vn 0.0 1.0 0.0
vn 0.0 1.0 0.0
vn 0.0 -1.0 0.0
vn 0.0 -1.0 0.0
vn 0.0 -1.0 0.0
vn 0.0 -1.0 0.0
vn 0.0 -1.0 0.0
vn 0.0 -1.0 0.0
vn 0.0 1.0 0.0
vn 0.0 1.0 0.0
vn 0.0 1.0 0.0
vn 0.0 1.0 0.0
vn 0.0 1.0 0.0
vn 0.0 1.0 0.0
vn 0.0 -1.0 0.0
vn 0.0 -1.0 0.0
vn 0.0 -1.0 0.0
vn 0.0 -1.0 0.0
vn 0.0 -1.0 0.0
vn 0.0 -1.0 0.0
vn 0.0 1.0 0.0
vn 0.0 1.0 0.0
vn 0.0 1.0 0.0
vn 0.0 1.0 0.0
vn 0.0 1.0 0.0
vn 0.0 1.0 0.0
vn 0.0 -1.0 0.0
vn 0.0 -1.0 0.0
vn 0.0 -1.0 0.0
vn 0.0 -1.0 0.0
vn 0.0 -1.0 0.0
vn 0.0 -1.0 0.0
vn -0.0 1.0 0.0
vn 0.0 1.0 0.0
vn -0.0 1.0 0.0
vn -0.0 1.0 0.0
vn -0.0 1.0 0.0
vn -0.0 1.0 0.0
vn 0.0 -1.0 0.0
vn 0.0 -1.0 0.0
vn 0.0 -1.0 0.0
vn 0.0 -1.0 0.0
vn 0.0 -1.0 0.0
vn 0.0 -1.0 0.0
vn -0.0 1.0 0.0
vn 0.0 1.0 0.0
vn -0.0 1.0 0.0
vn -0.0 1.0 0.0
vn -0.0 1.0 0.0
vn -0.0 1.0 0.0
vn 0.0 -1.0 0.0
vn 0.0 -1.0 0.0
vn 0.0 -1.0 0.0
vn 0.0 -1.0 0.0
vn 0.0 -1.0 0.0
vn 0.0 -1.0 0.0
vn 0.0 1.0 0.0
vn 0.0 1.0 0.0
vn 0.0 1.0 0.0
vn 0.0 1.0 0.0
vn 0.0 1.0 0.0
vn 0.0 1.0 0.0
vn -0.0 -1.0 0.0
vn 0.0 -1.0 0.0
vn -0.0 -1.0 0.0
vn -0.0 -1.0 0.0
vn -0.0 -1.0 0.0
vn -0.0 -1.0 0.0
vn 0.0 1.0 0.0
vn 0.0 1.0 0.0
vn 0.0 1.0 0.0
vn 0.0 1.0 0.0
vn 0.0 1.0 0.0
vn 0.0 1.0 0.0
vn -0.0 -1.0 0.0
vn 0.0 -1.0 0.0
vn -0.0 -1.0 0.0
vn -0.0 -1.0 0.0
vn -0.0 -1.0 0.0
vn -0.0 -1.0 0.0
vn 0.0 1.0 0.0
vn 0.0 1.0 0.0
vn 0.0 1.0 0.0
vn 0.0 1.0 0.0
vn 0.0 1.0 0.0
vn 0.0 1.0 0.0
vn -0.0 -1.0 0.0
vn 0.0 -1.0 0.0
vn -0.0 -1.0 0.0
vn -0.0 -1.0 0.0
vn -0.0 -1.0 0.0
vn -0.0 -1.0 0.0
vn 0.0 1.0 0.0
vn 0.0 1.0 0.0
vn 0.0 1.0 0.0
vn 0.0 1.0 0.0
vn 0.0 1.0 0.0
vn 0.0 1.0 0.0
vn 0.0 -1.0 0.0
vn 0.0 -1.0 0.0
vn 0.0 -1.0 0.0
vn 0.0 -1.0 0.0
vn 0.0 -1.0 0.0
vn 0.0 -1.0 0.0
vn -1.0 0.0 0.0
vn -1.0 0.0 0.0
vn -1.0 0.0 0.0
vn -1.0 0.0 0.0
vn -1.0 0.0 0.0
vn -1.0 0.0 0.0
vn -1.0 0.0 0.0
vn -1.0 0.0 0.0
vn -1.0 0.0 0.0
vn -1.0 0.0 0.0
vn -1.0 0.0 0.0
vn -1.0 0.0 0.0
vn 1.0 0.0 0.0
vn 1.0 0.0 0.0
vn 1.0 0.0 0.0
vn 1.0 0.0 0.0
vn 1.0 0.0 0.0
vn 1.0 0.0 0.0
vn 1.0 0.0 0.0
vn 1.0 0.0 0.0
vn 1.0 0.0 0.0
vn 1.0 0.0 0.0
vn 1.0 0.0 0.0
vn 1.0 0.0 0.0

# group, 88 grouped triangles

usemtl prop.png
o prop.png
g prop.png

f 1/1/1 2/2/2 3/3/3
f 2/4/4 4/5/5 3/6/6
f 5/7/7 6/8/8 7/9/9
f 6/10/10 8/11/11 7/12/12
f 7/13/13 2/14/14 5/15/15
f 7/16/16 4/17/17 2/18/18
f 2/19/19 6/20/20 5/21/21
f 2/22/22 1/23/23 6/24/24
f 1/25/25 2/26/26 3/27/27
f 2/28/28 4/29/29 3/30/30
f 5/31/31 6/32/32 7/33/33
f 6/34/34 8/35/35 7/36/36
f 7/37/37 2/38/38 5/39/39
f 7/40/40 4/41/41 2/42/42
f 2/43/43 6/44/44 5/45/45
f 2/46/46 1/47/47 6/48/48
f 3/49/49 2/50/50 1/51/51
f 3/52/52 4/53/53 2/54/54
f 7/55/55 6/56/56 5/57/57
f 7/58/58 8/59/59 6/60/60
f 5/61/61 2/62/62 7/63/63
f 2/64/64 4/65/65 7/66/66
f 5/67/67 6/68/68 2/69/69
f 6/70/70 1/71/71 2/72/72
f 3/73/73 2/74/74 1/75/75
f 3/76/76 4/77/77 2/78/78
f 7/79/79 6/80/80 5/81/81
f 7/82/82 8/83/83 6/84/84
f 5/85/85 2/86/86 7/87/87
f 2/88/88 4/89/89 7/90/90
f 5/91/91 6/92/92 2/93/93
f 6/94/94 1/95/95 2/96/96
f 9/97/97 10/98/98 12/99/99
f 12/100/100 11/101/101 9/102/102
f 12/103/103 10/104/104 9/105/105
f 9/106/106 11/107/107 12/108/108
f 13/109/109 14/110/110 16/111/111
f 16/112/112 15/113/113 13/114/114
f 16/115/115 14/116/116 13/117/117
f 13/118/118 15/119/119 16/120/120
f 17/121/121 18/122/122 20/123/123
f 20/124/124 19/125/125 17/126/126
f 20/127/127 18/128/128 17/129/129
f 17/130/130 19/131/131 20/132/132
f 21/133/133 22/134/134 24/135/135
f 24/136/136 23/137/137 21/138/138
f 24/139/139 22/140/140 21/141/141
f 21/142/142 23/143/143 24/144/144
f 25/145/145 26/146/146 28/147/147
f 28/148/148 27/149/149 25/150/150
f 28/151/151 26/152/152 25/153/153
f 25/154/154 27/155/155 28/156/156
f 29/157/157 30/158/158 32/159/159
f 32/160/160 31/161/161 29/162/162
f 32/163/163 30/164/164 29/165/165
f 29/166/166 31/167/167 32/168/168
f 33/169/169 34/170/170 36/171/171
f 36/172/172 35/173/173 33/174/174
f 36/175/175 34/176/176 33/177/177
f 33/178/178 35/179/179 36/180/180
f 37/181/181 38/182/182 40/183/183
f 40/184/184 39/185/185 37/186/186
f 40/187/187 38/188/188 37/189/189
f 37/190/190 39/191/191 40/192/192
f 41/193/193 42/194/194 44/195/195
f 44/196/196 43/197/197 41/198/198
f 44/199/199 42/200/200 41/201/201
f 41/202/202 43/203/203 44/204/204
f 45/205/205 46/206/206 48/207/207
f 48/208/208 47/209/209 45/210/210
f 48/211/211 46/212/212 45/213/213
f 45/214/214 47/215/215 48/216/216
f 49/217/217 50/218/218 52/219/219
f 52/220/220 51/221/221 49/222/222
f 52/223/223 50/224/224 49/225/225
f 49/226/226 51/227/227 52/228/228
f 53/229/229 54/230/230 56/231/231
f 56/232/232 55/233/233 53/234/234
f 56/235/235 54/236/236 53/237/237
f 53/238/238 55/239/239 56/240/240
f 60/241/241 57/242/242 59/243/243
f 60/244/244 58/245/245 57/246/246
f 60/247/247 57/248/248 59/249/249
f 60/250/250 58/251/251 57/252/252
f 59/253/253 57/254/254 60/255/255
f 57/256/256 58/257/257 60/258/258
f 59/259/259 57/260/260 60/261/261
f 57/262/262 58/263/263 60/264/264
