# Wavefront OBJ file
# Exported by Maverick Model 3D 1.3.15
# Mon Sep 14 12:11:13 2026

mtllib floor.mtl

# 36 Vertices
v -5.0 5.0 5.0
v -5.0 -0.0 5.0
v 5.0 5.0 5.0
v 5.0 -0.0 5.0
v -4.996 4.782 5.162
v 5.0 4.782 5.162
v -4.996 5.0 5.162
v 5.0 5.0 5.162
v 5.0 4.566 5.0
v -4.996 4.566 5.0
v 5.0 5.0 5.0
v -4.996 5.0 5.0
v -3.686 0.992 5.177
v -2.075 0.992 5.177
v -3.686 1.158 5.177
v -2.075 1.158 5.177
v -2.075 0.992 5.0
v -3.686 0.992 5.0
v -2.075 1.158 5.0
v -3.686 1.158 5.0
v -0.745 0.977 5.177
v 0.894 0.977 5.177
v -0.745 1.165 5.177
v 0.894 1.165 5.177
v 0.894 0.977 5.0
v -0.745 0.977 5.0
v 0.894 1.165 5.0
v -0.745 1.165 5.0
v 2.065 0.999 5.177
v 3.704 0.999 5.177
v 2.065 1.165 5.177
v 3.704 1.165 5.177
v 3.704 0.999 5.0
v 2.065 0.999 5.0
v 3.704 1.165 5.0
v 2.065 1.165 5.0

# 126 Texture Coordinates
vt 0.0 1.0
vt 0.0 0.0
vt 1.0 0.0
vt 1.0 0.0
vt 1.0 1.0
vt 0.0 1.0
vt 0.0 0.915812
vt 0.999485 0.915812
vt 0.0 1.0
vt 0.999485 0.915812
vt 0.999485 1.0
vt 0.0 1.0
vt 0.0 1.0
vt 0.0 0.83114
vt 0.0 0.915812
vt 0.428958 0.231752
vt 0.428958 0.231752
vt 0.428958 0.199387
vt 0.584877 0.231752
vt 0.584877 0.199387
vt 0.584877 0.199387
vt 0.584877 0.231752
vt 0.584877 0.231752
vt 0.584877 0.199387
vt 0.0 1.0
vt 0.999485 1.0
vt 0.0 1.0
vt 0.0 1.0
vt 0.999485 1.0
vt 0.999485 1.0
vt 0.999485 0.915812
vt 0.0 0.83114
vt 0.999485 0.83114
vt 0.999485 0.915812
vt 0.0 0.915812
vt 0.0 0.83114
vt 0.428958 0.199387
vt 0.584877 0.199387
vt 0.428958 0.231752
vt 0.584877 0.199387
vt 0.584877 0.231752
vt 0.428958 0.231752
vt 0.428958 0.231752
vt 0.428958 0.199387
vt 0.428958 0.199387
vt 0.428958 0.231752
vt 0.428958 0.231752
vt 0.428958 0.199387
vt 0.584877 0.231752
vt 0.584877 0.199387
vt 0.584877 0.199387
vt 0.584877 0.231752
vt 0.584877 0.231752
vt 0.584877 0.199387
vt 0.429928 0.199482
vt 0.582422 0.231728
vt 0.429928 0.231728
vt 0.429928 0.199482
vt 0.582422 0.199482
vt 0.582422 0.231728
vt 0.491257 0.153579
vt 0.471915 0.169696
vt 0.491257 0.169696
vt 0.491257 0.153579
vt 0.471915 0.153579
vt 0.471915 0.169696
vt 0.428958 0.199387
vt 0.584877 0.199387
vt 0.428958 0.231752
vt 0.584877 0.199387
vt 0.584877 0.231752
vt 0.428958 0.231752
vt 0.428958 0.231752
vt 0.428958 0.199387
vt 0.428958 0.199387
vt 0.428958 0.231752
vt 0.428958 0.231752
vt 0.428958 0.199387
vt 0.584877 0.231752
vt 0.584877 0.199387
vt 0.584877 0.199387
vt 0.584877 0.231752
vt 0.584877 0.231752
vt 0.584877 0.199387
vt 0.429928 0.199482
vt 0.582422 0.231728
vt 0.429928 0.231728
vt 0.429928 0.199482
vt 0.582422 0.199482
vt 0.582422 0.231728
vt 0.525232 0.153579
vt 0.506547 0.169696
vt 0.525232 0.169696
vt 0.525232 0.153579
vt 0.506547 0.153579
vt 0.506547 0.169696
vt 0.428958 0.199387
vt 0.584877 0.199387
vt 0.428958 0.231752
vt 0.584877 0.199387
vt 0.584877 0.231752
vt 0.428958 0.231752
vt 0.428958 0.231752
vt 0.428958 0.199387
vt 0.428958 0.199387
vt 0.428958 0.231752
vt 0.428958 0.231752
vt 0.428958 0.199387
vt 0.584877 0.231752
vt 0.584877 0.199387
vt 0.584877 0.199387
vt 0.584877 0.231752
vt 0.584877 0.231752
vt 0.584877 0.199387
vt 0.429928 0.199482
vt 0.582422 0.231728
vt 0.429928 0.231728
vt 0.429928 0.199482
vt 0.582422 0.199482
vt 0.582422 0.231728
vt 0.525232 0.153579
vt 0.506547 0.169696
vt 0.525232 0.169696
vt 0.525232 0.153579
vt 0.506547 0.153579
vt 0.506547 0.169696

# 126 Vertex Normals
vn 0.0 0.0 1.0
vn 0.0 0.0 1.0
vn 0.0 0.0 1.0
vn 0.0 0.0 1.0
vn 0.0 0.0 1.0
vn 0.0 0.0 1.0
vn 0.0 -0.31679 0.948496
vn 0.0 -0.31679 0.948496
vn 0.0 0.0 1.0
vn 0.0 -0.31679 0.948496
vn 0.0 0.0 1.0
vn 0.0 0.0 1.0
vn -1.0 0.0 0.0
vn -1.0 0.0 0.0
vn -1.0 0.0 0.0
vn -1.0 0.0 0.0
vn -1.0 0.0 0.0
vn -1.0 0.0 0.0
vn 1.0 0.0 0.0
vn 1.0 0.0 0.0
vn 1.0 0.0 0.0
vn 1.0 0.0 0.0
vn 1.0 0.0 0.0
vn 1.0 0.0 0.0
vn 0.0 1.0 0.0
vn 0.0 1.0 0.0
vn 0.0 1.0 0.0
vn 0.0 1.0 0.0
vn 0.0 1.0 0.0
vn 0.0 1.0 0.0
vn 0.0 -0.31679 0.948496
vn 0.0 -0.600947 0.799289
vn 0.0 -0.600947 0.799289
vn 0.0 -0.31679 0.948496
vn 0.0 -0.31679 0.948496
vn 0.0 -0.600947 0.799289
vn 0.0 0.0 1.0
vn 0.0 0.0 1.0
vn 0.0 0.0 1.0
vn 0.0 0.0 1.0
vn 0.0 0.0 1.0
vn 0.0 0.0 1.0
vn -1.0 0.0 0.0
vn -1.0 0.0 0.0
vn -1.0 0.0 0.0
vn -1.0 0.0 0.0
vn -1.0 0.0 0.0
vn -1.0 0.0 0.0
vn 1.0 0.0 0.0
vn 1.0 0.0 0.0
vn 1.0 0.0 0.0
vn 1.0 0.0 0.0
vn 1.0 0.0 0.0
vn 1.0 0.0 0.0
vn 0.0 1.0 0.0
vn 0.0 1.0 0.0
vn 0.0 1.0 0.0
vn 0.0 1.0 0.0
vn 0.0 1.0 0.0
vn 0.0 1.0 0.0
vn 0.0 -1.0 0.0
vn 0.0 -1.0 0.0
vn 0.0 -1.0 0.0
vn 0.0 -1.0 0.0
vn 0.0 -1.0 0.0
vn 0.0 -1.0 0.0
vn 0.0 0.0 1.0
vn 0.0 0.0 1.0
vn 0.0 0.0 1.0
vn 0.0 0.0 1.0
vn 0.0 0.0 1.0
vn 0.0 0.0 1.0
vn -1.0 0.0 0.0
vn -1.0 0.0 0.0
vn -1.0 0.0 0.0
vn -1.0 0.0 0.0
vn -1.0 0.0 0.0
vn -1.0 0.0 0.0
vn 1.0 0.0 0.0
vn 1.0 0.0 0.0
vn 1.0 0.0 0.0
vn 1.0 0.0 0.0
vn 1.0 0.0 0.0
vn 1.0 0.0 0.0
vn 0.0 1.0 0.0
vn 0.0 1.0 0.0
vn 0.0 1.0 0.0
vn 0.0 1.0 0.0
vn 0.0 1.0 0.0
vn 0.0 1.0 0.0
vn 0.0 -1.0 0.0
vn 0.0 -1.0 0.0
vn 0.0 -1.0 0.0
vn 0.0 -1.0 0.0
vn 0.0 -1.0 0.0
vn 0.0 -1.0 0.0
vn 0.0 0.0 1.0
vn 0.0 0.0 1.0
vn 0.0 0.0 1.0
vn 0.0 0.0 1.0
vn 0.0 0.0 1.0
vn 0.0 0.0 1.0
vn -1.0 0.0 0.0
vn -1.0 0.0 0.0
vn -1.0 0.0 0.0
vn -1.0 0.0 0.0
vn -1.0 0.0 0.0
vn -1.0 0.0 0.0
vn 1.0 0.0 0.0
vn 1.0 0.0 0.0
vn 1.0 0.0 0.0
vn 1.0 0.0 0.0
vn 1.0 0.0 0.0
vn 1.0 0.0 0.0
vn 0.0 1.0 0.0
vn 0.0 1.0 0.0
vn 0.0 1.0 0.0
vn 0.0 1.0 0.0
vn 0.0 1.0 0.0
vn 0.0 1.0 0.0
vn 0.0 -1.0 0.0
vn 0.0 -1.0 0.0
vn 0.0 -1.0 0.0
vn 0.0 -1.0 0.0
vn 0.0 -1.0 0.0
vn 0.0 -1.0 0.0

# group, 42 grouped triangles

usemtl floor.jpg
o group
g group

f 1/1/1 2/2/2 4/3/3
f 4/4/4 3/5/5 1/6/6
f 5/7/7 6/8/8 7/9/9
f 6/10/10 8/11/11 7/12/12
f 7/13/13 10/14/14 5/15/15
f 7/16/16 12/17/17 10/18/18
f 11/19/19 6/20/20 9/21/21
f 11/22/22 8/23/23 6/24/24
f 7/25/25 11/26/26 12/27/27
f 7/28/28 8/29/29 11/30/30
f 6/31/31 10/32/32 9/33/33
f 6/34/34 5/35/35 10/36/36
f 13/37/37 14/38/38 15/39/39
f 14/40/40 16/41/41 15/42/42
f 15/43/43 18/44/44 13/45/45
f 15/46/46 20/47/47 18/48/48
f 19/49/49 14/50/50 17/51/51
f 19/52/52 16/53/53 14/54/54
f 15/55/55 19/56/56 20/57/57
f 15/58/58 16/59/59 19/60/60
f 14/61/61 18/62/62 17/63/63
f 14/64/64 13/65/65 18/66/66
f 21/67/67 22/68/68 23/69/69
f 22/70/70 24/71/71 23/72/72
f 23/73/73 26/74/74 21/75/75
f 23/76/76 28/77/77 26/78/78
f 27/79/79 22/80/80 25/81/81
f 27/82/82 24/83/83 22/84/84
f 23/85/85 27/86/86 28/87/87
f 23/88/88 24/89/89 27/90/90
f 22/91/91 26/92/92 25/93/93
f 22/94/94 21/95/95 26/96/96
f 29/97/97 30/98/98 31/99/99
f 30/100/100 32/101/101 31/102/102
f 31/103/103 34/104/104 29/105/105
f 31/106/106 36/107/107 34/108/108
f 35/109/109 30/110/110 33/111/111
f 35/112/112 32/113/113 30/114/114
f 31/115/115 35/116/116 36/117/117
f 31/118/118 32/119/119 35/120/120
f 30/121/121 34/122/122 33/123/123
f 30/124/124 29/125/125 34/126/126
