# Wavefront OBJ file
# Exported by Maverick Model 3D 1.3.15
# Fri Sep 18 15:58:02 2026

mtllib road.mtl

# 28 Vertices
v 3.0 0.2 5.0
v 3.27 0.2 4.0
v 4.0 0.2 3.27
v 5.0 0.2 3.0
v 3.0 0.0 5.0
v 3.27 0.0 4.0
v 4.0 0.0 3.27
v 5.0 0.0 3.0
v 5.0 0.2 5.0
v -5.0 0.2 -5.0
v -5.0 0.2 -3.0
v -5.0 -0.0 -3.0
v 5.0 0.2 -5.0
v 5.0 -0.0 -3.0
v 5.0 0.2 -3.0
v -5.0 0.2 3.0
v -4.0 0.2 3.27
v -3.255082 0.2 4.0
v -3.0 0.2 5.0
v -5.0 0.0 3.0
v -4.0 0.0 3.27
v -3.255082 -0.0 4.0
v -3.0 0.0 5.0
v -5.0 0.2 5.0
v -5.0 -0.0 5.0
v -5.0 0.0 -4.992198
v 5.0 0.0 -4.992198
v 5.0 -0.0 5.0

# 72 Texture Coordinates
vt 0.999404 0.172645
vt 0.918552 0.148273
vt 0.998519 0.201935
vt 0.918552 0.148273
vt 0.899962 0.170151
vt 0.998519 0.201935
vt 0.918552 0.148273
vt 0.848054 0.076689
vt 0.899962 0.170151
vt 0.848054 0.076689
vt 0.82932 0.095851
vt 0.899962 0.170151
vt 0.848054 0.076689
vt 0.828181 -0.000488
vt 0.82932 0.095851
vt 0.828181 -0.000488
vt 0.803047 0.000628
vt 0.82932 0.095851
vt 1.0 0.0
vt 0.829497 0.096568
vt 0.803567 0.00136
vt 1.0 0.0
vt 0.900083 0.171823
vt 0.829497 0.096568
vt 1.0 0.0
vt 0.99932 0.199256
vt 0.900083 0.171823
vt 0.000438 0.84601
vt 1.0 1.0
vt 0.0 1.0
vt 0.000438 0.84601
vt 0.999093 0.84533
vt 1.0 1.0
vt 0.000665 0.845088
vt 1.0 0.868398
vt 0.000665 0.868398
vt 0.000665 0.845088
vt 1.0 0.845088
vt 1.0 0.868398
vt 0.999404 0.172645
vt 0.918552 0.148273
vt 0.998519 0.201935
vt 0.918552 0.148273
vt 0.899962 0.170151
vt 0.998519 0.201935
vt 0.918552 0.148273
vt 0.848054 0.076689
vt 0.899962 0.170151
vt 0.848054 0.076689
vt 0.82932 0.095851
vt 0.899962 0.170151
vt 0.848054 0.076689
vt 0.828181 -0.000488
vt 0.82932 0.095851
vt 0.828181 -0.000488
vt 0.803047 0.000628
vt 0.82932 0.095851
vt 1.0 0.0
vt 0.829497 0.096568
vt 0.803567 0.00136
vt 1.0 0.0
vt 0.900083 0.171823
vt 0.829497 0.096568
vt 1.0 0.0
vt 0.99932 0.199256
vt 0.900083 0.171823
vt 0.0 1.0
vt 1.0 0.0
vt 1.0 1.0
vt 0.0 1.0
vt 0.0 0.0
vt 1.0 0.0

# 72 Vertex Normals
vn -0.965429 0.0 -0.260666
vn -0.906527 0.0 -0.422148
vn -0.965429 0.0 -0.260666
vn -0.906527 0.0 -0.422148
vn -0.817755 0.0 -0.575566
vn -0.965429 0.0 -0.260666
vn -0.906527 0.0 -0.422148
vn -0.575566 0.0 -0.817755
vn -0.817755 0.0 -0.575566
vn -0.575566 0.0 -0.817755
vn -0.422148 0.0 -0.906527
vn -0.817755 0.0 -0.575566
vn -0.575566 0.0 -0.817755
vn -0.260666 0.0 -0.965429
vn -0.422148 0.0 -0.906527
vn -0.260666 0.0 -0.965429
vn -0.260666 0.0 -0.965429
vn -0.422148 0.0 -0.906527
vn 0.0 1.0 0.0
vn 0.0 1.0 0.0
vn 0.0 1.0 0.0
vn 0.0 1.0 0.0
vn 0.0 1.0 0.0
vn 0.0 1.0 0.0
vn 0.0 1.0 0.0
vn 0.0 1.0 0.0
vn 0.0 1.0 0.0
vn 0.0 1.0 0.0
vn 0.0 1.0 0.0
vn 0.0 1.0 0.0
vn 0.0 1.0 0.0
vn 0.0 1.0 0.0
vn 0.0 1.0 0.0
vn 0.0 0.0 1.0
vn 0.0 0.0 1.0
vn 0.0 0.0 1.0
vn 0.0 0.0 1.0
vn 0.0 0.0 1.0
vn 0.0 0.0 1.0
vn 0.260666 0.0 -0.965429
vn 0.419184 0.0 -0.907901
vn 0.260666 0.0 -0.965429
vn 0.419184 0.0 -0.907901
vn 0.569954 0.0 -0.821677
vn 0.260666 0.0 -0.965429
vn 0.419184 0.0 -0.907901
vn 0.816398 0.0 -0.57749
vn 0.569954 0.0 -0.821677
vn 0.816398 0.0 -0.57749
vn 0.909125 0.0 -0.416523
vn 0.569954 0.0 -0.821677
vn 0.816398 0.0 -0.57749
vn 0.968973 0.0 -0.247167
vn 0.909125 0.0 -0.416523
vn 0.968973 0.0 -0.247167
vn 0.968973 0.0 -0.247167
vn 0.909125 0.0 -0.416523
vn 0.0 1.0 0.0
vn 0.0 1.0 0.0
vn 0.0 1.0 0.0
vn 0.0 1.0 0.0
vn 0.0 1.0 0.0
vn 0.0 1.0 0.0
vn 0.0 1.0 0.0
vn 0.0 1.0 0.0
vn 0.0 1.0 0.0
vn 0.0 1.0 0.0
vn 0.0 1.0 0.0
vn 0.0 1.0 0.0
vn 0.0 1.0 0.0
vn 0.0 1.0 0.0
vn 0.0 1.0 0.0

# group, 24 grouped triangles

usemtl road.jpg
o group
g group

f 1/1/1 2/2/2 5/3/3
f 2/4/4 6/5/5 5/6/6
f 2/7/7 3/8/8 6/9/9
f 3/10/10 7/11/11 6/12/12
f 3/13/13 4/14/14 7/15/15
f 4/16/16 8/17/17 7/18/18
f 9/19/19 2/20/20 1/21/21
f 9/22/22 3/23/23 2/24/24
f 9/25/25 4/26/26 3/27/27
f 11/28/28 13/29/29 10/30/30
f 11/31/31 15/32/32 13/33/33
f 12/34/34 15/35/35 11/36/36
f 12/37/37 14/38/38 15/39/39
f 16/40/40 17/41/41 20/42/42
f 17/43/43 21/44/44 20/45/45
f 17/46/46 18/47/47 21/48/48
f 18/49/49 22/50/50 21/51/51
f 18/52/52 19/53/53 22/54/54
f 19/55/55 23/56/56 22/57/57
f 24/58/58 17/59/59 16/60/60
f 24/61/61 18/62/62 17/63/63
f 24/64/64 19/65/65 18/66/66
f 26/67/67 28/68/68 27/69/69
f 26/70/70 25/71/71 28/72/72
