# Wavefront OBJ file
# Exported by Maverick Model 3D 1.3.15
# Mon Sep 14 12:07:52 2026

mtllib shop.mtl

# 48 Vertices
v 5.0 5.0 5.0
v 5.0 0.0 5.0
v -5.0 5.0 5.0
v -5.0 0.0 5.0
v -4.552 4.095 4.986
v -4.552 3.274 6.369
v 4.76 4.095 4.986
v 4.76 3.274 6.369
v -4.552 3.111 6.378
v 4.76 3.111 6.378
v 4.748 3.283 6.351
v 4.748 3.245 6.38
v 4.748 2.869 4.912
v 4.748 2.832 4.941
v 1.703 3.283 6.351
v 1.703 3.245 6.38
v 1.703 2.869 4.912
v 1.703 2.832 4.941
v -4.372 3.283 6.351
v -4.372 3.245 6.38
v -4.372 2.869 4.912
v -4.372 2.832 4.941
v -4.619 4.159 5.086
v 4.886 4.159 5.086
v -4.619 4.967 5.086
v 4.886 4.967 5.086
v 4.886 4.159 4.984
v -4.619 4.159 4.984
v 4.886 4.967 4.984
v -4.619 4.967 4.984
v 2.05 0.0 5.0
v 2.05 2.743 5.0
v 4.391 0.0 5.0
v 4.391 2.743 5.0
v 2.05 0.0 4.291
v 2.05 2.743 4.291
v 4.391 0.0 4.291
v 4.391 2.743 4.291
v 1.976 0.436 4.272
v 1.976 0.436 4.632
v 4.515 0.436 4.272
v 4.515 0.436 4.632
v 1.332 0.219 4.638
v 4.766 0.219 4.638
v 1.332 0.215 5.001
v 4.766 0.215 5.001
v 1.332 0.001 5.004
v 4.766 0.001 5.004

# 156 Texture Coordinates
vt 0.006925 0.130044
vt 0.006925 0.018737
vt 0.998441 0.018737
vt 0.998441 0.018737
vt 0.998441 0.130044
vt 0.006925 0.130044
vt 0.998441 0.018737
vt 0.006925 0.018737
vt 0.006925 0.002551
vt 0.006925 0.002551
vt 0.998441 0.002551
vt 0.998441 0.018737
vt 0.563499 0.22627
vt 0.563499 0.223716
vt 0.563499 0.195702
vt 0.563499 0.195702
vt 0.563499 0.198256
vt 0.563499 0.22627
vt 0.563499 0.195702
vt 0.563499 0.223716
vt 0.563499 0.22627
vt 0.563499 0.22627
vt 0.563499 0.198256
vt 0.563499 0.195702
vt 0.458493 0.22627
vt 0.458493 0.223716
vt 0.458493 0.195702
vt 0.458493 0.195702
vt 0.458493 0.198256
vt 0.458493 0.22627
vt 0.458493 0.195702
vt 0.458493 0.223716
vt 0.458493 0.22627
vt 0.458493 0.22627
vt 0.458493 0.198256
vt 0.458493 0.195702
vt 0.24907 0.22627
vt 0.24907 0.223716
vt 0.24907 0.195702
vt 0.24907 0.195702
vt 0.24907 0.198256
vt 0.24907 0.22627
vt 0.24907 0.195702
vt 0.24907 0.223716
vt 0.24907 0.22627
vt 0.24907 0.22627
vt 0.24907 0.198256
vt 0.24907 0.195702
vt 0.998441 0.018737
vt 0.006925 0.018737
vt 0.006925 0.130044
vt 0.006925 0.130044
vt 0.998441 0.130044
vt 0.998441 0.018737
vt 0.006925 0.002551
vt 0.006925 0.018737
vt 0.998441 0.018737
vt 0.998441 0.018737
vt 0.998441 0.002551
vt 0.006925 0.002551
vt 0.030935 0.845492
vt 0.995071 0.845492
vt 0.030935 0.994056
vt 0.995071 0.845492
vt 0.995071 0.994056
vt 0.030935 0.994056
vt 0.030935 0.994056
vt 0.030935 0.845492
vt 0.030935 0.845492
vt 0.030935 0.994056
vt 0.030935 0.994056
vt 0.030935 0.845492
vt 0.995071 0.994056
vt 0.995071 0.845492
vt 0.995071 0.845492
vt 0.995071 0.994056
vt 0.995071 0.994056
vt 0.995071 0.845492
vt 0.030935 0.994056
vt 0.995071 0.994056
vt 0.030935 0.994056
vt 0.030935 0.994056
vt 0.995071 0.994056
vt 0.995071 0.994056
vt 0.995071 0.845492
vt 0.030935 0.845492
vt 0.995071 0.845492
vt 0.995071 0.845492
vt 0.030935 0.845492
vt 0.030935 0.845492
vt 0.69111 0.634313
vt 0.69111 0.304153
vt 0.642281 0.304153
vt 0.642281 0.304153
vt 0.642281 0.634313
vt 0.69111 0.634313
vt 0.69111 0.304153
vt 0.69111 0.634313
vt 0.642281 0.634313
vt 0.642281 0.634313
vt 0.642281 0.304153
vt 0.69111 0.304153
vt 0.750017 0.324259
vt 0.875764 0.324259
vt 0.875764 0.245251
vt 0.875764 0.245251
vt 0.750017 0.245251
vt 0.750017 0.324259
vt 0.0 1.0
vt 0.0 0.12524
vt 0.704984 0.12524
vt 0.0 1.0
vt 0.704984 0.605189
vt 1.0 1.0
vt 1.0 0.12524
vt 0.939131 0.605189
vt 0.939131 0.12524
vt 1.0 0.12524
vt 1.0 1.0
vt 0.939131 0.605189
vt 0.0 1.0
vt 0.704984 0.12524
vt 0.704984 0.605189
vt 1.0 1.0
vt 0.704984 0.605189
vt 0.939131 0.605189
vt 0.938256 0.125564
vt 0.704327 0.563264
vt 0.704327 0.125564
vt 0.704327 0.563264
vt 0.938256 0.125564
vt 0.938256 0.563264
vt 0.979496 0.510695
vt 0.94714 0.510865
vt 0.946719 0.349504
vt 0.946719 0.349504
vt 0.979075 0.349334
vt 0.979496 0.510695
vt 0.726251 0.200607
vt 0.726251 0.169829
vt 0.897165 0.169829
vt 0.897165 0.169829
vt 0.897165 0.200607
vt 0.726251 0.200607
vt 0.978443 0.49997
vt 0.945798 0.500142
vt 0.945377 0.338779
vt 0.945377 0.338779
vt 0.978024 0.338609
vt 0.978443 0.49997
vt 0.726251 0.169285
vt 0.726251 0.139058
vt 0.897165 0.139058
vt 0.897165 0.139058
vt 0.897165 0.169285
vt 0.726251 0.169285

# 156 Vertex Normals
vn 0.0 0.859897 0.510467
vn 0.0 0.518516 0.855068
vn 0.0 0.518516 0.855068
vn 0.0 0.518516 0.855068
vn 0.0 0.859897 0.510467
vn 0.0 0.859897 0.510467
vn 0.0 0.518516 0.855068
vn 0.0 0.518516 0.855068
vn 0.0 0.055131 0.998479
vn 0.0 0.055131 0.998479
vn 0.0 0.055131 0.998479
vn 0.0 0.518516 0.855068
vn 1.0 0.0 -0.0
vn 1.0 0.0 0.000001
vn 1.0 0.0 -0.0
vn 1.0 0.0 -0.0
vn 1.0 0.0 -0.000001
vn 1.0 0.0 -0.0
vn -1.0 0.0 0.000001
vn -1.0 0.0 0.0
vn -1.0 0.0 0.000001
vn -1.0 0.0 0.000001
vn -1.0 0.0 0.000002
vn -1.0 0.0 0.000001
vn 1.0 0.0 -0.0
vn 1.0 0.0 -0.0
vn 1.0 0.0 -0.0
vn 1.0 0.0 -0.0
vn 1.0 0.0 -0.0
vn 1.0 0.0 -0.0
vn -1.0 0.0 0.0
vn -1.0 0.0 0.0
vn -1.0 0.0 0.0
vn -1.0 0.0 0.0
vn -1.0 0.0 0.0
vn -1.0 0.0 0.0
vn 1.0 0.0 -0.0
vn 1.0 0.0 -0.000001
vn 1.0 0.0 -0.0
vn 1.0 0.0 -0.0
vn 1.0 0.0 0.000001
vn 1.0 0.0 -0.0
vn -1.0 0.0 -0.0
vn -1.0 0.0 0.000002
vn -1.0 0.0 -0.0
vn -1.0 0.0 -0.0
vn -1.0 0.0 -0.000002
vn -1.0 0.0 -0.0
vn 0.0 -0.518516 -0.855068
vn 0.0 -0.518516 -0.855068
vn 0.0 -0.859897 -0.510467
vn 0.0 -0.859897 -0.510467
vn 0.0 -0.859897 -0.510467
vn 0.0 -0.518516 -0.855068
vn 0.0 -0.055131 -0.998479
vn 0.0 -0.518516 -0.855068
vn 0.0 -0.518516 -0.855068
vn 0.0 -0.518516 -0.855068
vn 0.0 -0.055131 -0.998479
vn 0.0 -0.055131 -0.998479
vn 0.0 0.0 1.0
vn 0.0 0.0 1.0
vn 0.0 0.0 1.0
vn 0.0 0.0 1.0
vn 0.0 0.0 1.0
vn 0.0 0.0 1.0
vn -1.0 0.0 0.0
vn -1.0 0.0 0.0
vn -1.0 0.0 0.0
vn -1.0 0.0 0.0
vn -1.0 0.0 0.0
vn -1.0 0.0 0.0
vn 1.0 0.0 0.0
vn 1.0 0.0 0.0
vn 1.0 0.0 0.0
vn 1.0 0.0 0.0
vn 1.0 0.0 0.0
vn 1.0 0.0 0.0
vn 0.0 1.0 0.0
vn 0.0 1.0 0.0
vn 0.0 1.0 0.0
vn 0.0 1.0 0.0
vn 0.0 1.0 0.0
vn 0.0 1.0 0.0
vn 0.0 -1.0 0.0
vn 0.0 -1.0 0.0
vn 0.0 -1.0 0.0
vn 0.0 -1.0 0.0
vn 0.0 -1.0 0.0
vn 0.0 -1.0 0.0
vn -1.0 0.0 0.0
vn -1.0 0.0 0.0
vn -1.0 0.0 0.0
vn -1.0 0.0 0.0
vn -1.0 0.0 0.0
vn -1.0 0.0 0.0
vn 1.0 0.0 0.0
vn 1.0 0.0 0.0
vn 1.0 0.0 0.0
vn 1.0 0.0 0.0
vn 1.0 0.0 0.0
vn 1.0 0.0 0.0
vn 0.0 -1.0 0.0
vn 0.0 -1.0 0.0
vn 0.0 -1.0 0.0
vn 0.0 -1.0 0.0
vn 0.0 -1.0 0.0
vn 0.0 -1.0 0.0
vn 0.0 0.0 1.0
vn 0.0 0.0 1.0
vn 0.0 0.0 1.0
vn 0.0 0.0 1.0
vn 0.0 0.0 1.0
vn 0.0 0.0 1.0
vn 0.0 0.0 1.0
vn 0.0 0.0 1.0
vn 0.0 0.0 1.0
vn 0.0 0.0 1.0
vn 0.0 0.0 1.0
vn 0.0 0.0 1.0
vn 0.0 0.0 1.0
vn 0.0 0.0 1.0
vn 0.0 0.0 1.0
vn 0.0 0.0 1.0
vn 0.0 0.0 1.0
vn 0.0 0.0 1.0
vn 0.0 0.0 1.0
vn 0.0 0.0 1.0
vn 0.0 0.0 1.0
vn 0.0 0.0 1.0
vn 0.0 0.0 1.0
vn 0.0 0.0 1.0
vn 0.0 1.0 0.0
vn 0.0 0.466802 0.884362
vn 0.0 0.896926 0.442181
vn 0.0 0.896926 0.442181
vn 0.0 1.0 0.0
vn 0.0 1.0 0.0
vn 0.0 0.466802 0.884362
vn 0.0 0.893032 0.449994
vn 0.0 0.464776 0.885428
vn 0.0 0.464776 0.885428
vn 0.0 0.896926 0.442181
vn 0.0 0.466802 0.884362
vn 0.0 0.893032 0.449994
vn 0.0 0.455188 0.890395
vn 0.0 0.891756 0.452516
vn 0.0 0.891756 0.452516
vn 0.0 0.464776 0.885428
vn 0.0 0.893032 0.449994
vn 0.0 0.455188 0.890395
vn 0.0 0.014017 0.999902
vn 0.0 0.014017 0.999902
vn 0.0 0.014017 0.999902
vn 0.0 0.891756 0.452516
vn 0.0 0.455188 0.890395

# group, 52 grouped triangles

usemtl shop.jpg
o group
g group

f 5/1/1 6/2/2 8/3/3
f 8/4/4 7/5/5 5/6/6
f 8/7/7 6/8/8 9/9/9
f 9/10/10 10/11/11 8/12/12
f 11/13/13 12/14/14 14/15/15
f 14/16/16 13/17/17 11/18/18
f 14/19/19 12/20/20 11/21/21
f 11/22/22 13/23/23 14/24/24
f 15/25/25 16/26/26 18/27/27
f 18/28/28 17/29/29 15/30/30
f 18/31/31 16/32/32 15/33/33
f 15/34/34 17/35/35 18/36/36
f 19/37/37 20/38/38 22/39/39
f 22/40/40 21/41/41 19/42/42
f 22/43/43 20/44/44 19/45/45
f 19/46/46 21/47/47 22/48/48
f 8/49/49 6/50/50 5/51/51
f 5/52/52 7/53/53 8/54/54
f 9/55/55 6/56/56 8/57/57
f 8/58/58 10/59/59 9/60/60
f 23/61/61 24/62/62 25/63/63
f 24/64/64 26/65/65 25/66/66
f 25/67/67 28/68/68 23/69/69
f 25/70/70 30/71/71 28/72/72
f 29/73/73 24/74/74 27/75/75
f 29/76/76 26/77/77 24/78/78
f 25/79/79 29/80/80 30/81/81
f 25/82/82 26/83/83 29/84/84
f 24/85/85 28/86/86 27/87/87
f 24/88/88 23/89/89 28/90/90
f 38/91/91 37/92/92 33/93/93
f 33/94/94 34/95/95 38/96/96
f 35/97/97 36/98/98 32/99/99
f 32/100/100 31/101/101 35/102/102
f 36/103/103 38/104/104 34/105/105
f 34/106/106 32/107/107 36/108/108
f 3/109/109 4/110/110 31/111/111
f 3/112/112 32/113/113 1/114/114
f 2/115/115 34/116/116 33/117/117
f 2/118/118 1/119/119 34/120/120
f 3/121/121 31/122/122 32/123/123
f 1/124/124 32/125/125 34/126/126
f 37/127/127 36/128/128 35/129/129
f 36/130/130 37/131/131 38/132/132
f 39/133/133 40/134/134 42/135/135
f 42/136/136 41/137/137 39/138/138
f 40/139/139 43/140/140 44/141/141
f 44/142/142 42/143/143 40/144/144
f 43/145/145 45/146/146 46/147/147
f 46/148/148 44/149/149 43/150/150
f 45/151/151 47/152/152 48/153/153
f 48/154/154 46/155/155 45/156/156
