# Wavefront OBJ file
# Exported by Maverick Model 3D 1.3.15
# Mon Sep 14 11:26:08 2026

mtllib floor.mtl

# 36 Vertices
v 5.0 5.0 5.0
v 5.0 -0.0 5.0
v -5.0 5.0 5.0
v -5.0 -0.0 5.0
v -4.994 -0.0 5.086
v 5.0 -0.0 5.086
v -4.994 0.442 5.253
v 5.0 0.442 5.253
v 5.0 -0.0 4.984
v -4.994 -0.0 4.984
v 5.0 0.442 4.984
v -4.994 0.442 4.984
v 2.078 1.611 5.17
v 4.055 1.611 5.17
v 2.078 1.803 5.17
v 4.055 1.803 5.17
v 4.055 1.611 4.958
v 2.078 1.611 4.958
v 4.055 1.803 4.958
v 2.078 1.803 4.958
v -0.94 1.609 5.17
v 1.06 1.609 5.17
v -0.94 1.795 5.17
v 1.06 1.795 5.17
v 1.06 1.609 4.958
v -0.94 1.609 4.958
v 1.06 1.795 4.958
v -0.94 1.795 4.958
v -3.955 1.614 5.17
v -1.936 1.614 5.17
v -3.955 1.8 5.17
v -1.936 1.8 5.17
v -1.936 1.614 4.958
v -3.955 1.614 4.958
v -1.936 1.8 4.958
v -3.955 1.8 4.958

# 126 Texture Coordinates
vt 0.0 1.0
vt 0.0 0.0
vt 1.0 0.0
vt 1.0 0.0
vt 1.0 1.0
vt 0.0 1.0
vt 0.0 0.0
vt 1.000084 0.0
vt 0.0 0.165125
vt 1.000084 0.0
vt 1.000084 0.165125
vt 0.0 0.165125
vt 0.0 0.165125
vt 0.0 0.0
vt 0.0 0.0
vt 0.0 0.165125
vt 0.0 0.165125
vt 0.0 0.0
vt 1.000084 0.165125
vt 1.000084 0.0
vt 1.000084 0.0
vt 1.000084 0.165125
vt 1.000084 0.165125
vt 1.000084 0.0
vt 0.0 0.165125
vt 1.000084 0.165125
vt 0.0 0.165125
vt 0.0 0.165125
vt 1.000084 0.165125
vt 1.000084 0.165125
vt 1.000084 0.0
vt 0.0 0.0
vt 1.000084 0.0
vt 1.000084 0.0
vt 0.0 0.0
vt 0.0 0.0
vt 0.707519 0.318351
vt 0.90091 0.318351
vt 0.707519 0.357517
vt 0.90091 0.318351
vt 0.90091 0.357517
vt 0.707519 0.357517
vt 0.707519 0.357517
vt 0.707519 0.318351
vt 0.707519 0.318351
vt 0.707519 0.357517
vt 0.707519 0.357517
vt 0.707519 0.318351
vt 0.90091 0.357517
vt 0.90091 0.318351
vt 0.90091 0.318351
vt 0.90091 0.357517
vt 0.90091 0.357517
vt 0.90091 0.318351
vt 0.707519 0.357517
vt 0.90091 0.357517
vt 0.707519 0.357517
vt 0.707519 0.357517
vt 0.90091 0.357517
vt 0.90091 0.357517
vt 0.90091 0.318351
vt 0.707519 0.318351
vt 0.90091 0.318351
vt 0.90091 0.318351
vt 0.707519 0.318351
vt 0.707519 0.318351
vt 0.707519 0.318351
vt 0.90091 0.318351
vt 0.707519 0.357517
vt 0.90091 0.318351
vt 0.90091 0.357517
vt 0.707519 0.357517
vt 0.707519 0.357517
vt 0.707519 0.318351
vt 0.707519 0.318351
vt 0.707519 0.357517
vt 0.707519 0.357517
vt 0.707519 0.318351
vt 0.90091 0.357517
vt 0.90091 0.318351
vt 0.90091 0.318351
vt 0.90091 0.357517
vt 0.90091 0.357517
vt 0.90091 0.318351
vt 0.707519 0.357517
vt 0.90091 0.357517
vt 0.707519 0.357517
vt 0.707519 0.357517
vt 0.90091 0.357517
vt 0.90091 0.357517
vt 0.90091 0.318351
vt 0.707519 0.318351
vt 0.90091 0.318351
vt 0.90091 0.318351
vt 0.707519 0.318351
vt 0.707519 0.318351
vt 0.707519 0.318351
vt 0.90091 0.318351
vt 0.707519 0.357517
vt 0.90091 0.318351
vt 0.90091 0.357517
vt 0.707519 0.357517
vt 0.707519 0.357517
vt 0.707519 0.318351
vt 0.707519 0.318351
vt 0.707519 0.357517
vt 0.707519 0.357517
vt 0.707519 0.318351
vt 0.90091 0.357517
vt 0.90091 0.318351
vt 0.90091 0.318351
vt 0.90091 0.357517
vt 0.90091 0.357517
vt 0.90091 0.318351
vt 0.707519 0.357517
vt 0.90091 0.357517
vt 0.707519 0.357517
vt 0.707519 0.357517
vt 0.90091 0.357517
vt 0.90091 0.357517
vt 0.90091 0.318351
vt 0.707519 0.318351
vt 0.90091 0.318351
vt 0.90091 0.318351
vt 0.707519 0.318351
vt 0.707519 0.318351

# 126 Vertex Normals
vn 0.0 0.0 1.0
vn 0.0 0.0 1.0
vn 0.0 0.0 1.0
vn 0.0 0.0 1.0
vn 0.0 0.0 1.0
vn 0.0 0.0 1.0
vn 0.0 -0.822616 0.568598
vn 0.0 -0.822616 0.568598
vn 0.0 -0.353393 0.935475
vn 0.0 -0.822616 0.568598
vn 0.0 -0.353393 0.935475
vn 0.0 -0.353393 0.935475
vn -1.0 0.0 0.0
vn -1.0 0.0 0.0
vn -1.0 0.0 0.0
vn -1.0 0.0 0.0
vn -1.0 0.0 0.0
vn -1.0 0.0 0.0
vn 1.0 0.0 0.0
vn 1.0 0.0 0.0
vn 1.0 0.0 0.0
vn 1.0 0.0 0.0
vn 1.0 0.0 0.0
vn 1.0 0.0 0.0
vn 0.0 1.0 0.0
vn 0.0 1.0 0.0
vn 0.0 1.0 0.0
vn 0.0 1.0 0.0
vn 0.0 1.0 0.0
vn 0.0 1.0 0.0
vn 0.0 -0.822616 0.568598
vn 0.0 -1.0 0.0
vn 0.0 -1.0 0.0
vn 0.0 -0.822616 0.568598
vn 0.0 -0.822616 0.568598
vn 0.0 -1.0 0.0
vn 0.0 0.0 1.0
vn 0.0 0.0 1.0
vn 0.0 0.0 1.0
vn 0.0 0.0 1.0
vn 0.0 0.0 1.0
vn 0.0 0.0 1.0
vn -1.0 0.0 0.0
vn -1.0 0.0 0.0
vn -1.0 0.0 0.0
vn -1.0 0.0 0.0
vn -1.0 0.0 0.0
vn -1.0 0.0 0.0
vn 1.0 0.0 0.0
vn 1.0 0.0 0.0
vn 1.0 0.0 0.0
vn 1.0 0.0 0.0
vn 1.0 0.0 0.0
vn 1.0 0.0 0.0
vn 0.0 1.0 0.0
vn 0.0 1.0 0.0
vn 0.0 1.0 0.0
vn 0.0 1.0 0.0
vn 0.0 1.0 0.0
vn 0.0 1.0 0.0
vn 0.0 -1.0 0.0
vn 0.0 -1.0 0.0
vn 0.0 -1.0 0.0
vn 0.0 -1.0 0.0
vn 0.0 -1.0 0.0
vn 0.0 -1.0 0.0
vn 0.0 0.0 1.0
vn 0.0 0.0 1.0
vn 0.0 0.0 1.0
vn 0.0 0.0 1.0
vn 0.0 0.0 1.0
vn 0.0 0.0 1.0
vn -1.0 0.0 0.0
vn -1.0 0.0 0.0
vn -1.0 0.0 0.0
vn -1.0 0.0 0.0
vn -1.0 0.0 0.0
vn -1.0 0.0 0.0
vn 1.0 0.0 0.0
vn 1.0 0.0 0.0
vn 1.0 0.0 0.0
vn 1.0 0.0 0.0
vn 1.0 0.0 0.0
vn 1.0 0.0 0.0
vn 0.0 1.0 0.0
vn 0.0 1.0 0.0
vn 0.0 1.0 0.0
vn 0.0 1.0 0.0
vn 0.0 1.0 0.0
vn 0.0 1.0 0.0
vn 0.0 -1.0 0.0
vn 0.0 -1.0 0.0
vn 0.0 -1.0 0.0
vn 0.0 -1.0 0.0
vn 0.0 -1.0 0.0
vn 0.0 -1.0 0.0
vn 0.0 0.0 1.0
vn 0.0 0.0 1.0
vn 0.0 0.0 1.0
vn 0.0 0.0 1.0
vn 0.0 0.0 1.0
vn 0.0 0.0 1.0
vn -1.0 0.0 0.0
vn -1.0 0.0 0.0
vn -1.0 0.0 0.0
vn -1.0 0.0 0.0
vn -1.0 0.0 0.0
vn -1.0 0.0 0.0
vn 1.0 0.0 0.0
vn 1.0 0.0 0.0
vn 1.0 0.0 0.0
vn 1.0 0.0 0.0
vn 1.0 0.0 0.0
vn 1.0 0.0 0.0
vn 0.0 1.0 0.0
vn 0.0 1.0 0.0
vn 0.0 1.0 0.0
vn 0.0 1.0 0.0
vn 0.0 1.0 0.0
vn 0.0 1.0 0.0
vn 0.0 -1.0 0.0
vn 0.0 -1.0 0.0
vn 0.0 -1.0 0.0
vn 0.0 -1.0 0.0
vn 0.0 -1.0 0.0
vn 0.0 -1.0 0.0

# group, 42 grouped triangles

usemtl floor.jpg
o group
g group

f 3/1/1 4/2/2 2/3/3
f 2/4/4 1/5/5 3/6/6
f 5/7/7 6/8/8 7/9/9
f 6/10/10 8/11/11 7/12/12
f 7/13/13 10/14/14 5/15/15
f 7/16/16 12/17/17 10/18/18
f 11/19/19 6/20/20 9/21/21
f 11/22/22 8/23/23 6/24/24
f 7/25/25 11/26/26 12/27/27
f 7/28/28 8/29/29 11/30/30
f 6/31/31 10/32/32 9/33/33
f 6/34/34 5/35/35 10/36/36
f 13/37/37 14/38/38 15/39/39
f 14/40/40 16/41/41 15/42/42
f 15/43/43 18/44/44 13/45/45
f 15/46/46 20/47/47 18/48/48
f 19/49/49 14/50/50 17/51/51
f 19/52/52 16/53/53 14/54/54
f 15/55/55 19/56/56 20/57/57
f 15/58/58 16/59/59 19/60/60
f 14/61/61 18/62/62 17/63/63
f 14/64/64 13/65/65 18/66/66
f 21/67/67 22/68/68 23/69/69
f 22/70/70 24/71/71 23/72/72
f 23/73/73 26/74/74 21/75/75
f 23/76/76 28/77/77 26/78/78
f 27/79/79 22/80/80 25/81/81
f 27/82/82 24/83/83 22/84/84
f 23/85/85 27/86/86 28/87/87
f 23/88/88 24/89/89 27/90/90
f 22/91/91 26/92/92 25/93/93
f 22/94/94 21/95/95 26/96/96
f 29/97/97 30/98/98 31/99/99
f 30/100/100 32/101/101 31/102/102
f 31/103/103 34/104/104 29/105/105
f 31/106/106 36/107/107 34/108/108
f 35/109/109 30/110/110 33/111/111
f 35/112/112 32/113/113 30/114/114
f 31/115/115 35/116/116 36/117/117
f 31/118/118 32/119/119 35/120/120
f 30/121/121 34/122/122 33/123/123
f 30/124/124 29/125/125 34/126/126
