# Wavefront OBJ file
# Exported by Maverick Model 3D 1.3.15
# Mon Sep 14 11:27:39 2026

mtllib floor.mtl

# 44 Vertices
v 5.0 5.0 5.0
v 5.0 -0.0 5.0
v -5.0 5.0 5.0
v -5.0 -0.0 5.0
v -4.197 4.649 5.063
v 4.325 4.649 5.063
v -4.439 4.831 5.136
v 4.569 4.831 5.136
v 4.325 4.649 4.994
v -4.197 4.649 4.994
v 4.569 4.831 4.994
v -4.439 4.831 4.994
v -3.999 3.902 5.057
v 4.031 3.902 5.057
v -3.999 4.515 5.057
v 4.031 4.515 5.057
v 4.031 3.902 4.994
v -3.999 3.902 4.994
v 4.031 4.515 4.994
v -3.999 4.515 4.994
v -4.174 0.9 5.123
v -2.072 0.9 5.123
v -4.174 1.089 5.123
v -2.072 1.089 5.123
v -2.072 0.9 4.994
v -4.174 0.9 4.994
v -2.072 1.089 4.994
v -4.174 1.089 4.994
v -1.102 0.904 5.123
v 1.034 0.904 5.123
v -1.102 1.08 5.123
v 1.034 1.08 5.123
v 1.034 0.904 4.994
v -1.102 0.904 4.994
v 1.034 1.08 4.994
v -1.102 1.08 4.994
v 2.05 0.908 5.123
v 4.106 0.904 5.123
v 2.05 1.071 5.123
v 4.106 1.071 5.123
v 4.106 0.904 4.994
v 2.05 0.908 4.994
v 4.106 1.071 4.994
v 2.05 1.071 4.994

# 186 Texture Coordinates
vt 0.0 1.0
vt 0.0 0.0
vt 1.0 0.0
vt 1.0 0.0
vt 1.0 1.0
vt 0.0 1.0
vt 0.073937 0.925129
vt 0.931322 0.925129
vt 0.04958 0.978471
vt 0.931322 0.925129
vt 0.95584 0.978471
vt 0.04958 0.978471
vt 0.931322 0.925129
vt 0.073937 0.925129
vt 0.95584 0.978471
vt 0.073937 0.925129
vt 0.04958 0.978471
vt 0.95584 0.978471
vt 0.04958 0.978471
vt 0.073937 0.925129
vt 0.073937 0.925129
vt 0.04958 0.978471
vt 0.04958 0.978471
vt 0.073937 0.925129
vt 0.95584 0.978471
vt 0.931322 0.925129
vt 0.931322 0.925129
vt 0.95584 0.978471
vt 0.95584 0.978471
vt 0.931322 0.925129
vt 0.04958 0.978471
vt 0.95584 0.978471
vt 0.04958 0.978471
vt 0.04958 0.978471
vt 0.95584 0.978471
vt 0.95584 0.978471
vt 0.931322 0.925129
vt 0.073937 0.925129
vt 0.931322 0.925129
vt 0.931322 0.925129
vt 0.073937 0.925129
vt 0.073937 0.925129
vt 0.093682 0.750371
vt 0.905761 0.750371
vt 0.093682 0.90183
vt 0.905761 0.750371
vt 0.905761 0.90183
vt 0.093682 0.90183
vt 0.905761 0.750371
vt 0.093682 0.750371
vt 0.905761 0.90183
vt 0.093682 0.750371
vt 0.093682 0.90183
vt 0.905761 0.90183
vt 0.093682 0.90183
vt 0.093682 0.750371
vt 0.093682 0.750371
vt 0.093682 0.90183
vt 0.093682 0.90183
vt 0.093682 0.750371
vt 0.905761 0.90183
vt 0.905761 0.750371
vt 0.905761 0.750371
vt 0.905761 0.90183
vt 0.905761 0.90183
vt 0.905761 0.750371
vt 0.093682 0.90183
vt 0.905761 0.90183
vt 0.093682 0.90183
vt 0.093682 0.90183
vt 0.905761 0.90183
vt 0.905761 0.90183
vt 0.905761 0.750371
vt 0.093682 0.750371
vt 0.905761 0.750371
vt 0.905761 0.750371
vt 0.093682 0.750371
vt 0.093682 0.750371
vt 0.089509 0.184494
vt 0.292177 0.184494
vt 0.089509 0.217444
vt 0.292177 0.184494
vt 0.292177 0.217444
vt 0.089509 0.217444
vt 0.292177 0.184494
vt 0.089509 0.184494
vt 0.292177 0.217444
vt 0.089509 0.184494
vt 0.089509 0.217444
vt 0.292177 0.217444
vt 0.089509 0.217444
vt 0.089509 0.184494
vt 0.089509 0.184494
vt 0.089509 0.217444
vt 0.089509 0.217444
vt 0.089509 0.184494
vt 0.292177 0.217444
vt 0.292177 0.184494
vt 0.292177 0.184494
vt 0.292177 0.217444
vt 0.292177 0.217444
vt 0.292177 0.184494
vt 0.089509 0.217444
vt 0.292177 0.217444
vt 0.089509 0.217444
vt 0.089509 0.217444
vt 0.292177 0.217444
vt 0.292177 0.217444
vt 0.292848 0.18812
vt 0.087933 0.215084
vt 0.292848 0.215084
vt 0.292848 0.18812
vt 0.087933 0.18812
vt 0.087933 0.215084
vt 0.089509 0.184494
vt 0.292177 0.184494
vt 0.089509 0.217444
vt 0.292177 0.184494
vt 0.292177 0.217444
vt 0.089509 0.217444
vt 0.292177 0.184494
vt 0.089509 0.184494
vt 0.292177 0.217444
vt 0.089509 0.184494
vt 0.089509 0.217444
vt 0.292177 0.217444
vt 0.089509 0.217444
vt 0.089509 0.184494
vt 0.089509 0.184494
vt 0.089509 0.217444
vt 0.089509 0.217444
vt 0.089509 0.184494
vt 0.292177 0.217444
vt 0.292177 0.184494
vt 0.292177 0.184494
vt 0.292177 0.217444
vt 0.292177 0.217444
vt 0.292177 0.184494
vt 0.089509 0.217444
vt 0.292177 0.217444
vt 0.089509 0.217444
vt 0.089509 0.217444
vt 0.292177 0.217444
vt 0.292177 0.217444
vt 0.597086 0.18812
vt 0.392174 0.215084
vt 0.597086 0.215084
vt 0.597086 0.18812
vt 0.392174 0.18812
vt 0.392174 0.215084
vt 0.089509 0.184494
vt 0.292177 0.184494
vt 0.089509 0.217444
vt 0.292177 0.184494
vt 0.292177 0.217444
vt 0.089509 0.217444
vt 0.292177 0.184494
vt 0.089509 0.184494
vt 0.292177 0.217444
vt 0.089509 0.184494
vt 0.089509 0.217444
vt 0.292177 0.217444
vt 0.089509 0.217444
vt 0.089509 0.184494
vt 0.089509 0.184494
vt 0.089509 0.217444
vt 0.089509 0.217444
vt 0.089509 0.184494
vt 0.292177 0.217444
vt 0.292177 0.184494
vt 0.292177 0.184494
vt 0.292177 0.217444
vt 0.292177 0.217444
vt 0.292177 0.184494
vt 0.089509 0.217444
vt 0.292177 0.217444
vt 0.089509 0.217444
vt 0.089509 0.217444
vt 0.292177 0.217444
vt 0.292177 0.217444
vt 0.910057 0.180519
vt 0.705818 0.212409
vt 0.910057 0.212409
vt 0.910057 0.180519
vt 0.705818 0.180519
vt 0.705818 0.212409

# 186 Vertex Normals
vn 0.0 0.0 1.0
vn 0.0 0.0 1.0
vn 0.0 0.0 1.0
vn 0.0 0.0 1.0
vn 0.0 0.0 1.0
vn 0.0 0.0 1.0
vn -0.245737 -0.891995 0.379419
vn 0.244589 -0.892381 0.379252
vn -0.371742 -0.729634 0.573971
vn 0.244589 -0.892381 0.379252
vn 0.370066 -0.730609 0.573813
vn -0.371742 -0.729634 0.573971
vn 0.0 0.0 -1.0
vn 0.0 0.000001 -1.0
vn 0.0 0.000001 -1.0
vn 0.0 0.000001 -1.0
vn 0.0 0.000002 -1.0
vn 0.0 0.000001 -1.0
vn -0.371742 -0.729634 0.573971
vn -0.316127 -0.948717 0.0
vn -0.245737 -0.891995 0.379419
vn -0.371742 -0.729634 0.573971
vn -0.59983 -0.800128 0.0
vn -0.316127 -0.948717 0.0
vn 0.59729 -0.802026 0.0
vn 0.244589 -0.892381 0.379252
vn 0.314622 -0.949217 0.0
vn 0.59729 -0.802026 0.0
vn 0.370066 -0.730609 0.573813
vn 0.244589 -0.892381 0.379252
vn -0.0 1.0 0.0
vn -0.0 1.0 0.0
vn 0.0 1.0 0.0
vn -0.0 1.0 0.0
vn -0.0 1.0 0.0
vn -0.0 1.0 0.0
vn 0.244589 -0.892381 0.379252
vn -0.316127 -0.948717 0.0
vn 0.314622 -0.949217 0.0
vn 0.244589 -0.892381 0.379252
vn -0.245737 -0.891995 0.379419
vn -0.316127 -0.948717 0.0
vn 0.0 0.0 1.0
vn 0.0 0.0 1.0
vn 0.0 0.0 1.0
vn 0.0 0.0 1.0
vn 0.0 0.0 1.0
vn 0.0 0.0 1.0
vn 0.0 0.000002 -1.0
vn 0.0 0.000001 -1.0
vn 0.0 0.000001 -1.0
vn 0.0 0.000001 -1.0
vn 0.0 0.0 -1.0
vn 0.0 0.000001 -1.0
vn -1.0 0.0 0.0
vn -1.0 0.0 0.0
vn -1.0 0.0 0.0
vn -1.0 0.0 0.0
vn -1.0 0.0 0.0
vn -1.0 0.0 0.0
vn 1.0 0.0 0.0
vn 1.0 0.0 0.0
vn 1.0 0.0 0.0
vn 1.0 0.0 0.0
vn 1.0 0.0 0.0
vn 1.0 0.0 0.0
vn -0.0 1.0 0.0
vn -0.0 1.0 0.0
vn -0.0 1.0 0.0
vn -0.0 1.0 0.0
vn 0.0 1.0 0.0
vn -0.0 1.0 0.0
vn 0.0 -1.0 0.0
vn 0.0 -1.0 0.0
vn 0.0 -1.0 0.0
vn 0.0 -1.0 0.0
vn 0.0 -1.0 0.0
vn 0.0 -1.0 0.0
vn 0.0 0.0 1.0
vn 0.0 0.0 1.0
vn 0.0 0.0 1.0
vn 0.0 0.0 1.0
vn 0.0 0.0 1.0
vn 0.0 0.0 1.0
vn 0.0 0.0 -1.0
vn 0.0 0.0 -1.0
vn 0.0 0.0 -1.0
vn 0.0 0.0 -1.0
vn 0.0 0.0 -1.0
vn 0.0 0.0 -1.0
vn -1.0 0.0 0.0
vn -1.0 0.0 0.0
vn -1.0 0.0 0.0
vn -1.0 0.0 0.0
vn -1.0 0.0 0.0
vn -1.0 0.0 0.0
vn 1.0 0.0 0.0
vn 1.0 0.0 0.0
vn 1.0 0.0 0.0
vn 1.0 0.0 0.0
vn 1.0 0.0 0.0
vn 1.0 0.0 0.0
vn 0.0 1.0 0.0
vn 0.0 1.0 0.0
vn 0.0 1.0 0.0
vn 0.0 1.0 0.0
vn 0.0 1.0 0.0
vn 0.0 1.0 0.0
vn 0.0 -1.0 0.0
vn 0.0 -1.0 0.0
vn 0.0 -1.0 0.0
vn 0.0 -1.0 0.0
vn 0.0 -1.0 0.0
vn 0.0 -1.0 0.0
vn 0.0 0.0 1.0
vn 0.0 0.0 1.0
vn 0.0 0.0 1.0
vn 0.0 0.0 1.0
vn 0.0 0.0 1.0
vn 0.0 0.0 1.0
vn 0.0 0.0 -1.0
vn 0.0 0.0 -1.0
vn 0.0 0.0 -1.0
vn 0.0 0.0 -1.0
vn 0.0 0.0 -1.0
vn 0.0 0.0 -1.0
vn -1.0 0.0 0.0
vn -1.0 0.0 0.0
vn -1.0 0.0 0.0
vn -1.0 0.0 0.0
vn -1.0 0.0 0.0
vn -1.0 0.0 0.0
vn 1.0 0.0 0.0
vn 1.0 0.0 0.0
vn 1.0 0.0 0.0
vn 1.0 0.0 0.0
vn 1.0 0.0 0.0
vn 1.0 0.0 0.0
vn 0.0 1.0 0.0
vn 0.0 1.0 0.0
vn 0.0 1.0 0.0
vn 0.0 1.0 0.0
vn 0.0 1.0 0.0
vn 0.0 1.0 0.0
vn 0.0 -1.0 0.0
vn 0.0 -1.0 0.0
vn 0.0 -1.0 0.0
vn 0.0 -1.0 0.0
vn 0.0 -1.0 0.0
vn 0.0 -1.0 0.0
vn 0.0 0.0 1.0
vn 0.0 0.0 1.0
vn 0.0 0.0 1.0
vn 0.0 0.0 1.0
vn 0.0 0.0 1.0
vn 0.0 0.0 1.0
vn 0.0 0.0 -1.0
vn 0.0 0.0 -1.0
vn 0.0 0.0 -1.0
vn 0.0 0.0 -1.0
vn 0.0 0.0 -1.0
vn 0.0 0.0 -1.0
vn -1.0 0.0 0.0
vn -1.0 0.0 0.0
vn -1.0 0.0 0.0
vn -1.0 0.0 0.0
vn -1.0 0.0 0.0
vn -1.0 0.0 0.0
vn 1.0 0.0 0.0
vn 1.0 0.0 0.0
vn 1.0 0.0 0.0
vn 1.0 0.0 0.0
vn 1.0 0.0 0.0
vn 1.0 0.0 0.0
vn 0.000008 1.0 0.0
vn 0.000008 1.0 0.0
vn 0.000008 1.0 0.0
vn 0.000008 1.0 0.0
vn 0.000008 1.0 0.0
vn 0.000008 1.0 0.0
vn -0.001671 -0.999999 0.0
vn -0.001671 -0.999999 0.0
vn -0.001671 -0.999999 0.0
vn -0.001671 -0.999999 0.0
vn -0.001671 -0.999999 0.0
vn -0.001671 -0.999999 0.0

# group, 62 grouped triangles

usemtl floor.jpg
o group
g group

f 3/1/1 4/2/2 2/3/3
f 2/4/4 1/5/5 3/6/6
f 5/7/7 6/8/8 7/9/9
f 6/10/10 8/11/11 7/12/12
f 9/13/13 10/14/14 11/15/15
f 10/16/16 12/17/17 11/18/18
f 7/19/19 10/20/20 5/21/21
f 7/22/22 12/23/23 10/24/24
f 11/25/25 6/26/26 9/27/27
f 11/28/28 8/29/29 6/30/30
f 7/31/31 11/32/32 12/33/33
f 7/34/34 8/35/35 11/36/36
f 6/37/37 10/38/38 9/39/39
f 6/40/40 5/41/41 10/42/42
f 13/43/43 14/44/44 15/45/45
f 14/46/46 16/47/47 15/48/48
f 17/49/49 18/50/50 19/51/51
f 18/52/52 20/53/53 19/54/54
f 15/55/55 18/56/56 13/57/57
f 15/58/58 20/59/59 18/60/60
f 19/61/61 14/62/62 17/63/63
f 19/64/64 16/65/65 14/66/66
f 15/67/67 19/68/68 20/69/69
f 15/70/70 16/71/71 19/72/72
f 14/73/73 18/74/74 17/75/75
f 14/76/76 13/77/77 18/78/78
f 21/79/79 22/80/80 23/81/81
f 22/82/82 24/83/83 23/84/84
f 25/85/85 26/86/86 27/87/87
f 26/88/88 28/89/89 27/90/90
f 23/91/91 26/92/92 21/93/93
f 23/94/94 28/95/95 26/96/96
f 27/97/97 22/98/98 25/99/99
f 27/100/100 24/101/101 22/102/102
f 23/103/103 27/104/104 28/105/105
f 23/106/106 24/107/107 27/108/108
f 22/109/109 26/110/110 25/111/111
f 22/112/112 21/113/113 26/114/114
f 29/115/115 30/116/116 31/117/117
f 30/118/118 32/119/119 31/120/120
f 33/121/121 34/122/122 35/123/123
f 34/124/124 36/125/125 35/126/126
f 31/127/127 34/128/128 29/129/129
f 31/130/130 36/131/131 34/132/132
f 35/133/133 30/134/134 33/135/135
f 35/136/136 32/137/137 30/138/138
f 31/139/139 35/140/140 36/141/141
f 31/142/142 32/143/143 35/144/144
f 30/145/145 34/146/146 33/147/147
f 30/148/148 29/149/149 34/150/150
f 37/151/151 38/152/152 39/153/153
f 38/154/154 40/155/155 39/156/156
f 41/157/157 42/158/158 43/159/159
f 42/160/160 44/161/161 43/162/162
f 39/163/163 42/164/164 37/165/165
f 39/166/166 44/167/167 42/168/168
f 43/169/169 38/170/170 41/171/171
f 43/172/172 40/173/173 38/174/174
f 39/175/175 43/176/176 44/177/177
f 39/178/178 40/179/179 43/180/180
f 38/181/181 42/182/182 41/183/183
f 38/184/184 37/185/185 42/186/186
