# Wavefront OBJ file
# Exported by Maverick Model 3D 1.3.15
# Fri Sep 18 17:04:53 2026

mtllib road.mtl

# 19 Vertices
v 3.0 0.2 5.0
v 3.27 0.2 4.0
v 4.0 0.2 3.27
v 5.0 0.2 3.0
v 3.0 0.0 5.0
v 3.27 0.0 4.0
v 4.0 0.0 3.27
v 5.0 0.0 3.0
v 5.0 0.2 5.0
v -5.0 0.2 -5.0
v -5.0 0.2 5.0
v -3.0 -0.0 5.0
v -3.0 0.2 5.0
v -3.0 0.2 -3.0
v -3.0 0.0 -3.0
v 5.0 0.2 -5.0
v 5.0 0.0 -3.0
v 5.0 0.2 -3.0
v 5.0 -0.0 5.0

# 57 Texture Coordinates
vt 0.999404 0.172645
vt 0.918552 0.148273
vt 0.998519 0.201935
vt 0.918552 0.148273
vt 0.899962 0.170151
vt 0.998519 0.201935
vt 0.918552 0.148273
vt 0.848054 0.076689
vt 0.899962 0.170151
vt 0.848054 0.076689
vt 0.82932 0.095851
vt 0.899962 0.170151
vt 0.848054 0.076689
vt 0.828181 -0.000488
vt 0.82932 0.095851
vt 0.828181 -0.000488
vt 0.803047 0.000628
vt 0.82932 0.095851
vt 1.0 0.0
vt 0.829497 0.096568
vt 0.803567 0.00136
vt 1.0 0.0
vt 0.900083 0.171823
vt 0.829497 0.096568
vt 1.0 0.0
vt 0.99932 0.199256
vt 0.900083 0.171823
vt 0.153881 0.0
vt 0.0 1.0
vt 0.0 0.0
vt 0.153881 0.0
vt 0.154788 0.84533
vt 0.0 1.0
vt 0.154758 0.000731
vt 0.13141 0.844052
vt 0.132061 0.000986
vt 0.154758 0.000731
vt 0.154107 0.843796
vt 0.13141 0.844052
vt 0.154788 0.84533
vt 1.0 1.0
vt 0.0 1.0
vt 0.154788 0.84533
vt 0.999093 0.84533
vt 1.0 1.0
vt 0.153221 0.84489
vt 1.0 0.868398
vt 0.153221 0.868398
vt 0.153221 0.84489
vt 1.0 0.84489
vt 1.0 0.868398
vt 0.15401 0.844732
vt 1.0 0.0
vt 1.0 0.844732
vt 0.15401 0.844732
vt 0.15401 0.0
vt 1.0 0.0

# 57 Vertex Normals
vn -0.965429 0.0 -0.260666
vn -0.906527 0.0 -0.422148
vn -0.965429 0.0 -0.260666
vn -0.906527 0.0 -0.422148
vn -0.817755 0.0 -0.575566
vn -0.965429 0.0 -0.260666
vn -0.906527 0.0 -0.422148
vn -0.575566 0.0 -0.817755
vn -0.817755 0.0 -0.575566
vn -0.575566 0.0 -0.817755
vn -0.422148 0.0 -0.906527
vn -0.817755 0.0 -0.575566
vn -0.575566 0.0 -0.817755
vn -0.260666 0.0 -0.965429
vn -0.422148 0.0 -0.906527
vn -0.260666 0.0 -0.965429
vn -0.260666 0.0 -0.965429
vn -0.422148 0.0 -0.906527
vn 0.0 1.0 0.0
vn 0.0 1.0 0.0
vn 0.0 1.0 0.0
vn 0.0 1.0 0.0
vn 0.0 1.0 0.0
vn 0.0 1.0 0.0
vn 0.0 1.0 0.0
vn 0.0 1.0 0.0
vn 0.0 1.0 0.0
vn 0.0 1.0 0.0
vn 0.0 1.0 0.0
vn 0.0 1.0 0.0
vn 0.0 1.0 0.0
vn 0.0 1.0 0.0
vn 0.0 1.0 0.0
vn 1.0 0.0 0.0
vn 1.0 0.0 0.0
vn 1.0 0.0 0.0
vn 1.0 0.0 0.0
vn 1.0 0.0 0.0
vn 1.0 0.0 0.0
vn 0.0 1.0 0.0
vn 0.0 1.0 0.0
vn 0.0 1.0 0.0
vn 0.0 1.0 0.0
vn 0.0 1.0 0.0
vn 0.0 1.0 0.0
vn 0.0 0.0 1.0
vn 0.0 0.0 1.0
vn 0.0 0.0 1.0
vn 0.0 0.0 1.0
vn 0.0 0.0 1.0
vn 0.0 0.0 1.0
vn 0.0 1.0 0.0
vn 0.0 1.0 0.0
vn 0.0 1.0 0.0
vn 0.0 1.0 0.0
vn 0.0 1.0 0.0
vn 0.0 1.0 0.0

# group, 19 grouped triangles

usemtl road.jpg
o group
g group

f 1/1/1 2/2/2 5/3/3
f 2/4/4 6/5/5 5/6/6
f 2/7/7 3/8/8 6/9/9
f 3/10/10 7/11/11 6/12/12
f 3/13/13 4/14/14 7/15/15
f 4/16/16 8/17/17 7/18/18
f 9/19/19 2/20/20 1/21/21
f 9/22/22 3/23/23 2/24/24
f 9/25/25 4/26/26 3/27/27
f 13/28/28 10/29/29 11/30/30
f 13/31/31 14/32/32 10/33/33
f 12/34/34 14/35/35 13/36/36
f 12/37/37 15/38/38 14/39/39
f 14/40/40 16/41/41 10/42/42
f 14/43/43 18/44/44 16/45/45
f 15/46/46 18/47/47 14/48/48
f 15/49/49 17/50/50 18/51/51
f 15/52/52 19/53/53 17/54/54
f 15/55/55 12/56/56 19/57/57
