# Wavefront OBJ file
# Exported by Maverick Model 3D 1.3.15
# Mon Sep 14 11:33:50 2026

mtllib floor.mtl

# 85 Vertices
v 5.0 -0.0 5.107
v 0.0 -0.0 5.107
v 0.0 5.0 5.107
v 5.0 5.0 5.107
v -5.0 -0.0 5.0
v -4.168 -0.0 5.0
v -3.335 -0.0 5.367
v -2.502 -0.0 5.47
v -1.67 -0.0 5.367
v -0.837 -0.0 5.0
v 0.0 -0.0 5.0
v -5.0 5.0 5.0
v -4.168 5.0 5.0
v -3.335 5.0 5.367
v -2.502 5.0 5.47
v -1.67 5.0 5.367
v -0.837 5.0 5.0
v 0.0 5.0 5.0
v -5.0 -0.0 5.0
v -4.168 -0.0 5.0
v -3.335 -0.0 5.0
v -2.502 -0.0 5.0
v -1.67 -0.0 5.0
v -0.837 -0.0 5.0
v 0.0 -0.0 5.0
v -5.0 -0.0 5.212
v -4.168 -0.0 5.212
v -3.335 -0.0 5.502
v -2.502 -0.0 5.584
v -1.67 -0.0 5.502
v -0.837 -0.0 5.212
v 0.0 -0.0 5.212
v -5.0 0.073 5.0
v -4.168 0.073 5.0
v -3.335 0.073 5.0
v -2.502 0.073 5.0
v -1.67 0.073 5.0
v -0.837 0.073 5.0
v 0.0 0.073 5.0
v -5.0 0.073 5.212
v -4.168 0.073 5.212
v -3.335 0.073 5.502
v -2.502 0.073 5.584
v -1.67 0.073 5.502
v -0.837 0.073 5.212
v 0.0 0.073 5.212
v 5.0 -0.0 5.0
v 5.0 5.0 5.0
v 5.0 -0.0 5.106
v -5.0 4.923 5.0
v -4.168 4.923 5.0
v -3.335 4.923 5.0
v -2.502 4.923 5.0
v -1.67 4.923 5.0
v -0.837 4.923 5.0
v 0.0 4.923 5.0
v -5.0 4.923 5.212
v -4.168 4.923 5.212
v -3.335 4.923 5.502
v -2.502 4.923 5.584
v -1.67 4.923 5.502
v -0.837 4.923 5.212
v 0.0 4.923 5.212
v -5.0 5.0 5.0
v -4.168 5.0 5.0
v -3.335 5.0 5.0
v -2.502 5.0 5.0
v -1.67 5.0 5.0
v -0.837 5.0 5.0
v 0.0 5.0 5.0
v -5.0 5.0 5.212
v -4.168 5.0 5.212
v -3.335 5.0 5.502
v -2.502 5.0 5.584
v -1.67 5.0 5.502
v -0.837 5.0 5.212
v 0.0 5.0 5.212
v 0.0 4.923 5.0
v 5.0 4.923 5.0
v 0.0 4.923 5.211
v 5.0 4.923 5.211
v 0.0 5.0 5.0
v 5.0 5.0 5.0
v 0.0 5.0 5.211
v 5.0 5.0 5.211

# 333 Texture Coordinates
vt 1.0 0.0
vt 1.0 0.963779
vt 0.620108 0.963779
vt 1.0 0.0
vt 0.620108 0.963779
vt 0.620108 0.0
vt 0.0 0.081221
vt 0.102187 0.081221
vt 0.0 0.955749
vt 0.102187 0.081221
vt 0.102187 0.955749
vt 0.0 0.955749
vt 0.102187 0.081221
vt 0.204376 0.081221
vt 0.102187 0.955749
vt 0.204376 0.081221
vt 0.204376 0.955749
vt 0.102187 0.955749
vt 0.204376 0.081221
vt 0.306563 0.081221
vt 0.204376 0.955749
vt 0.306563 0.081221
vt 0.306563 0.955749
vt 0.204376 0.955749
vt 0.306563 0.081221
vt 0.408752 0.081221
vt 0.306563 0.955749
vt 0.408752 0.081221
vt 0.408752 0.955749
vt 0.306563 0.955749
vt 0.408752 0.081221
vt 0.510939 0.081221
vt 0.408752 0.955749
vt 0.510939 0.081221
vt 0.510939 0.955749
vt 0.408752 0.955749
vt 0.510939 0.081221
vt 0.613729 0.081221
vt 0.510939 0.955749
vt 0.613729 0.081221
vt 0.613729 0.955749
vt 0.510939 0.955749
vt 0.000944 0.028231
vt 0.000944 0.002064
vt 0.1036 0.002064
vt 0.1036 0.002064
vt 0.1036 0.028231
vt 0.000944 0.028231
vt 0.1036 0.028231
vt 0.1036 0.002064
vt 0.205532 0.001754
vt 0.205532 0.001754
vt 0.205532 0.063276
vt 0.1036 0.028231
vt 0.205532 0.063276
vt 0.205532 0.001754
vt 0.307464 0.001754
vt 0.307464 0.001754
vt 0.307464 0.073087
vt 0.205532 0.063276
vt 0.307464 0.073087
vt 0.307464 0.001754
vt 0.405356 0.002331
vt 0.405356 0.002331
vt 0.405356 0.063853
vt 0.307464 0.073087
vt 0.405356 0.002331
vt 0.509596 0.027943
vt 0.405356 0.063853
vt 0.509596 0.027943
vt 0.405356 0.002331
vt 0.509596 0.001776
vt 0.509596 0.027943
vt 0.509596 0.001776
vt 0.613259 0.002064
vt 0.613259 0.002064
vt 0.613259 0.028231
vt 0.509596 0.027943
vt 0.613465 0.028934
vt 0.613465 0.053986
vt 0.613465 0.053986
vt 0.613465 0.053986
vt 0.613465 0.028934
vt 0.613465 0.028934
vt 0.613465 0.028934
vt 0.613465 0.053986
vt 0.509537 0.053698
vt 0.509537 0.053698
vt 0.509537 0.028646
vt 0.613465 0.028934
vt 0.509537 0.028646
vt 0.509537 0.053698
vt 0.404743 0.054275
vt 0.404743 0.054275
vt 0.404743 0.029223
vt 0.509537 0.028646
vt 0.404743 0.029223
vt 0.404743 0.054275
vt 0.308031 0.053698
vt 0.308031 0.053698
vt 0.308031 0.028646
vt 0.404743 0.029223
vt 0.308031 0.028646
vt 0.308031 0.053698
vt 0.205257 0.053698
vt 0.205257 0.053698
vt 0.205257 0.028646
vt 0.308031 0.028646
vt 0.205257 0.028646
vt 0.205257 0.053698
vt 0.103925 0.054275
vt 0.103925 0.054275
vt 0.103925 0.029223
vt 0.205257 0.028646
vt 0.000862 0.028357
vt 0.000862 0.053409
vt 0.000862 0.053409
vt 0.000862 0.053409
vt 0.000862 0.028357
vt 0.000862 0.028357
vt 0.103925 0.029223
vt 0.103925 0.054275
vt 0.000862 0.053409
vt 0.000862 0.053409
vt 0.000862 0.028357
vt 0.103925 0.029223
vt 0.1036 0.002064
vt 0.000944 0.002064
vt 0.000944 0.028231
vt 0.000944 0.028231
vt 0.1036 0.028231
vt 0.1036 0.002064
vt 0.205532 0.001754
vt 0.1036 0.002064
vt 0.1036 0.028231
vt 0.1036 0.028231
vt 0.205532 0.063276
vt 0.205532 0.001754
vt 0.307464 0.001754
vt 0.205532 0.001754
vt 0.205532 0.063276
vt 0.205532 0.063276
vt 0.307464 0.073087
vt 0.307464 0.001754
vt 0.405356 0.002331
vt 0.307464 0.001754
vt 0.307464 0.073087
vt 0.307464 0.073087
vt 0.405356 0.063853
vt 0.405356 0.002331
vt 0.405356 0.063853
vt 0.509596 0.027943
vt 0.405356 0.002331
vt 0.509596 0.001776
vt 0.405356 0.002331
vt 0.509596 0.027943
vt 0.613259 0.002064
vt 0.509596 0.001776
vt 0.509596 0.027943
vt 0.509596 0.027943
vt 0.613259 0.028231
vt 0.613259 0.002064
vt 0.936789 0.0
vt 0.936789 0.961302
vt 1.002993 0.961302
vt 0.936789 0.0
vt 1.002993 0.961302
vt 1.002993 0.0
vt 0.0 1.0
vt 0.0 0.0
vt 1.0 0.0
vt 0.0 1.0
vt 0.0 0.0
vt 1.0 0.0
vt 0.0 1.0
vt 0.0 0.0
vt 1.0 0.0
vt 1.002993 0.0
vt 1.002993 0.961302
vt 0.936789 0.961302
vt 1.002993 0.0
vt 0.936789 0.961302
vt 0.936789 0.0
vt 0.625 0.040076
vt 0.625 0.0
vt 1.0 0.000107
vt 0.625 0.040076
vt 1.0 0.000107
vt 1.0 0.040076
vt 0.626095 0.003463
vt 1.0 0.003452
vt 0.999999 0.034688
vt 0.999999 0.034688
vt 0.626095 0.034773
vt 0.626095 0.003463
vt 0.000944 0.028231
vt 0.000944 0.002064
vt 0.1036 0.002064
vt 0.1036 0.002064
vt 0.1036 0.028231
vt 0.000944 0.028231
vt 0.1036 0.028231
vt 0.1036 0.002064
vt 0.205532 0.001754
vt 0.205532 0.001754
vt 0.205532 0.063276
vt 0.1036 0.028231
vt 0.205532 0.063276
vt 0.205532 0.001754
vt 0.307464 0.001754
vt 0.307464 0.001754
vt 0.307464 0.073087
vt 0.205532 0.063276
vt 0.307464 0.073087
vt 0.307464 0.001754
vt 0.405356 0.002331
vt 0.405356 0.002331
vt 0.405356 0.063853
vt 0.307464 0.073087
vt 0.405356 0.002331
vt 0.509596 0.027943
vt 0.405356 0.063853
vt 0.509596 0.027943
vt 0.405356 0.002331
vt 0.509596 0.001776
vt 0.509596 0.027943
vt 0.509596 0.001776
vt 0.613259 0.002064
vt 0.613259 0.002064
vt 0.613259 0.028231
vt 0.509596 0.027943
vt 0.613465 0.028934
vt 0.613465 0.053986
vt 0.613465 0.053986
vt 0.613465 0.053986
vt 0.613465 0.028934
vt 0.613465 0.028934
vt 0.613465 0.028934
vt 0.613465 0.053986
vt 0.509537 0.053698
vt 0.509537 0.053698
vt 0.509537 0.028646
vt 0.613465 0.028934
vt 0.509537 0.028646
vt 0.509537 0.053698
vt 0.404743 0.054275
vt 0.404743 0.054275
vt 0.404743 0.029223
vt 0.509537 0.028646
vt 0.404743 0.029223
vt 0.404743 0.054275
vt 0.308031 0.053698
vt 0.308031 0.053698
vt 0.308031 0.028646
vt 0.404743 0.029223
vt 0.308031 0.028646
vt 0.308031 0.053698
vt 0.205257 0.053698
vt 0.205257 0.053698
vt 0.205257 0.028646
vt 0.308031 0.028646
vt 0.205257 0.028646
vt 0.205257 0.053698
vt 0.103925 0.054275
vt 0.103925 0.054275
vt 0.103925 0.029223
vt 0.205257 0.028646
vt 0.000862 0.028357
vt 0.000862 0.053409
vt 0.000862 0.053409
vt 0.000862 0.053409
vt 0.000862 0.028357
vt 0.000862 0.028357
vt 0.103925 0.029223
vt 0.103925 0.054275
vt 0.000862 0.053409
vt 0.000862 0.053409
vt 0.000862 0.028357
vt 0.103925 0.029223
vt 0.1036 0.002064
vt 0.000944 0.002064
vt 0.000944 0.028231
vt 0.000944 0.028231
vt 0.1036 0.028231
vt 0.1036 0.002064
vt 0.205532 0.001754
vt 0.1036 0.002064
vt 0.1036 0.028231
vt 0.1036 0.028231
vt 0.205532 0.063276
vt 0.205532 0.001754
vt 0.307464 0.001754
vt 0.205532 0.001754
vt 0.205532 0.063276
vt 0.205532 0.063276
vt 0.307464 0.073087
vt 0.307464 0.001754
vt 0.405356 0.002331
vt 0.307464 0.001754
vt 0.307464 0.073087
vt 0.307464 0.073087
vt 0.405356 0.063853
vt 0.405356 0.002331
vt 0.405356 0.063853
vt 0.509596 0.027943
vt 0.405356 0.002331
vt 0.509596 0.001776
vt 0.405356 0.002331
vt 0.509596 0.027943
vt 0.613259 0.002064
vt 0.509596 0.001776
vt 0.509596 0.027943
vt 0.509596 0.027943
vt 0.613259 0.028231
vt 0.613259 0.002064
vt 0.554275 0.07781
vt 0.554275 0.07781
vt 0.207024 0.07781
vt 0.207024 0.07781
vt 0.207024 0.07781
vt 0.554275 0.07781
vt 0.554275 0.026855
vt 0.554275 0.07781
vt 0.207024 0.07781
vt 0.207024 0.07781
vt 0.207024 0.026855
vt 0.554275 0.026855
vt 0.207024 0.026855
vt 0.554275 0.026855
vt 0.554275 0.026855
vt 0.554275 0.026855
vt 0.207024 0.026855
vt 0.207024 0.026855

# 333 Vertex Normals
vn -0.000021 0.000007 1.0
vn -0.000014 0.000014 1.0
vn -0.000021 0.000007 1.0
vn -0.000021 0.000007 1.0
vn -0.000021 0.000007 1.0
vn -0.000028 0.0 1.0
vn 0.0 0.0 1.0
vn -0.13709 0.0 0.990559
vn 0.0 0.0 1.0
vn -0.13709 0.0 0.990559
vn -0.274179 0.0 0.961679
vn 0.0 0.0 1.0
vn -0.13709 0.0 0.990559
vn -0.312938 0.0 0.949773
vn -0.274179 0.0 0.961679
vn -0.312938 0.0 0.949773
vn -0.218604 0.0 0.975814
vn -0.274179 0.0 0.961679
vn -0.312938 0.0 0.949773
vn -0.041311 0.0 0.999146
vn -0.218604 0.0 0.975814
vn -0.041311 0.0 0.999146
vn 0.041311 0.0 0.999146
vn -0.218604 0.0 0.975814
vn -0.041311 0.0 0.999146
vn 0.218604 0.0 0.975814
vn 0.041311 0.0 0.999146
vn 0.218604 0.0 0.975814
vn 0.312938 0.0 0.949774
vn 0.041311 0.0 0.999146
vn 0.218604 0.0 0.975814
vn 0.274179 0.0 0.961679
vn 0.312938 0.0 0.949774
vn 0.274179 0.0 0.961679
vn 0.13709 0.0 0.990559
vn 0.312938 0.0 0.949774
vn 0.274179 0.0 0.961679
vn 0.0 0.0 1.0
vn 0.13709 0.0 0.990559
vn 0.0 0.0 1.0
vn 0.0 0.0 1.0
vn 0.13709 0.0 0.990559
vn 0.0 1.0 0.0
vn 0.0 1.0 0.0
vn 0.0 1.0 0.0
vn 0.0 1.0 0.0
vn 0.0 1.0 0.0
vn 0.0 1.0 0.0
vn 0.0 1.0 0.0
vn 0.0 1.0 0.0
vn 0.0 1.0 0.0
vn 0.0 1.0 0.0
vn 0.0 1.0 0.0
vn 0.0 1.0 0.0
vn 0.0 1.0 0.0
vn 0.0 1.0 0.0
vn 0.0 1.0 0.0
vn 0.0 1.0 0.0
vn 0.0 1.0 0.0
vn 0.0 1.0 0.0
vn 0.0 1.0 0.0
vn 0.0 1.0 0.0
vn -0.0 1.0 0.0
vn -0.0 1.0 0.0
vn -0.0 1.0 0.0
vn 0.0 1.0 0.0
vn -0.0 1.0 0.0
vn -0.0 1.0 0.0
vn -0.0 1.0 0.0
vn -0.0 1.0 0.0
vn -0.0 1.0 0.0
vn 0.0 1.0 0.0
vn -0.0 1.0 0.0
vn 0.0 1.0 0.0
vn 0.0 1.0 0.0
vn 0.0 1.0 0.0
vn 0.0 1.0 0.0
vn -0.0 1.0 0.0
vn 1.0 0.0 -0.0
vn 1.0 0.0 -0.0
vn 1.0 0.0 -0.0
vn 1.0 0.0 -0.0
vn 1.0 0.0 -0.0
vn 1.0 0.0 -0.0
vn 0.0 0.0 1.0
vn 0.0 0.0 1.0
vn 0.111173 0.0 0.993801
vn 0.111173 0.0 0.993801
vn 0.222346 0.0 0.974968
vn 0.0 0.0 1.0
vn 0.222346 0.0 0.974968
vn 0.111173 0.0 0.993801
vn 0.253571 0.0 0.967317
vn 0.253571 0.0 0.967317
vn 0.175696 0.0 0.984444
vn 0.222346 0.0 0.974968
vn 0.175696 0.0 0.984444
vn 0.253571 0.0 0.967317
vn 0.032538 0.0 0.99947
vn 0.032538 0.0 0.99947
vn -0.03254 0.0 0.99947
vn 0.175696 0.0 0.984444
vn -0.03254 0.0 0.99947
vn 0.032538 0.0 0.99947
vn -0.175697 0.0 0.984444
vn -0.175697 0.0 0.984444
vn -0.253571 0.0 0.967317
vn -0.03254 0.0 0.99947
vn -0.253571 0.0 0.967317
vn -0.175697 0.0 0.984444
vn -0.222346 0.0 0.974968
vn -0.222346 0.0 0.974968
vn -0.111173 0.0 0.993801
vn -0.253571 0.0 0.967317
vn -1.0 0.0 0.0
vn -1.0 0.0 0.0
vn -1.0 0.0 0.0
vn -1.0 0.0 0.0
vn -1.0 0.0 0.0
vn -1.0 0.0 0.0
vn -0.111173 0.0 0.993801
vn -0.222346 0.0 0.974968
vn 0.0 0.0 1.0
vn 0.0 0.0 1.0
vn 0.0 0.0 1.0
vn -0.111173 0.0 0.993801
vn 0.0 -1.0 0.0
vn 0.0 -1.0 0.0
vn 0.0 -1.0 0.0
vn 0.0 -1.0 0.0
vn 0.0 -1.0 0.0
vn 0.0 -1.0 0.0
vn 0.0 -1.0 0.0
vn 0.0 -1.0 0.0
vn 0.0 -1.0 0.0
vn 0.0 -1.0 0.0
vn 0.0 -1.0 0.0
vn 0.0 -1.0 0.0
vn 0.0 -1.0 0.0
vn 0.0 -1.0 0.0
vn 0.0 -1.0 0.0
vn 0.0 -1.0 0.0
vn 0.0 -1.0 0.0
vn 0.0 -1.0 0.0
vn -0.0 -1.0 0.0
vn 0.0 -1.0 0.0
vn 0.0 -1.0 0.0
vn 0.0 -1.0 0.0
vn -0.0 -1.0 0.0
vn -0.0 -1.0 0.0
vn -0.0 -1.0 0.0
vn 0.0 -1.0 0.0
vn -0.0 -1.0 0.0
vn 0.0 -1.0 0.0
vn -0.0 -1.0 0.0
vn 0.0 -1.0 0.0
vn 0.0 -1.0 0.0
vn 0.0 -1.0 0.0
vn 0.0 -1.0 0.0
vn 0.0 -1.0 0.0
vn 0.0 -1.0 0.0
vn 0.0 -1.0 0.0
vn -1.0 0.0 0.0
vn -1.0 0.0 0.0
vn -1.0 0.0 0.0
vn -1.0 0.0 0.0
vn -1.0 0.0 0.0
vn -1.0 0.0 0.0
vn 0.0 1.0 0.0
vn 0.0 1.0 0.0
vn 0.0 1.0 0.0
vn 0.0 1.0 0.0
vn 0.0 1.0 0.0
vn 0.0 1.0 0.0
vn 0.0 1.0 0.0
vn 0.0 1.0 0.0
vn 0.0 1.0 0.0
vn 1.0 0.0 0.0
vn 1.0 0.0 0.0
vn 1.0 0.0 0.0
vn 1.0 0.0 0.0
vn 1.0 0.0 0.0
vn 1.0 0.0 0.0
vn 0.0 -1.0 0.0
vn 0.0 -1.0 0.0
vn 0.0 -1.0 0.0
vn 0.0 -1.0 0.0
vn 0.0 -1.0 0.0
vn 0.0 -1.0 0.0
vn 0.0 1.0 0.0
vn 0.0 1.0 0.0
vn 0.0 1.0 0.0
vn 0.0 1.0 0.0
vn 0.0 1.0 0.0
vn 0.0 1.0 0.0
vn 0.0 1.0 0.0
vn 0.0 1.0 0.0
vn 0.0 1.0 0.0
vn 0.0 1.0 0.0
vn 0.0 1.0 0.0
vn 0.0 1.0 0.0
vn 0.0 1.0 0.0
vn 0.0 1.0 0.0
vn 0.0 1.0 0.0
vn 0.0 1.0 0.0
vn 0.0 1.0 0.0
vn 0.0 1.0 0.0
vn 0.0 1.0 0.0
vn 0.0 1.0 0.0
vn 0.0 1.0 0.0
vn 0.0 1.0 0.0
vn 0.0 1.0 0.0
vn 0.0 1.0 0.0
vn 0.0 1.0 0.0
vn 0.0 1.0 0.0
vn 0.0 1.0 0.0
vn 0.0 1.0 0.0
vn 0.0 1.0 0.0
vn 0.0 1.0 0.0
vn 0.0 1.0 0.0
vn 0.0 1.0 0.0
vn 0.0 1.0 0.0
vn 0.0 1.0 0.0
vn 0.0 1.0 0.0
vn 0.0 1.0 0.0
vn 0.0 1.0 0.0
vn 0.0 1.0 0.0
vn 0.0 1.0 0.0
vn 0.0 1.0 0.0
vn 0.0 1.0 0.0
vn 0.0 1.0 0.0
vn 1.0 0.0 -0.0
vn 1.0 0.0 -0.0
vn 1.0 0.0 -0.0
vn 1.0 0.0 -0.0
vn 1.0 0.0 -0.0
vn 1.0 0.0 -0.0
vn 0.0 0.0 1.0
vn 0.0 0.0 1.0
vn 0.111173 0.0 0.993801
vn 0.111173 0.0 0.993801
vn 0.222346 0.0 0.974968
vn 0.0 0.0 1.0
vn 0.222346 0.0 0.974968
vn 0.111173 0.0 0.993801
vn 0.253571 0.0 0.967317
vn 0.253571 0.0 0.967317
vn 0.175696 0.0 0.984444
vn 0.222346 0.0 0.974968
vn 0.175696 0.0 0.984444
vn 0.253571 0.0 0.967317
vn 0.032539 0.0 0.99947
vn 0.032539 0.0 0.99947
vn -0.032539 0.0 0.99947
vn 0.175696 0.0 0.984444
vn -0.032539 0.0 0.99947
vn 0.032539 0.0 0.99947
vn -0.175697 0.0 0.984444
vn -0.175697 0.0 0.984444
vn -0.25357 0.0 0.967317
vn -0.032539 0.0 0.99947
vn -0.25357 0.0 0.967317
vn -0.175697 0.0 0.984444
vn -0.222345 0.0 0.974968
vn -0.222345 0.0 0.974968
vn -0.111173 0.0 0.993801
vn -0.25357 0.0 0.967317
vn -1.0 0.0 0.0
vn -1.0 0.0 0.0
vn -1.0 0.0 0.0
vn -1.0 0.0 0.0
vn -1.0 0.0 0.0
vn -1.0 0.0 0.0
vn -0.111173 0.0 0.993801
vn -0.222345 0.0 0.974968
vn 0.0 0.0 1.0
vn 0.0 0.0 1.0
vn 0.0 0.0 1.0
vn -0.111173 0.0 0.993801
vn 0.0 -1.0 0.0
vn 0.0 -1.0 0.0
vn 0.0 -1.0 0.0
vn 0.0 -1.0 0.0
vn 0.0 -1.0 0.0
vn 0.0 -1.0 0.0
vn 0.0 -1.0 0.0
vn 0.0 -1.0 0.0
vn 0.0 -1.0 0.0
vn 0.0 -1.0 0.0
vn 0.0 -1.0 0.0
vn 0.0 -1.0 0.0
vn 0.0 -1.0 0.0
vn 0.0 -1.0 0.0
vn 0.0 -1.0 0.0
vn 0.0 -1.0 0.0
vn -0.0 -1.0 0.0
vn 0.0 -1.0 0.0
vn -0.0 -1.0 0.0
vn 0.0 -1.0 0.0
vn -0.0 -1.0 0.0
vn -0.0 -1.0 0.0
vn -0.0 -1.0 0.0
vn -0.0 -1.0 0.0
vn -0.0 -1.0 0.0
vn 0.0 -1.0 0.0
vn -0.0 -1.0 0.0
vn 0.0 -1.0 0.0
vn -0.0 -1.0 0.0
vn 0.0 -1.0 0.0
vn 0.0 -1.0 0.0
vn 0.0 -1.0 0.0
vn 0.0 -1.0 0.0
vn 0.0 -1.0 0.0
vn 0.0 -1.0 0.0
vn 0.0 -1.0 0.0
vn 0.0 1.0 0.0
vn 0.0 1.0 0.0
vn 0.0 1.0 0.0
vn 0.0 1.0 0.0
vn 0.0 1.0 0.0
vn 0.0 1.0 0.0
vn 0.0 0.0 1.0
vn 0.0 0.0 1.0
vn 0.0 0.0 1.0
vn 0.0 0.0 1.0
vn 0.0 0.0 1.0
vn 0.0 0.0 1.0
vn 0.0 -1.0 0.0
vn 0.0 -1.0 0.0
vn 0.0 -1.0 0.0
vn 0.0 -1.0 0.0
vn 0.0 -1.0 0.0
vn 0.0 -1.0 0.0

# group, 111 grouped triangles

usemtl floor.jpg
o group
g group

f 1/1/1 4/2/2 3/3/3
f 1/4/4 3/5/5 2/6/6
f 5/7/7 6/8/8 12/9/9
f 6/10/10 13/11/11 12/12/12
f 6/13/13 7/14/14 13/15/15
f 7/16/16 14/17/17 13/18/18
f 7/19/19 8/20/20 14/21/21
f 8/22/22 15/23/23 14/24/24
f 8/25/25 9/26/26 15/27/27
f 9/28/28 16/29/29 15/30/30
f 9/31/31 10/32/32 16/33/33
f 10/34/34 17/35/35 16/36/36
f 10/37/37 11/38/38 17/39/39
f 11/40/40 18/41/41 17/42/42
f 46/43/43 39/44/44 38/45/45
f 38/46/46 45/47/47 46/48/48
f 45/49/49 38/50/50 37/51/51
f 37/52/52 44/53/53 45/54/54
f 44/55/55 37/56/56 36/57/57
f 36/58/58 43/59/59 44/60/60
f 43/61/61 36/62/62 35/63/63
f 35/64/64 42/65/65 43/66/66
f 35/67/67 41/68/68 42/69/69
f 41/70/70 35/71/71 34/72/72
f 41/73/73 34/74/74 33/75/75
f 33/76/76 40/77/77 41/78/78
f 25/79/79 39/80/80 46/81/81
f 46/82/82 32/83/83 25/84/84
f 32/85/85 46/86/86 45/87/87
f 45/88/88 31/89/89 32/90/90
f 31/91/91 45/92/92 44/93/93
f 44/94/94 30/95/95 31/96/96
f 30/97/97 44/98/98 43/99/99
f 43/100/100 29/101/101 30/102/102
f 29/103/103 43/104/104 42/105/105
f 42/106/106 28/107/107 29/108/108
f 28/109/109 42/110/110 41/111/111
f 41/112/112 27/113/113 28/114/114
f 26/115/115 40/116/116 33/117/117
f 33/118/118 19/119/119 26/120/120
f 27/121/121 41/122/122 40/123/123
f 40/124/124 26/125/125 27/126/126
f 24/127/127 25/128/128 32/129/129
f 32/130/130 31/131/131 24/132/132
f 23/133/133 24/134/134 31/135/135
f 31/136/136 30/137/137 23/138/138
f 22/139/139 23/140/140 30/141/141
f 30/142/142 29/143/143 22/144/144
f 21/145/145 22/146/146 29/147/147
f 29/148/148 28/149/149 21/150/150
f 28/151/151 27/152/152 21/153/153
f 20/154/154 21/155/155 27/156/156
f 19/157/157 20/158/158 27/159/159
f 27/160/160 26/161/161 19/162/162
f 2/163/163 3/164/164 18/165/165
f 2/166/166 18/167/167 11/168/168
f 6/169/169 7/170/170 8/171/171
f 6/172/172 8/173/173 9/174/174
f 6/175/175 9/176/176 10/177/177
f 47/178/178 48/179/179 4/180/180
f 47/181/181 4/182/182 49/183/183
f 2/184/184 11/185/185 47/186/186
f 2/187/187 47/188/188 49/189/189
f 3/190/190 4/191/191 48/192/192
f 48/193/193 18/194/194 3/195/195
f 77/196/196 70/197/197 69/198/198
f 69/199/199 76/200/200 77/201/201
f 76/202/202 69/203/203 68/204/204
f 68/205/205 75/206/206 76/207/207
f 75/208/208 68/209/209 67/210/210
f 67/211/211 74/212/212 75/213/213
f 74/214/214 67/215/215 66/216/216
f 66/217/217 73/218/218 74/219/219
f 66/220/220 72/221/221 73/222/222
f 72/223/223 66/224/224 65/225/225
f 72/226/226 65/227/227 64/228/228
f 64/229/229 71/230/230 72/231/231
f 56/232/232 70/233/233 77/234/234
f 77/235/235 63/236/236 56/237/237
f 63/238/238 77/239/239 76/240/240
f 76/241/241 62/242/242 63/243/243
f 62/244/244 76/245/245 75/246/246
f 75/247/247 61/248/248 62/249/249
f 61/250/250 75/251/251 74/252/252
f 74/253/253 60/254/254 61/255/255
f 60/256/256 74/257/257 73/258/258
f 73/259/259 59/260/260 60/261/261
f 59/262/262 73/263/263 72/264/264
f 72/265/265 58/266/266 59/267/267
f 57/268/268 71/269/269 64/270/270
f 64/271/271 50/272/272 57/273/273
f 58/274/274 72/275/275 71/276/276
f 71/277/277 57/278/278 58/279/279
f 55/280/280 56/281/281 63/282/282
f 63/283/283 62/284/284 55/285/285
f 54/286/286 55/287/287 62/288/288
f 62/289/289 61/290/290 54/291/291
f 53/292/292 54/293/293 61/294/294
f 61/295/295 60/296/296 53/297/297
f 52/298/298 53/299/299 60/300/300
f 60/301/301 59/302/302 52/303/303
f 59/304/304 58/305/305 52/306/306
f 51/307/307 52/308/308 58/309/309
f 50/310/310 51/311/311 58/312/312
f 58/313/313 57/314/314 50/315/315
f 85/316/316 83/317/317 82/318/318
f 82/319/319 84/320/320 85/321/321
f 81/322/322 85/323/323 84/324/324
f 84/325/325 80/326/326 81/327/327
f 78/328/328 79/329/329 81/330/330
f 81/331/331 80/332/332 78/333/333
