# Wavefront OBJ file
# Exported by Misfit Model 3D 1.3.8
# Sun Sep 22 16:11:06 2019

mtllib road.mtl

# 12 Vertices
v -5 0.2 -5
v -5 0.2 5
v -3 0 5
v -3 0.2 5
v -3 0.2 -5
v -3 0 -5
v 5 0.2 5
v 5 0.2 -5
v 3 0 -5
v 3 0.2 -5
v 3 0.2 5
v 3 0 5

# 30 Texture Coordinates
vt 0.154469 0.0
vt 0.0 1.0
vt 0.0 0.0
vt 0.154469 0.0
vt 0.153959 0.99932
vt 0.0 1.0
vt 0.151463 0.000654
vt 0.133319 0.999377
vt 0.1333 0.000712
vt 0.151463 0.000654
vt 0.151482 0.999319
vt 0.133319 0.999377
vt 0.852799 0.999235
vt 1.0 0.0
vt 1.0 1.0
vt 0.852799 0.999235
vt 0.852161 0.00153
vt 1.0 0.0
vt 0.852419 0.998957
vt 0.871666 0.000817
vt 0.87017 0.998873
vt 0.852419 0.998957
vt 0.85181 0.00061
vt 0.871666 0.000817
vt 0.154998 0.999765
vt 0.851538 0.00153
vt 0.852799 0.999
vt 0.154998 0.999765
vt 0.154998 0.0
vt 0.851538 0.00153

# 30 Vertex Normals
vn -0.0 1.0 0.0
vn -0.0 1.0 0.0
vn -0.0 1.0 0.0
vn -0.0 1.0 0.0
vn -0.0 1.0 0.0
vn -0.0 1.0 0.0
vn 1.0 0.0 0.0
vn 1.0 0.0 0.0
vn 1.0 0.0 0.0
vn 1.0 0.0 0.0
vn 1.0 0.0 0.0
vn 1.0 0.0 0.0
vn -0.0 1.0 0.0
vn -0.0 1.0 0.0
vn -0.0 1.0 0.0
vn -0.0 1.0 0.0
vn -0.0 1.0 0.0
vn -0.0 1.0 0.0
vn -1.0 0.0 0.0
vn -1.0 0.0 0.0
vn -1.0 0.0 -0.0
vn -1.0 0.0 0.0
vn -1.0 0.0 0.0
vn -1.0 0.0 0.0
vn -0.0 1.0 0.0
vn -0.0 1.0 0.0
vn -0.0 1.0 0.0
vn -0.0 1.0 0.0
vn -0.0 1.0 0.0
vn -0.0 1.0 0.0

# road, 10 grouped triangles

usemtl road.jpg
o road
g road

f 4/1/1 1/2/2 2/3/3
f 4/4/4 5/5/5 1/6/6
f 3/7/7 5/8/8 4/9/9
f 3/10/10 6/11/11 5/12/12
f 10/13/13 7/14/14 8/15/15
f 10/16/16 11/17/17 7/18/18
f 9/19/19 11/20/20 10/21/21
f 9/22/22 12/23/23 11/24/24
f 6/25/25 12/26/26 9/27/27
f 6/28/28 3/29/29 12/30/30
