# Wavefront OBJ file
# Exported by Maverick Model 3D 1.3.15
# Fri Sep 18 17:03:41 2026

mtllib road.mtl

# 40 Vertices
v -5.0 0.0 5.0
v -5.0 0.0 -5.0
v 5.0 0.0 -5.0
v 5.0 0.0 5.0
v -3.0 0.2 -5.0
v -3.28 0.2 -4.0
v -4.0 0.2 -3.28
v -5.0 0.2 -3.0
v -3.0 0.0 -5.0
v -3.28 -0.0 -4.0
v -4.0 -0.0 -3.28
v -5.0 -0.0 -3.0
v -5.0 0.2 -5.0
v 5.0 0.2 -3.0
v 4.0 0.2 -3.24
v 3.24 0.2 -4.0
v 3.0 0.2 -5.0
v 5.0 -0.0 -3.0
v 4.0 -0.0 -3.24
v 3.24 -0.0 -4.0
v 3.0 0.0 -5.0
v 5.0 0.2 -5.0
v 3.0 0.2 5.0
v 3.27 0.2 4.0
v 4.0 0.2 3.27
v 5.0 0.2 3.0
v 3.0 -0.0 5.0
v 3.27 0.0 4.0
v 4.0 0.0 3.27
v 5.0 0.0 3.0
v 5.0 0.2 5.0
v -5.0 0.2 3.0
v -4.0 0.2 3.25
v -3.25 0.2 4.0
v -3.0 0.2 5.0
v -5.0 0.0 3.0
v -4.0 0.0 3.25
v -3.25 0.0 4.0
v -3.0 -0.0 5.0
v -5.0 0.2 5.0

# 114 Texture Coordinates
vt 0.0 1.0
vt 1.0 0.0
vt 1.0 1.0
vt 0.0 1.0
vt 0.0 0.0
vt 1.0 0.0
vt 0.000777 0.828368
vt 0.079686 0.850296
vt 0.000384 0.800308
vt 0.079686 0.850296
vt 0.099405 0.829429
vt 0.000384 0.800308
vt 0.079686 0.850296
vt 0.151606 0.923731
vt 0.099405 0.829429
vt 0.151606 0.923731
vt 0.171325 0.905584
vt 0.099405 0.829429
vt 0.151606 0.923731
vt 0.171975 0.9991
vt 0.171325 0.905584
vt 0.171975 0.9991
vt 0.197421 0.998738
vt 0.171325 0.905584
vt 0.0 1.0
vt 0.172 0.9
vt 0.2 1.0
vt 0.0 1.0
vt 0.1 0.828
vt 0.172 0.9
vt 0.0 1.0
vt 0.0 0.8
vt 0.1 0.828
vt 0.000989 0.828364
vt 0.079566 0.850293
vt 0.000022 0.800305
vt 0.079566 0.850293
vt 0.098998 0.83
vt 0.000022 0.800305
vt 0.079566 0.850293
vt 0.151424 0.923728
vt 0.098998 0.83
vt 0.151424 0.923728
vt 0.171143 0.905581
vt 0.098998 0.83
vt 0.151424 0.923728
vt 0.171676 0.99881
vt 0.171143 0.905581
vt 0.171676 0.99881
vt 0.197695 0.998735
vt 0.171143 0.905581
vt 1.0 1.0
vt 0.901532 0.829836
vt 0.99932 0.798843
vt 1.0 1.0
vt 0.827894 0.904861
vt 0.901532 0.829836
vt 1.0 1.0
vt 0.804425 1.0
vt 0.827894 0.904861
vt 0.000829 0.828364
vt 0.079614 0.850293
vt 0.000149 0.800018
vt 0.079614 0.850293
vt 0.099332 0.829426
vt 0.000149 0.800018
vt 0.079614 0.850293
vt 0.151438 0.923728
vt 0.099332 0.829426
vt 0.151438 0.923728
vt 0.171157 0.905581
vt 0.099332 0.829426
vt 0.151438 0.923728
vt 0.171984 0.998523
vt 0.171157 0.905581
vt 0.171984 0.998523
vt 0.197142 0.998735
vt 0.171157 0.905581
vt 1.0 0.0
vt 0.829497 0.096568
vt 0.803567 0.00136
vt 1.0 0.0
vt 0.900083 0.171823
vt 0.829497 0.096568
vt 1.0 0.0
vt 0.99932 0.199256
vt 0.900083 0.171823
vt 0.00114 0.828364
vt 0.079677 0.85058
vt 0.000747 0.800018
vt 0.079677 0.85058
vt 0.099109 0.829713
vt 0.000747 0.800018
vt 0.079677 0.85058
vt 0.151594 0.923728
vt 0.099109 0.829713
vt 0.151594 0.923728
vt 0.171599 0.905581
vt 0.099109 0.829713
vt 0.151594 0.923728
vt 0.171697 0.99881
vt 0.171599 0.905581
vt 0.171697 0.99881
vt 0.197716 0.998735
vt 0.171599 0.905581
vt 0.0 0.0
vt 0.094867 0.172829
vt 0.0 0.197519
vt 0.0 0.0
vt 0.170776 0.100119
vt 0.094867 0.172829
vt 0.0 0.0
vt 0.199253 0.00068
vt 0.170776 0.100119

# 114 Vertex Normals
vn 0.0 1.0 0.0
vn 0.0 1.0 0.0
vn 0.0 1.0 0.0
vn 0.0 1.0 0.0
vn 0.0 1.0 0.0
vn 0.0 1.0 0.0
vn 0.962964 0.0 0.26963
vn 0.903852 0.0 0.427845
vn 0.962964 0.0 0.26963
vn 0.903852 0.0 0.427845
vn 0.816023 0.0 0.578019
vn 0.962964 0.0 0.26963
vn 0.903852 0.0 0.427845
vn 0.578019 0.0 0.816023
vn 0.816023 0.0 0.578019
vn 0.578019 0.0 0.816023
vn 0.427845 0.0 0.903852
vn 0.816023 0.0 0.578019
vn 0.578019 0.0 0.816023
vn 0.26963 0.0 0.962964
vn 0.427845 0.0 0.903852
vn 0.26963 0.0 0.962964
vn 0.26963 0.0 0.962964
vn 0.427845 0.0 0.903852
vn 0.0 1.0 0.0
vn 0.0 1.0 0.0
vn 0.0 1.0 0.0
vn 0.0 1.0 0.0
vn 0.0 1.0 0.0
vn 0.0 1.0 0.0
vn 0.0 1.0 0.0
vn 0.0 1.0 0.0
vn 0.0 1.0 0.0
vn -0.233373 0.0 0.972387
vn -0.404767 0.0 0.91442
vn -0.233373 0.0 0.972387
vn -0.404767 0.0 0.91442
vn -0.56812 0.0 0.822946
vn -0.233373 0.0 0.972387
vn -0.404767 0.0 0.91442
vn -0.822946 0.0 0.56812
vn -0.56812 0.0 0.822946
vn -0.822946 0.0 0.56812
vn -0.91442 0.0 0.404767
vn -0.56812 0.0 0.822946
vn -0.822946 0.0 0.56812
vn -0.972387 0.0 0.233373
vn -0.91442 0.0 0.404767
vn -0.972387 0.0 0.233373
vn -0.972387 0.0 0.233373
vn -0.91442 0.0 0.404767
vn 0.0 1.0 0.0
vn 0.0 1.0 0.0
vn 0.0 1.0 0.0
vn 0.0 1.0 0.0
vn 0.0 1.0 0.0
vn 0.0 1.0 0.0
vn 0.0 1.0 0.0
vn 0.0 1.0 0.0
vn 0.0 1.0 0.0
vn -0.965429 0.0 -0.260666
vn -0.906527 0.0 -0.422148
vn -0.965429 0.0 -0.260666
vn -0.906527 0.0 -0.422148
vn -0.817755 0.0 -0.575566
vn -0.965429 0.0 -0.260666
vn -0.906527 0.0 -0.422148
vn -0.575566 0.0 -0.817755
vn -0.817755 0.0 -0.575566
vn -0.575566 0.0 -0.817755
vn -0.422148 0.0 -0.906527
vn -0.817755 0.0 -0.575566
vn -0.575566 0.0 -0.817755
vn -0.260666 0.0 -0.965429
vn -0.422148 0.0 -0.906527
vn -0.260666 0.0 -0.965429
vn -0.260666 0.0 -0.965429
vn -0.422148 0.0 -0.906527
vn 0.0 1.0 0.0
vn 0.0 1.0 0.0
vn 0.0 1.0 0.0
vn 0.0 1.0 0.0
vn 0.0 1.0 0.0
vn 0.0 1.0 0.0
vn 0.0 1.0 0.0
vn 0.0 1.0 0.0
vn 0.0 1.0 0.0
vn 0.242536 0.0 -0.970143
vn 0.410609 0.0 -0.911812
vn 0.242536 0.0 -0.970143
vn 0.410609 0.0 -0.911812
vn 0.570616 0.0 -0.821217
vn 0.242536 0.0 -0.970143
vn 0.410609 0.0 -0.911812
vn 0.821217 0.0 -0.570616
vn 0.570616 0.0 -0.821217
vn 0.821217 0.0 -0.570616
vn 0.911812 0.0 -0.410609
vn 0.570616 0.0 -0.821217
vn 0.821217 0.0 -0.570616
vn 0.970142 0.0 -0.242536
vn 0.911812 0.0 -0.410609
vn 0.970142 0.0 -0.242536
vn 0.970142 0.0 -0.242536
vn 0.911812 0.0 -0.410609
vn 0.0 1.0 0.0
vn 0.0 1.0 0.0
vn 0.0 1.0 0.0
vn 0.0 1.0 0.0
vn 0.0 1.0 0.0
vn 0.0 1.0 0.0
vn 0.0 1.0 0.0
vn 0.0 1.0 0.0
vn 0.0 1.0 0.0

# group, 38 grouped triangles

usemtl road.jpg
o group
g group

f 2/1/1 4/2/2 3/3/3
f 2/4/4 1/5/5 4/6/6
f 5/7/7 6/8/8 9/9/9
f 6/10/10 10/11/11 9/12/12
f 6/13/13 7/14/14 10/15/15
f 7/16/16 11/17/17 10/18/18
f 7/19/19 8/20/20 11/21/21
f 8/22/22 12/23/23 11/24/24
f 13/25/25 6/26/26 5/27/27
f 13/28/28 7/29/29 6/30/30
f 13/31/31 8/32/32 7/33/33
f 14/34/34 15/35/35 18/36/36
f 15/37/37 19/38/38 18/39/39
f 15/40/40 16/41/41 19/42/42
f 16/43/43 20/44/44 19/45/45
f 16/46/46 17/47/47 20/48/48
f 17/49/49 21/50/50 20/51/51
f 22/52/52 15/53/53 14/54/54
f 22/55/55 16/56/56 15/57/57
f 22/58/58 17/59/59 16/60/60
f 23/61/61 24/62/62 27/63/63
f 24/64/64 28/65/65 27/66/66
f 24/67/67 25/68/68 28/69/69
f 25/70/70 29/71/71 28/72/72
f 25/73/73 26/74/74 29/75/75
f 26/76/76 30/77/77 29/78/78
f 31/79/79 24/80/80 23/81/81
f 31/82/82 25/83/83 24/84/84
f 31/85/85 26/86/86 25/87/87
f 32/88/88 33/89/89 36/90/90
f 33/91/91 37/92/92 36/93/93
f 33/94/94 34/95/95 37/96/96
f 34/97/97 38/98/98 37/99/99
f 34/100/100 35/101/101 38/102/102
f 35/103/103 39/104/104 38/105/105
f 40/106/106 33/107/107 32/108/108
f 40/109/109 34/110/110 33/111/111
f 40/112/112 35/113/113 34/114/114
