# Wavefront OBJ file
# Exported by Maverick Model 3D 1.3.15
# Mon Sep 14 13:51:06 2026

mtllib roof.mtl

# 23 Vertices
v -5.0 -0.0 5.0
v -5.0 0.201 5.118
v -5.0 0.265 5.268
v -5.0 0.39 5.268
v -5.0 0.39 5.0
v 5.0 -0.0 5.0
v 5.0 0.201 5.118
v 5.0 0.265 5.268
v 5.0 0.39 5.268
v 5.0 0.39 5.0
v -5.0 -0.0 -5.0
v -5.0 0.39 -5.0
v 5.0 -0.0 -5.0
v 5.0 0.39 -5.0
v -5.0 -0.0 -5.001
v -5.0 0.201 -5.119
v -5.0 0.265 -5.269
v -5.0 0.39 -5.269
v 5.0 0.201 -5.119
v 5.0 0.265 -5.269
v 5.0 0.39 -5.269
v -5.0 2.39 -0.0
v 5.0 2.39 -0.0

# 138 Texture Coordinates
vt 0.0 0.004573
vt 0.0 0.004573
vt 4.816487 0.004573
vt 4.816487 0.004573
vt 4.816486 0.004573
vt 0.0 0.004573
vt 0.0 0.431613
vt 4.816487 0.431613
vt 4.816486 0.431613
vt 4.816486 0.431613
vt 0.0 0.431613
vt 0.0 0.431613
vt 0.097978 0.229333
vt 0.174896 0.016508
vt 0.174896 0.427547
vt 0.0 0.296622
vt 0.097978 0.229333
vt 0.174896 0.427547
vt 0.0 0.427547
vt 0.0 0.296622
vt 0.174896 0.427547
vt 0.0 0.004573
vt 4.816486 0.004573
vt 4.816486 0.225683
vt 4.816486 0.225683
vt 0.0 0.225683
vt 0.0 0.004573
vt 0.0 0.431613
vt 4.816487 0.431613
vt 4.816487 0.004573
vt 4.816487 0.004573
vt 0.0 0.004573
vt 0.0 0.431613
vt 0.0 0.225683
vt 4.816486 0.225683
vt 4.816486 0.295591
vt 4.816486 0.295591
vt 0.0 0.295591
vt 0.0 0.225683
vt 0.0 0.295591
vt 4.816486 0.295591
vt 4.816486 0.431613
vt 4.816486 0.431613
vt 0.0 0.431613
vt 0.0 0.295591
vt 0.003992 0.09266
vt 4.79821 0.09266
vt 4.79821 0.368961
vt 4.79821 0.368961
vt 0.003992 0.368961
vt 0.003992 0.09266
vt 0.174896 0.427547
vt 0.174896 0.016508
vt 0.097978 0.229333
vt 0.174896 0.427547
vt 0.097978 0.229333
vt 0.0 0.296622
vt 0.174896 0.427547
vt 0.0 0.296622
vt 0.0 0.427547
vt 0.174896 0.016508
vt 6.703842 0.016508
vt 6.703842 0.427547
vt 6.703842 0.427547
vt 0.174896 0.427547
vt 0.174896 0.016508
vt 0.174896 0.427547
vt 6.703842 0.427547
vt 6.70356 0.016508
vt 6.70356 0.016508
vt 0.174896 0.016508
vt 0.174896 0.427547
vt 4.816486 0.004573
vt 4.816486 0.431613
vt 0.0 0.431613
vt 0.0 0.431613
vt 0.0 0.004573
vt 4.816486 0.004573
vt 6.703842 0.427547
vt 6.703842 0.016508
vt 6.781042 0.229333
vt 6.703842 0.427547
vt 6.781042 0.229333
vt 6.87902 0.296622
vt 6.703842 0.427547
vt 6.87902 0.296622
vt 6.87902 0.427547
vt 4.816487 0.225683
vt 4.816487 0.004573
vt 0.0 0.004573
vt 0.0 0.004573
vt 0.0 0.225683
vt 4.816487 0.225683
vt 4.816487 0.295591
vt 4.816487 0.225683
vt 0.0 0.225683
vt 0.0 0.225683
vt 0.0 0.295591
vt 4.816487 0.295591
vt 4.816487 0.431613
vt 4.816487 0.295591
vt 0.0 0.295591
vt 0.0 0.295591
vt 0.0 0.431613
vt 4.816487 0.431613
vt 4.819543 0.091877
vt 4.819543 0.370518
vt 0.003865 0.370518
vt 0.003865 0.370518
vt 0.003865 0.091877
vt 4.819543 0.091877
vt 6.781042 0.229333
vt 6.704124 0.016508
vt 6.703842 0.427547
vt 6.87902 0.296622
vt 6.781042 0.229333
vt 6.703842 0.427547
vt 6.87902 0.427547
vt 6.87902 0.296622
vt 6.703842 0.427547
vt 0.503788 0.33367
vt 0.0 0.204259
vt 1.007576 0.204259
vt 0.0 0.439651
vt 0.0 1.0
vt 0.998551 1.0
vt 0.998551 1.0
vt 0.998551 0.439651
vt 0.0 0.439651
vt 0.503788 0.33367
vt 1.007576 0.204259
vt 0.0 0.204259
vt 0.998551 0.439651
vt 0.998551 1.0
vt 0.0 1.0
vt 0.0 1.0
vt 0.0 0.439651
vt 0.998551 0.439651

# 138 Vertex Normals
vn -0.0 -0.86735 0.497699
vn -0.0 -1.0 0.0
vn 0.000014 -0.945556 -0.32546
vn 0.000014 -0.945556 -0.32546
vn 0.0 -0.86735 0.497699
vn -0.0 -0.86735 0.497699
vn 0.0 -1.0 0.0
vn 0.0 -1.0 0.0
vn 0.0 -1.0 0.0
vn 0.0 -1.0 0.0
vn 0.0 -1.0 0.0
vn 0.0 -1.0 0.0
vn 1.0 0.0 0.000001
vn 1.0 0.0 0.000001
vn 1.0 0.0 0.000001
vn 1.0 0.0 0.0
vn 1.0 0.0 0.000001
vn 1.0 0.0 0.000001
vn 1.0 0.0 0.0
vn 1.0 0.0 0.0
vn 1.0 0.0 0.000001
vn -0.0 -0.741031 0.671471
vn 0.0 -0.465156 0.885229
vn 0.0 -0.673186 0.739473
vn 0.0 -0.673186 0.739473
vn 0.0 -0.818102 0.575074
vn -0.0 -0.741031 0.671471
vn -0.000013 0.560406 -0.828218
vn 0.0 0.560635 -0.828063
vn -0.000002 -0.174425 -0.98467
vn -0.000002 -0.174425 -0.98467
vn -0.000043 -0.001107 -0.999999
vn -0.000013 0.560406 -0.828218
vn 0.0 -0.818102 0.575074
vn 0.0 -0.673186 0.739473
vn 0.0 -0.717788 0.696262
vn 0.0 -0.717788 0.696262
vn 0.0 -0.358894 0.933378
vn 0.0 -0.818102 0.575074
vn 0.0 -0.358894 0.933378
vn 0.0 -0.717788 0.696262
vn 0.0 0.0 1.0
vn 0.0 0.0 1.0
vn 0.0 0.0 1.0
vn 0.0 -0.358894 0.933378
vn 0.0 1.0 0.0
vn 0.0 1.0 0.0
vn 0.0 0.981958 0.1891
vn 0.0 0.981958 0.1891
vn 0.0 0.981958 0.1891
vn 0.0 1.0 0.0
vn -1.0 0.0 0.0
vn -1.0 0.0 0.0
vn -1.0 0.0 0.0
vn -1.0 0.0 0.0
vn -1.0 0.0 0.0
vn -1.0 0.0 0.0
vn -1.0 0.0 0.0
vn -1.0 0.0 0.0
vn -1.0 0.0 0.0
vn 1.0 0.0 0.000001
vn 1.0 0.0 0.0
vn 1.0 0.0 0.0
vn 1.0 0.0 0.0
vn 1.0 0.0 0.000001
vn 1.0 0.0 0.000001
vn -1.0 0.0 0.0
vn -1.0 0.0 0.0
vn -1.0 0.0 0.0
vn -1.0 0.0 0.0
vn -1.0 0.0 0.0
vn -1.0 0.0 0.0
vn 0.0 -0.17355 0.984825
vn 0.0 0.729175 0.684327
vn 0.0 0.364587 0.931169
vn 0.0 0.364587 0.931169
vn 0.0 -0.347099 0.937828
vn 0.0 -0.17355 0.984825
vn 1.0 0.0 0.0
vn 1.0 0.0 0.0
vn 1.0 0.0 0.0
vn 1.0 0.0 0.0
vn 1.0 0.0 0.0
vn 1.0 0.0 0.0
vn 1.0 0.0 0.0
vn 1.0 0.0 0.0
vn 1.0 0.0 0.0
vn 0.000013 -0.673587 -0.739108
vn -0.000002 -0.658853 -0.752272
vn 0.000019 -0.505277 -0.862957
vn 0.000019 -0.505277 -0.862957
vn 0.0 -0.818101 -0.575075
vn 0.000013 -0.673587 -0.739108
vn 0.0 -0.717788 -0.696262
vn 0.000013 -0.673587 -0.739108
vn 0.0 -0.818101 -0.575075
vn 0.0 -0.818101 -0.575075
vn 0.0 -0.358894 -0.933378
vn 0.0 -0.717788 -0.696262
vn 0.0 0.0 -1.0
vn 0.0 -0.717788 -0.696262
vn 0.0 -0.358894 -0.933378
vn 0.0 -0.358894 -0.933378
vn 0.0 0.0 -1.0
vn 0.0 0.0 -1.0
vn 0.0 0.992055 -0.125808
vn 0.0 1.0 0.0
vn 0.0 1.0 0.0
vn 0.0 1.0 0.0
vn 0.0 0.967827 -0.251616
vn 0.0 0.992055 -0.125808
vn -1.0 0.0 0.0
vn -1.0 0.0 0.0
vn -1.0 0.0 0.0
vn -1.0 0.0 0.0
vn -1.0 0.0 0.0
vn -1.0 0.0 0.0
vn -1.0 0.0 0.0
vn -1.0 0.0 0.0
vn -1.0 0.0 0.0
vn 1.0 0.0 0.0
vn 1.0 0.0 0.000001
vn 1.0 0.0 0.0
vn -0.000011 0.721245 -0.69268
vn 0.0 0.991229 0.132158
vn 0.0 0.991229 -0.132158
vn 0.0 0.991229 -0.132158
vn 0.0 0.905619 -0.424092
vn -0.000011 0.721245 -0.69268
vn -1.0 0.0 0.0
vn -1.0 0.0 0.0
vn -1.0 0.0 0.0
vn 0.0 0.911291 0.411763
vn 0.0 0.991229 -0.132158
vn 0.0 0.991229 0.132158
vn 0.0 0.991229 0.132158
vn 0.0 0.630935 0.775836
vn 0.0 0.911291 0.411763

# group, 46 grouped triangles

usemtl roof.jpg
o group
g group

f 1/1/1 11/2/2 13/3/3
f 13/4/4 6/5/5 1/6/6
f 12/7/7 14/8/8 10/9/9
f 10/10/10 5/11/11 12/12/12
f 7/13/13 6/14/14 10/15/15
f 8/16/16 7/17/17 10/18/18
f 9/19/19 8/20/20 10/21/21
f 1/22/22 6/23/23 7/24/24
f 7/25/25 2/26/26 1/27/27
f 12/28/28 14/29/29 13/30/30
f 13/31/31 11/32/32 12/33/33
f 2/34/34 7/35/35 8/36/36
f 8/37/37 3/38/38 2/39/39
f 3/40/40 8/41/41 9/42/42
f 9/43/43 4/44/44 3/45/45
f 4/46/46 9/47/47 10/48/48
f 10/49/49 5/50/50 4/51/51
f 5/52/52 1/53/53 2/54/54
f 5/55/55 2/56/56 3/57/57
f 5/58/58 3/59/59 4/60/60
f 6/61/61 13/62/62 14/63/63
f 14/64/64 10/65/65 6/66/66
f 5/67/67 12/68/68 11/69/69
f 11/70/70 1/71/71 5/72/72
f 6/73/73 10/74/74 5/75/75
f 5/76/76 1/77/77 6/78/78
f 14/79/79 13/80/80 19/81/81
f 14/82/82 19/83/83 20/84/84
f 14/85/85 20/86/86 21/87/87
f 19/88/88 13/89/89 15/90/90
f 15/91/91 16/92/92 19/93/93
f 20/94/94 19/95/95 16/96/96
f 16/97/97 17/98/98 20/99/99
f 21/100/100 20/101/101 17/102/102
f 17/103/103 18/104/104 21/105/105
f 14/106/106 21/107/107 18/108/108
f 18/109/109 12/110/110 14/111/111
f 16/112/112 15/113/113 12/114/114
f 17/115/115 16/116/116 12/117/117
f 18/118/118 17/119/119 12/120/120
f 23/121/121 10/122/122 14/123/123
f 12/124/124 22/125/125 23/126/126
f 23/127/127 14/128/128 12/129/129
f 22/130/130 12/131/131 5/132/132
f 10/133/133 23/134/134 22/135/135
f 22/136/136 5/137/137 10/138/138
