# Wavefront OBJ file
# Exported by Maverick Model 3D 1.3.15
# Mon Sep 14 08:46:48 2026

mtllib roof.mtl

# 4 Vertices
v -5.0 -0.0 5.0
v 5.0 -0.0 5.0
v 5.0 -0.0 -5.0
v -5.0 -0.0 -5.0

# 6 Texture Coordinates
vt 1.0 1.0
vt 0.0 1.0
vt 1.0 0.0
vt 0.0 1.0
vt 0.0 0.0
vt 1.0 0.0

# 6 Vertex Normals
vn 0.0 1.0 0.0
vn 0.0 1.0 0.0
vn 0.0 1.0 0.0
vn 0.0 1.0 0.0
vn 0.0 1.0 0.0
vn 0.0 1.0 0.0

# group, 2 grouped triangles

usemtl roof.jpg
o group
g group

f 3/1/1 4/2/2 2/3/3
f 4/4/4 1/5/5 2/6/6
