# Wavefront OBJ file
# Exported by Maverick Model 3D 1.3.15
# Mon Sep 14 11:44:20 2026

mtllib shop.mtl

# 58 Vertices
v 5.0 5.0 5.0
v -5.0 5.0 5.0
v 5.0 0.0 5.0
v -5.0 0.0 5.0
v -1.092 0.844 5.081
v 4.989 0.844 5.081
v -1.092 0.966 5.081
v 4.989 0.966 5.081
v 4.989 0.844 4.994
v -1.092 0.844 4.994
v 4.989 0.966 4.994
v -1.092 0.966 4.994
v -4.922 0.854 5.081
v -4.086 0.854 5.081
v -4.922 0.977 5.081
v -4.086 0.977 5.081
v -4.086 0.854 4.994
v -4.922 0.854 4.994
v -4.086 0.977 4.994
v -4.922 0.977 4.994
v -4.32 4.19 5.057
v 4.327 4.19 5.057
v -4.32 4.837 5.057
v 4.327 4.837 5.057
v 4.327 4.19 4.994
v -4.32 4.19 4.994
v 4.327 4.837 4.994
v -4.32 4.837 4.994
v -4.999 4.894 5.027
v 4.993 4.894 5.027
v -4.999 4.989 5.116
v 4.993 4.989 5.116
v 4.993 4.894 4.994
v -4.999 4.894 4.994
v 4.993 4.989 4.994
v -4.999 4.989 4.994
v -4.999 4.024 5.039
v 4.993 4.024 5.039
v -4.999 4.119 5.116
v 4.993 4.119 5.116
v 4.993 4.024 4.994
v -4.999 4.024 4.994
v 4.993 4.119 4.994
v -4.999 4.119 4.994
v -4.048 0.0 5.0
v -4.048 2.809 5.0
v -1.196 0.0 5.0
v -1.196 2.809 5.0
v -4.048 0.0 4.582
v -4.048 2.809 4.582
v -1.196 0.0 4.582
v -1.196 2.809 4.582
v -4.072 0.21 4.558
v -4.072 0.21 4.983
v -1.112 0.21 4.558
v -1.112 0.21 4.983
v -4.072 0.009 4.991
v -1.112 0.009 4.991

# 204 Texture Coordinates
vt 0.395513 0.174132
vt 0.911994 0.173658
vt 0.395513 0.19244
vt 0.911994 0.173658
vt 0.911994 0.191967
vt 0.395513 0.19244
vt 0.395513 0.19244
vt 0.395513 0.174132
vt 0.395513 0.174132
vt 0.395513 0.19244
vt 0.395513 0.19244
vt 0.395513 0.174132
vt 0.911994 0.191967
vt 0.911994 0.173658
vt 0.911994 0.173658
vt 0.911994 0.191967
vt 0.911994 0.191967
vt 0.911994 0.173658
vt 0.395513 0.19244
vt 0.911994 0.191967
vt 0.395513 0.19244
vt 0.395513 0.19244
vt 0.911994 0.191967
vt 0.911994 0.191967
vt 0.911994 0.173658
vt 0.395513 0.174132
vt 0.911994 0.173658
vt 0.911994 0.173658
vt 0.395513 0.174132
vt 0.395513 0.174132
vt 0.009422 0.171853
vt 0.091146 0.173221
vt 0.008726 0.19587
vt 0.091146 0.173221
vt 0.091146 0.195699
vt 0.008726 0.19587
vt 0.008726 0.19587
vt 0.009422 0.171853
vt 0.009422 0.171853
vt 0.008726 0.19587
vt 0.008726 0.19587
vt 0.009422 0.171853
vt 0.091146 0.195699
vt 0.091146 0.173221
vt 0.091146 0.173221
vt 0.091146 0.195699
vt 0.091146 0.195699
vt 0.091146 0.173221
vt 0.008726 0.19587
vt 0.091146 0.195699
vt 0.008726 0.19587
vt 0.008726 0.19587
vt 0.091146 0.195699
vt 0.091146 0.195699
vt 0.091146 0.173221
vt 0.009422 0.171853
vt 0.091146 0.173221
vt 0.091146 0.173221
vt 0.009422 0.171853
vt 0.009422 0.171853
vt 0.064297 0.842545
vt 0.953797 0.842545
vt 0.064297 0.997657
vt 0.953797 0.842545
vt 0.953797 0.997657
vt 0.064297 0.997657
vt 0.064297 0.997657
vt 0.064297 0.842545
vt 0.064297 0.842545
vt 0.064297 0.997657
vt 0.064297 0.997657
vt 0.064297 0.842545
vt 0.953797 0.997657
vt 0.953797 0.842545
vt 0.953797 0.842545
vt 0.953797 0.997657
vt 0.953797 0.997657
vt 0.953797 0.842545
vt 0.064297 0.997657
vt 0.953797 0.997657
vt 0.064297 0.997657
vt 0.064297 0.997657
vt 0.953797 0.997657
vt 0.953797 0.997657
vt 0.953797 0.842545
vt 0.064297 0.842545
vt 0.953797 0.842545
vt 0.953797 0.842545
vt 0.064297 0.842545
vt 0.064297 0.842545
vt 0.109737 0.794874
vt 0.361567 0.794874
vt 0.109737 0.810412
vt 0.361567 0.794874
vt 0.361567 0.810412
vt 0.109737 0.810412
vt 0.109737 0.810412
vt 0.109737 0.794874
vt 0.109737 0.794874
vt 0.109737 0.810412
vt 0.109737 0.810412
vt 0.109737 0.794874
vt 0.361567 0.810412
vt 0.361567 0.794874
vt 0.361567 0.794874
vt 0.361567 0.810412
vt 0.361567 0.810412
vt 0.361567 0.794874
vt 0.109737 0.810412
vt 0.361567 0.810412
vt 0.109737 0.810412
vt 0.109737 0.810412
vt 0.361567 0.810412
vt 0.361567 0.810412
vt 0.361567 0.794874
vt 0.109737 0.794874
vt 0.361567 0.794874
vt 0.361567 0.794874
vt 0.109737 0.794874
vt 0.109737 0.794874
vt 0.530717 0.797154
vt 0.871955 0.797154
vt 0.530717 0.810038
vt 0.871955 0.797154
vt 0.871955 0.810038
vt 0.530717 0.810038
vt 0.530717 0.810038
vt 0.530717 0.797154
vt 0.530717 0.797154
vt 0.530717 0.810038
vt 0.530717 0.810038
vt 0.530717 0.797154
vt 0.871955 0.810038
vt 0.871955 0.797154
vt 0.871955 0.797154
vt 0.871955 0.810038
vt 0.871955 0.810038
vt 0.871955 0.797154
vt 0.530717 0.810038
vt 0.871955 0.810038
vt 0.530717 0.810038
vt 0.530717 0.810038
vt 0.871955 0.810038
vt 0.871955 0.810038
vt 0.871955 0.797154
vt 0.530717 0.797154
vt 0.871955 0.797154
vt 0.871955 0.797154
vt 0.530717 0.797154
vt 0.530717 0.797154
vt 0.092627 0.002199
vt 0.092627 0.562455
vt 0.07289 0.562455
vt 0.07289 0.562455
vt 0.07289 0.002199
vt 0.092627 0.002199
vt 0.092627 0.562455
vt 0.092627 0.002199
vt 0.07289 0.002199
vt 0.07289 0.002199
vt 0.07289 0.562455
vt 0.092627 0.562455
vt 0.008586 0.195582
vt 0.091504 0.195582
vt 0.091504 0.17373
vt 0.091504 0.17373
vt 0.008586 0.17373
vt 0.008586 0.195582
vt 1.0 1.0
vt 0.0 1.0
vt 0.380428 0.56194
vt 0.0 0.0
vt 0.095188 0.0
vt 0.095188 0.56194
vt 0.0 0.0
vt 0.095188 0.56194
vt 0.0 1.0
vt 0.380428 0.56194
vt 1.0 0.0
vt 1.0 1.0
vt 1.0 0.0
vt 0.380428 0.56194
vt 0.380428 0.0
vt 0.0 1.0
vt 0.095188 0.56194
vt 0.380428 0.56194
vt 0.095188 0.56194
vt 0.380428 0.0
vt 0.380428 0.56194
vt 0.380428 0.0
vt 0.095188 0.56194
vt 0.095188 0.0
vt 0.008592 0.277853
vt 0.008592 0.227495
vt 0.091 0.227495
vt 0.091 0.227495
vt 0.091 0.277853
vt 0.008592 0.277853
vt 0.009861 0.195459
vt 0.009861 0.174059
vt 0.088397 0.174059
vt 0.088397 0.174059
vt 0.088397 0.195459
vt 0.009861 0.195459

# 204 Vertex Normals
vn 0.0 0.0 1.0
vn 0.0 0.0 1.0
vn 0.0 0.0 1.0
vn 0.0 0.0 1.0
vn 0.0 0.0 1.0
vn 0.0 0.0 1.0
vn -1.0 0.0 0.0
vn -1.0 0.0 0.0
vn -1.0 0.0 0.0
vn -1.0 0.0 0.0
vn -1.0 0.0 0.0
vn -1.0 0.0 0.0
vn 1.0 0.0 0.0
vn 1.0 0.0 0.0
vn 1.0 0.0 0.0
vn 1.0 0.0 0.0
vn 1.0 0.0 0.0
vn 1.0 0.0 0.0
vn 0.0 1.0 0.0
vn 0.0 1.0 0.0
vn 0.0 1.0 0.0
vn 0.0 1.0 0.0
vn 0.0 1.0 0.0
vn 0.0 1.0 0.0
vn 0.0 -1.0 0.0
vn 0.0 -1.0 0.0
vn 0.0 -1.0 0.0
vn 0.0 -1.0 0.0
vn 0.0 -1.0 0.0
vn 0.0 -1.0 0.0
vn 0.0 0.0 1.0
vn 0.0 0.0 1.0
vn 0.0 0.0 1.0
vn 0.0 0.0 1.0
vn 0.0 0.0 1.0
vn 0.0 0.0 1.0
vn -1.0 0.0 0.0
vn -1.0 0.0 0.0
vn -1.0 0.0 0.0
vn -1.0 0.0 0.0
vn -1.0 0.0 0.0
vn -1.0 0.0 0.0
vn 1.0 0.0 0.0
vn 1.0 0.0 0.0
vn 1.0 0.0 0.0
vn 1.0 0.0 0.0
vn 1.0 0.0 0.0
vn 1.0 0.0 0.0
vn 0.0 1.0 0.0
vn 0.0 1.0 0.0
vn 0.0 1.0 0.0
vn 0.0 1.0 0.0
vn 0.0 1.0 0.0
vn 0.0 1.0 0.0
vn 0.0 -1.0 0.0
vn 0.0 -1.0 0.0
vn 0.0 -1.0 0.0
vn 0.0 -1.0 0.0
vn 0.0 -1.0 0.0
vn 0.0 -1.0 0.0
vn 0.0 0.0 1.0
vn 0.0 0.0 1.0
vn 0.0 0.0 1.0
vn 0.0 0.0 1.0
vn 0.0 0.0 1.0
vn 0.0 0.0 1.0
vn -1.0 0.0 0.0
vn -1.0 0.0 0.0
vn -1.0 0.0 0.0
vn -1.0 0.0 0.0
vn -1.0 0.0 0.0
vn -1.0 0.0 0.0
vn 1.0 0.0 0.0
vn 1.0 0.0 0.0
vn 1.0 0.0 0.0
vn 1.0 0.0 0.0
vn 1.0 0.0 0.0
vn 1.0 0.0 0.0
vn 0.0 1.0 0.0
vn 0.0 1.0 0.0
vn 0.0 1.0 0.0
vn 0.0 1.0 0.0
vn 0.0 1.0 0.0
vn 0.0 1.0 0.0
vn 0.0 -1.0 0.0
vn 0.0 -1.0 0.0
vn 0.0 -1.0 0.0
vn 0.0 -1.0 0.0
vn 0.0 -1.0 0.0
vn 0.0 -1.0 0.0
vn 0.0 -0.917824 0.396987
vn 0.0 -0.917824 0.396987
vn 0.0 -0.684802 0.728729
vn 0.0 -0.917824 0.396987
vn 0.0 -0.684802 0.728729
vn 0.0 -0.684802 0.728729
vn -1.0 0.0 0.0
vn -1.0 0.0 0.0
vn -1.0 0.0 0.0
vn -1.0 0.0 0.0
vn -1.0 0.0 0.0
vn -1.0 0.0 0.0
vn 1.0 0.0 0.0
vn 1.0 0.0 0.0
vn 1.0 0.0 0.0
vn 1.0 0.0 0.0
vn 1.0 0.0 0.0
vn 1.0 0.0 0.0
vn 0.0 1.0 0.0
vn 0.0 1.0 0.0
vn 0.0 1.0 0.0
vn 0.0 1.0 0.0
vn 0.0 1.0 0.0
vn 0.0 1.0 0.0
vn 0.0 -0.917824 0.396987
vn 0.0 -1.0 0.0
vn 0.0 -1.0 0.0
vn 0.0 -0.917824 0.396987
vn 0.0 -0.917824 0.396987
vn 0.0 -1.0 0.0
vn 0.0 -0.902818 0.430023
vn 0.0 -0.902818 0.430023
vn 0.0 -0.630161 0.776465
vn 0.0 -0.902818 0.430023
vn 0.0 -0.630161 0.776465
vn 0.0 -0.630161 0.776465
vn -1.0 0.0 0.0
vn -1.0 0.0 0.0
vn -1.0 0.0 0.0
vn -1.0 0.0 0.0
vn -1.0 0.0 0.0
vn -1.0 0.0 0.0
vn 1.0 0.0 0.0
vn 1.0 0.0 0.0
vn 1.0 0.0 0.0
vn 1.0 0.0 0.0
vn 1.0 0.0 0.0
vn 1.0 0.0 0.0
vn 0.0 1.0 0.0
vn 0.0 1.0 0.0
vn 0.0 1.0 0.0
vn 0.0 1.0 0.0
vn 0.0 1.0 0.0
vn 0.0 1.0 0.0
vn 0.0 -0.902818 0.430023
vn 0.0 -1.0 0.0
vn 0.0 -1.0 0.0
vn 0.0 -0.902818 0.430023
vn 0.0 -0.902818 0.430023
vn 0.0 -1.0 0.0
vn 1.0 0.0 0.0
vn 1.0 0.0 0.0
vn 1.0 0.0 0.0
vn 1.0 0.0 0.0
vn 1.0 0.0 0.0
vn 1.0 0.0 0.0
vn -1.0 0.0 0.0
vn -1.0 0.0 0.0
vn -1.0 0.0 0.0
vn -1.0 0.0 0.0
vn -1.0 0.0 0.0
vn -1.0 0.0 0.0
vn 0.0 -1.0 0.0
vn 0.0 -1.0 0.0
vn 0.0 -1.0 0.0
vn 0.0 -1.0 0.0
vn 0.0 -1.0 0.0
vn 0.0 -1.0 0.0
vn 0.0 0.0 1.0
vn 0.0 -0.0 1.0
vn 0.0 -0.0 1.0
vn 0.0 0.0 1.0
vn 0.0 0.0 1.0
vn 0.0 -0.0 1.0
vn 0.0 0.0 1.0
vn 0.0 -0.0 1.0
vn 0.0 -0.0 1.0
vn 0.0 -0.0 1.0
vn 0.0 0.0 1.0
vn 0.0 0.0 1.0
vn 0.0 0.0 1.0
vn 0.0 -0.0 1.0
vn 0.0 0.0 1.0
vn 0.0 -0.0 1.0
vn 0.0 -0.0 1.0
vn 0.0 -0.0 1.0
vn 0.0 0.0 1.0
vn 0.0 0.0 1.0
vn 0.0 0.0 1.0
vn 0.0 0.0 1.0
vn 0.0 0.0 1.0
vn 0.0 0.0 1.0
vn 0.0 0.999999 0.001055
vn 0.0 0.476397 0.87923
vn 0.0 0.897845 0.440311
vn 0.0 0.897845 0.440311
vn 0.0 0.999999 0.001055
vn 0.0 0.999999 0.001055
vn 0.0 0.476397 0.87923
vn 0.0 0.04165 0.999132
vn 0.0 0.04165 0.999132
vn 0.0 0.04165 0.999132
vn 0.0 0.897845 0.440311
vn 0.0 0.476397 0.87923

# group, 68 grouped triangles

usemtl shop.jpg
o group
g group

f 5/1/1 6/2/2 7/3/3
f 6/4/4 8/5/5 7/6/6
f 7/7/7 10/8/8 5/9/9
f 7/10/10 12/11/11 10/12/12
f 11/13/13 6/14/14 9/15/15
f 11/16/16 8/17/17 6/18/18
f 7/19/19 11/20/20 12/21/21
f 7/22/22 8/23/23 11/24/24
f 6/25/25 10/26/26 9/27/27
f 6/28/28 5/29/29 10/30/30
f 13/31/31 14/32/32 15/33/33
f 14/34/34 16/35/35 15/36/36
f 15/37/37 18/38/38 13/39/39
f 15/40/40 20/41/41 18/42/42
f 19/43/43 14/44/44 17/45/45
f 19/46/46 16/47/47 14/48/48
f 15/49/49 19/50/50 20/51/51
f 15/52/52 16/53/53 19/54/54
f 14/55/55 18/56/56 17/57/57
f 14/58/58 13/59/59 18/60/60
f 21/61/61 22/62/62 23/63/63
f 22/64/64 24/65/65 23/66/66
f 23/67/67 26/68/68 21/69/69
f 23/70/70 28/71/71 26/72/72
f 27/73/73 22/74/74 25/75/75
f 27/76/76 24/77/77 22/78/78
f 23/79/79 27/80/80 28/81/81
f 23/82/82 24/83/83 27/84/84
f 22/85/85 26/86/86 25/87/87
f 22/88/88 21/89/89 26/90/90
f 29/91/91 30/92/92 31/93/93
f 30/94/94 32/95/95 31/96/96
f 31/97/97 34/98/98 29/99/99
f 31/100/100 36/101/101 34/102/102
f 35/103/103 30/104/104 33/105/105
f 35/106/106 32/107/107 30/108/108
f 31/109/109 35/110/110 36/111/111
f 31/112/112 32/113/113 35/114/114
f 30/115/115 34/116/116 33/117/117
f 30/118/118 29/119/119 34/120/120
f 37/121/121 38/122/122 39/123/123
f 38/124/124 40/125/125 39/126/126
f 39/127/127 42/128/128 37/129/129
f 39/130/130 44/131/131 42/132/132
f 43/133/133 38/134/134 41/135/135
f 43/136/136 40/137/137 38/138/138
f 39/139/139 43/140/140 44/141/141
f 39/142/142 40/143/143 43/144/144
f 38/145/145 42/146/146 41/147/147
f 38/148/148 37/149/149 42/150/150
f 49/151/151 50/152/152 46/153/153
f 46/154/154 45/155/155 49/156/156
f 52/157/157 51/158/158 47/159/159
f 47/160/160 48/161/161 52/162/162
f 50/163/163 52/164/164 48/165/165
f 48/166/166 46/167/167 50/168/168
f 1/169/169 2/170/170 48/171/171
f 4/172/172 45/173/173 46/174/174
f 4/175/175 46/176/176 2/177/177
f 48/178/178 3/179/179 1/180/180
f 3/181/181 48/182/182 47/183/183
f 2/184/184 46/185/185 48/186/186
f 50/187/187 51/188/188 52/189/189
f 51/190/190 50/191/191 49/192/192
f 53/193/193 54/194/194 56/195/195
f 56/196/196 55/197/197 53/198/198
f 54/199/199 57/200/200 58/201/201
f 58/202/202 56/203/203 54/204/204
