# Wavefront OBJ file
# Exported by Maverick Model 3D 1.3.15
# Sun Sep 27 09:47:18 2026

mtllib shop.mtl

# 125 Vertices
v 5.0 -0.0 5.0
v 0.011 -0.0 5.0
v 0.011 5.0 5.0
v 5.0 5.0 5.0
v -4.034 -0.0 4.062
v -0.914 -0.0 4.062
v -4.034 3.272 4.062
v -0.914 3.272 4.062
v -4.921 3.197 5.151
v -3.946 3.197 5.151
v -4.921 3.326 5.151
v -3.946 3.326 5.151
v -3.946 3.197 4.057
v -4.921 3.197 4.057
v -3.946 3.326 4.057
v -4.921 3.326 4.057
v -0.954 3.197 5.151
v 0.022 3.197 5.151
v -0.954 3.326 5.151
v 0.022 3.326 5.151
v 0.022 3.197 4.057
v -0.954 3.197 4.057
v 0.022 3.326 4.057
v -0.954 3.326 4.057
v -5.0 0.864 5.134
v -4.029 0.864 5.134
v -5.0 1.011 5.134
v -4.029 1.011 5.134
v -4.029 0.864 4.064
v -5.0 0.864 4.064
v -4.029 1.011 4.064
v -5.0 1.011 4.064
v -0.952 0.877 5.134
v 0.078 0.877 5.134
v -0.952 1.011 5.134
v 0.078 1.011 5.134
v 0.078 0.877 4.064
v -0.952 0.877 4.064
v 0.078 1.011 4.064
v -0.952 1.011 4.064
v -2.744 4.217 5.252
v -2.213 4.217 5.252
v -2.871 4.981 5.252
v -2.073 4.981 5.252
v -2.213 4.217 4.144
v -2.744 4.217 4.144
v -2.073 4.981 4.144
v -2.871 4.981 4.144
v -3.855 3.9 4.062
v -4.036 3.634 4.062
v -3.573 4.077 4.062
v -3.177 4.206 4.062
v -2.749 4.275 4.062
v -2.199 4.275 4.062
v -1.777 4.211 4.062
v -1.399 4.077 4.062
v -1.08 3.879 4.062
v -5.0 5.0 4.155
v -5.0 -0.0 4.155
v 0.011 5.0 4.155
v 0.011 -0.0 4.155
v -0.913 3.653 4.062
v -5.0 -0.0 5.0
v -4.034 -0.0 5.0
v -0.915 -0.0 5.0
v 0.011 -0.0 5.0
v -5.0 3.272 5.0
v -4.034 3.272 5.0
v -0.915 3.272 5.0
v 0.011 3.272 5.0
v -5.0 5.0 5.0
v -4.034 5.0 5.0
v -3.255 5.0 5.0
v -2.475 5.0 5.0
v -1.695 5.0 5.0
v -0.915 5.0 5.0
v 0.011 5.0 5.0
v -3.855 3.9 5.0
v -4.036 3.634 5.0
v -3.574 4.077 5.0
v -3.644 5.0 5.0
v -3.178 4.206 5.0
v -2.749 4.275 5.0
v -2.865 5.0 5.0
v -2.2 4.275 5.0
v -1.778 4.211 5.0
v -2.085 5.0 5.0
v -1.401 4.077 5.0
v -1.081 3.879 5.0
v -1.305 5.0 5.0
v -0.915 3.653 5.0
v -4.036 -0.0 4.997
v -0.917 -0.0 4.997
v -4.036 0.185 4.997
v -0.917 0.185 4.997
v -0.917 0.184 4.708
v -4.036 0.184 4.708
v -4.036 0.442 4.706
v -0.917 0.442 4.706
v -0.917 0.44 4.409
v -4.036 0.44 4.409
v -4.036 0.737 4.409
v -0.917 0.737 4.409
v -0.917 0.737 4.064
v -4.036 0.737 4.064
v -5.0 4.869 5.151
v 5.0 4.869 5.151
v -5.0 5.0 5.151
v 5.0 5.0 5.151
v 5.0 4.869 4.938
v -5.0 4.869 4.938
v 5.0 5.0 4.938
v -5.0 5.0 4.938
v 0.065 0.98 5.046
v 5.0 0.98 5.046
v 0.065 1.028 5.046
v 5.0 1.028 5.046
v 5.0 0.98 4.984
v 0.065 0.98 4.984
v 5.0 1.028 4.984
v 0.065 1.028 4.984
v -5.0 4.999 5.0
v -5.0 -0.0 5.0
v -5.0 4.999 4.51
v -5.0 -0.0 4.51

# 429 Texture Coordinates
vt 0.999499 0.0
vt 0.999499 1.0
vt 0.621265 1.0
vt 0.999499 0.0
vt 0.621265 1.0
vt 0.621265 0.0
vt 0.0 0.0
vt 0.119714 0.0
vt 0.0 0.654474
vt 0.119714 0.0
vt 0.119714 0.654474
vt 0.0 0.654474
vt 0.506475 0.0
vt 0.621265 0.0
vt 0.506475 0.654474
vt 0.621265 0.0
vt 0.621265 0.654474
vt 0.506475 0.654474
vt 0.009223 0.654545
vt 0.009223 0.63374
vt 0.128397 0.654545
vt 0.009223 0.63374
vt 0.128397 0.63374
vt 0.128397 0.654545
vt 0.009223 0.654545
vt 0.009223 0.63374
vt 0.009223 0.63374
vt 0.009223 0.654545
vt 0.009223 0.654545
vt 0.009223 0.63374
vt 0.128397 0.654545
vt 0.128397 0.63374
vt 0.128397 0.63374
vt 0.128397 0.654545
vt 0.128397 0.654545
vt 0.128397 0.63374
vt 0.009223 0.654545
vt 0.128397 0.654545
vt 0.009223 0.654545
vt 0.009223 0.654545
vt 0.128397 0.654545
vt 0.128397 0.654545
vt 0.128397 0.63374
vt 0.009223 0.63374
vt 0.128397 0.63374
vt 0.128397 0.63374
vt 0.009223 0.63374
vt 0.009223 0.63374
vt 0.495469 0.633372
vt 0.615864 0.633372
vt 0.495469 0.655253
vt 0.615864 0.633372
vt 0.615864 0.655253
vt 0.495469 0.655253
vt 0.495469 0.655253
vt 0.495469 0.633372
vt 0.495469 0.633372
vt 0.495469 0.655253
vt 0.495469 0.655253
vt 0.495469 0.633372
vt 0.615864 0.655253
vt 0.615864 0.633372
vt 0.615864 0.633372
vt 0.615864 0.655253
vt 0.615864 0.655253
vt 0.615864 0.633372
vt 0.495469 0.655253
vt 0.615864 0.655253
vt 0.495469 0.655253
vt 0.495469 0.655253
vt 0.615864 0.655253
vt 0.615864 0.655253
vt 0.615864 0.633372
vt 0.495469 0.633372
vt 0.615864 0.633372
vt 0.615864 0.633372
vt 0.495469 0.633372
vt 0.495469 0.633372
vt 0.003896 0.17573
vt 0.12841 0.17573
vt 0.003896 0.200641
vt 0.12841 0.17573
vt 0.12841 0.200641
vt 0.003896 0.200641
vt 0.003896 0.200641
vt 0.003896 0.17573
vt 0.003896 0.17573
vt 0.003896 0.200641
vt 0.003896 0.200641
vt 0.003896 0.17573
vt 0.12841 0.200641
vt 0.12841 0.17573
vt 0.12841 0.17573
vt 0.12841 0.200641
vt 0.12841 0.200641
vt 0.12841 0.17573
vt 0.003896 0.200641
vt 0.12841 0.200641
vt 0.003896 0.200641
vt 0.003896 0.200641
vt 0.12841 0.200641
vt 0.12841 0.200641
vt 0.12841 0.17573
vt 0.003896 0.17573
vt 0.12841 0.17573
vt 0.12841 0.17573
vt 0.003896 0.17573
vt 0.003896 0.17573
vt 0.003896 0.17573
vt 0.12841 0.17573
vt 0.003896 0.200641
vt 0.12841 0.17573
vt 0.12841 0.200641
vt 0.003896 0.200641
vt 0.003896 0.200641
vt 0.003896 0.17573
vt 0.003896 0.17573
vt 0.003896 0.200641
vt 0.003896 0.200641
vt 0.003896 0.17573
vt 0.12841 0.200641
vt 0.12841 0.17573
vt 0.12841 0.17573
vt 0.12841 0.200641
vt 0.12841 0.200641
vt 0.12841 0.17573
vt 0.003896 0.200641
vt 0.12841 0.200641
vt 0.003896 0.200641
vt 0.003896 0.200641
vt 0.12841 0.200641
vt 0.12841 0.200641
vt 0.12841 0.17573
vt 0.003896 0.17573
vt 0.12841 0.17573
vt 0.12841 0.17573
vt 0.003896 0.17573
vt 0.003896 0.17573
vt 0.279674 0.832531
vt 0.345377 0.832531
vt 0.263965 0.996972
vt 0.345377 0.832531
vt 0.362685 0.996972
vt 0.263965 0.996972
vt 0.310754 1.000241
vt 0.282517 0.833609
vt 0.310754 0.833609
vt 0.310754 1.000241
vt 0.282517 1.000241
vt 0.282517 0.833609
vt 0.282517 1.000241
vt 0.310754 0.833609
vt 0.282517 0.833609
vt 0.282517 1.000241
vt 0.310754 1.000241
vt 0.310754 0.833609
vt 0.263965 0.996972
vt 0.362685 0.996972
vt 0.263965 0.996972
vt 0.263965 0.996972
vt 0.362685 0.996972
vt 0.362685 0.996972
vt 0.284435 0.831551
vt 0.341208 0.986135
vt 0.284174 0.983729
vt 0.284435 0.831551
vt 0.34147 0.83393
vt 0.341208 0.986135
vt 0.0 0.654474
vt 0.119714 0.654474
vt 0.0 1.0
vt 0.119714 0.654474
vt 0.119714 1.0
vt 0.0 1.0
vt 0.506475 0.654474
vt 0.621265 0.654474
vt 0.506475 1.0
vt 0.621265 0.654474
vt 0.621265 1.0
vt 0.506475 1.0
vt 0.119714 1.0
vt 0.119463 0.726731
vt 0.14193 0.779963
vt 0.216404 1.0
vt 0.168059 1.0
vt 0.176815 0.815455
vt 0.119714 1.0
vt 0.14193 0.779963
vt 0.168059 1.0
vt 0.176815 0.815455
vt 0.168059 1.0
vt 0.14193 0.779963
vt 0.216404 1.0
vt 0.176815 0.815455
vt 0.225952 0.841293
vt 0.313094 1.0
vt 0.264749 1.0
vt 0.279048 0.854922
vt 0.216404 1.0
vt 0.225952 0.841293
vt 0.264749 1.0
vt 0.279048 0.854922
vt 0.264749 1.0
vt 0.225952 0.841293
vt 0.313094 1.0
vt 0.279048 0.854922
vt 0.347187 0.854922
vt 0.409785 1.0
vt 0.36144 1.0
vt 0.399492 0.842145
vt 0.313094 1.0
vt 0.347187 0.854922
vt 0.36144 1.0
vt 0.399492 0.842145
vt 0.36144 1.0
vt 0.347187 0.854922
vt 0.409785 1.0
vt 0.399492 0.842145
vt 0.446253 0.815313
vt 0.506475 1.0
vt 0.45813 1.0
vt 0.485889 0.775704
vt 0.409785 1.0
vt 0.446253 0.815313
vt 0.45813 1.0
vt 0.485889 0.775704
vt 0.45813 1.0
vt 0.446253 0.815313
vt 0.012865 0.966997
vt 0.012865 0.026806
vt 0.604887 0.026806
vt 0.604887 0.026806
vt 0.604887 0.966997
vt 0.012865 0.966997
vt 0.506475 1.0
vt 0.485889 0.775704
vt 0.506494 0.73053
vt 0.126104 0.650751
vt 0.091949 0.650751
vt 0.091949 0.006904
vt 0.091949 0.006904
vt 0.126104 0.006904
vt 0.126104 0.650751
vt 0.495657 0.003488
vt 0.538453 0.003488
vt 0.538453 0.652657
vt 0.538453 0.652657
vt 0.495657 0.652657
vt 0.495657 0.003488
vt 0.087401 0.834238
vt 0.134817 0.783935
vt 0.104554 0.735211
vt 0.104554 0.735211
vt 0.056296 0.76416
vt 0.087401 0.834238
vt 0.137524 0.884571
vt 0.172783 0.820541
vt 0.134817 0.783935
vt 0.134817 0.783935
vt 0.087401 0.834238
vt 0.137524 0.884571
vt 0.201275 0.9166
vt 0.221946 0.843418
vt 0.172783 0.820541
vt 0.172783 0.820541
vt 0.137524 0.884571
vt 0.201275 0.9166
vt 0.267734 0.934904
vt 0.275028 0.857147
vt 0.221946 0.843418
vt 0.221946 0.843418
vt 0.201275 0.9166
vt 0.267734 0.934904
vt 0.354924 0.931853
vt 0.342766 0.860195
vt 0.275028 0.857147
vt 0.275028 0.857147
vt 0.267734 0.934904
vt 0.354924 0.931853
vt 0.420354 0.9166
vt 0.398467 0.847994
vt 0.342766 0.860195
vt 0.342766 0.860195
vt 0.354924 0.931853
vt 0.420354 0.9166
vt 0.478591 0.88152
vt 0.445765 0.819016
vt 0.398467 0.847994
vt 0.398467 0.847994
vt 0.420354 0.9166
vt 0.478591 0.88152
vt 0.532448 0.832712
vt 0.487461 0.782409
vt 0.445765 0.819016
vt 0.445765 0.819016
vt 0.478591 0.88152
vt 0.532448 0.832712
vt 0.566476 0.761028
vt 0.511763 0.732076
vt 0.487461 0.782409
vt 0.487461 0.782409
vt 0.532448 0.832712
vt 0.566476 0.761028
vt 0.10379 0.726685
vt 0.10379 0.688098
vt 0.043206 0.726685
vt 0.043206 0.688098
vt 0.043206 0.726685
vt 0.10379 0.688098
vt 0.10379 0.728716
vt 0.043206 0.728716
vt 0.043206 0.688098
vt 0.043206 0.688098
vt 0.10379 0.688098
vt 0.10379 0.728716
vt 0.134618 0.007434
vt 0.493575 0.007434
vt 0.134618 0.05453
vt 0.493575 0.007434
vt 0.493575 0.05453
vt 0.134618 0.05453
vt 0.542499 0.239544
vt 0.505865 0.472666
vt 0.505865 0.239544
vt 0.542499 0.239544
vt 0.542499 0.472666
vt 0.505865 0.472666
vt 0.132014 0.058165
vt 0.490971 0.058165
vt 0.132014 0.105262
vt 0.490971 0.058165
vt 0.490971 0.105262
vt 0.132014 0.105262
vt 0.586775 0.236952
vt 0.550141 0.470074
vt 0.550141 0.236952
vt 0.586775 0.236952
vt 0.586775 0.470074
vt 0.550141 0.470074
vt 0.135241 0.109047
vt 0.491589 0.109047
vt 0.135241 0.154705
vt 0.491589 0.109047
vt 0.491589 0.154705
vt 0.135241 0.154705
vt 0.075273 0.239305
vt 0.038638 0.472427
vt 0.038638 0.239305
vt 0.075273 0.239305
vt 0.075273 0.472427
vt 0.038638 0.472427
vt 0.616302 0.973569
vt 0.999899 0.973569
vt 0.616302 0.999682
vt 0.999899 0.973569
vt 0.999899 0.999682
vt 0.616302 0.999682
vt 0.999899 0.973569
vt 0.616302 0.973569
vt 0.999899 0.999682
vt 0.616302 0.973569
vt 0.616302 0.999682
vt 0.999899 0.999682
vt 0.616302 0.999682
vt 0.616302 0.973569
vt 0.616302 0.973569
vt 0.616302 0.999682
vt 0.616302 0.999682
vt 0.616302 0.973569
vt 0.999899 0.999682
vt 0.999899 0.973569
vt 0.999899 0.973569
vt 0.999899 0.999682
vt 0.999899 0.999682
vt 0.999899 0.973569
vt 0.616302 0.999682
vt 0.999899 0.999682
vt 0.616302 0.999682
vt 0.616302 0.999682
vt 0.999899 0.999682
vt 0.999899 0.999682
vt 0.999899 0.973569
vt 0.616302 0.973569
vt 0.999899 0.973569
vt 0.999899 0.973569
vt 0.616302 0.973569
vt 0.616302 0.973569
vt 0.003896 0.17573
vt 0.12841 0.17573
vt 0.003896 0.200641
vt 0.12841 0.17573
vt 0.12841 0.200641
vt 0.003896 0.200641
vt 0.12841 0.17573
vt 0.003896 0.17573
vt 0.12841 0.200641
vt 0.003896 0.17573
vt 0.003896 0.200641
vt 0.12841 0.200641
vt 0.003896 0.200641
vt 0.003896 0.17573
vt 0.003896 0.17573
vt 0.003896 0.200641
vt 0.003896 0.200641
vt 0.003896 0.17573
vt 0.12841 0.200641
vt 0.12841 0.17573
vt 0.12841 0.17573
vt 0.12841 0.200641
vt 0.12841 0.200641
vt 0.12841 0.17573
vt 0.003896 0.200641
vt 0.12841 0.200641
vt 0.003896 0.200641
vt 0.003896 0.200641
vt 0.12841 0.200641
vt 0.12841 0.200641
vt 0.12841 0.17573
vt 0.003896 0.17573
vt 0.12841 0.17573
vt 0.12841 0.17573
vt 0.003896 0.17573
vt 0.003896 0.17573
vt 0.030542 0.999104
vt 0.030542 0.000375
vt 0.000013 0.000375
vt 0.000013 0.000375
vt 0.000013 0.999104
vt 0.030542 0.999104

# 429 Vertex Normals
vn 0.0 0.0 1.0
vn 0.0 0.0 1.0
vn 0.0 0.0 1.0
vn 0.0 0.0 1.0
vn 0.0 0.0 1.0
vn 0.0 0.0 1.0
vn 0.0 0.0 1.0
vn 0.0 0.0 1.0
vn 0.0 0.0 1.0
vn 0.0 0.0 1.0
vn 0.0 0.0 1.0
vn 0.0 0.0 1.0
vn 0.0 0.0 1.0
vn 0.0 0.0 1.0
vn 0.0 0.0 1.0
vn 0.0 0.0 1.0
vn 0.0 0.0 1.0
vn 0.0 0.0 1.0
vn 0.0 0.0 1.0
vn 0.0 0.0 1.0
vn 0.0 0.0 1.0
vn 0.0 0.0 1.0
vn 0.0 0.0 1.0
vn 0.0 0.0 1.0
vn -1.0 0.0 0.0
vn -1.0 0.0 0.0
vn -1.0 0.0 0.0
vn -1.0 0.0 0.0
vn -1.0 0.0 0.0
vn -1.0 0.0 0.0
vn 1.0 0.0 0.0
vn 1.0 0.0 0.0
vn 1.0 0.0 0.0
vn 1.0 0.0 0.0
vn 1.0 0.0 0.0
vn 1.0 0.0 0.0
vn 0.0 1.0 0.0
vn 0.0 1.0 0.0
vn 0.0 1.0 0.0
vn 0.0 1.0 0.0
vn 0.0 1.0 0.0
vn 0.0 1.0 0.0
vn 0.0 -1.0 0.0
vn 0.0 -1.0 0.0
vn 0.0 -1.0 0.0
vn 0.0 -1.0 0.0
vn 0.0 -1.0 0.0
vn 0.0 -1.0 0.0
vn 0.0 0.0 1.0
vn 0.0 0.0 1.0
vn 0.0 0.0 1.0
vn 0.0 0.0 1.0
vn 0.0 0.0 1.0
vn 0.0 0.0 1.0
vn -1.0 0.0 0.0
vn -1.0 0.0 0.0
vn -1.0 0.0 0.0
vn -1.0 0.0 0.0
vn -1.0 0.0 0.0
vn -1.0 0.0 0.0
vn 1.0 0.0 0.0
vn 1.0 0.0 0.0
vn 1.0 0.0 0.0
vn 1.0 0.0 0.0
vn 1.0 0.0 0.0
vn 1.0 0.0 0.0
vn 0.0 1.0 0.0
vn 0.0 1.0 0.0
vn 0.0 1.0 0.0
vn 0.0 1.0 0.0
vn 0.0 1.0 0.0
vn 0.0 1.0 0.0
vn 0.0 -1.0 0.0
vn 0.0 -1.0 0.0
vn 0.0 -1.0 0.0
vn 0.0 -1.0 0.0
vn 0.0 -1.0 0.0
vn 0.0 -1.0 0.0
vn 0.0 0.0 1.0
vn 0.0 0.0 1.0
vn 0.0 0.0 1.0
vn 0.0 0.0 1.0
vn 0.0 0.0 1.0
vn 0.0 0.0 1.0
vn -1.0 0.0 0.0
vn -1.0 0.0 0.0
vn -1.0 0.0 0.0
vn -1.0 0.0 0.0
vn -1.0 0.0 0.0
vn -1.0 0.0 0.0
vn 1.0 0.0 0.0
vn 1.0 0.0 0.0
vn 1.0 0.0 0.0
vn 1.0 0.0 0.0
vn 1.0 0.0 0.0
vn 1.0 0.0 0.0
vn 0.0 1.0 0.0
vn 0.0 1.0 0.0
vn 0.0 1.0 0.0
vn 0.0 1.0 0.0
vn 0.0 1.0 0.0
vn 0.0 1.0 0.0
vn 0.0 -1.0 0.0
vn 0.0 -1.0 0.0
vn 0.0 -1.0 0.0
vn 0.0 -1.0 0.0
vn 0.0 -1.0 0.0
vn 0.0 -1.0 0.0
vn 0.0 0.0 1.0
vn 0.0 0.0 1.0
vn 0.0 0.0 1.0
vn 0.0 0.0 1.0
vn 0.0 0.0 1.0
vn 0.0 0.0 1.0
vn -1.0 0.0 0.0
vn -1.0 0.0 0.0
vn -1.0 0.0 0.0
vn -1.0 0.0 0.0
vn -1.0 0.0 0.0
vn -1.0 0.0 0.0
vn 1.0 0.0 0.0
vn 1.0 0.0 0.0
vn 1.0 0.0 0.0
vn 1.0 0.0 0.0
vn 1.0 0.0 0.0
vn 1.0 0.0 0.0
vn 0.0 1.0 0.0
vn 0.0 1.0 0.0
vn 0.0 1.0 0.0
vn 0.0 1.0 0.0
vn 0.0 1.0 0.0
vn 0.0 1.0 0.0
vn 0.0 -1.0 0.0
vn 0.0 -1.0 0.0
vn 0.0 -1.0 0.0
vn 0.0 -1.0 0.0
vn 0.0 -1.0 0.0
vn 0.0 -1.0 0.0
vn 0.0 -0.000001 1.0
vn 0.0 -0.0 1.0
vn 0.0 -0.0 1.0
vn 0.0 -0.0 1.0
vn 0.0 0.0 1.0
vn 0.0 -0.0 1.0
vn -0.986464 -0.16398 0.0
vn -0.646537 -0.762883 0.0
vn -0.646537 -0.762883 0.0
vn -0.986464 -0.16398 0.0
vn -0.986464 -0.16398 0.0
vn -0.646537 -0.762883 0.0
vn 0.983622 -0.180245 0.0
vn 0.640217 -0.768194 0.0
vn 0.640217 -0.768194 0.0
vn 0.983622 -0.180245 0.0
vn 0.983622 -0.180245 0.0
vn 0.640217 -0.768194 0.0
vn 0.0 1.0 0.0
vn 0.0 1.0 0.0
vn 0.0 1.0 0.0
vn 0.0 1.0 0.0
vn 0.0 1.0 0.0
vn 0.0 1.0 0.0
vn 0.640217 -0.768194 0.0
vn -0.646537 -0.762883 0.0
vn 0.640217 -0.768194 0.0
vn 0.640217 -0.768194 0.0
vn -0.646537 -0.762883 0.0
vn -0.646537 -0.762883 0.0
vn 0.0 0.0 1.0
vn 0.0 0.0 1.0
vn 0.0 0.0 1.0
vn 0.0 0.0 1.0
vn 0.0 0.0 1.0
vn 0.0 0.0 1.0
vn 0.0 0.0 1.0
vn 0.0 0.0 1.0
vn 0.0 0.0 1.0
vn 0.0 0.0 1.0
vn 0.0 0.0 1.0
vn 0.0 0.0 1.0
vn 0.0 0.0 1.0
vn 0.0 0.0 1.0
vn 0.0 0.0 1.0
vn 0.0 0.0 1.0
vn 0.0 0.0 1.0
vn 0.0 0.0 1.0
vn 0.0 0.0 1.0
vn 0.0 0.0 1.0
vn 0.0 0.0 1.0
vn 0.0 0.0 1.0
vn 0.0 0.0 1.0
vn 0.0 0.0 1.0
vn 0.0 0.0 1.0
vn 0.0 0.0 1.0
vn 0.0 0.0 1.0
vn 0.0 0.0 1.0
vn 0.0 0.0 1.0
vn 0.0 0.0 1.0
vn 0.0 0.0 1.0
vn 0.0 0.0 1.0
vn 0.0 0.0 1.0
vn 0.0 0.0 1.0
vn 0.0 0.0 1.0
vn 0.0 0.0 1.0
vn 0.0 0.0 1.0
vn 0.0 0.0 1.0
vn 0.0 0.0 1.0
vn 0.0 0.0 1.0
vn 0.0 0.0 1.0
vn 0.0 0.0 1.0
vn 0.0 0.0 1.0
vn 0.0 0.0 1.0
vn 0.0 0.0 1.0
vn 0.0 0.0 1.0
vn 0.0 0.0 1.0
vn 0.0 0.0 1.0
vn 0.0 0.0 1.0
vn 0.0 0.0 1.0
vn 0.0 0.0 1.0
vn 0.0 0.0 1.0
vn 0.0 0.0 1.0
vn 0.0 0.0 1.0
vn 0.0 0.0 1.0
vn 0.0 0.0 1.0
vn 0.0 0.0 1.0
vn 0.0 0.0 1.0
vn 0.0 0.0 1.0
vn 0.0 0.0 1.0
vn 0.0 0.0 1.0
vn 0.0 0.0 1.0
vn 0.0 0.0 1.0
vn 0.0 0.0 1.0
vn 0.0 0.0 1.0
vn 0.0 0.0 1.0
vn 0.0 0.0 1.0
vn 0.0 0.0 1.0
vn 0.0 0.0 1.0
vn 0.999998 0.001841 0.0
vn 0.999993 0.003683 0.0
vn 1.0 0.0 0.0
vn 1.0 0.0 0.0
vn 1.0 0.0 0.0
vn 0.999998 0.001841 0.0
vn -0.999999 0.0 -0.001066
vn -0.999999 0.0 -0.001066
vn -0.999999 0.0 -0.001066
vn -0.999999 0.0 -0.001066
vn -0.999999 0.000875 -0.001422
vn -0.999999 0.0 -0.001066
vn 0.742364 -0.669997 0.0
vn 0.642509 -0.766278 0.000193
vn 0.921344 -0.388748 0.0
vn 0.921344 -0.388748 0.0
vn 0.981493 -0.191497 0.0
vn 0.742364 -0.669997 0.0
vn 0.461215 -0.887288 0.000302
vn 0.38677 -0.922176 0.000412
vn 0.642509 -0.766278 0.000193
vn 0.642509 -0.766278 0.000193
vn 0.742364 -0.669997 0.0
vn 0.461215 -0.887288 0.000302
vn 0.26024 -0.965544 0.000277
vn 0.209794 -0.977746 0.000167
vn 0.38677 -0.922176 0.000412
vn 0.38677 -0.922176 0.000412
vn 0.461215 -0.887288 0.000302
vn 0.26024 -0.965544 0.000277
vn 0.106287 -0.994336 0.000057
vn 0.053083 -0.99859 0.0
vn 0.209794 -0.977746 0.000167
vn 0.209794 -0.977746 0.000167
vn 0.26024 -0.965544 0.000277
vn 0.106287 -0.994336 0.000057
vn -0.050108 -0.998744 -0.000053
vn -0.100215 -0.994966 -0.000107
vn 0.053083 -0.99859 0.0
vn 0.053083 -0.99859 0.0
vn 0.106287 -0.994336 0.000057
vn -0.050108 -0.998744 -0.000053
vn -0.21219 -0.977228 -0.000226
vn -0.274098 -0.961702 -0.000412
vn -0.100215 -0.994966 -0.000107
vn -0.100215 -0.994966 -0.000107
vn -0.050108 -0.998744 -0.000053
vn -0.21219 -0.977228 -0.000226
vn -0.400844 -0.916146 -0.000735
vn -0.465163 -0.885225 -0.000804
vn -0.274098 -0.961702 -0.000412
vn -0.274098 -0.961702 -0.000412
vn -0.21219 -0.977228 -0.000226
vn -0.400844 -0.916146 -0.000735
vn -0.629297 -0.777164 -0.000861
vn -0.723797 -0.690012 -0.001063
vn -0.465163 -0.885225 -0.000804
vn -0.465163 -0.885225 -0.000804
vn -0.400844 -0.916146 -0.000735
vn -0.629297 -0.777164 -0.000861
vn -0.910733 -0.412991 -0.001643
vn -0.978644 -0.205553 -0.001715
vn -0.723797 -0.690012 -0.001063
vn -0.723797 -0.690012 -0.001063
vn -0.629297 -0.777164 -0.000861
vn -0.910733 -0.412991 -0.001643
vn 0.921344 -0.388748 0.0
vn 0.999993 0.003683 0.0
vn 0.981493 -0.191497 0.0
vn 0.999998 0.001841 0.0
vn 0.981493 -0.191497 0.0
vn 0.999993 0.003683 0.0
vn -0.978644 -0.205553 -0.001715
vn -0.910733 -0.412991 -0.001643
vn -0.999999 0.000875 -0.001422
vn -0.999999 0.000875 -0.001422
vn -0.999999 0.0 -0.001066
vn -0.978644 -0.205553 -0.001715
vn 0.0 0.0 1.0
vn 0.0 0.0 1.0
vn 0.0 0.0 1.0
vn 0.0 0.0 1.0
vn 0.0 0.0 1.0
vn 0.0 0.0 1.0
vn 0.0 0.999994 -0.00346
vn 0.0 0.999994 -0.00346
vn 0.0 0.999994 -0.00346
vn 0.0 0.999994 -0.00346
vn 0.0 0.999994 -0.00346
vn 0.0 0.999994 -0.00346
vn 0.0 0.007753 0.99997
vn 0.0 0.007753 0.99997
vn 0.0 0.007753 0.99997
vn 0.0 0.007753 0.99997
vn 0.0 0.007753 0.99997
vn 0.0 0.007753 0.99997
vn 0.0 0.999977 -0.006734
vn 0.0 0.999977 -0.006734
vn 0.0 0.999977 -0.006734
vn 0.0 0.999977 -0.006734
vn 0.0 0.999977 -0.006734
vn 0.0 0.999977 -0.006734
vn 0.0 0.0 1.0
vn 0.0 0.0 1.0
vn 0.0 0.0 1.0
vn 0.0 0.0 1.0
vn 0.0 0.0 1.0
vn 0.0 0.0 1.0
vn 0.0 1.0 0.0
vn 0.0 1.0 0.0
vn 0.0 1.0 0.0
vn 0.0 1.0 0.0
vn 0.0 1.0 0.0
vn 0.0 1.0 0.0
vn 0.0 0.0 1.0
vn 0.0 0.0 1.0
vn 0.0 0.0 1.0
vn 0.0 0.0 1.0
vn 0.0 0.0 1.0
vn 0.0 0.0 1.0
vn 0.0 0.0 -1.0
vn 0.0 0.0 -1.0
vn 0.0 0.0 -1.0
vn 0.0 0.0 -1.0
vn 0.0 0.0 -1.0
vn 0.0 0.0 -1.0
vn -1.0 0.0 0.0
vn -1.0 0.0 0.0
vn -1.0 0.0 0.0
vn -1.0 0.0 0.0
vn -1.0 0.0 0.0
vn -1.0 0.0 0.0
vn 1.0 0.0 0.0
vn 1.0 0.0 0.0
vn 1.0 0.0 0.0
vn 1.0 0.0 0.0
vn 1.0 0.0 0.0
vn 1.0 0.0 0.0
vn 0.0 1.0 0.0
vn 0.0 1.0 0.0
vn 0.0 1.0 0.0
vn 0.0 1.0 0.0
vn 0.0 1.0 0.0
vn 0.0 1.0 0.0
vn 0.0 -1.0 0.0
vn 0.0 -1.0 0.0
vn 0.0 -1.0 0.0
vn 0.0 -1.0 0.0
vn 0.0 -1.0 0.0
vn 0.0 -1.0 0.0
vn 0.0 0.0 1.0
vn 0.0 0.0 1.0
vn 0.0 0.0 1.0
vn 0.0 0.0 1.0
vn 0.0 0.0 1.0
vn 0.0 0.0 1.0
vn 0.0 0.0 -1.0
vn 0.0 0.0 -1.0
vn 0.0 0.0 -1.0
vn 0.0 0.0 -1.0
vn 0.0 0.0 -1.0
vn 0.0 0.0 -1.0
vn -1.0 0.0 0.0
vn -1.0 0.0 0.0
vn -1.0 0.0 0.0
vn -1.0 0.0 0.0
vn -1.0 0.0 0.0
vn -1.0 0.0 0.0
vn 1.0 0.0 0.0
vn 1.0 0.0 0.0
vn 1.0 0.0 0.0
vn 1.0 0.0 0.0
vn 1.0 0.0 0.0
vn 1.0 0.0 0.0
vn 0.0 1.0 0.0
vn 0.0 1.0 0.0
vn 0.0 1.0 0.0
vn 0.0 1.0 0.0
vn 0.0 1.0 0.0
vn 0.0 1.0 0.0
vn 0.0 -1.0 0.0
vn 0.0 -1.0 0.0
vn 0.0 -1.0 0.0
vn 0.0 -1.0 0.0
vn 0.0 -1.0 0.0
vn 0.0 -1.0 0.0
vn 1.0 0.0 0.0
vn 1.0 0.0 0.0
vn 1.0 0.0 0.0
vn 1.0 0.0 0.0
vn 1.0 0.0 0.0
vn 1.0 0.0 0.0

# group, 143 grouped triangles

usemtl shop.jpg
o group
g group

f 1/1/1 4/2/2 3/3/3
f 1/4/4 3/5/5 2/6/6
f 63/7/7 64/8/8 67/9/9
f 64/10/10 68/11/11 67/12/12
f 65/13/13 66/14/14 69/15/15
f 66/16/16 70/17/17 69/18/18
f 11/19/19 9/20/20 12/21/21
f 9/22/22 10/23/23 12/24/24
f 11/25/25 14/26/26 9/27/27
f 11/28/28 16/29/29 14/30/30
f 15/31/31 10/32/32 13/33/33
f 15/34/34 12/35/35 10/36/36
f 11/37/37 15/38/38 16/39/39
f 11/40/40 12/41/41 15/42/42
f 10/43/43 14/44/44 13/45/45
f 10/46/46 9/47/47 14/48/48
f 17/49/49 18/50/50 19/51/51
f 18/52/52 20/53/53 19/54/54
f 19/55/55 22/56/56 17/57/57
f 19/58/58 24/59/59 22/60/60
f 23/61/61 18/62/62 21/63/63
f 23/64/64 20/65/65 18/66/66
f 19/67/67 23/68/68 24/69/69
f 19/70/70 20/71/71 23/72/72
f 18/73/73 22/74/74 21/75/75
f 18/76/76 17/77/77 22/78/78
f 25/79/79 26/80/80 27/81/81
f 26/82/82 28/83/83 27/84/84
f 27/85/85 30/86/86 25/87/87
f 27/88/88 32/89/89 30/90/90
f 31/91/91 26/92/92 29/93/93
f 31/94/94 28/95/95 26/96/96
f 27/97/97 31/98/98 32/99/99
f 27/100/100 28/101/101 31/102/102
f 26/103/103 30/104/104 29/105/105
f 26/106/106 25/107/107 30/108/108
f 33/109/109 34/110/110 35/111/111
f 34/112/112 36/113/113 35/114/114
f 35/115/115 38/116/116 33/117/117
f 35/118/118 40/119/119 38/120/120
f 39/121/121 34/122/122 37/123/123
f 39/124/124 36/125/125 34/126/126
f 35/127/127 39/128/128 40/129/129
f 35/130/130 36/131/131 39/132/132
f 34/133/133 38/134/134 37/135/135
f 34/136/136 33/137/137 38/138/138
f 41/139/139 42/140/140 43/141/141
f 42/142/142 44/143/143 43/144/144
f 43/145/145 46/146/146 41/147/147
f 43/148/148 48/149/149 46/150/150
f 47/151/151 42/152/152 45/153/153
f 47/154/154 44/155/155 42/156/156
f 43/157/157 47/158/158 48/159/159
f 43/160/160 44/161/161 47/162/162
f 42/163/163 46/164/164 45/165/165
f 42/166/166 41/167/167 46/168/168
f 67/169/169 68/170/170 71/171/171
f 68/172/172 72/173/173 71/174/174
f 69/175/175 70/176/176 76/177/177
f 70/178/178 77/179/179 76/180/180
f 72/181/181 79/182/182 78/183/183
f 73/184/184 81/185/185 80/186/186
f 72/187/187 78/188/188 81/189/189
f 80/190/190 81/191/191 78/192/192
f 73/193/193 80/194/194 82/195/195
f 74/196/196 84/197/197 83/198/198
f 73/199/199 82/200/200 84/201/201
f 83/202/202 84/203/203 82/204/204
f 74/205/205 83/206/206 85/207/207
f 75/208/208 87/209/209 86/210/210
f 74/211/211 85/212/212 87/213/213
f 86/214/214 87/215/215 85/216/216
f 75/217/217 86/218/218 88/219/219
f 76/220/220 90/221/221 89/222/222
f 75/223/223 88/224/224 90/225/225
f 89/226/226 90/227/227 88/228/228
f 58/229/229 59/230/230 61/231/231
f 61/232/232 60/233/233 58/234/234
f 76/235/235 89/236/236 91/237/237
f 7/238/238 68/239/239 64/240/240
f 64/241/241 5/242/242 7/243/243
f 6/244/244 65/245/245 69/246/246
f 69/247/247 8/248/248 6/249/249
f 49/250/250 78/251/251 79/252/252
f 79/253/253 50/254/254 49/255/255
f 51/256/256 80/257/257 78/258/258
f 78/259/259 49/260/260 51/261/261
f 52/262/262 82/263/263 80/264/264
f 80/265/265 51/266/266 52/267/267
f 53/268/268 83/269/269 82/270/270
f 82/271/271 52/272/272 53/273/273
f 54/274/274 85/275/275 83/276/276
f 83/277/277 53/278/278 54/279/279
f 55/280/280 86/281/281 85/282/282
f 85/283/283 54/284/284 55/285/285
f 56/286/286 88/287/287 86/288/288
f 86/289/289 55/290/290 56/291/291
f 57/292/292 89/293/293 88/294/294
f 88/295/295 56/296/296 57/297/297
f 62/298/298 91/299/299 89/300/300
f 89/301/301 57/302/302 62/303/303
f 79/304/304 68/305/305 50/306/306
f 7/307/307 50/308/308 68/309/309
f 91/310/310 62/311/311 8/312/312
f 8/313/313 69/314/314 91/315/315
f 92/316/316 93/317/317 94/318/318
f 93/319/319 95/320/320 94/321/321
f 94/322/322 96/323/323 97/324/324
f 94/325/325 95/326/326 96/327/327
f 97/328/328 96/329/329 98/330/330
f 96/331/331 99/332/332 98/333/333
f 98/334/334 100/335/335 101/336/336
f 98/337/337 99/338/338 100/339/339
f 101/340/340 100/341/341 102/342/342
f 100/343/343 103/344/344 102/345/345
f 102/346/346 104/347/347 105/348/348
f 102/349/349 103/350/350 104/351/351
f 106/352/352 107/353/353 108/354/354
f 107/355/355 109/356/356 108/357/357
f 110/358/358 111/359/359 112/360/360
f 111/361/361 113/362/362 112/363/363
f 108/364/364 111/365/365 106/366/366
f 108/367/367 113/368/368 111/369/369
f 112/370/370 107/371/371 110/372/372
f 112/373/373 109/374/374 107/375/375
f 108/376/376 112/377/377 113/378/378
f 108/379/379 109/380/380 112/381/381
f 107/382/382 111/383/383 110/384/384
f 107/385/385 106/386/386 111/387/387
f 114/388/388 115/389/389 116/390/390
f 115/391/391 117/392/392 116/393/393
f 118/394/394 119/395/395 120/396/396
f 119/397/397 121/398/398 120/399/399
f 116/400/400 119/401/401 114/402/402
f 116/403/403 121/404/404 119/405/405
f 120/406/406 115/407/407 118/408/408
f 120/409/409 117/410/410 115/411/411
f 116/412/412 120/413/413 121/414/414
f 116/415/415 117/416/416 120/417/417
f 115/418/418 119/419/419 118/420/420
f 115/421/421 114/422/422 119/423/423
f 122/424/424 123/425/425 125/426/426
f 125/427/427 124/428/428 122/429/429
