# Wavefront OBJ file
# Exported by Maverick Model 3D 1.3.15
# Mon Sep 14 12:03:41 2026

mtllib shop.mtl

# 132 Vertices
v 5.0 0.0 5.0
v -5.0 5.0 5.0
v -5.0 0.0 5.0
v 3.837 4.05 5.175
v 4.221 4.05 5.175
v 3.837 4.453 5.339
v 4.221 4.453 5.339
v 4.221 4.05 4.668
v 3.837 4.05 4.668
v 4.221 4.453 4.668
v 3.837 4.453 4.668
v -4.379 4.052 5.177
v -3.987 4.052 5.177
v -4.379 4.455 5.343
v -3.987 4.455 5.343
v -3.987 4.052 4.668
v -4.379 4.052 4.668
v -3.987 4.455 4.668
v -4.379 4.455 4.668
v 5.0 4.321 4.998
v 5.0 4.873 4.998
v 5.0 4.767 5.16
v 5.0 4.7 5.112
v 5.0 4.39 5.107
v -5.0 4.321 4.998
v -5.0 4.873 4.998
v -5.0 4.767 5.16
v -5.0 4.7 5.112
v -5.0 4.39 5.107
v -2.483 3.318 4.149
v -1.865 3.546 4.149
v 2.021 0.838 4.149
v -2.47 0.839 4.149
v -1.214 3.669 4.149
v -0.487 3.757 4.149
v 0.054 3.749 4.149
v 0.608 3.693 4.149
v 1.117 3.601 4.149
v 1.619 3.466 4.149
v 2.006 3.31 4.149
v 5.0 5.0 5.0
v -2.483 3.318 5.0
v -1.865 3.546 5.0
v 2.021 0.838 5.0
v -2.47 0.839 5.0
v -1.214 3.669 5.0
v -0.487 3.757 5.0
v 0.054 3.749 5.0
v 0.608 3.693 5.0
v 1.117 3.601 5.0
v 1.619 3.466 5.0
v 2.006 3.31 5.0
v -0.503 3.935 5.12
v -0.019 3.935 5.12
v -0.641 4.41 5.189
v 0.173 4.41 5.189
v -0.019 3.935 4.978
v -0.503 3.935 4.978
v 0.173 4.41 4.978
v -0.641 4.41 4.978
v 2.355 0.628 5.358
v 2.355 0.628 4.998
v 2.355 0.839 5.358
v 2.355 0.839 4.998
v -2.736 0.628 4.998
v -2.736 0.628 5.358
v -2.736 0.839 4.998
v -2.736 0.839 5.358
v 2.533 0.412 5.636
v 2.533 0.412 4.998
v 2.533 0.623 5.636
v 2.533 0.623 4.998
v -2.933 0.412 4.998
v -2.933 0.412 5.636
v -2.933 0.623 4.998
v -2.933 0.623 5.636
v 2.784 0.214 5.913
v 2.784 0.214 4.998
v 2.784 0.415 5.913
v 2.784 0.415 4.998
v -3.147 0.214 4.998
v -3.147 0.214 5.913
v -3.147 0.415 4.998
v -3.147 0.415 5.913
v 3.059 0.006 6.216
v 3.059 0.006 4.998
v 3.059 0.207 6.216
v 3.059 0.207 4.998
v -3.413 0.006 4.998
v -3.413 0.006 6.216
v -3.413 0.207 4.998
v -3.413 0.207 6.216
v 2.271 1.668 5.292
v 2.409 1.668 5.146
v 2.271 1.751 5.292
v 2.409 1.751 5.146
v 2.409 1.668 4.902
v 2.267 1.668 4.902
v 2.409 1.751 4.902
v 2.267 1.751 4.902
v 2.547 1.668 5.291
v 2.547 1.668 5.149
v 2.608 1.75 5.291
v 2.608 1.75 5.149
v 3.168 1.205 5.291
v 3.168 1.205 5.149
v 3.302 1.231 5.291
v 3.302 1.231 5.149
v 3.301 0.007 5.149
v 3.301 0.007 5.291
v 3.167 0.007 5.149
v 3.167 0.007 5.291
v -2.668 1.668 5.292
v -2.808 1.668 5.148
v -2.668 1.751 5.292
v -2.808 1.751 5.148
v -2.808 1.668 4.902
v -2.666 1.668 4.902
v -2.808 1.751 4.902
v -2.666 1.751 4.902
v -2.946 1.669 5.291
v -2.946 1.669 5.149
v -3.007 1.75 5.291
v -3.007 1.75 5.149
v -3.566 1.206 5.291
v -3.566 1.206 5.149
v -3.701 1.231 5.291
v -3.701 1.231 5.149
v -3.7 0.007 5.149
v -3.7 0.007 5.291
v -3.567 0.007 5.149
v -3.567 0.007 5.291

# 582 Texture Coordinates
vt 0.700627 0.663011
vt 1.0 1.0
vt 0.661923 0.694154
vt 0.884615 0.78849
vt 0.919071 0.78849
vt 0.884615 0.908347
vt 0.919071 0.78849
vt 0.919071 0.908347
vt 0.884615 0.908347
vt 0.884615 0.908347
vt 0.884615 0.78849
vt 0.884615 0.78849
vt 0.884615 0.908347
vt 0.884615 0.908347
vt 0.884615 0.78849
vt 0.919071 0.908347
vt 0.919071 0.78849
vt 0.919071 0.78849
vt 0.919071 0.908347
vt 0.919071 0.908347
vt 0.919071 0.78849
vt 0.884615 0.908347
vt 0.919071 0.908347
vt 0.884615 0.908347
vt 0.884615 0.908347
vt 0.919071 0.908347
vt 0.919071 0.908347
vt 0.919071 0.78849
vt 0.884615 0.78849
vt 0.919071 0.78849
vt 0.919071 0.78849
vt 0.884615 0.78849
vt 0.884615 0.78849
vt 0.884615 0.78849
vt 0.919071 0.78849
vt 0.884615 0.908347
vt 0.919071 0.78849
vt 0.919071 0.908347
vt 0.884615 0.908347
vt 0.884615 0.908347
vt 0.884615 0.78849
vt 0.884615 0.78849
vt 0.884615 0.908347
vt 0.884615 0.908347
vt 0.884615 0.78849
vt 0.919071 0.908347
vt 0.919071 0.78849
vt 0.919071 0.78849
vt 0.919071 0.908347
vt 0.919071 0.908347
vt 0.919071 0.78849
vt 0.884615 0.908347
vt 0.919071 0.908347
vt 0.884615 0.908347
vt 0.884615 0.908347
vt 0.919071 0.908347
vt 0.919071 0.908347
vt 0.919071 0.78849
vt 0.884615 0.78849
vt 0.919071 0.78849
vt 0.919071 0.78849
vt 0.884615 0.78849
vt 0.884615 0.78849
vt 0.000365 0.999221
vt 0.000365 0.912093
vt 0.000365 0.971853
vt 0.000365 0.98241
vt 0.000365 0.999221
vt 0.000365 0.971853
vt 0.000365 0.922951
vt 0.000365 0.971853
vt 0.000365 0.912093
vt 0.999556 0.999221
vt 0.000365 0.999221
vt 0.000365 0.98241
vt 0.000365 0.98241
vt 0.999556 0.98241
vt 0.999556 0.999221
vt 0.999556 0.98241
vt 0.000365 0.98241
vt 0.000365 0.971853
vt 0.000365 0.971853
vt 0.999556 0.971853
vt 0.999556 0.98241
vt 0.999556 0.971853
vt 0.000365 0.971853
vt 0.000365 0.922951
vt 0.000365 0.922951
vt 0.999556 0.922951
vt 0.999556 0.971853
vt 0.999556 0.922951
vt 0.000365 0.922951
vt 0.000365 0.912093
vt 0.000365 0.912093
vt 0.999556 0.912093
vt 0.999556 0.922951
vt 0.999556 0.971853
vt 0.999556 0.912093
vt 0.999556 0.999221
vt 0.999556 0.971853
vt 0.999556 0.999221
vt 0.999556 0.98241
vt 0.999556 0.912093
vt 0.999556 0.971853
vt 0.999556 0.922951
vt 0.0 1.0
vt 0.0 0.0
vt 0.251724 0.664608
vt 0.0 1.0
vt 0.251724 0.664608
vt 0.313543 0.710125
vt 1.0 0.0
vt 0.702055 0.167912
vt 0.0 0.0
vt 0.0 0.0
vt 0.702055 0.167912
vt 0.253024 0.165516
vt 0.0 1.0
vt 0.313543 0.710125
vt 0.378583 0.73488
vt 0.0 0.0
vt 0.253024 0.165516
vt 0.251724 0.664608
vt 0.0 1.0
vt 0.378583 0.73488
vt 0.45135 0.752448
vt 0.0 1.0
vt 0.45135 0.752448
vt 0.505442 0.750851
vt 0.505442 0.750851
vt 0.560822 0.739671
vt 1.0 1.0
vt 0.560822 0.739671
vt 0.611694 0.721305
vt 1.0 1.0
vt 0.611694 0.721305
vt 0.661923 0.694154
vt 1.0 1.0
vt 1.0 1.0
vt 0.0 1.0
vt 0.505442 0.750851
vt 0.700627 0.663011
vt 1.0 0.0
vt 1.0 1.0
vt 1.0 0.0
vt 0.700627 0.663011
vt 0.702055 0.167912
vt 0.979653 0.54201
vt 0.979653 0.498768
vt 0.955901 0.498768
vt 0.955901 0.498768
vt 0.955901 0.54201
vt 0.979653 0.54201
vt 0.742126 0.54201
vt 0.742126 0.498768
vt 0.704192 0.498768
vt 0.704192 0.498768
vt 0.704192 0.54201
vt 0.742126 0.54201
vt 0.010506 0.543126
vt 0.010506 0.45051
vt 0.234669 0.45051
vt 0.234669 0.45051
vt 0.234669 0.543126
vt 0.010506 0.543126
vt 0.782036 0.54201
vt 0.782036 0.498768
vt 0.742126 0.498768
vt 0.742126 0.498768
vt 0.742126 0.54201
vt 0.782036 0.54201
vt 0.999982 0.666522
vt 0.854152 0.666522
vt 0.854152 0.159361
vt 0.854152 0.159361
vt 0.999982 0.159361
vt 0.999982 0.666522
vt 0.82669 0.54201
vt 0.82669 0.498768
vt 0.782036 0.498768
vt 0.782036 0.498768
vt 0.782036 0.54201
vt 0.82669 0.54201
vt 0.85988 0.54201
vt 0.85988 0.498768
vt 0.82669 0.498768
vt 0.82669 0.498768
vt 0.82669 0.54201
vt 0.85988 0.54201
vt 0.893865 0.54201
vt 0.893865 0.498768
vt 0.85988 0.498768
vt 0.85988 0.498768
vt 0.85988 0.54201
vt 0.893865 0.54201
vt 0.925082 0.54201
vt 0.925082 0.498768
vt 0.893865 0.498768
vt 0.893865 0.498768
vt 0.893865 0.54201
vt 0.925082 0.54201
vt 0.955901 0.54201
vt 0.955901 0.498768
vt 0.925082 0.498768
vt 0.925082 0.498768
vt 0.925082 0.54201
vt 0.955901 0.54201
vt 0.999982 0.161799
vt 0.854152 0.161799
vt 0.854152 0.664901
vt 0.854152 0.664901
vt 0.999982 0.664901
vt 0.999982 0.161799
vt 0.700627 0.663011
vt 0.661923 0.694154
vt 0.702055 0.167912
vt 0.661923 0.694154
vt 0.611694 0.721305
vt 0.702055 0.167912
vt 0.611694 0.721305
vt 0.560822 0.739671
vt 0.702055 0.167912
vt 0.560822 0.739671
vt 0.505442 0.750851
vt 0.702055 0.167912
vt 0.505442 0.750851
vt 0.45135 0.752448
vt 0.702055 0.167912
vt 0.45135 0.752448
vt 0.378583 0.73488
vt 0.702055 0.167912
vt 0.313543 0.710125
vt 0.702055 0.167912
vt 0.378583 0.73488
vt 0.702055 0.167912
vt 0.313543 0.710125
vt 0.251724 0.664608
vt 0.253024 0.165516
vt 0.702055 0.167912
vt 0.251724 0.664608
vt 0.451349 0.804149
vt 0.495314 0.804149
vt 0.43887 0.907687
vt 0.495314 0.804149
vt 0.512698 0.907687
vt 0.43887 0.907687
vt 0.43887 0.907687
vt 0.451349 0.804149
vt 0.451349 0.804149
vt 0.43887 0.907687
vt 0.43887 0.907687
vt 0.451349 0.804149
vt 0.512698 0.907687
vt 0.495314 0.804149
vt 0.495314 0.804149
vt 0.512698 0.907687
vt 0.512698 0.907687
vt 0.495314 0.804149
vt 0.43887 0.907687
vt 0.512698 0.907687
vt 0.43887 0.907687
vt 0.43887 0.907687
vt 0.512698 0.907687
vt 0.512698 0.907687
vt 0.495314 0.804149
vt 0.451349 0.804149
vt 0.495314 0.804149
vt 0.495314 0.804149
vt 0.451349 0.804149
vt 0.451349 0.804149
vt 0.701401 0.127208
vt 0.701401 0.127208
vt 0.701401 0.165702
vt 0.701401 0.127208
vt 0.701401 0.165702
vt 0.701401 0.165702
vt 0.276348 0.127208
vt 0.276348 0.127208
vt 0.276348 0.165702
vt 0.276348 0.127208
vt 0.276348 0.165702
vt 0.276348 0.165702
vt 0.701401 0.165702
vt 0.276348 0.127208
vt 0.701401 0.127208
vt 0.701401 0.165702
vt 0.276348 0.165702
vt 0.276348 0.127208
vt 0.956799 0.390079
vt 0.729724 0.447376
vt 0.729724 0.390079
vt 0.956799 0.390079
vt 0.956799 0.447376
vt 0.729724 0.447376
vt 0.956799 0.447376
vt 0.729724 0.390079
vt 0.729724 0.447376
vt 0.956799 0.447376
vt 0.956799 0.390079
vt 0.729724 0.390079
vt 0.716286 0.087631
vt 0.716286 0.087631
vt 0.716286 0.126125
vt 0.716286 0.087631
vt 0.716286 0.126125
vt 0.716286 0.126125
vt 0.259893 0.087631
vt 0.259893 0.087631
vt 0.259893 0.126125
vt 0.259893 0.087631
vt 0.259893 0.126125
vt 0.259893 0.126125
vt 0.716286 0.126125
vt 0.259893 0.087631
vt 0.716286 0.087631
vt 0.716286 0.126125
vt 0.259893 0.126125
vt 0.259893 0.087631
vt 0.964753 0.345806
vt 0.720934 0.447376
vt 0.720934 0.345806
vt 0.964753 0.345806
vt 0.964753 0.447376
vt 0.720934 0.447376
vt 0.964753 0.447376
vt 0.720934 0.345806
vt 0.720934 0.447376
vt 0.964753 0.447376
vt 0.964753 0.345806
vt 0.720934 0.345806
vt 0.737224 0.051266
vt 0.737224 0.051266
vt 0.737224 0.088057
vt 0.737224 0.051266
vt 0.737224 0.088057
vt 0.737224 0.088057
vt 0.242073 0.051266
vt 0.242073 0.051266
vt 0.242073 0.088057
vt 0.242073 0.051266
vt 0.242073 0.088057
vt 0.242073 0.088057
vt 0.737224 0.088057
vt 0.242073 0.051266
vt 0.737224 0.051266
vt 0.737224 0.088057
vt 0.242073 0.088057
vt 0.242073 0.051266
vt 0.975939 0.301767
vt 0.711414 0.447376
vt 0.711414 0.301767
vt 0.975939 0.301767
vt 0.975939 0.447376
vt 0.711414 0.447376
vt 0.975939 0.447376
vt 0.711414 0.301767
vt 0.711414 0.447376
vt 0.975939 0.447376
vt 0.975939 0.301767
vt 0.711414 0.301767
vt 0.760185 0.013201
vt 0.760185 0.013201
vt 0.760185 0.049989
vt 0.760185 0.013201
vt 0.760185 0.049989
vt 0.760185 0.049989
vt 0.219862 0.013201
vt 0.219862 0.013201
vt 0.219862 0.049989
vt 0.219862 0.013201
vt 0.219862 0.049989
vt 0.219862 0.049989
vt 0.760185 0.049989
vt 0.219862 0.013201
vt 0.760185 0.013201
vt 0.760185 0.049989
vt 0.219862 0.049989
vt 0.219862 0.013201
vt 0.988204 0.253486
vt 0.699547 0.447376
vt 0.699547 0.253486
vt 0.988204 0.253486
vt 0.988204 0.447376
vt 0.699547 0.447376
vt 0.988204 0.447376
vt 0.699547 0.253486
vt 0.699547 0.447376
vt 0.988204 0.447376
vt 0.988204 0.253486
vt 0.699547 0.253486
vt 0.831845 0.15903
vt 0.858402 0.144166
vt 0.831845 0.144166
vt 0.831845 0.15903
vt 0.858402 0.15903
vt 0.858402 0.144166
vt 0.858402 0.15903
vt 0.831845 0.144166
vt 0.858402 0.144166
vt 0.858402 0.15903
vt 0.831845 0.15903
vt 0.831845 0.144166
vt 0.876985 0.128538
vt 0.885981 0.161748
vt 0.876985 0.161748
vt 0.876985 0.128538
vt 0.885981 0.128538
vt 0.885981 0.161748
vt 0.885981 0.128538
vt 0.876985 0.161748
vt 0.885981 0.161748
vt 0.885981 0.128538
vt 0.876985 0.128538
vt 0.876985 0.161748
vt 0.831845 0.15903
vt 0.858402 0.144166
vt 0.831845 0.144166
vt 0.831845 0.15903
vt 0.858402 0.15903
vt 0.858402 0.144166
vt 0.858402 0.15903
vt 0.831845 0.144166
vt 0.858402 0.144166
vt 0.858402 0.15903
vt 0.831845 0.15903
vt 0.831845 0.144166
vt 0.876985 0.128538
vt 0.885981 0.161748
vt 0.876985 0.161748
vt 0.876985 0.128538
vt 0.885981 0.128538
vt 0.885981 0.161748
vt 0.885981 0.128538
vt 0.876985 0.161748
vt 0.885981 0.161748
vt 0.885981 0.128538
vt 0.876985 0.128538
vt 0.876985 0.161748
vt 0.831845 0.15903
vt 0.858402 0.144166
vt 0.831845 0.144166
vt 0.831845 0.15903
vt 0.858402 0.15903
vt 0.858402 0.144166
vt 0.858402 0.15903
vt 0.831845 0.144166
vt 0.858402 0.144166
vt 0.858402 0.15903
vt 0.831845 0.15903
vt 0.831845 0.144166
vt 0.876985 0.128538
vt 0.885981 0.161748
vt 0.876985 0.161748
vt 0.876985 0.128538
vt 0.885981 0.128538
vt 0.885981 0.161748
vt 0.885981 0.128538
vt 0.876985 0.161748
vt 0.885981 0.161748
vt 0.885981 0.128538
vt 0.876985 0.128538
vt 0.876985 0.161748
vt 0.831845 0.15903
vt 0.858402 0.144166
vt 0.831845 0.144166
vt 0.831845 0.15903
vt 0.858402 0.15903
vt 0.858402 0.144166
vt 0.858402 0.15903
vt 0.831845 0.144166
vt 0.858402 0.144166
vt 0.858402 0.15903
vt 0.831845 0.15903
vt 0.831845 0.144166
vt 0.876985 0.128538
vt 0.885981 0.161748
vt 0.876985 0.161748
vt 0.876985 0.128538
vt 0.885981 0.128538
vt 0.885981 0.161748
vt 0.885981 0.128538
vt 0.876985 0.161748
vt 0.885981 0.161748
vt 0.885981 0.128538
vt 0.876985 0.128538
vt 0.876985 0.161748
vt 0.831845 0.144166
vt 0.858402 0.144166
vt 0.831845 0.15903
vt 0.858402 0.144166
vt 0.858402 0.15903
vt 0.831845 0.15903
vt 0.858402 0.144166
vt 0.831845 0.144166
vt 0.858402 0.15903
vt 0.831845 0.144166
vt 0.831845 0.15903
vt 0.858402 0.15903
vt 0.876985 0.161748
vt 0.885981 0.161748
vt 0.876985 0.128538
vt 0.885981 0.161748
vt 0.885981 0.128538
vt 0.876985 0.128538
vt 0.885981 0.161748
vt 0.876985 0.161748
vt 0.885981 0.128538
vt 0.876985 0.161748
vt 0.876985 0.128538
vt 0.885981 0.128538
vt 0.831845 0.144166
vt 0.858402 0.144166
vt 0.831845 0.15903
vt 0.858402 0.144166
vt 0.858402 0.15903
vt 0.831845 0.15903
vt 0.858402 0.144166
vt 0.831845 0.144166
vt 0.858402 0.15903
vt 0.831845 0.144166
vt 0.831845 0.15903
vt 0.858402 0.15903
vt 0.876985 0.161748
vt 0.885981 0.161748
vt 0.876985 0.128538
vt 0.885981 0.161748
vt 0.885981 0.128538
vt 0.876985 0.128538
vt 0.885981 0.161748
vt 0.876985 0.161748
vt 0.885981 0.128538
vt 0.876985 0.161748
vt 0.876985 0.128538
vt 0.885981 0.128538
vt 0.831845 0.144166
vt 0.858402 0.144166
vt 0.831845 0.15903
vt 0.858402 0.144166
vt 0.858402 0.15903
vt 0.831845 0.15903
vt 0.858402 0.144166
vt 0.831845 0.144166
vt 0.858402 0.15903
vt 0.831845 0.144166
vt 0.831845 0.15903
vt 0.858402 0.15903
vt 0.876985 0.161748
vt 0.885981 0.161748
vt 0.876985 0.128538
vt 0.885981 0.161748
vt 0.885981 0.128538
vt 0.876985 0.128538
vt 0.885981 0.161748
vt 0.876985 0.161748
vt 0.885981 0.128538
vt 0.876985 0.161748
vt 0.876985 0.128538
vt 0.885981 0.128538
vt 0.831845 0.144166
vt 0.858402 0.144166
vt 0.831845 0.15903
vt 0.858402 0.144166
vt 0.858402 0.15903
vt 0.831845 0.15903
vt 0.858402 0.144166
vt 0.831845 0.144166
vt 0.858402 0.15903
vt 0.831845 0.144166
vt 0.831845 0.15903
vt 0.858402 0.15903
vt 0.876985 0.161748
vt 0.885981 0.161748
vt 0.876985 0.128538
vt 0.885981 0.161748
vt 0.885981 0.128538
vt 0.876985 0.128538
vt 0.885981 0.161748
vt 0.876985 0.161748
vt 0.885981 0.128538
vt 0.876985 0.161748
vt 0.876985 0.128538
vt 0.885981 0.128538

# 582 Vertex Normals
vn 0.0 -0.0 1.0
vn 0.0 -0.0 1.0
vn 0.0 -0.0 1.0
vn 0.0 -0.830312 0.557299
vn 0.0 -0.830312 0.557299
vn 0.0 -0.378836 0.925464
vn 0.0 -0.830312 0.557299
vn 0.0 -0.378836 0.925464
vn 0.0 -0.378836 0.925464
vn -1.0 0.0 0.0
vn -1.0 0.0 0.0
vn -1.0 0.0 0.0
vn -1.0 0.0 0.0
vn -1.0 0.0 0.0
vn -1.0 0.0 0.0
vn 1.0 0.0 0.0
vn 1.0 0.0 0.0
vn 1.0 0.0 0.0
vn 1.0 0.0 0.0
vn 1.0 0.0 0.0
vn 1.0 0.0 0.0
vn 0.0 1.0 0.0
vn 0.0 1.0 0.0
vn 0.0 1.0 0.0
vn 0.0 1.0 0.0
vn 0.0 1.0 0.0
vn 0.0 1.0 0.0
vn 0.0 -0.830312 0.557299
vn 0.0 -1.0 0.0
vn 0.0 -1.0 0.0
vn 0.0 -0.830312 0.557299
vn 0.0 -0.830312 0.557299
vn 0.0 -1.0 0.0
vn 0.0 -0.830651 0.556794
vn 0.0 -0.830651 0.556794
vn 0.0 -0.379961 0.925002
vn 0.0 -0.830651 0.556794
vn 0.0 -0.379961 0.925002
vn 0.0 -0.379961 0.925002
vn -1.0 0.0 0.0
vn -1.0 0.0 0.0
vn -1.0 0.0 0.0
vn -1.0 0.0 0.0
vn -1.0 0.0 0.0
vn -1.0 0.0 0.0
vn 1.0 0.0 0.0
vn 1.0 0.0 0.0
vn 1.0 0.0 0.0
vn 1.0 0.0 0.0
vn 1.0 0.0 0.0
vn 1.0 0.0 0.0
vn 0.0 1.0 0.0
vn 0.0 1.0 0.0
vn 0.0 1.0 0.0
vn 0.0 1.0 0.0
vn 0.0 1.0 0.0
vn 0.0 1.0 0.0
vn 0.0 -0.830651 0.556794
vn 0.0 -1.0 0.0
vn 0.0 -1.0 0.0
vn 0.0 -0.830651 0.556794
vn 0.0 -0.830651 0.556794
vn 0.0 -1.0 0.0
vn -1.0 0.0 0.0
vn -1.0 0.0 0.000002
vn -1.0 0.0 0.0
vn -1.0 0.0 -0.000004
vn -1.0 0.0 0.0
vn -1.0 0.0 0.0
vn -1.0 0.0 0.0
vn -1.0 0.0 0.0
vn -1.0 0.0 0.000002
vn 0.0 0.835325 0.549757
vn 0.0 0.835325 0.549757
vn 0.0 0.835325 0.549757
vn 0.0 0.835325 0.549757
vn 0.0 0.835325 0.549757
vn 0.0 0.835325 0.549757
vn 0.0 -0.585477 0.810689
vn 0.0 -0.585477 0.810689
vn 0.0 -0.41238 0.911012
vn 0.0 -0.41238 0.911012
vn 0.0 -0.214315 0.976765
vn 0.0 -0.585477 0.810689
vn 0.0 -0.214315 0.976765
vn 0.0 -0.41238 0.911012
vn 0.0 -0.326711 0.945124
vn 0.0 -0.326711 0.945124
vn 0.0 -0.635985 0.771701
vn 0.0 -0.214315 0.976765
vn 0.0 -0.635985 0.771701
vn 0.0 -0.326711 0.945124
vn 0.0 -0.844975 0.534806
vn 0.0 -0.844975 0.534806
vn 0.0 -0.844975 0.534806
vn 0.0 -0.635985 0.771701
vn 1.0 0.0 0.000001
vn 1.0 0.0 0.000001
vn 1.0 0.0 0.000001
vn 1.0 0.0 0.000001
vn 1.0 0.0 0.000001
vn 1.0 0.0 0.0
vn 1.0 0.0 0.000001
vn 1.0 0.0 0.000001
vn 1.0 0.0 0.0
vn 0.0 0.0 1.0
vn 0.0 0.0 1.0
vn 0.0 0.0 1.0
vn 0.0 0.0 1.0
vn 0.0 0.0 1.0
vn 0.0 0.000001 1.0
vn 0.0 0.0 1.0
vn 0.0 0.0 1.0
vn 0.0 0.0 1.0
vn 0.0 0.0 1.0
vn 0.0 0.0 1.0
vn 0.0 0.0 1.0
vn 0.0 0.0 1.0
vn 0.0 0.000001 1.0
vn 0.0 -0.0 1.0
vn 0.0 0.0 1.0
vn 0.0 0.0 1.0
vn 0.0 0.0 1.0
vn 0.0 0.0 1.0
vn 0.0 -0.0 1.0
vn 0.0 0.000001 1.0
vn 0.0 0.0 1.0
vn 0.0 0.000001 1.0
vn 0.0 0.000001 1.0
vn 0.0 0.000001 1.0
vn 0.0 0.0 1.0
vn 0.0 -0.0 1.0
vn 0.0 0.0 1.0
vn 0.0 0.0 1.0
vn 0.0 -0.0 1.0
vn 0.0 0.0 1.0
vn 0.0 -0.0 1.0
vn 0.0 -0.0 1.0
vn 0.0 -0.0 1.0
vn 0.0 0.0 1.0
vn 0.0 0.000001 1.0
vn 0.0 -0.0 1.0
vn 0.0 0.0 1.0
vn 0.0 -0.0 1.0
vn 0.0 0.0 1.0
vn 0.0 -0.0 1.0
vn 0.0 0.0 1.0
vn -0.684013 -0.72947 0.0
vn -0.929774 -0.368131 0.0
vn -0.335916 -0.941892 0.0
vn -0.335916 -0.941892 0.0
vn -0.298446 -0.954427 0.0
vn -0.684013 -0.72947 0.0
vn 0.29315 -0.956066 0.0
vn 0.240207 -0.970722 0.0
vn 0.670139 -0.742235 0.0
vn 0.670139 -0.742235 0.0
vn 0.929826 -0.367998 0.0
vn 0.29315 -0.956066 0.0
vn 0.000105 1.0 0.0
vn 0.000105 1.0 0.0
vn 0.000105 1.0 0.0
vn 0.000105 1.0 0.0
vn 0.000105 1.0 0.0
vn 0.000105 1.0 0.0
vn 0.164445 -0.986386 0.0
vn 0.142093 -0.989853 0.0
vn 0.240207 -0.970722 0.0
vn 0.240207 -0.970722 0.0
vn 0.29315 -0.956066 0.0
vn 0.164445 -0.986386 0.0
vn 0.929826 -0.367998 0.0
vn 0.670139 -0.742235 0.0
vn 0.999986 0.005245 0.0
vn 0.999986 0.005245 0.0
vn 0.999986 0.005245 0.0
vn 0.929826 -0.367998 0.0
vn 0.075025 -0.997182 0.0
vn 0.030127 -0.999546 0.0
vn 0.142093 -0.989853 0.0
vn 0.142093 -0.989853 0.0
vn 0.164445 -0.986386 0.0
vn 0.075025 -0.997182 0.0
vn -0.043292 -0.999062 0.0
vn -0.071831 -0.997417 0.0
vn 0.030127 -0.999546 0.0
vn 0.030127 -0.999546 0.0
vn 0.075025 -0.997182 0.0
vn -0.043292 -0.999062 0.0
vn -0.126079 -0.99202 0.0
vn -0.151802 -0.988411 0.0
vn -0.071831 -0.997417 0.0
vn -0.071831 -0.997417 0.0
vn -0.043292 -0.999062 0.0
vn -0.126079 -0.99202 0.0
vn -0.205292 -0.978701 0.0
vn -0.233036 -0.972468 0.0
vn -0.151802 -0.988411 0.0
vn -0.151802 -0.988411 0.0
vn -0.126079 -0.99202 0.0
vn -0.205292 -0.978701 0.0
vn -0.298446 -0.954427 0.0
vn -0.335916 -0.941892 0.0
vn -0.233036 -0.972468 0.0
vn -0.233036 -0.972468 0.0
vn -0.205292 -0.978701 0.0
vn -0.298446 -0.954427 0.0
vn -0.999983 -0.005778 0.0
vn -0.999983 -0.005778 0.0
vn -0.929774 -0.368131 0.0
vn -0.929774 -0.368131 0.0
vn -0.684013 -0.72947 0.0
vn -0.999983 -0.005778 0.0
vn 0.0 0.0 1.0
vn 0.0 -0.0 1.0
vn 0.0 -0.0 1.0
vn 0.0 -0.0 1.0
vn 0.0 -0.0 1.0
vn 0.0 -0.0 1.0
vn 0.0 -0.0 1.0
vn 0.0 0.0 1.0
vn 0.0 -0.0 1.0
vn 0.0 0.0 1.0
vn 0.0 0.0 1.0
vn 0.0 -0.0 1.0
vn 0.0 0.0 1.0
vn 0.0 -0.0 1.0
vn 0.0 -0.0 1.0
vn 0.0 -0.0 1.0
vn 0.0 0.0 1.0
vn 0.0 -0.0 1.0
vn 0.0 0.0 1.0
vn 0.0 -0.0 1.0
vn 0.0 0.0 1.0
vn 0.0 -0.0 1.0
vn 0.0 0.0 1.0
vn 0.0 0.0 1.0
vn 0.0 0.0 1.0
vn 0.0 -0.0 1.0
vn 0.0 0.0 1.0
vn -0.485065 -0.71759 0.499776
vn 0.455762 -0.745477 0.486359
vn -0.666118 -0.291982 0.686319
vn 0.455762 -0.745477 0.486359
vn 0.638939 -0.356175 0.681833
vn -0.666118 -0.291982 0.686319
vn -0.666118 -0.291982 0.686319
vn -0.600835 -0.799373 0.0
vn -0.485065 -0.71759 0.499776
vn -0.666118 -0.291982 0.686319
vn -0.960583 -0.277994 0.0
vn -0.600835 -0.799373 0.0
vn 0.927451 -0.373944 0.0
vn 0.455762 -0.745477 0.486359
vn 0.559489 -0.828838 0.0
vn 0.927451 -0.373944 0.0
vn 0.638939 -0.356175 0.681833
vn 0.455762 -0.745477 0.486359
vn 0.0 1.0 0.0
vn 0.0 1.0 0.0
vn 0.0 1.0 0.0
vn 0.0 1.0 0.0
vn 0.0 1.0 0.0
vn 0.0 1.0 0.0
vn 0.455762 -0.745477 0.486359
vn -0.600835 -0.799373 0.0
vn 0.559489 -0.828838 0.0
vn 0.455762 -0.745477 0.486359
vn -0.485065 -0.71759 0.499776
vn -0.600835 -0.799373 0.0
vn 1.0 0.0 0.0
vn 1.0 0.0 0.0
vn 1.0 0.0 0.0
vn 1.0 0.0 0.0
vn 1.0 0.0 0.0
vn 1.0 0.0 0.0
vn -1.0 0.0 0.0
vn -1.0 0.0 0.0
vn -1.0 0.0 0.0
vn -1.0 0.0 0.0
vn -1.0 0.0 0.0
vn -1.0 0.0 0.0
vn 0.0 0.0 1.0
vn 0.0 0.0 1.0
vn 0.0 0.0 1.0
vn 0.0 0.0 1.0
vn 0.0 0.0 1.0
vn 0.0 0.0 1.0
vn 0.0 1.0 0.0
vn 0.0 1.0 0.0
vn 0.0 1.0 0.0
vn 0.0 1.0 0.0
vn 0.0 1.0 0.0
vn 0.0 1.0 0.0
vn 0.0 -1.0 0.0
vn 0.0 -1.0 0.0
vn 0.0 -1.0 0.0
vn 0.0 -1.0 0.0
vn 0.0 -1.0 0.0
vn 0.0 -1.0 0.0
vn 1.0 0.0 0.000001
vn 1.0 0.0 0.000001
vn 1.0 0.0 0.000001
vn 1.0 0.0 0.000001
vn 1.0 0.0 0.000001
vn 1.0 0.0 0.000001
vn -1.0 0.0 0.0
vn -1.0 0.0 0.0
vn -1.0 0.0 0.0
vn -1.0 0.0 0.0
vn -1.0 0.0 0.0
vn -1.0 0.0 0.0
vn 0.0 0.0 1.0
vn 0.0 0.0 1.0
vn 0.0 0.0 1.0
vn 0.0 0.0 1.0
vn 0.0 0.0 1.0
vn 0.0 0.0 1.0
vn 0.0 1.0 0.0
vn 0.0 1.0 0.0
vn 0.0 1.0 0.0
vn 0.0 1.0 0.0
vn 0.0 1.0 0.0
vn 0.0 1.0 0.0
vn 0.0 -1.0 0.0
vn 0.0 -1.0 0.0
vn 0.0 -1.0 0.0
vn 0.0 -1.0 0.0
vn 0.0 -1.0 0.0
vn 0.0 -1.0 0.0
vn 1.0 0.0 0.0
vn 1.0 0.0 0.0
vn 1.0 0.0 0.0
vn 1.0 0.0 0.0
vn 1.0 0.0 0.0
vn 1.0 0.0 0.0
vn -1.0 0.0 -0.000001
vn -1.0 0.0 -0.000001
vn -1.0 0.0 -0.000001
vn -1.0 0.0 -0.000001
vn -1.0 0.0 -0.000001
vn -1.0 0.0 -0.000001
vn 0.0 0.0 1.0
vn 0.0 0.0 1.0
vn 0.0 0.0 1.0
vn 0.0 0.0 1.0
vn 0.0 0.0 1.0
vn 0.0 0.0 1.0
vn 0.0 1.0 0.0
vn 0.0 1.0 0.0
vn 0.0 1.0 0.0
vn 0.0 1.0 0.0
vn 0.0 1.0 0.0
vn 0.0 1.0 0.0
vn -0.0 -1.0 0.0
vn -0.0 -1.0 0.0
vn 0.0 -1.0 0.0
vn -0.0 -1.0 0.0
vn -0.0 -1.0 0.0
vn -0.0 -1.0 0.0
vn 1.0 0.0 0.0
vn 1.0 0.0 0.0
vn 1.0 0.0 0.0
vn 1.0 0.0 0.0
vn 1.0 0.0 0.0
vn 1.0 0.0 0.0
vn -1.0 0.0 0.0
vn -1.0 0.0 0.0
vn -1.0 0.0 0.0
vn -1.0 0.0 0.0
vn -1.0 0.0 0.0
vn -1.0 0.0 0.0
vn 0.0 0.0 1.0
vn 0.0 0.0 1.0
vn 0.0 0.0 1.0
vn 0.0 0.0 1.0
vn 0.0 0.0 1.0
vn 0.0 0.0 1.0
vn -0.0 1.0 0.0
vn -0.0 1.0 0.0
vn 0.0 1.0 0.0
vn -0.0 1.0 0.0
vn -0.0 1.0 0.0
vn -0.0 1.0 0.0
vn 0.0 -1.0 0.0
vn 0.0 -1.0 0.0
vn 0.0 -1.0 0.0
vn 0.0 -1.0 0.0
vn 0.0 -1.0 0.0
vn 0.0 -1.0 0.0
vn -0.999926 0.0 0.012182
vn -0.999926 0.0 0.012182
vn -0.999926 0.0 0.012182
vn -0.999926 0.0 0.012182
vn -0.999926 0.0 0.012182
vn -0.999926 0.0 0.012182
vn 0.999999 0.0 0.00111
vn 0.896693 0.0 -0.442653
vn 0.999999 0.0 0.00111
vn 0.999999 0.0 0.00111
vn 0.714807 0.0 -0.699322
vn 0.896693 0.0 -0.442653
vn 0.001198 0.999999 0.001131
vn -0.0 1.0 0.0
vn 0.0 1.0 0.0
vn 0.001198 0.999999 0.001131
vn 0.00322 0.999994 0.001131
vn -0.0 1.0 0.0
vn -0.001129 -0.999999 -0.001065
vn -0.0 -1.0 0.0
vn 0.0 -1.0 0.0
vn -0.001129 -0.999999 -0.001065
vn -0.001707 -0.999998 -0.001065
vn -0.0 -1.0 0.0
vn 0.000496 -0.000202 1.0
vn 0.000745 -0.000303 1.0
vn 0.000273 -0.000201 1.0
vn 0.000496 -0.000202 1.0
vn 0.000672 0.0 1.0
vn 0.000745 -0.000303 1.0
vn 0.459939 -0.004729 -0.887938
vn 0.011735 -0.003548 -0.999925
vn 0.896693 0.0 -0.442653
vn 0.017601 -0.005322 -0.999831
vn 0.004805 -0.003548 -0.999982
vn 0.011735 -0.003548 -0.999925
vn 0.212094 0.977248 0.001184
vn 0.00322 0.999994 0.001131
vn 0.001198 0.999999 0.001131
vn 0.212094 0.977248 0.001184
vn 0.419488 0.907761 0.0
vn 0.00322 0.999994 0.001131
vn -0.210275 -0.977642 -0.001115
vn -0.001707 -0.999998 -0.001065
vn -0.001129 -0.999999 -0.001065
vn -0.210275 -0.977642 -0.001115
vn -0.417631 -0.908617 0.0
vn -0.001707 -0.999998 -0.001065
vn 0.0 0.000001 1.0
vn 0.000273 -0.000201 1.0
vn 0.0 0.000001 1.0
vn 0.0 0.000001 1.0
vn 0.000496 -0.000202 1.0
vn 0.000273 -0.000201 1.0
vn 0.004805 -0.003548 -0.999982
vn 0.0 0.0 -1.0
vn 0.011735 -0.003548 -0.999925
vn 0.004805 -0.003548 -0.999982
vn 0.0 0.0 -1.0
vn 0.0 0.0 -1.0
vn 0.807979 0.589212 0.0
vn 0.419488 0.907761 0.0
vn 0.212094 0.977248 0.001184
vn 0.807979 0.589212 0.0
vn 0.955737 0.294221 0.0
vn 0.419488 0.907761 0.0
vn -0.807551 -0.589798 0.0
vn -0.417631 -0.908617 0.0
vn -0.210275 -0.977642 -0.001115
vn -0.807551 -0.589798 0.0
vn -0.955627 -0.294578 0.0
vn -0.417631 -0.908617 0.0
vn 0.0 0.000001 1.0
vn 0.0 -0.0 1.0
vn 0.0 0.000001 1.0
vn 0.0 0.000001 1.0
vn 0.0 -0.0 1.0
vn 0.0 -0.0 1.0
vn 0.0 0.0 -1.0
vn 0.0 0.0 -1.0
vn 0.0 0.0 -1.0
vn 0.0 0.0 -1.0
vn 0.0 0.0 -1.0
vn 0.0 0.0 -1.0
vn -0.955627 -0.294578 0.0
vn -1.0 0.000581 0.0
vn -1.0 0.000581 0.0
vn -0.955627 -0.294578 0.0
vn -0.807551 -0.589798 0.0
vn -1.0 0.000581 0.0
vn 0.955737 0.294221 0.0
vn 1.0 -0.000697 0.0
vn 1.0 -0.000697 0.0
vn 0.955737 0.294221 0.0
vn 0.807979 0.589212 0.0
vn 1.0 -0.000697 0.0
vn 0.999979 0.0 0.00649
vn 0.999979 0.0 0.00649
vn 0.999979 0.0 0.00649
vn 0.999979 0.0 0.00649
vn 0.999979 0.0 0.00649
vn 0.999979 0.0 0.00649
vn -1.0 0.0 0.000606
vn -1.0 0.0 0.000606
vn -1.0 0.0 0.000606
vn -1.0 0.0 0.000606
vn -1.0 0.0 0.000606
vn -1.0 0.0 0.000606
vn 0.0 1.0 0.0
vn 0.0 1.0 0.0
vn -0.001191 0.999999 0.001154
vn 0.0 1.0 0.0
vn -0.003215 0.999994 0.001154
vn -0.001191 0.999999 0.001154
vn 0.0 -1.0 0.0
vn 0.0 -1.0 0.0
vn -0.001244 -0.999999 0.001206
vn 0.0 -1.0 0.0
vn -0.001869 -0.999998 0.001206
vn -0.001244 -0.999999 0.001206
vn -0.00042 -0.000318 1.0
vn -0.001145 -0.000476 0.999999
vn -0.000763 -0.000317 1.0
vn -0.001145 -0.000476 0.999999
vn -0.00103 0.0 0.999999
vn -0.000763 -0.000317 1.0
vn -0.010203 0.0 -0.999948
vn -0.005746 -0.001774 -0.999982
vn -0.008618 -0.002663 -0.999959
vn -0.005746 -0.001774 -0.999982
vn -0.002345 -0.001775 -0.999996
vn -0.008618 -0.002663 -0.999959
vn -0.001191 0.999999 0.001154
vn -0.003215 0.999994 0.001154
vn -0.212089 0.97725 0.001208
vn -0.003215 0.999994 0.001154
vn -0.41949 0.90776 0.0
vn -0.212089 0.97725 0.001208
vn -0.001244 -0.999999 0.001206
vn -0.001869 -0.999998 0.001206
vn 0.206972 -0.978346 0.001264
vn -0.001869 -0.999998 0.001206
vn 0.417149 -0.908838 0.0
vn 0.206972 -0.978346 0.001264
vn 0.0 -0.000001 1.0
vn -0.00042 -0.000318 1.0
vn 0.0 -0.0 1.0
vn -0.00042 -0.000318 1.0
vn -0.000763 -0.000317 1.0
vn 0.0 -0.0 1.0
vn -0.005746 -0.001774 -0.999982
vn 0.0 0.0 -1.0
vn -0.002345 -0.001775 -0.999996
vn 0.0 0.0 -1.0
vn 0.0 -0.000001 -1.0
vn -0.002345 -0.001775 -0.999996
vn -0.212089 0.97725 0.001208
vn -0.41949 0.90776 0.0
vn -0.807979 0.589211 0.0
vn -0.41949 0.90776 0.0
vn -0.955737 0.294221 0.0
vn -0.807979 0.589211 0.0
vn 0.206972 -0.978346 0.001264
vn 0.417149 -0.908838 0.0
vn 0.807726 -0.589558 0.0
vn 0.417149 -0.908838 0.0
vn 0.955472 -0.295082 0.0
vn 0.807726 -0.589558 0.0
vn 0.0 -0.0 1.0
vn 0.0 -0.0 1.0
vn 0.0 -0.000001 1.0
vn 0.0 -0.0 1.0
vn 0.0 -0.0 1.0
vn 0.0 -0.000001 1.0
vn 0.0 0.0 -1.0
vn 0.0 -0.000001 -1.0
vn 0.0 -0.0 -1.0
vn 0.0 -0.000001 -1.0
vn 0.0 0.0 -1.0
vn 0.0 -0.0 -1.0
vn 1.0 -0.000549 0.0
vn 1.0 -0.000549 0.0
vn 0.955472 -0.295082 0.0
vn 1.0 -0.000549 0.0
vn 0.807726 -0.589558 0.0
vn 0.955472 -0.295082 0.0
vn -1.0 -0.000697 0.0
vn -1.0 -0.000697 0.0
vn -0.955737 0.294221 0.0
vn -1.0 -0.000697 0.0
vn -0.807979 0.589211 0.0
vn -0.955737 0.294221 0.0

# group, 194 grouped triangles

usemtl shop.jpg
o group
g group

f 52/1/1 41/2/2 51/3/3
f 4/4/4 5/5/5 6/6/6
f 5/7/7 7/8/8 6/9/9
f 6/10/10 9/11/11 4/12/12
f 6/13/13 11/14/14 9/15/15
f 10/16/16 5/17/17 8/18/18
f 10/19/19 7/20/20 5/21/21
f 6/22/22 10/23/23 11/24/24
f 6/25/25 7/26/26 10/27/27
f 5/28/28 9/29/29 8/30/30
f 5/31/31 4/32/32 9/33/33
f 12/34/34 13/35/35 14/36/36
f 13/37/37 15/38/38 14/39/39
f 14/40/40 17/41/41 12/42/42
f 14/43/43 19/44/44 17/45/45
f 18/46/46 13/47/47 16/48/48
f 18/49/49 15/50/50 13/51/51
f 14/52/52 18/53/53 19/54/54
f 14/55/55 15/56/56 18/57/57
f 13/58/58 17/59/59 16/60/60
f 13/61/61 12/62/62 17/63/63
f 26/64/64 25/65/65 28/66/66
f 27/67/67 26/68/68 28/69/69
f 29/70/70 28/71/71 25/72/72
f 21/73/73 26/74/74 27/75/75
f 27/76/76 22/77/77 21/78/78
f 22/79/79 27/80/80 28/81/81
f 28/82/82 23/83/83 22/84/84
f 23/85/85 28/86/86 29/87/87
f 29/88/88 24/89/89 23/90/90
f 24/91/91 29/92/92 25/93/93
f 25/94/94 20/95/95 24/96/96
f 23/97/97 20/98/98 21/99/99
f 23/100/100 21/101/101 22/102/102
f 20/103/103 23/104/104 24/105/105
f 2/106/106 3/107/107 42/108/108
f 2/109/109 42/110/110 43/111/111
f 1/112/112 44/113/113 3/114/114
f 3/115/115 44/116/116 45/117/117
f 2/118/118 43/119/119 46/120/120
f 3/121/121 45/122/122 42/123/123
f 2/124/124 46/125/125 47/126/126
f 2/127/127 47/128/128 48/129/129
f 48/130/130 49/131/131 41/132/132
f 49/133/133 50/134/134 41/135/135
f 50/136/136 51/137/137 41/138/138
f 41/139/139 2/140/140 48/141/141
f 52/142/142 1/143/143 41/144/144
f 1/145/145 52/146/146 44/147/147
f 40/148/148 52/149/149 51/150/150
f 51/151/151 39/152/152 40/153/153
f 31/154/154 43/155/155 42/156/156
f 42/157/157 30/158/158 31/159/159
f 33/160/160 45/161/161 44/162/162
f 44/163/163 32/164/164 33/165/165
f 34/166/166 46/167/167 43/168/168
f 43/169/169 31/170/170 34/171/171
f 30/172/172 42/173/173 45/174/174
f 45/175/175 33/176/176 30/177/177
f 35/178/178 47/179/179 46/180/180
f 46/181/181 34/182/182 35/183/183
f 36/184/184 48/185/185 47/186/186
f 47/187/187 35/188/188 36/189/189
f 37/190/190 49/191/191 48/192/192
f 48/193/193 36/194/194 37/195/195
f 38/196/196 50/197/197 49/198/198
f 49/199/199 37/200/200 38/201/201
f 39/202/202 51/203/203 50/204/204
f 50/205/205 38/206/206 39/207/207
f 32/208/208 44/209/209 52/210/210
f 52/211/211 40/212/212 32/213/213
f 40/214/214 39/215/215 32/216/216
f 39/217/217 38/218/218 32/219/219
f 38/220/220 37/221/221 32/222/222
f 37/223/223 36/224/224 32/225/225
f 36/226/226 35/227/227 32/228/228
f 35/229/229 34/230/230 32/231/231
f 31/232/232 32/233/233 34/234/234
f 32/235/235 31/236/236 30/237/237
f 33/238/238 32/239/239 30/240/240
f 53/241/241 54/242/242 55/243/243
f 54/244/244 56/245/245 55/246/246
f 55/247/247 58/248/248 53/249/249
f 55/250/250 60/251/251 58/252/252
f 59/253/253 54/254/254 57/255/255
f 59/256/256 56/257/257 54/258/258
f 55/259/259 59/260/260 60/261/261
f 55/262/262 56/263/263 59/264/264
f 54/265/265 58/266/266 57/267/267
f 54/268/268 53/269/269 58/270/270
f 61/271/271 62/272/272 63/273/273
f 62/274/274 64/275/275 63/276/276
f 65/277/277 66/278/278 67/279/279
f 66/280/280 68/281/281 67/282/282
f 63/283/283 66/284/284 61/285/285
f 63/286/286 68/287/287 66/288/288
f 63/289/289 67/290/290 68/291/291
f 63/292/292 64/293/293 67/294/294
f 62/295/295 66/296/296 65/297/297
f 62/298/298 61/299/299 66/300/300
f 69/301/301 70/302/302 71/303/303
f 70/304/304 72/305/305 71/306/306
f 73/307/307 74/308/308 75/309/309
f 74/310/310 76/311/311 75/312/312
f 71/313/313 74/314/314 69/315/315
f 71/316/316 76/317/317 74/318/318
f 71/319/319 75/320/320 76/321/321
f 71/322/322 72/323/323 75/324/324
f 70/325/325 74/326/326 73/327/327
f 70/328/328 69/329/329 74/330/330
f 77/331/331 78/332/332 79/333/333
f 78/334/334 80/335/335 79/336/336
f 81/337/337 82/338/338 83/339/339
f 82/340/340 84/341/341 83/342/342
f 79/343/343 82/344/344 77/345/345
f 79/346/346 84/347/347 82/348/348
f 79/349/349 83/350/350 84/351/351
f 79/352/352 80/353/353 83/354/354
f 78/355/355 82/356/356 81/357/357
f 78/358/358 77/359/359 82/360/360
f 85/361/361 86/362/362 87/363/363
f 86/364/364 88/365/365 87/366/366
f 89/367/367 90/368/368 91/369/369
f 90/370/370 92/371/371 91/372/372
f 87/373/373 90/374/374 85/375/375
f 87/376/376 92/377/377 90/378/378
f 87/379/379 91/380/380 92/381/381
f 87/382/382 88/383/383 91/384/384
f 86/385/385 90/386/386 89/387/387
f 86/388/388 85/389/389 90/390/390
f 95/391/391 98/392/392 93/393/393
f 95/394/394 100/395/395 98/396/396
f 99/397/397 94/398/398 97/399/399
f 99/400/400 96/401/401 94/402/402
f 95/403/403 99/404/404 100/405/405
f 95/406/406 96/407/407 99/408/408
f 94/409/409 98/410/410 97/411/411
f 94/412/412 93/413/413 98/414/414
f 103/415/415 93/416/416 101/417/417
f 103/418/418 95/419/419 93/420/420
f 96/421/421 102/422/422 94/423/423
f 96/424/424 104/425/425 102/426/426
f 103/427/427 96/428/428 95/429/429
f 103/430/430 104/431/431 96/432/432
f 102/433/433 93/434/434 94/435/435
f 102/436/436 101/437/437 93/438/438
f 107/439/439 101/440/440 105/441/441
f 107/442/442 103/443/443 101/444/444
f 104/445/445 106/446/446 102/447/447
f 104/448/448 108/449/449 106/450/450
f 107/451/451 104/452/452 103/453/453
f 107/454/454 108/455/455 104/456/456
f 106/457/457 101/458/458 102/459/459
f 106/460/460 105/461/461 101/462/462
f 105/463/463 110/464/464 107/465/465
f 105/466/466 112/467/467 110/468/468
f 111/469/469 108/470/470 109/471/471
f 111/472/472 106/473/473 108/474/474
f 105/475/475 111/476/476 112/477/477
f 105/478/478 106/479/479 111/480/480
f 108/481/481 110/482/482 109/483/483
f 108/484/484 107/485/485 110/486/486
f 113/487/487 118/488/488 115/489/489
f 118/490/490 120/491/491 115/492/492
f 117/493/493 114/494/494 119/495/495
f 114/496/496 116/497/497 119/498/498
f 120/499/499 119/500/500 115/501/501
f 119/502/502 116/503/503 115/504/504
f 117/505/505 118/506/506 114/507/507
f 118/508/508 113/509/509 114/510/510
f 121/511/511 113/512/512 123/513/513
f 113/514/514 115/515/515 123/516/516
f 114/517/517 122/518/518 116/519/519
f 122/520/520 124/521/521 116/522/522
f 115/523/523 116/524/524 123/525/525
f 116/526/526 124/527/527 123/528/528
f 114/529/529 113/530/530 122/531/531
f 113/532/532 121/533/533 122/534/534
f 125/535/535 121/536/536 127/537/537
f 121/538/538 123/539/539 127/540/540
f 122/541/541 126/542/542 124/543/543
f 126/544/544 128/545/545 124/546/546
f 123/547/547 124/548/548 127/549/549
f 124/550/550 128/551/551 127/552/552
f 122/553/553 121/554/554 126/555/555
f 121/556/556 125/557/557 126/558/558
f 127/559/559 130/560/560 125/561/561
f 130/562/562 132/563/563 125/564/564
f 129/565/565 128/566/566 131/567/567
f 128/568/568 126/569/569 131/570/570
f 132/571/571 131/572/572 125/573/573
f 131/574/574 126/575/575 125/576/576
f 129/577/577 130/578/578 128/579/579
f 130/580/580 127/581/581 128/582/582
