# Wavefront OBJ file
# Exported by Maverick Model 3D 1.3.15
# Thu Sep 24 15:28:10 2026

mtllib prop.mtl

# 30 Vertices
v 4.894623 8.603318 5.373374
v 4.894623 10.497207 5.735149
v 4.894623 10.503715 5.652456
v 4.894623 10.633879 5.518084
v 4.894623 10.66642 5.368206
v 4.894623 10.620863 5.218328
v 4.894623 10.497207 5.109796
v 4.894623 10.497207 5.001262
v 4.894623 6.325445 4.996094
v 4.894623 6.325445 5.140804
v 4.894623 6.23433 5.228664
v 4.894623 6.208297 5.347532
v 4.894623 6.247346 5.492243
v 4.894623 6.325445 5.585271
v 4.894623 6.338461 5.719643
v 4.994623 8.603318 5.373374
v 4.994623 10.497207 5.735149
v 4.994623 10.503715 5.652456
v 4.994623 10.633879 5.518084
v 4.994623 10.66642 5.368206
v 4.994623 10.620863 5.218328
v 4.994623 10.497207 5.109796
v 4.994623 10.497207 5.001262
v 4.994623 6.325445 4.996094
v 4.994623 6.325445 5.140804
v 4.994623 6.23433 5.228664
v 4.994623 6.208297 5.347532
v 4.994623 6.247346 5.492243
v 4.994623 6.325445 5.585271
v 4.994623 6.338461 5.719643

# 168 Texture Coordinates
vt 0.025088 0.959776
vt 0.004023 0.958337
vt 0.096176 0.539332
vt 0.059312 0.988575
vt 0.025088 0.959776
vt 0.096176 0.539332
vt 0.097492 0.995773
vt 0.059312 0.988575
vt 0.096176 0.539332
vt 0.13567 0.985693
vt 0.097492 0.995773
vt 0.096176 0.539332
vt 0.163314 0.958337
vt 0.13567 0.985693
vt 0.096176 0.539332
vt 0.19096 0.958337
vt 0.163314 0.958337
vt 0.096176 0.539332
vt 0.192278 0.035377
vt 0.19096 0.958337
vt 0.096176 0.539332
vt 0.155415 0.035377
vt 0.192278 0.035377
vt 0.096176 0.539332
vt 0.133036 0.015217
vt 0.155415 0.035377
vt 0.096176 0.539332
vt 0.102756 0.009458
vt 0.133036 0.015217
vt 0.096176 0.539332
vt 0.065897 0.018099
vt 0.102756 0.009458
vt 0.096176 0.539332
vt 0.042202 0.035377
vt 0.065897 0.018099
vt 0.096176 0.539332
vt 0.007973 0.038258
vt 0.042202 0.035377
vt 0.096176 0.539332
vt 0.096176 0.539332
vt 0.004023 0.958337
vt 0.007973 0.038258
vt 0.004023 0.958337
vt 0.004023 0.958337
vt 0.025088 0.959776
vt 0.025088 0.959776
vt 0.025088 0.959776
vt 0.004023 0.958337
vt 0.025088 0.959776
vt 0.025088 0.959776
vt 0.059312 0.988575
vt 0.059312 0.988575
vt 0.059312 0.988575
vt 0.025088 0.959776
vt 0.059312 0.988575
vt 0.059312 0.988575
vt 0.097492 0.995773
vt 0.097492 0.995773
vt 0.097492 0.995773
vt 0.059312 0.988575
vt 0.097492 0.995773
vt 0.097492 0.995773
vt 0.13567 0.985693
vt 0.13567 0.985693
vt 0.13567 0.985693
vt 0.097492 0.995773
vt 0.13567 0.985693
vt 0.13567 0.985693
vt 0.163314 0.958337
vt 0.163314 0.958337
vt 0.163314 0.958337
vt 0.13567 0.985693
vt 0.163314 0.958337
vt 0.163314 0.958337
vt 0.19096 0.958337
vt 0.19096 0.958337
vt 0.19096 0.958337
vt 0.163314 0.958337
vt 0.19096 0.958337
vt 0.19096 0.958337
vt 0.192278 0.035377
vt 0.192278 0.035377
vt 0.192278 0.035377
vt 0.19096 0.958337
vt 0.192278 0.035377
vt 0.192278 0.035377
vt 0.155415 0.035377
vt 0.155415 0.035377
vt 0.155415 0.035377
vt 0.192278 0.035377
vt 0.155415 0.035377
vt 0.155415 0.035377
vt 0.133036 0.015217
vt 0.133036 0.015217
vt 0.133036 0.015217
vt 0.155415 0.035377
vt 0.133036 0.015217
vt 0.133036 0.015217
vt 0.102756 0.009458
vt 0.102756 0.009458
vt 0.102756 0.009458
vt 0.133036 0.015217
vt 0.102756 0.009458
vt 0.102756 0.009458
vt 0.065897 0.018099
vt 0.065897 0.018099
vt 0.065897 0.018099
vt 0.102756 0.009458
vt 0.065897 0.018099
vt 0.065897 0.018099
vt 0.042202 0.035377
vt 0.042202 0.035377
vt 0.042202 0.035377
vt 0.065897 0.018099
vt 0.042202 0.035377
vt 0.042202 0.035377
vt 0.007973 0.038258
vt 0.007973 0.038258
vt 0.007973 0.038258
vt 0.042202 0.035377
vt 0.007973 0.038258
vt 0.007973 0.038258
vt 0.004023 0.958337
vt 0.004023 0.958337
vt 0.004023 0.958337
vt 0.007973 0.038258
vt 0.104246 0.538697
vt 0.189236 0.9567
vt 0.168172 0.958139
vt 0.104246 0.538697
vt 0.168172 0.958139
vt 0.133943 0.986934
vt 0.104246 0.538697
vt 0.133943 0.986934
vt 0.095768 0.994137
vt 0.104246 0.538697
vt 0.095768 0.994137
vt 0.05759 0.984057
vt 0.104246 0.538697
vt 0.05759 0.984057
vt 0.029945 0.9567
vt 0.104246 0.538697
vt 0.029945 0.9567
vt 0.002296 0.9567
vt 0.104246 0.538697
vt 0.002296 0.9567
vt 0.008144 0.034744
vt 0.104246 0.538697
vt 0.008144 0.034744
vt 0.045003 0.034744
vt 0.104246 0.538697
vt 0.045003 0.034744
vt 0.067383 0.014586
vt 0.104246 0.538697
vt 0.067383 0.014586
vt 0.097662 0.008826
vt 0.104246 0.538697
vt 0.097662 0.008826
vt 0.134521 0.017463
vt 0.104246 0.538697
vt 0.134521 0.017463
vt 0.15822 0.034744
vt 0.104246 0.538697
vt 0.15822 0.034744
vt 0.192448 0.037622
vt 0.192448 0.037622
vt 0.189236 0.9567
vt 0.104246 0.538697

# 168 Vertex Normals
vn 1.0 0.0 -0.000002
vn 1.0 0.0 -0.000002
vn 1.0 0.0 0.0
vn 1.0 0.0 0.000001
vn 1.0 0.0 -0.000002
vn 1.0 0.0 0.0
vn 1.0 0.0 0.000001
vn 1.0 0.0 0.000001
vn 1.0 0.0 0.0
vn 1.0 0.0 0.0
vn 1.0 0.0 0.000001
vn 1.0 0.0 0.0
vn 1.0 0.0 0.0
vn 1.0 0.0 0.0
vn 1.0 0.0 0.0
vn 1.0 0.0 0.0
vn 1.0 0.0 0.0
vn 1.0 0.0 0.0
vn 1.0 0.0 0.0
vn 1.0 0.0 0.0
vn 1.0 0.0 0.0
vn 1.0 0.0 0.000002
vn 1.0 0.0 0.0
vn 1.0 0.0 0.0
vn 1.0 0.0 0.000001
vn 1.0 0.0 0.000002
vn 1.0 0.0 0.0
vn 1.0 0.0 -0.000001
vn 1.0 0.0 0.000001
vn 1.0 0.0 0.0
vn 1.0 0.0 -0.000001
vn 1.0 0.0 -0.000001
vn 1.0 0.0 0.0
vn 1.0 0.0 0.0
vn 1.0 0.0 -0.000001
vn 1.0 0.0 0.0
vn 1.0 0.0 0.000001
vn 1.0 0.0 0.0
vn 1.0 0.0 0.0
vn 1.0 0.0 0.0
vn 1.0 0.0 -0.000002
vn 1.0 0.0 0.000001
vn 0.0 0.864532 0.502577
vn 0.0 0.429837 0.902907
vn 0.0 0.953962 0.299926
vn 0.0 0.953962 0.299926
vn 0.0 0.855947 0.517063
vn 0.0 0.864532 0.502577
vn 0.0 0.855947 0.517063
vn 0.0 0.953962 0.299926
vn 0.0 0.832917 0.553397
vn 0.0 0.832917 0.553397
vn 0.0 0.92228 0.386522
vn 0.0 0.855947 0.517063
vn 0.0 0.92228 0.386522
vn 0.0 0.832917 0.553397
vn 0.0 0.99895 0.045818
vn 0.0 0.99895 0.045818
vn 0.0 0.991931 -0.126778
vn 0.0 0.92228 0.386522
vn 0.0 0.991931 -0.126778
vn 0.0 0.99895 0.045818
vn 0.0 0.887901 -0.460036
vn 0.0 0.887901 -0.460036
vn 0.0 0.785375 -0.61902
vn 0.0 0.991931 -0.126778
vn 0.0 0.785375 -0.61902
vn 0.0 0.887901 -0.460036
vn 0.0 0.83917 -0.543869
vn 0.0 0.83917 -0.543869
vn 0.0 0.962316 -0.271934
vn 0.0 0.785375 -0.61902
vn 0.0 0.962316 -0.271934
vn 0.0 0.83917 -0.543869
vn 0.0 1.0 0.0
vn 0.0 1.0 0.0
vn 0.0 1.0 0.0
vn 0.0 0.962316 -0.271934
vn 0.0 0.001239 -0.999999
vn 0.0 0.001239 -0.999999
vn 0.0 0.001239 -0.999999
vn 0.0 0.001239 -0.999999
vn 0.0 0.001239 -0.999999
vn 0.0 0.001239 -0.999999
vn 0.0 -1.0 0.0
vn 0.0 -1.0 0.0
vn 0.0 -0.966109 -0.258136
vn 0.0 -0.966109 -0.258136
vn 0.0 -0.856425 -0.516271
vn 0.0 -1.0 0.0
vn 0.0 -0.856425 -0.516271
vn 0.0 -0.966109 -0.258136
vn 0.0 -0.819548 -0.573011
vn 0.0 -0.819548 -0.573011
vn 0.0 -0.917513 -0.397706
vn 0.0 -0.856425 -0.516271
vn 0.0 -0.917513 -0.397706
vn 0.0 -0.819548 -0.573011
vn 0.0 -0.998361 -0.057236
vn 0.0 -0.998361 -0.057236
vn 0.0 -0.994469 0.105032
vn 0.0 -0.917513 -0.397706
vn 0.0 -0.994469 0.105032
vn 0.0 -0.998361 -0.057236
vn 0.0 -0.918125 0.396291
vn 0.0 -0.918125 0.396291
vn 0.0 -0.850177 0.526497
vn 0.0 -0.994469 0.105032
vn 0.0 -0.850177 0.526497
vn 0.0 -0.918125 0.396291
vn 0.0 -0.877318 0.479909
vn 0.0 -0.877318 0.479909
vn 0.0 -0.956978 0.290161
vn 0.0 -0.850177 0.526497
vn 0.0 -0.956978 0.290161
vn 0.0 -0.877318 0.479909
vn 0.0 -0.858219 0.513283
vn 0.0 -0.858219 0.513283
vn 0.0 -0.431516 0.902105
vn 0.0 -0.956978 0.290161
vn 0.0 -0.431516 0.902105
vn 0.0 -0.858219 0.513283
vn 0.0 0.429837 0.902907
vn 0.0 0.429837 0.902907
vn 0.0 0.864532 0.502577
vn 0.0 -0.431516 0.902105
vn -1.0 0.0 -0.0
vn -1.0 0.0 0.0
vn -1.0 0.0 0.0
vn -1.0 0.0 -0.0
vn -1.0 0.0 0.0
vn -1.0 0.0 0.000002
vn -1.0 0.0 -0.0
vn -1.0 0.0 0.000002
vn -1.0 0.0 0.0
vn -1.0 0.0 -0.0
vn -1.0 0.0 0.0
vn -1.0 0.0 -0.000002
vn -1.0 0.0 -0.0
vn -1.0 0.0 -0.000002
vn -1.0 0.0 0.0
vn -1.0 0.0 -0.0
vn -1.0 0.0 0.0
vn -1.0 0.0 0.0
vn -1.0 0.0 -0.0
vn -1.0 0.0 0.0
vn -1.0 0.0 0.0
vn -1.0 0.0 -0.0
vn -1.0 0.0 0.0
vn -1.0 0.0 0.0
vn -1.0 0.0 -0.0
vn -1.0 0.0 0.0
vn -1.0 0.0 -0.000002
vn -1.0 0.0 -0.0
vn -1.0 0.0 -0.000002
vn -1.0 0.0 -0.0
vn -1.0 0.0 -0.0
vn -1.0 0.0 -0.0
vn -1.0 0.0 0.000001
vn -1.0 0.0 -0.0
vn -1.0 0.0 0.000001
vn -1.0 0.0 0.0
vn -1.0 0.0 -0.0
vn -1.0 0.0 0.0
vn -1.0 0.0 0.0
vn -1.0 0.0 0.0
vn -1.0 0.0 0.0
vn -1.0 0.0 -0.0

# group, 56 grouped triangles

usemtl prop.jpg
o group
g group

f 18/1/1 17/2/2 16/3/3
f 19/4/4 18/5/5 16/6/6
f 20/7/7 19/8/8 16/9/9
f 21/10/10 20/11/11 16/12/12
f 22/13/13 21/14/14 16/15/15
f 23/16/16 22/17/17 16/18/18
f 24/19/19 23/20/20 16/21/21
f 25/22/22 24/23/23 16/24/24
f 26/25/25 25/26/26 16/27/27
f 27/28/28 26/29/29 16/30/30
f 28/31/31 27/32/32 16/33/33
f 29/34/34 28/35/35 16/36/36
f 30/37/37 29/38/38 16/39/39
f 16/40/40 17/41/41 30/42/42
f 2/43/43 17/44/44 18/45/45
f 18/46/46 3/47/47 2/48/48
f 3/49/49 18/50/50 19/51/51
f 19/52/52 4/53/53 3/54/54
f 4/55/55 19/56/56 20/57/57
f 20/58/58 5/59/59 4/60/60
f 5/61/61 20/62/62 21/63/63
f 21/64/64 6/65/65 5/66/66
f 6/67/67 21/68/68 22/69/69
f 22/70/70 7/71/71 6/72/72
f 7/73/73 22/74/74 23/75/75
f 23/76/76 8/77/77 7/78/78
f 8/79/79 23/80/80 24/81/81
f 24/82/82 9/83/83 8/84/84
f 9/85/85 24/86/86 25/87/87
f 25/88/88 10/89/89 9/90/90
f 10/91/91 25/92/92 26/93/93
f 26/94/94 11/95/95 10/96/96
f 11/97/97 26/98/98 27/99/99
f 27/100/100 12/101/101 11/102/102
f 12/103/103 27/104/104 28/105/105
f 28/106/106 13/107/107 12/108/108
f 13/109/109 28/110/110 29/111/111
f 29/112/112 14/113/113 13/114/114
f 14/115/115 29/116/116 30/117/117
f 30/118/118 15/119/119 14/120/120
f 15/121/121 30/122/122 17/123/123
f 17/124/124 2/125/125 15/126/126
f 1/127/127 2/128/128 3/129/129
f 1/130/130 3/131/131 4/132/132
f 1/133/133 4/134/134 5/135/135
f 1/136/136 5/137/137 6/138/138
f 1/139/139 6/140/140 7/141/141
f 1/142/142 7/143/143 8/144/144
f 1/145/145 8/146/146 9/147/147
f 1/148/148 9/149/149 10/150/150
f 1/151/151 10/152/152 11/153/153
f 1/154/154 11/155/155 12/156/156
f 1/157/157 12/158/158 13/159/159
f 1/160/160 13/161/161 14/162/162
f 1/163/163 14/164/164 15/165/165
f 15/166/166 2/167/167 1/168/168
