# Wavefront OBJ file
# Exported by Maverick Model 3D 1.3.15
# Mon Sep 14 11:43:06 2026

mtllib shop.mtl

# 96 Vertices
v 5.0 5.0 5.0
v 5.0 0.0 5.0
v -5.0 5.0 5.0
v -5.0 0.0 5.0
v -4.998 4.783 5.072
v 5.0 4.783 5.072
v -4.998 5.0 5.072
v 5.0 5.0 5.072
v 5.0 4.783 4.786
v -4.998 4.783 4.786
v 5.0 5.0 4.786
v -4.998 5.0 4.786
v -4.998 0.391 5.072
v -2.359 0.391 5.072
v -4.998 0.608 5.072
v -2.359 0.608 5.072
v -2.359 0.391 4.786
v -4.998 0.391 4.786
v -2.359 0.608 4.786
v -4.998 0.608 4.786
v 2.136 0.391 5.072
v 5.0 0.391 5.072
v 2.136 0.608 5.072
v 5.0 0.608 5.072
v 5.0 0.391 4.786
v 2.136 0.391 4.786
v 5.0 0.608 4.786
v 2.136 0.608 4.786
v -2.551 4.163 5.477
v 2.529 4.163 5.477
v -0.011 5.0 5.477
v 2.529 4.163 4.981
v -2.551 4.163 4.981
v -0.011 5.0 4.981
v -2.551 3.966 5.477
v 2.529 3.966 5.477
v 2.529 3.966 4.981
v -2.551 3.966 4.981
v -2.005 1.509 5.238
v -1.527 1.509 5.238
v -2.005 3.986 5.238
v -1.527 3.986 5.238
v -1.527 1.509 4.992
v -2.005 1.509 4.992
v -1.527 3.986 4.992
v -2.005 3.986 4.992
v 1.456 1.509 5.238
v 1.934 1.509 5.238
v 1.456 3.986 5.238
v 1.934 3.986 5.238
v 1.934 1.509 4.992
v 1.456 1.509 4.992
v 1.934 3.986 4.992
v 1.456 3.986 4.992
v -1.593 0.552 5.009
v -1.593 0.554 5.305
v 1.505 0.552 5.009
v 1.505 0.554 5.305
v -1.593 0.275 5.304
v 1.505 0.275 5.304
v -1.593 0.261 5.6
v 1.505 0.261 5.6
v -1.593 0.0 5.599
v 1.505 0.0 5.599
v -2.099 0.0 5.597
v -1.58 0.0 5.597
v -2.099 1.39 5.597
v -1.58 1.39 5.597
v -1.58 0.0 4.851
v -2.099 0.0 4.851
v -1.58 1.39 4.851
v -2.099 1.39 4.851
v -2.196 1.389 5.692
v -1.485 1.389 5.692
v -2.196 1.51 5.692
v -1.485 1.51 5.692
v -1.485 1.389 4.856
v -2.196 1.389 4.856
v -1.485 1.51 4.856
v -2.196 1.51 4.856
v 2.02 0.0 5.597
v 1.5 0.0 5.597
v 2.02 1.39 5.597
v 1.5 1.39 5.597
v 1.5 0.0 4.851
v 2.02 0.0 4.851
v 1.5 1.39 4.851
v 2.02 1.39 4.851
v 2.116 1.389 5.692
v 1.406 1.389 5.692
v 2.116 1.51 5.692
v 1.406 1.51 5.692
v 1.406 1.389 4.856
v 2.116 1.389 4.856
v 1.406 1.51 4.856
v 2.116 1.51 4.856

# 327 Texture Coordinates
vt 0.0 0.99216
vt 0.0 0.0
vt 1.0 0.0
vt 1.0 0.0
vt 1.0 0.99216
vt 0.0 0.99216
vt 0.002438 0.951969
vt 0.402487 0.951969
vt 0.002438 0.99869
vt 0.402487 0.951969
vt 0.402487 0.99869
vt 0.002438 0.99869
vt 0.002438 0.99869
vt 0.002438 0.951969
vt 0.002438 0.951969
vt 0.002438 0.99869
vt 0.002438 0.99869
vt 0.002438 0.951969
vt 0.402487 0.99869
vt 0.402487 0.951969
vt 0.402487 0.951969
vt 0.402487 0.99869
vt 0.402487 0.99869
vt 0.402487 0.951969
vt 0.002438 0.99869
vt 0.402487 0.99869
vt 0.002438 0.99869
vt 0.002438 0.99869
vt 0.402487 0.99869
vt 0.402487 0.99869
vt 0.402487 0.951969
vt 0.002438 0.951969
vt 0.402487 0.951969
vt 0.402487 0.951969
vt 0.002438 0.951969
vt 0.002438 0.951969
vt 0.603576 0.257656
vt 0.756734 0.257656
vt 0.603576 0.281791
vt 0.756734 0.257656
vt 0.756734 0.281791
vt 0.603576 0.281791
vt 0.603576 0.281791
vt 0.603576 0.257656
vt 0.603576 0.257656
vt 0.603576 0.281791
vt 0.603576 0.281791
vt 0.603576 0.257656
vt 0.756734 0.281791
vt 0.756734 0.257656
vt 0.756734 0.257656
vt 0.756734 0.281791
vt 0.756734 0.281791
vt 0.756734 0.257656
vt 0.603576 0.281791
vt 0.756734 0.281791
vt 0.603576 0.281791
vt 0.603576 0.281791
vt 0.756734 0.281791
vt 0.756734 0.281791
vt 0.756734 0.257656
vt 0.603576 0.257656
vt 0.756734 0.257656
vt 0.756734 0.257656
vt 0.603576 0.257656
vt 0.603576 0.257656
vt 0.603576 0.257656
vt 0.756734 0.257656
vt 0.603576 0.281791
vt 0.756734 0.257656
vt 0.756734 0.281791
vt 0.603576 0.281791
vt 0.603576 0.281791
vt 0.603576 0.257656
vt 0.603576 0.257656
vt 0.603576 0.281791
vt 0.603576 0.281791
vt 0.603576 0.257656
vt 0.756734 0.281791
vt 0.756734 0.257656
vt 0.756734 0.257656
vt 0.756734 0.281791
vt 0.756734 0.281791
vt 0.756734 0.257656
vt 0.603576 0.281791
vt 0.756734 0.281791
vt 0.603576 0.281791
vt 0.603576 0.281791
vt 0.756734 0.281791
vt 0.756734 0.281791
vt 0.756734 0.257656
vt 0.603576 0.257656
vt 0.756734 0.257656
vt 0.756734 0.257656
vt 0.603576 0.257656
vt 0.603576 0.257656
vt 0.253849 0.838378
vt 0.739801 0.838378
vt 0.496825 0.997657
vt 0.492373 0.821087
vt 0.339829 0.855515
vt 0.339829 0.821087
vt 0.492373 0.821087
vt 0.492373 0.855515
vt 0.339829 0.855515
vt 0.492373 0.855515
vt 0.644917 0.821087
vt 0.644917 0.855515
vt 0.492373 0.855515
vt 0.492373 0.821087
vt 0.644917 0.821087
vt 0.643654 0.746853
vt 0.342264 0.796229
vt 0.643654 0.796229
vt 0.643654 0.746853
vt 0.342264 0.746853
vt 0.342264 0.796229
vt 0.644917 0.821087
vt 0.644917 0.821087
vt 0.644917 0.855515
vt 0.644917 0.855515
vt 0.644917 0.855515
vt 0.644917 0.821087
vt 0.253849 0.838378
vt 0.253849 0.801031
vt 0.739801 0.801031
vt 0.739801 0.801031
vt 0.739801 0.838378
vt 0.253849 0.838378
vt 0.339829 0.855515
vt 0.339829 0.855515
vt 0.339829 0.821087
vt 0.339829 0.821087
vt 0.339829 0.821087
vt 0.339829 0.855515
vt 0.300209 0.30487
vt 0.34736 0.30487
vt 0.300209 0.788262
vt 0.34736 0.30487
vt 0.34736 0.788262
vt 0.300209 0.788262
vt 0.617205 0.782829
vt 0.642862 0.311475
vt 0.617205 0.311475
vt 0.617205 0.782829
vt 0.642862 0.782829
vt 0.642862 0.311475
vt 0.642862 0.782829
vt 0.617205 0.311475
vt 0.642862 0.311475
vt 0.642862 0.782829
vt 0.617205 0.782829
vt 0.617205 0.311475
vt 0.298284 0.611063
vt 0.345669 0.611063
vt 0.298284 0.611063
vt 0.298284 0.611063
vt 0.345669 0.611063
vt 0.345669 0.611063
vt 0.64802 0.306292
vt 0.688991 0.306292
vt 0.64802 0.790276
vt 0.688991 0.306292
vt 0.688991 0.790276
vt 0.64802 0.790276
vt 0.617205 0.782829
vt 0.642862 0.311475
vt 0.617205 0.311475
vt 0.617205 0.782829
vt 0.642862 0.782829
vt 0.642862 0.311475
vt 0.642862 0.782829
vt 0.617205 0.311475
vt 0.642862 0.311475
vt 0.642862 0.782829
vt 0.617205 0.782829
vt 0.617205 0.311475
vt 0.647817 0.612307
vt 0.688991 0.612307
vt 0.647817 0.612307
vt 0.647817 0.612307
vt 0.688991 0.612307
vt 0.688991 0.612307
vt 0.791765 0.526838
vt 0.850164 0.526838
vt 0.850164 0.681817
vt 0.850164 0.681817
vt 0.791765 0.681817
vt 0.791765 0.526838
vt 0.352154 0.113138
vt 0.352154 0.058223
vt 0.631768 0.058223
vt 0.631768 0.058223
vt 0.631768 0.113138
vt 0.352154 0.113138
vt 0.850019 0.526838
vt 0.908345 0.526838
vt 0.908345 0.681817
vt 0.908345 0.681817
vt 0.850019 0.681817
vt 0.850019 0.526838
vt 0.352154 0.058357
vt 0.352154 0.00405
vt 0.631768 0.00405
vt 0.631768 0.00405
vt 0.631768 0.058357
vt 0.352154 0.058357
vt 0.10264 0.148492
vt 0.164852 0.148492
vt 0.10264 0.28086
vt 0.164852 0.148492
vt 0.164852 0.28086
vt 0.10264 0.28086
vt 0.827209 0.27979
vt 0.883977 0.156638
vt 0.827209 0.156638
vt 0.827209 0.27979
vt 0.883977 0.27979
vt 0.883977 0.156638
vt 0.883977 0.27979
vt 0.827209 0.156638
vt 0.883977 0.156638
vt 0.883977 0.27979
vt 0.827209 0.27979
vt 0.827209 0.156638
vt 0.615043 0.867839
vt 0.622613 0.876088
vt 0.615043 0.876088
vt 0.615043 0.867839
vt 0.622613 0.867839
vt 0.622613 0.876088
vt 0.252973 0.521289
vt 0.214204 0.521289
vt 0.252973 0.521289
vt 0.622613 0.867839
vt 0.615043 0.867839
vt 0.615043 0.876088
vt 0.376441 0.341005
vt 0.402521 0.341005
vt 0.376441 0.349639
vt 0.402521 0.341005
vt 0.402521 0.349639
vt 0.376441 0.349639
vt 0.593782 0.329994
vt 0.608006 0.441256
vt 0.609398 0.330239
vt 0.593782 0.329994
vt 0.59239 0.441012
vt 0.608006 0.441256
vt 0.59239 0.441012
vt 0.609398 0.330239
vt 0.608006 0.441256
vt 0.59239 0.441012
vt 0.593782 0.329994
vt 0.609398 0.330239
vt 0.374095 0.402918
vt 0.40469 0.475018
vt 0.374095 0.475018
vt 0.374095 0.402918
vt 0.40469 0.402918
vt 0.40469 0.475018
vt 0.404152 0.237772
vt 0.373558 0.309872
vt 0.404152 0.309872
vt 0.404152 0.237772
vt 0.373558 0.237772
vt 0.373558 0.309872
vt 0.10264 0.28086
vt 0.164852 0.148492
vt 0.10264 0.148492
vt 0.10264 0.28086
vt 0.164852 0.28086
vt 0.164852 0.148492
vt 0.827209 0.156638
vt 0.883977 0.156638
vt 0.827209 0.27979
vt 0.883977 0.156638
vt 0.883977 0.27979
vt 0.827209 0.27979
vt 0.883977 0.156638
vt 0.827209 0.156638
vt 0.883977 0.27979
vt 0.827209 0.156638
vt 0.827209 0.27979
vt 0.883977 0.27979
vt 0.615043 0.876088
vt 0.622613 0.876088
vt 0.615043 0.867839
vt 0.622613 0.876088
vt 0.622613 0.867839
vt 0.615043 0.867839
vt 0.252973 0.521289
vt 0.214204 0.521289
vt 0.252973 0.521289
vt 0.615043 0.876088
vt 0.615043 0.867839
vt 0.622613 0.867839
vt 0.615017 0.357846
vt 0.588936 0.349212
vt 0.615017 0.349212
vt 0.615017 0.357846
vt 0.588936 0.357846
vt 0.588936 0.349212
vt 0.609398 0.330239
vt 0.608006 0.441256
vt 0.593782 0.329994
vt 0.608006 0.441256
vt 0.59239 0.441012
vt 0.593782 0.329994
vt 0.608006 0.441256
vt 0.609398 0.330239
vt 0.59239 0.441012
vt 0.609398 0.330239
vt 0.593782 0.329994
vt 0.59239 0.441012
vt 0.616461 0.491822
vt 0.586099 0.491822
vt 0.616461 0.40398
vt 0.586099 0.491822
vt 0.586099 0.40398
vt 0.616461 0.40398
vt 0.585561 0.326676
vt 0.615923 0.326676
vt 0.585561 0.238834
vt 0.615923 0.326676
vt 0.615923 0.238834
vt 0.585561 0.238834

# 327 Vertex Normals
vn 0.0 0.0 1.0
vn 0.0 0.0 1.0
vn 0.0 0.0 1.0
vn 0.0 0.0 1.0
vn 0.0 0.0 1.0
vn 0.0 0.0 1.0
vn 0.0 0.0 1.0
vn 0.0 0.0 1.0
vn 0.0 0.0 1.0
vn 0.0 0.0 1.0
vn 0.0 0.0 1.0
vn 0.0 0.0 1.0
vn -1.0 0.0 0.0
vn -1.0 0.0 0.0
vn -1.0 0.0 0.0
vn -1.0 0.0 0.0
vn -1.0 0.0 0.0
vn -1.0 0.0 0.0
vn 1.0 0.0 0.0
vn 1.0 0.0 0.0
vn 1.0 0.0 0.0
vn 1.0 0.0 0.0
vn 1.0 0.0 0.0
vn 1.0 0.0 0.0
vn 0.0 1.0 0.0
vn 0.0 1.0 0.0
vn 0.0 1.0 0.0
vn 0.0 1.0 0.0
vn 0.0 1.0 0.0
vn 0.0 1.0 0.0
vn 0.0 -1.0 0.0
vn 0.0 -1.0 0.0
vn 0.0 -1.0 0.0
vn 0.0 -1.0 0.0
vn 0.0 -1.0 0.0
vn 0.0 -1.0 0.0
vn 0.0 0.0 1.0
vn 0.0 0.0 1.0
vn 0.0 0.0 1.0
vn 0.0 0.0 1.0
vn 0.0 0.0 1.0
vn 0.0 0.0 1.0
vn -1.0 0.0 0.0
vn -1.0 0.0 0.0
vn -1.0 0.0 0.0
vn -1.0 0.0 0.0
vn -1.0 0.0 0.0
vn -1.0 0.0 0.0
vn 1.0 0.0 0.0
vn 1.0 0.0 0.0
vn 1.0 0.0 0.0
vn 1.0 0.0 0.0
vn 1.0 0.0 0.0
vn 1.0 0.0 0.0
vn 0.0 1.0 0.0
vn 0.0 1.0 0.0
vn 0.0 1.0 0.0
vn 0.0 1.0 0.0
vn 0.0 1.0 0.0
vn 0.0 1.0 0.0
vn 0.0 -1.0 0.0
vn 0.0 -1.0 0.0
vn 0.0 -1.0 0.0
vn 0.0 -1.0 0.0
vn 0.0 -1.0 0.0
vn 0.0 -1.0 0.0
vn 0.0 0.0 1.0
vn 0.0 0.0 1.0
vn 0.0 0.0 1.0
vn 0.0 0.0 1.0
vn 0.0 0.0 1.0
vn 0.0 0.0 1.0
vn -1.0 0.0 0.0
vn -1.0 0.0 0.0
vn -1.0 0.0 0.0
vn -1.0 0.0 0.0
vn -1.0 0.0 0.0
vn -1.0 0.0 0.0
vn 1.0 0.0 0.0
vn 1.0 0.0 0.0
vn 1.0 0.0 0.0
vn 1.0 0.0 0.0
vn 1.0 0.0 0.0
vn 1.0 0.0 0.0
vn 0.0 1.0 0.0
vn 0.0 1.0 0.0
vn 0.0 1.0 0.0
vn 0.0 1.0 0.0
vn 0.0 1.0 0.0
vn 0.0 1.0 0.0
vn 0.0 -1.0 0.000003
vn 0.0 -1.0 0.000003
vn 0.0 -1.0 0.000003
vn 0.0 -1.0 0.000003
vn 0.0 -1.0 0.000003
vn 0.0 -1.0 0.000003
vn 0.0 0.0 1.0
vn 0.0 0.0 1.0
vn 0.0 0.0 1.0
vn -0.109204 0.994019 0.0
vn -0.810253 0.58608 0.000001
vn -0.810253 0.58608 0.000001
vn -0.109204 0.994019 0.0
vn 0.109204 0.994019 0.0
vn -0.810253 0.58608 0.000001
vn 0.109204 0.994019 0.0
vn 0.810253 0.58608 0.0
vn 0.810253 0.58608 0.0
vn 0.109204 0.994019 0.0
vn -0.109204 0.994019 0.0
vn 0.810253 0.58608 0.0
vn 0.0 -1.0 0.0
vn 0.0 -1.0 0.0
vn 0.0 -1.0 0.0
vn 0.0 -1.0 0.0
vn 0.0 -1.0 0.0
vn 0.0 -1.0 0.0
vn 0.810253 0.58608 0.0
vn 1.0 0.0 0.0
vn 1.0 0.0 0.0
vn 1.0 0.0 0.0
vn 0.810253 0.58608 0.0
vn 0.810253 0.58608 0.0
vn 0.0 0.0 1.0
vn 0.0 0.0 1.0
vn 0.0 0.0 1.0
vn 0.0 0.0 1.0
vn 0.0 0.0 1.0
vn 0.0 0.0 1.0
vn -0.810253 0.58608 0.000001
vn -1.0 0.0 0.000002
vn -1.0 0.0 0.000002
vn -1.0 0.0 0.000002
vn -0.810253 0.58608 0.000001
vn -0.810253 0.58608 0.000001
vn 0.0 0.0 1.0
vn 0.0 0.0 1.0
vn 0.0 0.0 1.0
vn 0.0 0.0 1.0
vn 0.0 0.0 1.0
vn 0.0 0.0 1.0
vn -1.0 0.0 0.0
vn -1.0 0.0 0.0
vn -1.0 0.0 0.0
vn -1.0 0.0 0.0
vn -1.0 0.0 0.0
vn -1.0 0.0 0.0
vn 1.0 0.0 0.0
vn 1.0 0.0 0.0
vn 1.0 0.0 0.0
vn 1.0 0.0 0.0
vn 1.0 0.0 0.0
vn 1.0 0.0 0.0
vn 0.0 1.0 0.0
vn 0.0 1.0 0.0
vn 0.0 1.0 0.0
vn 0.0 1.0 0.0
vn 0.0 1.0 0.0
vn 0.0 1.0 0.0
vn 0.0 0.0 1.0
vn 0.0 0.0 1.0
vn 0.0 0.0 1.0
vn 0.0 0.0 1.0
vn 0.0 0.0 1.0
vn 0.0 0.0 1.0
vn -1.0 0.0 0.0
vn -1.0 0.0 0.0
vn -1.0 0.0 0.0
vn -1.0 0.0 0.0
vn -1.0 0.0 0.0
vn -1.0 0.0 0.0
vn 1.0 0.0 0.0
vn 1.0 0.0 0.0
vn 1.0 0.0 0.0
vn 1.0 0.0 0.0
vn 1.0 0.0 0.0
vn 1.0 0.0 0.0
vn 0.0 1.0 0.0
vn 0.0 1.0 0.0
vn 0.0 1.0 0.0
vn 0.0 1.0 0.0
vn 0.0 1.0 0.0
vn 0.0 1.0 0.0
vn -0.0 0.999976 -0.007001
vn -0.0 0.999976 -0.006999
vn -0.0 0.999976 -0.007001
vn -0.0 0.999976 -0.007001
vn 0.0 0.999976 -0.007002
vn -0.0 0.999976 -0.007001
vn 0.0 -0.00366 0.999993
vn 0.0 0.877292 0.479958
vn 0.0 0.436231 0.899835
vn 0.0 0.436231 0.899835
vn 0.0 -0.00366 0.999993
vn 0.0 -0.00366 0.999993
vn 0.0 0.877292 0.479958
vn 0.0 0.436045 0.899925
vn 0.0 0.877265 0.480006
vn 0.0 0.877265 0.480006
vn 0.0 0.436231 0.899835
vn 0.0 0.877292 0.479958
vn 0.0 0.436045 0.899925
vn 0.0 -0.003921 0.999992
vn 0.0 -0.003921 0.999992
vn 0.0 -0.003921 0.999992
vn 0.0 0.877265 0.480006
vn 0.0 0.436045 0.899925
vn 0.0 0.0 1.0
vn 0.0 0.0 1.0
vn 0.0 0.0 1.0
vn 0.0 0.0 1.0
vn 0.0 0.0 1.0
vn 0.0 0.0 1.0
vn -1.0 0.0 0.0
vn -1.0 0.0 0.0
vn -1.0 0.0 0.0
vn -1.0 0.0 0.0
vn -1.0 0.0 0.0
vn -1.0 0.0 0.0
vn 1.0 0.0 0.0
vn 1.0 0.0 0.0
vn 1.0 0.0 0.0
vn 1.0 0.0 0.0
vn 1.0 0.0 0.0
vn 1.0 0.0 0.0
vn 0.0 1.0 0.0
vn 0.0 1.0 0.0
vn 0.0 1.0 0.0
vn 0.0 1.0 0.0
vn 0.0 1.0 0.0
vn 0.0 1.0 0.0
vn 0.0 -1.0 0.0
vn 0.0 -1.0 0.0
vn 0.0 -1.0 0.0
vn 0.0 -1.0 0.0
vn 0.0 -1.0 0.0
vn 0.0 -1.0 0.0
vn 0.0 0.0 1.0
vn 0.0 0.0 1.0
vn 0.0 0.0 1.0
vn 0.0 0.0 1.0
vn 0.0 0.0 1.0
vn 0.0 0.0 1.0
vn -1.0 0.0 0.0
vn -1.0 0.0 0.0
vn -1.0 0.0 0.0
vn -1.0 0.0 0.0
vn -1.0 0.0 0.0
vn -1.0 0.0 0.0
vn 1.0 0.0 0.0
vn 1.0 0.0 0.0
vn 1.0 0.0 0.0
vn 1.0 0.0 0.0
vn 1.0 0.0 0.0
vn 1.0 0.0 0.0
vn 0.0 1.0 0.0
vn 0.0 1.0 0.0
vn 0.0 1.0 0.0
vn 0.0 1.0 0.0
vn 0.0 1.0 0.0
vn 0.0 1.0 0.0
vn 0.0 -1.0 0.0
vn 0.0 -1.0 0.0
vn 0.0 -1.0 0.0
vn 0.0 -1.0 0.0
vn 0.0 -1.0 0.0
vn 0.0 -1.0 0.0
vn 0.0 0.0 1.0
vn 0.0 0.0 1.0
vn 0.0 0.0 1.0
vn 0.0 0.0 1.0
vn 0.0 0.0 1.0
vn 0.0 0.0 1.0
vn 1.0 0.0 0.0
vn 1.0 0.0 0.0
vn 1.0 0.0 0.0
vn 1.0 0.0 0.0
vn 1.0 0.0 0.0
vn 1.0 0.0 0.0
vn -1.0 0.0 0.0
vn -1.0 0.0 0.0
vn -1.0 0.0 0.0
vn -1.0 0.0 0.0
vn -1.0 0.0 0.0
vn -1.0 0.0 0.0
vn 0.0 1.0 0.0
vn 0.0 1.0 0.0
vn 0.0 1.0 0.0
vn 0.0 1.0 0.0
vn 0.0 1.0 0.0
vn 0.0 1.0 0.0
vn 0.0 -1.0 0.0
vn 0.0 -1.0 0.0
vn 0.0 -1.0 0.0
vn 0.0 -1.0 0.0
vn 0.0 -1.0 0.0
vn 0.0 -1.0 0.0
vn 0.0 0.0 1.0
vn 0.0 0.0 1.0
vn 0.0 0.0 1.0
vn 0.0 0.0 1.0
vn 0.0 0.0 1.0
vn 0.0 0.0 1.0
vn 1.0 0.0 0.0
vn 1.0 0.0 0.0
vn 1.0 0.0 0.0
vn 1.0 0.0 0.0
vn 1.0 0.0 0.0
vn 1.0 0.0 0.0
vn -1.0 0.0 0.0
vn -1.0 0.0 0.0
vn -1.0 0.0 0.0
vn -1.0 0.0 0.0
vn -1.0 0.0 0.0
vn -1.0 0.0 0.0
vn 0.0 1.0 0.0
vn 0.0 1.0 0.0
vn 0.0 1.0 0.0
vn 0.0 1.0 0.0
vn 0.0 1.0 0.0
vn 0.0 1.0 0.0
vn 0.0 -1.0 0.0
vn 0.0 -1.0 0.0
vn 0.0 -1.0 0.0
vn 0.0 -1.0 0.0
vn 0.0 -1.0 0.0
vn 0.0 -1.0 0.0

# group, 109 grouped triangles

usemtl shop.jpg
o group
g group

f 3/1/1 4/2/2 2/3/3
f 2/4/4 1/5/5 3/6/6
f 5/7/7 6/8/8 7/9/9
f 6/10/10 8/11/11 7/12/12
f 7/13/13 10/14/14 5/15/15
f 7/16/16 12/17/17 10/18/18
f 11/19/19 6/20/20 9/21/21
f 11/22/22 8/23/23 6/24/24
f 7/25/25 11/26/26 12/27/27
f 7/28/28 8/29/29 11/30/30
f 6/31/31 10/32/32 9/33/33
f 6/34/34 5/35/35 10/36/36
f 13/37/37 14/38/38 15/39/39
f 14/40/40 16/41/41 15/42/42
f 15/43/43 18/44/44 13/45/45
f 15/46/46 20/47/47 18/48/48
f 19/49/49 14/50/50 17/51/51
f 19/52/52 16/53/53 14/54/54
f 15/55/55 19/56/56 20/57/57
f 15/58/58 16/59/59 19/60/60
f 14/61/61 18/62/62 17/63/63
f 14/64/64 13/65/65 18/66/66
f 21/67/67 22/68/68 23/69/69
f 22/70/70 24/71/71 23/72/72
f 23/73/73 26/74/74 21/75/75
f 23/76/76 28/77/77 26/78/78
f 27/79/79 22/80/80 25/81/81
f 27/82/82 24/83/83 22/84/84
f 23/85/85 27/86/86 28/87/87
f 23/88/88 24/89/89 27/90/90
f 22/91/91 26/92/92 25/93/93
f 22/94/94 21/95/95 26/96/96
f 29/97/97 30/98/98 31/99/99
f 31/100/100 33/101/101 29/102/102
f 31/103/103 34/104/104 33/105/105
f 34/106/106 30/107/107 32/108/108
f 34/109/109 31/110/110 30/111/111
f 36/112/112 38/113/113 37/114/114
f 36/115/115 35/116/116 38/117/117
f 30/118/118 36/119/119 37/120/120
f 37/121/121 32/122/122 30/123/123
f 29/124/124 35/125/125 36/126/126
f 36/127/127 30/128/128 29/129/129
f 33/130/130 38/131/131 35/132/132
f 35/133/133 29/134/134 33/135/135
f 39/136/136 40/137/137 41/138/138
f 40/139/139 42/140/140 41/141/141
f 41/142/142 44/143/143 39/144/144
f 41/145/145 46/146/146 44/147/147
f 45/148/148 40/149/149 43/150/150
f 45/151/151 42/152/152 40/153/153
f 41/154/154 45/155/155 46/156/156
f 41/157/157 42/158/158 45/159/159
f 47/160/160 48/161/161 49/162/162
f 48/163/163 50/164/164 49/165/165
f 49/166/166 52/167/167 47/168/168
f 49/169/169 54/170/170 52/171/171
f 53/172/172 48/173/173 51/174/174
f 53/175/175 50/176/176 48/177/177
f 49/178/178 53/179/179 54/180/180
f 49/181/181 50/182/182 53/183/183
f 55/184/184 56/185/185 58/186/186
f 58/187/187 57/188/188 55/189/189
f 56/190/190 59/191/191 60/192/192
f 60/193/193 58/194/194 56/195/195
f 59/196/196 61/197/197 62/198/198
f 62/199/199 60/200/200 59/201/201
f 61/202/202 63/203/203 64/204/204
f 64/205/205 62/206/206 61/207/207
f 65/208/208 66/209/209 67/210/210
f 66/211/211 68/212/212 67/213/213
f 67/214/214 70/215/215 65/216/216
f 67/217/217 72/218/218 70/219/219
f 71/220/220 66/221/221 69/222/222
f 71/223/223 68/224/224 66/225/225
f 67/226/226 71/227/227 72/228/228
f 67/229/229 68/230/230 71/231/231
f 66/232/232 70/233/233 69/234/234
f 66/235/235 65/236/236 70/237/237
f 73/238/238 74/239/239 75/240/240
f 74/241/241 76/242/242 75/243/243
f 75/244/244 78/245/245 73/246/246
f 75/247/247 80/248/248 78/249/249
f 79/250/250 74/251/251 77/252/252
f 79/253/253 76/254/254 74/255/255
f 75/256/256 79/257/257 80/258/258
f 75/259/259 76/260/260 79/261/261
f 74/262/262 78/263/263 77/264/264
f 74/265/265 73/266/266 78/267/267
f 83/268/268 82/269/269 81/270/270
f 83/271/271 84/272/272 82/273/273
f 81/274/274 86/275/275 83/276/276
f 86/277/277 88/278/278 83/279/279
f 85/280/280 82/281/281 87/282/282
f 82/283/283 84/284/284 87/285/285
f 88/286/286 87/287/287 83/288/288
f 87/289/289 84/290/290 83/291/291
f 85/292/292 86/293/293 82/294/294
f 86/295/295 81/296/296 82/297/297
f 91/298/298 90/299/299 89/300/300
f 91/301/301 92/302/302 90/303/303
f 89/304/304 94/305/305 91/306/306
f 94/307/307 96/308/308 91/309/309
f 93/310/310 90/311/311 95/312/312
f 90/313/313 92/314/314 95/315/315
f 96/316/316 95/317/317 91/318/318
f 95/319/319 92/320/320 91/321/321
f 93/322/322 94/323/323 90/324/324
f 94/325/325 89/326/326 90/327/327
