# Wavefront OBJ file
# Exported by Maverick Model 3D 1.3.15
# Mon Sep 14 12:00:07 2026

mtllib shop.mtl

# 68 Vertices
v -0.827 3.537 5.255
v 3.276 3.537 5.255
v -0.827 4.726 5.255
v 3.276 4.726 5.255
v 3.276 3.537 5.173
v -0.827 3.537 5.173
v 3.276 4.726 5.173
v -0.827 4.726 5.173
v -5.0 3.408 4.999
v -5.0 3.482 5.249
v -5.0 3.549 5.184
v -5.0 4.843 5.184
v -5.0 4.913 5.238
v -5.0 4.991 4.999
v 5.0 3.408 4.999
v 5.0 3.482 5.249
v 5.0 3.549 5.184
v 5.0 4.843 5.184
v 5.0 4.913 5.238
v 5.0 4.991 4.999
v -2.759 3.177 4.257
v -1.381 3.177 4.257
v -2.759 0.0 4.257
v -1.381 0.0 4.257
v 5.0 5.0 5.0
v 5.0 0.0 5.0
v -5.0 5.0 5.0
v -5.0 0.0 5.0
v -2.759 3.177 5.0
v -1.381 3.177 5.0
v -2.759 0.0 5.0
v -1.381 0.0 5.0
v -1.374 0.0 4.999
v -1.374 0.218 4.999
v -1.374 0.218 4.647
v -2.753 0.0 4.999
v -2.753 0.218 4.647
v -2.753 0.218 4.999
v -1.374 0.218 4.644
v -1.374 0.437 4.644
v -1.374 0.437 4.254
v -2.753 0.218 4.644
v -2.753 0.437 4.254
v -2.753 0.437 4.644
v -4.727 1.178 5.108
v -3.018 1.178 5.108
v -4.727 1.207 5.108
v -3.018 1.207 5.108
v -3.018 1.178 4.99
v -4.727 1.178 4.99
v -3.018 1.207 4.99
v -4.727 1.207 4.99
v -1.079 1.202 5.108
v 0.813 1.202 5.108
v -1.079 1.23 5.108
v 0.813 1.23 5.108
v 0.813 1.202 4.99
v -1.079 1.202 4.99
v 0.813 1.23 4.99
v -1.079 1.23 4.99
v 1.664 1.202 5.108
v 3.338 1.202 5.108
v 1.664 1.23 5.108
v 3.338 1.23 5.108
v 3.338 1.202 4.99
v 1.664 1.202 4.99
v 3.338 1.23 4.99
v 1.664 1.23 4.99

# 246 Texture Coordinates
vt 0.354976 0.049418
vt 0.231868 0.006584
vt 0.354976 0.006584
vt 0.354976 0.049418
vt 0.231868 0.049418
vt 0.231868 0.006584
vt 0.349259 0.022854
vt 0.243445 0.04799
vt 0.243445 0.022854
vt 0.349259 0.022854
vt 0.349259 0.04799
vt 0.243445 0.04799
vt 0.354976 0.093018
vt 0.231868 0.049418
vt 0.354976 0.049418
vt 0.354976 0.093018
vt 0.231868 0.093018
vt 0.231868 0.049418
vt 0.349259 0.048283
vt 0.243445 0.092387
vt 0.243445 0.048283
vt 0.349259 0.048283
vt 0.349259 0.092387
vt 0.243445 0.092387
vt 0.354976 0.049418
vt 0.231868 0.049418
vt 0.231868 0.049418
vt 0.354976 0.049418
vt 0.354976 0.049418
vt 0.231868 0.049418
vt 0.418652 0.718375
vt 0.828881 0.718375
vt 0.418652 0.938369
vt 0.828881 0.718375
vt 0.828881 0.938369
vt 0.418652 0.938369
vt 0.418652 0.938369
vt 0.418652 0.718375
vt 0.418652 0.718375
vt 0.418652 0.938369
vt 0.418652 0.938369
vt 0.418652 0.718375
vt 0.828881 0.938369
vt 0.828881 0.718375
vt 0.828881 0.718375
vt 0.828881 0.938369
vt 0.828881 0.938369
vt 0.828881 0.718375
vt 0.418652 0.938369
vt 0.828881 0.938369
vt 0.418652 0.938369
vt 0.418652 0.938369
vt 0.828881 0.938369
vt 0.828881 0.938369
vt 0.828881 0.718375
vt 0.418652 0.718375
vt 0.828881 0.718375
vt 0.828881 0.718375
vt 0.418652 0.718375
vt 0.418652 0.718375
vt 1.0 0.743325
vt 1.0 0.731387
vt 1.0 0.718254
vt 1.0 1.0
vt 1.0 0.986178
vt 1.0 0.973736
vt 1.0 1.0
vt 1.0 0.973736
vt 1.0 0.743325
vt 1.0 1.0
vt 1.0 0.743325
vt 1.0 0.718254
vt 1.0 0.718254
vt 1.0 0.731387
vt 0.00342 0.731387
vt 0.00342 0.731387
vt 0.00342 0.718254
vt 1.0 0.718254
vt 1.0 0.731387
vt 1.0 0.743325
vt 0.00342 0.743325
vt 0.00342 0.743325
vt 0.00342 0.731387
vt 1.0 0.731387
vt 1.0 0.973736
vt 1.0 0.986178
vt 0.00342 0.986178
vt 0.00342 0.986178
vt 0.00342 0.973736
vt 1.0 0.973736
vt 1.0 0.986178
vt 1.0 1.0
vt 0.00342 1.0
vt 0.00342 1.0
vt 0.00342 0.986178
vt 1.0 0.986178
vt 1.0 0.743325
vt 1.0 0.973736
vt 0.00342 0.973736
vt 0.00342 0.973736
vt 0.00342 0.743325
vt 1.0 0.743325
vt 0.00342 0.718254
vt 0.00342 0.731387
vt 0.00342 0.743325
vt 0.00342 0.973736
vt 0.00342 0.986178
vt 0.00342 1.0
vt 0.00342 0.743325
vt 0.00342 0.973736
vt 0.00342 1.0
vt 0.00342 0.718254
vt 0.00342 0.743325
vt 0.00342 1.0
vt 0.0 1.0
vt 0.0 0.0
vt 0.224117 0.635352
vt 1.0 0.0
vt 1.0 1.0
vt 0.361878 0.635352
vt 0.0 1.0
vt 0.361878 0.635352
vt 1.0 1.0
vt 0.0 1.0
vt 0.224117 0.635352
vt 0.361878 0.635352
vt 1.0 0.0
vt 0.361878 0.635352
vt 0.361878 0.0
vt 0.0 0.0
vt 0.224117 0.0
vt 0.224117 0.635352
vt 0.361878 0.635352
vt 0.361878 0.635352
vt 0.224117 0.635352
vt 0.224117 0.635352
vt 0.224117 0.635352
vt 0.361878 0.635352
vt 0.387023 0.000847
vt 0.361491 0.000847
vt 0.361491 0.632023
vt 0.361491 0.632023
vt 0.387023 0.632023
vt 0.387023 0.000847
vt 0.387023 0.632023
vt 0.361491 0.632023
vt 0.361491 0.000847
vt 0.361491 0.000847
vt 0.387023 0.000847
vt 0.387023 0.632023
vt 0.224117 0.0
vt 0.361878 0.635352
vt 0.224117 0.635352
vt 0.361878 0.635352
vt 0.224117 0.0
vt 0.361878 0.0
vt 0.028402 0.231652
vt 0.198609 0.231652
vt 0.028402 0.24312
vt 0.198609 0.231652
vt 0.198609 0.24312
vt 0.028402 0.24312
vt 0.028402 0.24312
vt 0.028402 0.231652
vt 0.028402 0.231652
vt 0.028402 0.24312
vt 0.028402 0.24312
vt 0.028402 0.231652
vt 0.198609 0.24312
vt 0.198609 0.231652
vt 0.198609 0.231652
vt 0.198609 0.24312
vt 0.198609 0.24312
vt 0.198609 0.231652
vt 0.028402 0.24312
vt 0.198609 0.24312
vt 0.028402 0.24312
vt 0.028402 0.24312
vt 0.198609 0.24312
vt 0.198609 0.24312
vt 0.198609 0.231652
vt 0.028402 0.231652
vt 0.198609 0.231652
vt 0.198609 0.231652
vt 0.028402 0.231652
vt 0.028402 0.231652
vt 0.028402 0.231652
vt 0.198609 0.231652
vt 0.028402 0.24312
vt 0.198609 0.231652
vt 0.198609 0.24312
vt 0.028402 0.24312
vt 0.028402 0.24312
vt 0.028402 0.231652
vt 0.028402 0.231652
vt 0.028402 0.24312
vt 0.028402 0.24312
vt 0.028402 0.231652
vt 0.198609 0.24312
vt 0.198609 0.231652
vt 0.198609 0.231652
vt 0.198609 0.24312
vt 0.198609 0.24312
vt 0.198609 0.231652
vt 0.028402 0.24312
vt 0.198609 0.24312
vt 0.028402 0.24312
vt 0.028402 0.24312
vt 0.198609 0.24312
vt 0.198609 0.24312
vt 0.198609 0.231652
vt 0.028402 0.231652
vt 0.198609 0.231652
vt 0.198609 0.231652
vt 0.028402 0.231652
vt 0.028402 0.231652
vt 0.028402 0.231652
vt 0.198609 0.231652
vt 0.028402 0.24312
vt 0.198609 0.231652
vt 0.198609 0.24312
vt 0.028402 0.24312
vt 0.028402 0.24312
vt 0.028402 0.231652
vt 0.028402 0.231652
vt 0.028402 0.24312
vt 0.028402 0.24312
vt 0.028402 0.231652
vt 0.198609 0.24312
vt 0.198609 0.231652
vt 0.198609 0.231652
vt 0.198609 0.24312
vt 0.198609 0.24312
vt 0.198609 0.231652
vt 0.028402 0.24312
vt 0.198609 0.24312
vt 0.028402 0.24312
vt 0.028402 0.24312
vt 0.198609 0.24312
vt 0.198609 0.24312
vt 0.198609 0.231652
vt 0.028402 0.231652
vt 0.198609 0.231652
vt 0.198609 0.231652
vt 0.028402 0.231652
vt 0.028402 0.231652

# 246 Vertex Normals
vn 0.0 0.0 1.0
vn 0.0 0.0 1.0
vn 0.0 0.0 1.0
vn 0.0 0.0 1.0
vn 0.0 0.0 1.0
vn 0.0 0.0 1.0
vn 0.0 1.0 0.0
vn 0.0 1.0 0.0
vn 0.0 1.0 0.0
vn 0.0 1.0 0.0
vn 0.0 1.0 0.0
vn 0.0 1.0 0.0
vn 0.0 0.0 1.0
vn 0.0 0.0 1.0
vn 0.0 0.0 1.0
vn 0.0 0.0 1.0
vn 0.0 0.0 1.0
vn 0.0 0.0 1.0
vn 0.0 1.0 0.0
vn 0.0 1.0 0.0
vn 0.0 1.0 0.0
vn 0.0 1.0 0.0
vn 0.0 1.0 0.0
vn 0.0 1.0 0.0
vn 0.0 1.0 0.0
vn 0.0 1.0 0.0
vn 0.0 1.0 0.0
vn 0.0 1.0 0.0
vn 0.0 1.0 0.0
vn 0.0 1.0 0.0
vn 0.0 0.0 1.0
vn 0.0 0.0 1.0
vn 0.0 0.0 1.0
vn 0.0 0.0 1.0
vn 0.0 0.0 1.0
vn 0.0 0.0 1.0
vn -1.0 0.0 0.0
vn -1.0 0.0 0.0
vn -1.0 0.0 0.0
vn -1.0 0.0 0.0
vn -1.0 0.0 0.0
vn -1.0 0.0 0.0
vn 1.0 0.0 0.0
vn 1.0 0.0 0.0
vn 1.0 0.0 0.0
vn 1.0 0.0 0.0
vn 1.0 0.0 0.0
vn 1.0 0.0 0.0
vn 0.0 1.0 0.0
vn 0.0 1.0 0.0
vn 0.0 1.0 0.0
vn 0.0 1.0 0.0
vn 0.0 1.0 0.0
vn 0.0 1.0 0.0
vn 0.0 -1.0 0.0
vn 0.0 -1.0 0.0
vn 0.0 -1.0 0.0
vn 0.0 -1.0 0.0
vn 0.0 -1.0 0.0
vn 0.0 -1.0 0.0
vn 1.0 0.0 -0.0
vn 1.0 0.0 0.0
vn 1.0 0.0 0.0
vn 1.0 0.0 -0.0
vn 1.0 0.0 0.0
vn 1.0 0.0 -0.0
vn 1.0 0.0 -0.0
vn 1.0 0.0 -0.0
vn 1.0 0.0 -0.0
vn 1.0 0.0 -0.0
vn 1.0 0.0 -0.0
vn 1.0 0.0 0.0
vn 0.0 -0.958942 0.283604
vn 0.0 -0.958942 0.283604
vn 0.0 -0.958942 0.283604
vn 0.0 -0.958942 0.283604
vn 0.0 -0.958942 0.283604
vn 0.0 -0.958942 0.283604
vn 0.0 0.694386 0.719603
vn 0.0 0.24739 0.968916
vn 0.0 0.494779 0.869019
vn 0.0 0.494779 0.869019
vn 0.0 0.694386 0.719603
vn 0.0 0.694386 0.719603
vn 0.0 -0.428196 0.903686
vn 0.0 -0.611745 0.791055
vn 0.0 -0.611745 0.791055
vn 0.0 -0.611745 0.791055
vn 0.0 -0.214098 0.976812
vn 0.0 -0.428196 0.903686
vn 0.0 0.950986 0.309235
vn 0.0 0.950986 0.309235
vn 0.0 0.950986 0.309235
vn 0.0 0.950986 0.309235
vn 0.0 0.950986 0.309235
vn 0.0 0.950986 0.309235
vn 0.0 0.24739 0.968916
vn 0.0 -0.428196 0.903686
vn 0.0 -0.214098 0.976812
vn 0.0 -0.214098 0.976812
vn 0.0 0.494779 0.869019
vn 0.0 0.24739 0.968916
vn -1.0 0.0 -0.000001
vn -1.0 0.0 -0.000001
vn -1.0 0.0 -0.000001
vn -1.0 0.0 0.000001
vn -1.0 0.0 0.000001
vn -1.0 0.0 0.0
vn -1.0 0.0 -0.000001
vn -1.0 0.0 0.000001
vn -1.0 0.0 0.0
vn -1.0 0.0 -0.000001
vn -1.0 0.0 -0.000001
vn -1.0 0.0 0.0
vn 0.0 -0.0 1.0
vn 0.0 0.0 1.0
vn 0.0 0.0 1.0
vn 0.0 0.0 1.0
vn 0.0 -0.0 1.0
vn 0.0 -0.0 1.0
vn 0.0 -0.0 1.0
vn 0.0 -0.0 1.0
vn 0.0 -0.0 1.0
vn 0.0 -0.0 1.0
vn 0.0 0.0 1.0
vn 0.0 -0.0 1.0
vn 0.0 0.0 1.0
vn 0.0 -0.0 1.0
vn 0.0 0.0 1.0
vn 0.0 0.0 1.0
vn 0.0 0.0 1.0
vn 0.0 0.0 1.0
vn 0.0 -1.0 0.0
vn 0.0 -1.0 0.0
vn 0.0 -1.0 0.0
vn 0.0 -1.0 0.0
vn 0.0 -1.0 0.0
vn 0.0 -1.0 0.0
vn -1.0 0.0 0.0
vn -1.0 0.0 0.0
vn -1.0 0.0 0.0
vn -1.0 0.0 0.0
vn -1.0 0.0 0.0
vn -1.0 0.0 0.0
vn 1.0 0.0 0.0
vn 1.0 0.0 0.0
vn 1.0 0.0 0.0
vn 1.0 0.0 0.0
vn 1.0 0.0 0.0
vn 1.0 0.0 0.0
vn 0.0 0.0 1.0
vn 0.0 0.0 1.0
vn 0.0 0.0 1.0
vn 0.0 0.0 1.0
vn 0.0 0.0 1.0
vn 0.0 0.0 1.0
vn 0.0 0.0 1.0
vn 0.0 0.0 1.0
vn 0.0 0.0 1.0
vn 0.0 0.0 1.0
vn 0.0 0.0 1.0
vn 0.0 0.0 1.0
vn -1.0 0.0 0.0
vn -1.0 0.0 0.0
vn -1.0 0.0 0.0
vn -1.0 0.0 0.0
vn -1.0 0.0 0.0
vn -1.0 0.0 0.0
vn 1.0 0.0 0.0
vn 1.0 0.0 0.0
vn 1.0 0.0 0.0
vn 1.0 0.0 0.0
vn 1.0 0.0 0.0
vn 1.0 0.0 0.0
vn 0.0 1.0 0.0
vn 0.0 1.0 0.0
vn 0.0 1.0 0.0
vn 0.0 1.0 0.0
vn 0.0 1.0 0.0
vn 0.0 1.0 0.0
vn 0.0 -1.0 0.0
vn 0.0 -1.0 0.0
vn 0.0 -1.0 0.0
vn 0.0 -1.0 0.0
vn 0.0 -1.0 0.0
vn 0.0 -1.0 0.0
vn 0.0 0.0 1.0
vn 0.0 0.0 1.0
vn 0.0 0.0 1.0
vn 0.0 0.0 1.0
vn 0.0 0.0 1.0
vn 0.0 0.0 1.0
vn -1.0 0.0 0.0
vn -1.0 0.0 0.0
vn -1.0 0.0 0.0
vn -1.0 0.0 0.0
vn -1.0 0.0 0.0
vn -1.0 0.0 0.0
vn 1.0 0.0 0.0
vn 1.0 0.0 0.0
vn 1.0 0.0 0.0
vn 1.0 0.0 0.0
vn 1.0 0.0 0.0
vn 1.0 0.0 0.0
vn 0.0 1.0 0.0
vn 0.0 1.0 0.0
vn 0.0 1.0 0.0
vn 0.0 1.0 0.0
vn 0.0 1.0 0.0
vn 0.0 1.0 0.0
vn 0.0 -1.0 0.0
vn 0.0 -1.0 0.0
vn 0.0 -1.0 0.0
vn 0.0 -1.0 0.0
vn 0.0 -1.0 0.0
vn 0.0 -1.0 0.0
vn 0.0 0.0 1.0
vn 0.0 0.0 1.0
vn 0.0 0.0 1.0
vn 0.0 0.0 1.0
vn 0.0 0.0 1.0
vn 0.0 0.0 1.0
vn -1.0 0.0 0.0
vn -1.0 0.0 0.0
vn -1.0 0.0 0.0
vn -1.0 0.0 0.0
vn -1.0 0.0 0.0
vn -1.0 0.0 0.0
vn 1.0 0.0 0.0
vn 1.0 0.0 0.0
vn 1.0 0.0 0.0
vn 1.0 0.0 0.0
vn 1.0 0.0 0.0
vn 1.0 0.0 0.0
vn 0.0 1.0 0.0
vn 0.0 1.0 0.0
vn 0.0 1.0 0.0
vn 0.0 1.0 0.0
vn 0.0 1.0 0.0
vn 0.0 1.0 0.0
vn 0.0 -1.0 0.0
vn 0.0 -1.0 0.0
vn 0.0 -1.0 0.0
vn 0.0 -1.0 0.0
vn 0.0 -1.0 0.0
vn 0.0 -1.0 0.0

# group, 82 grouped triangles

usemtl shop.jpg
o group
g group

f 34/1/1 36/2/2 33/3/3
f 34/4/4 38/5/5 36/6/6
f 34/7/7 37/8/8 38/9/9
f 34/10/10 35/11/11 37/12/12
f 40/13/13 42/14/14 39/15/15
f 40/16/16 44/17/17 42/18/18
f 40/19/19 43/20/20 44/21/21
f 40/22/22 41/23/23 43/24/24
f 35/25/25 42/26/26 37/27/27
f 35/28/28 39/29/29 42/30/30
f 1/31/31 2/32/32 3/33/33
f 2/34/34 4/35/35 3/36/36
f 3/37/37 6/38/38 1/39/39
f 3/40/40 8/41/41 6/42/42
f 7/43/43 2/44/44 5/45/45
f 7/46/46 4/47/47 2/48/48
f 3/49/49 7/50/50 8/51/51
f 3/52/52 4/53/53 7/54/54
f 2/55/55 6/56/56 5/57/57
f 2/58/58 1/59/59 6/60/60
f 17/61/61 16/62/62 15/63/63
f 20/64/64 19/65/65 18/66/66
f 20/67/67 18/68/68 17/69/69
f 20/70/70 17/71/71 15/72/72
f 15/73/73 16/74/74 10/75/75
f 10/76/76 9/77/77 15/78/78
f 16/79/79 17/80/80 11/81/81
f 11/82/82 10/83/83 16/84/84
f 18/85/85 19/86/86 13/87/87
f 13/88/88 12/89/89 18/90/90
f 19/91/91 20/92/92 14/93/93
f 14/94/94 13/95/95 19/96/96
f 17/97/97 18/98/98 12/99/99
f 12/100/100 11/101/101 17/102/102
f 9/103/103 10/104/104 11/105/105
f 12/106/106 13/107/107 14/108/108
f 11/109/109 12/110/110 14/111/111
f 9/112/112 11/113/113 14/114/114
f 27/115/115 28/116/116 29/117/117
f 26/118/118 25/119/119 30/120/120
f 27/121/121 30/122/122 25/123/123
f 27/124/124 29/125/125 30/126/126
f 26/127/127 30/128/128 32/129/129
f 28/130/130 31/131/131 29/132/132
f 22/133/133 30/134/134 29/135/135
f 29/136/136 21/137/137 22/138/138
f 24/139/139 32/140/140 30/141/141
f 30/142/142 22/143/143 24/144/144
f 21/145/145 29/146/146 31/147/147
f 31/148/148 23/149/149 21/150/150
f 23/151/151 22/152/152 21/153/153
f 22/154/154 23/155/155 24/156/156
f 45/157/157 46/158/158 47/159/159
f 46/160/160 48/161/161 47/162/162
f 47/163/163 50/164/164 45/165/165
f 47/166/166 52/167/167 50/168/168
f 51/169/169 46/170/170 49/171/171
f 51/172/172 48/173/173 46/174/174
f 47/175/175 51/176/176 52/177/177
f 47/178/178 48/179/179 51/180/180
f 46/181/181 50/182/182 49/183/183
f 46/184/184 45/185/185 50/186/186
f 53/187/187 54/188/188 55/189/189
f 54/190/190 56/191/191 55/192/192
f 55/193/193 58/194/194 53/195/195
f 55/196/196 60/197/197 58/198/198
f 59/199/199 54/200/200 57/201/201
f 59/202/202 56/203/203 54/204/204
f 55/205/205 59/206/206 60/207/207
f 55/208/208 56/209/209 59/210/210
f 54/211/211 58/212/212 57/213/213
f 54/214/214 53/215/215 58/216/216
f 61/217/217 62/218/218 63/219/219
f 62/220/220 64/221/221 63/222/222
f 63/223/223 66/224/224 61/225/225
f 63/226/226 68/227/227 66/228/228
f 67/229/229 62/230/230 65/231/231
f 67/232/232 64/233/233 62/234/234
f 63/235/235 67/236/236 68/237/237
f 63/238/238 64/239/239 67/240/240
f 62/241/241 66/242/242 65/243/243
f 62/244/244 61/245/245 66/246/246
