# Wavefront OBJ file
# Exported by Maverick Model 3D 1.3.15
# Sat Sep 19 18:26:41 2026

mtllib roof.mtl

# 68 Vertices
v 5.0 -0.003017 5.0
v 5.0 -0.003017 -5.0
v -5.0 -0.003017 5.000683
v -5.0 -0.003017 -5.0
v 5.0 0.460198 5.0
v 5.0 0.460198 -5.0
v -5.0 0.460198 5.0
v -5.0 0.460198 -5.0
v -0.051053 0.459966 4.997742
v -2.283427 0.459966 4.997742
v -1.605128 0.786236 4.997742
v -0.746523 0.957958 4.997742
v -0.076811 0.998408 4.997742
v 0.859069 0.897856 4.997742
v 1.606056 0.708963 4.997742
v 2.172735 0.459966 4.997742
v -0.051053 0.459966 5.345748
v -2.283427 0.459966 5.345748
v -1.605128 0.786236 5.345748
v -0.746523 0.957958 5.345748
v -0.076811 0.998408 5.345748
v 0.859069 0.897856 5.345748
v 1.606056 0.708963 5.345748
v 2.172735 0.459966 5.345748
v 4.493194 -0.450188 5.132084
v 4.999771 -0.450188 5.132084
v 4.493194 0.786141 5.336315
v 4.999771 0.786141 5.336315
v 4.999771 -0.450188 4.999652
v 4.493194 -0.450188 4.999652
v 4.999771 0.786141 4.999652
v 4.493194 0.786141 4.999652
v -4.99557 -0.450188 5.132084
v -4.488993 -0.450188 5.132084
v -4.99557 0.786141 5.336315
v -4.488993 0.786141 5.336315
v -4.488993 -0.450188 4.999652
v -4.99557 -0.450188 4.999652
v -4.488993 0.786141 4.999652
v -4.99557 0.786141 4.999652
v -2.144589 -0.450188 5.132084
v -1.638012 -0.450188 5.132084
v -2.144589 0.460916 5.339483
v -1.638012 0.460916 5.339483
v -1.638012 -0.450188 4.999651
v -2.144589 -0.450188 4.999651
v -1.638012 0.460916 4.999651
v -2.144589 0.460916 4.999651
v 1.600354 -0.450188 5.132084
v 2.106931 -0.450188 5.132084
v 1.600354 0.460916 5.339483
v 2.106931 0.460916 5.339483
v 2.106931 -0.450188 4.999651
v 1.600354 -0.450188 4.999651
v 2.106931 0.460916 4.999651
v 1.600354 0.460916 4.999651
v 1.604531 -0.013438 4.999652
v 1.604531 0.460916 4.999652
v -1.641881 -0.013438 4.999652
v -1.641881 0.460916 4.999652
v 4.512868 -0.013438 4.999652
v 4.512868 0.460916 4.999652
v 2.105272 -0.013438 4.999652
v 2.105272 0.460916 4.999652
v -2.144813 -0.013438 4.999652
v -2.144813 0.460916 4.999652
v -4.511218 -0.013438 4.999652
v -4.511218 0.460916 4.999652

# 270 Texture Coordinates
vt 0.010045 0.299915
vt 0.010045 0.193878
vt 0.802184 0.193878
vt 0.802184 0.193878
vt 0.802184 0.299915
vt 0.010045 0.299915
vt 0.802184 0.299915
vt 0.802184 0.193878
vt 0.009991 0.193878
vt 0.009991 0.193878
vt 0.010045 0.299915
vt 0.802184 0.299915
vt 0.808963 0.293832
vt 0.808963 0.190931
vt 0.004422 0.190931
vt 0.004422 0.190931
vt 0.004422 0.293832
vt 0.808963 0.293832
vt 0.091145 0.886278
vt -0.082114 0.745038
vt 0.488103 0.745038
vt 0.310459 0.960615
vt 0.091145 0.886278
vt 0.488103 0.745038
vt 0.481524 0.982916
vt 0.310459 0.960615
vt 0.488103 0.745038
vt 0.720576 0.934597
vt 0.481524 0.982916
vt 0.488103 0.745038
vt 0.911379 0.852827
vt 0.720576 0.934597
vt 0.488103 0.745038
vt 1.056126 0.745038
vt 0.911379 0.852827
vt 0.488103 0.745038
vt -0.082114 0.745038
vt -0.082114 0.745038
vt 0.091145 0.886278
vt 0.091145 0.886278
vt 0.091145 0.886278
vt -0.082114 0.745038
vt 0.492341 0.735416
vt 0.492341 0.791193
vt 0.199925 0.791193
vt 0.199925 0.791193
vt 0.199925 0.735416
vt 0.492341 0.735416
vt 0.091145 0.886278
vt 0.091145 0.886278
vt 0.310459 0.960615
vt 0.310459 0.960615
vt 0.310459 0.960615
vt 0.091145 0.886278
vt 0.310459 0.960615
vt 0.310459 0.960615
vt 0.481524 0.982916
vt 0.481524 0.982916
vt 0.481524 0.982916
vt 0.310459 0.960615
vt 0.481524 0.982916
vt 0.481524 0.982916
vt 0.720576 0.934597
vt 0.720576 0.934597
vt 0.720576 0.934597
vt 0.481524 0.982916
vt 0.720576 0.934597
vt 0.720576 0.934597
vt 0.911379 0.852827
vt 0.911379 0.852827
vt 0.911379 0.852827
vt 0.720576 0.934597
vt 0.911379 0.852827
vt 0.911379 0.852827
vt 1.056126 0.745038
vt 1.056126 0.745038
vt 1.056126 0.745038
vt 0.911379 0.852827
vt 0.783631 0.735416
vt 0.783631 0.791193
vt 0.492341 0.791193
vt 0.492341 0.791193
vt 0.492341 0.735416
vt 0.783631 0.735416
vt 0.488103 0.745038
vt -0.082114 0.745038
vt 0.091145 0.886278
vt 0.488103 0.745038
vt 0.091145 0.886278
vt 0.310459 0.960615
vt 0.488103 0.745038
vt 0.310459 0.960615
vt 0.481524 0.982916
vt 0.488103 0.745038
vt 0.481524 0.982916
vt 0.720576 0.934597
vt 0.488103 0.745038
vt 0.720576 0.934597
vt 0.911379 0.852827
vt 0.488103 0.745038
vt 0.911379 0.852827
vt 1.056126 0.745038
vt 0.822338 0.009521
vt 0.977419 0.009521
vt 0.822338 0.329619
vt 0.977419 0.009521
vt 0.977419 0.329619
vt 0.822338 0.329619
vt 0.97915 0.014519
vt 0.822462 0.014519
vt 0.97915 0.332574
vt 0.822462 0.014519
vt 0.822462 0.332574
vt 0.97915 0.332574
vt 0.822338 0.329619
vt 0.822338 0.009521
vt 0.822338 0.009521
vt 0.822338 0.329619
vt 0.822338 0.329619
vt 0.822338 0.009521
vt 0.97915 0.332574
vt 0.97915 0.014519
vt 0.97915 0.014519
vt 0.977419 0.329619
vt 0.977419 0.329619
vt 0.977419 0.009521
vt 0.822462 0.332574
vt 0.97915 0.332574
vt 0.822462 0.332574
vt 0.822462 0.332574
vt 0.97915 0.332574
vt 0.97915 0.332574
vt 0.97915 0.014519
vt 0.822462 0.014519
vt 0.97915 0.014519
vt 0.97915 0.014519
vt 0.822462 0.014519
vt 0.822462 0.014519
vt 0.830269 0.004414
vt 0.990324 0.004414
vt 0.830269 0.331511
vt 0.990324 0.004414
vt 0.990324 0.331511
vt 0.830269 0.331511
vt 0.992111 0.009521
vt 0.830397 0.009521
vt 0.992111 0.334531
vt 0.830397 0.009521
vt 0.830397 0.334531
vt 0.992111 0.334531
vt 0.830269 0.331511
vt 0.830269 0.004414
vt 0.830269 0.004414
vt 0.830269 0.331511
vt 0.830269 0.331511
vt 0.830269 0.004414
vt 0.992111 0.334531
vt 0.992111 0.009521
vt 0.992111 0.009521
vt 0.990324 0.331511
vt 0.990324 0.331511
vt 0.990324 0.004414
vt 0.830397 0.334531
vt 0.992111 0.334531
vt 0.830397 0.334531
vt 0.830397 0.334531
vt 0.992111 0.334531
vt 0.992111 0.334531
vt 0.992111 0.009521
vt 0.830397 0.009521
vt 0.992111 0.009521
vt 0.992111 0.009521
vt 0.830397 0.009521
vt 0.830397 0.009521
vt 0.026951 0.535941
vt 0.139444 0.535941
vt 0.026951 0.745648
vt 0.139444 0.535941
vt 0.139444 0.745648
vt 0.026951 0.745648
vt 0.138841 0.534328
vt 0.027117 0.534328
vt 0.138841 0.745518
vt 0.027117 0.534328
vt 0.027117 0.745518
vt 0.138841 0.745518
vt 0.026951 0.745648
vt 0.026951 0.535941
vt 0.026951 0.535941
vt 0.026951 0.745648
vt 0.026951 0.745648
vt 0.026951 0.535941
vt 0.138841 0.745518
vt 0.138841 0.534328
vt 0.138841 0.534328
vt 0.139444 0.745648
vt 0.139444 0.745648
vt 0.139444 0.535941
vt 0.027117 0.745518
vt 0.138841 0.745518
vt 0.027117 0.745518
vt 0.027117 0.745518
vt 0.138841 0.745518
vt 0.138841 0.745518
vt 0.138841 0.534328
vt 0.027117 0.534328
vt 0.138841 0.534328
vt 0.138841 0.534328
vt 0.027117 0.534328
vt 0.027117 0.534328
vt 0.858567 0.535941
vt 0.971059 0.535941
vt 0.858567 0.745648
vt 0.971059 0.535941
vt 0.971059 0.745648
vt 0.858567 0.745648
vt 0.970662 0.534891
vt 0.858954 0.534891
vt 0.970662 0.744037
vt 0.858954 0.534891
vt 0.858954 0.744037
vt 0.970662 0.744037
vt 0.858567 0.745648
vt 0.858567 0.535941
vt 0.858567 0.535941
vt 0.858567 0.745648
vt 0.858567 0.745648
vt 0.858567 0.535941
vt 0.970662 0.744037
vt 0.970662 0.534891
vt 0.970662 0.534891
vt 0.971059 0.745648
vt 0.971059 0.745648
vt 0.971059 0.535941
vt 0.858954 0.744037
vt 0.970662 0.744037
vt 0.858954 0.744037
vt 0.858954 0.744037
vt 0.970662 0.744037
vt 0.970662 0.744037
vt 0.970662 0.534891
vt 0.858954 0.534891
vt 0.970662 0.534891
vt 0.970662 0.534891
vt 0.858954 0.534891
vt 0.858954 0.534891
vt 0.009107 0.465745
vt 0.009107 0.296929
vt 0.805445 0.296929
vt 0.805445 0.296929
vt 0.805445 0.465745
vt 0.009107 0.465745
vt 0.1442 0.724274
vt 0.1442 0.53984
vt 0.858985 0.724274
vt 0.858985 0.53984
vt 0.858985 0.724274
vt 0.1442 0.53984
vt 0.00435 0.293118
vt 0.00435 0.04707
vt 0.820145 0.293118
vt 0.820145 0.04707
vt 0.820145 0.293118
vt 0.00435 0.04707
vt 0.00435 0.293118
vt 0.00435 0.04707
vt 0.820145 0.293118
vt 0.820145 0.04707
vt 0.820145 0.293118
vt 0.00435 0.04707

# 270 Vertex Normals
vn 1.0 0.0 0.0
vn 1.0 0.0 0.0
vn 1.0 0.0 0.0
vn 1.0 0.0 0.0
vn 1.0 0.0 0.0
vn 1.0 0.0 0.0
vn -1.0 0.0 0.0
vn -1.0 0.0 0.0
vn -1.0 0.0 0.0
vn -1.0 0.0 0.0
vn -1.0 0.0 0.0
vn -1.0 0.0 0.0
vn 0.0 0.0 -1.0
vn 0.0 0.0 -1.0
vn 0.0 0.0 -1.0
vn 0.0 0.0 -1.0
vn 0.0 0.0 -1.0
vn 0.0 0.0 -1.0
vn 0.0 0.000001 1.0
vn 0.0 0.000001 1.0
vn 0.0 0.0 1.0
vn 0.0 0.0 1.0
vn 0.0 0.000001 1.0
vn 0.0 0.0 1.0
vn 0.0 0.0 1.0
vn 0.0 0.0 1.0
vn 0.0 0.0 1.0
vn 0.0 -0.0 1.0
vn 0.0 0.0 1.0
vn 0.0 0.0 1.0
vn 0.0 -0.000001 1.0
vn 0.0 -0.0 1.0
vn 0.0 0.0 1.0
vn 0.0 -0.000001 1.0
vn 0.0 -0.000001 1.0
vn 0.0 0.0 1.0
vn -0.433472 0.901167 0.0
vn -0.433472 0.901167 0.0
vn -0.356847 0.934163 0.0
vn -0.356847 0.934163 0.0
vn -0.277172 0.96082 0.0
vn -0.433472 0.901167 0.0
vn 0.0 -1.0 0.0
vn 0.0 -1.0 0.0
vn 0.0 -1.0 0.0
vn 0.0 -1.0 0.0
vn 0.0 -1.0 0.0
vn 0.0 -1.0 0.0
vn -0.277172 0.96082 0.0
vn -0.356847 0.934163 0.0
vn -0.151157 0.98851 0.0
vn -0.151157 0.98851 0.0
vn -0.105786 0.994389 0.0
vn -0.277172 0.96082 0.0
vn -0.105786 0.994389 0.0
vn -0.151157 0.98851 0.0
vn -0.004598 0.999989 0.0
vn -0.004598 0.999989 0.0
vn 0.051281 0.998684 0.0
vn -0.105786 0.994389 0.0
vn 0.051281 0.998684 0.0
vn -0.004598 0.999989 0.0
vn 0.153273 0.988184 0.0
vn 0.153273 0.988184 0.0
vn 0.199485 0.979901 0.0
vn 0.051281 0.998684 0.0
vn 0.199485 0.979901 0.0
vn 0.153273 0.988184 0.0
vn 0.298446 0.954426 0.0
vn 0.298446 0.954426 0.0
vn 0.350981 0.936383 0.0
vn 0.199485 0.979901 0.0
vn 0.350981 0.936383 0.0
vn 0.298446 0.954426 0.0
vn 0.402276 0.915518 0.0
vn 0.402276 0.915518 0.0
vn 0.402276 0.915518 0.0
vn 0.350981 0.936383 0.0
vn 0.0 -1.0 0.0
vn 0.0 -1.0 0.0
vn 0.0 -1.0 0.0
vn 0.0 -1.0 0.0
vn 0.0 -1.0 0.0
vn 0.0 -1.0 0.0
vn 0.0 -0.0 -1.0
vn 0.0 0.0 -1.0
vn 0.0 -0.0 -1.0
vn 0.0 -0.0 -1.0
vn 0.0 -0.0 -1.0
vn 0.0 -0.0 -1.0
vn 0.0 -0.0 -1.0
vn 0.0 -0.0 -1.0
vn 0.0 -0.0 -1.0
vn 0.0 -0.0 -1.0
vn 0.0 -0.0 -1.0
vn 0.0 0.0 -1.0
vn 0.0 -0.0 -1.0
vn 0.0 0.0 -1.0
vn 0.0 -0.0 -1.0
vn 0.0 -0.0 -1.0
vn 0.0 -0.0 -1.0
vn 0.0 -0.000002 -1.0
vn 0.0 -0.762556 0.646922
vn 0.0 -0.762556 0.646922
vn 0.0 -0.162983 0.986629
vn 0.0 -0.762556 0.646922
vn 0.0 -0.162983 0.986629
vn 0.0 -0.162983 0.986629
vn 0.0 0.0 -1.0
vn 0.0 0.0 -1.0
vn 0.0 0.0 -1.0
vn 0.0 0.0 -1.0
vn 0.0 0.0 -1.0
vn 0.0 0.0 -1.0
vn -1.0 0.0 0.0
vn -1.0 0.0 0.0
vn -1.0 0.0 0.0
vn -1.0 0.0 0.0
vn -1.0 0.0 0.0
vn -1.0 0.0 0.0
vn 1.0 0.0 0.0
vn 1.0 0.0 0.0
vn 1.0 0.0 0.0
vn 1.0 0.0 0.0
vn 1.0 0.0 0.0
vn 1.0 0.0 0.0
vn 0.0 1.0 0.0
vn 0.0 1.0 0.0
vn 0.0 1.0 0.0
vn 0.0 1.0 0.0
vn 0.0 1.0 0.0
vn 0.0 1.0 0.0
vn 0.0 -0.762556 0.646922
vn 0.0 -1.0 0.0
vn 0.0 -1.0 0.0
vn 0.0 -0.762556 0.646922
vn 0.0 -0.762556 0.646922
vn 0.0 -1.0 0.0
vn 0.0 -0.762556 0.646922
vn 0.0 -0.762556 0.646922
vn 0.0 -0.162983 0.986629
vn 0.0 -0.762556 0.646922
vn 0.0 -0.162983 0.986629
vn 0.0 -0.162983 0.986629
vn 0.0 0.0 -1.0
vn 0.0 0.0 -1.0
vn 0.0 0.0 -1.0
vn 0.0 0.0 -1.0
vn 0.0 0.0 -1.0
vn 0.0 0.0 -1.0
vn -1.0 0.0 0.0
vn -1.0 0.0 0.0
vn -1.0 0.0 0.0
vn -1.0 0.0 0.0
vn -1.0 0.0 0.0
vn -1.0 0.0 0.0
vn 1.0 0.0 0.0
vn 1.0 0.0 0.0
vn 1.0 0.0 0.0
vn 1.0 0.0 0.0
vn 1.0 0.0 0.0
vn 1.0 0.0 0.0
vn 0.0 1.0 0.0
vn 0.0 1.0 0.0
vn 0.0 1.0 0.0
vn 0.0 1.0 0.0
vn 0.0 1.0 0.0
vn 0.0 1.0 0.0
vn 0.0 -0.762556 0.646922
vn 0.0 -1.0 0.0
vn 0.0 -1.0 0.0
vn 0.0 -0.762556 0.646922
vn 0.0 -0.762556 0.646922
vn 0.0 -1.0 0.0
vn 0.0 -0.781651 0.623716
vn 0.0 -0.781651 0.623716
vn 0.0 -0.221957 0.975057
vn 0.0 -0.781651 0.623716
vn 0.0 -0.221957 0.975057
vn 0.0 -0.221957 0.975057
vn 0.0 0.0 -1.0
vn 0.0 0.0 -1.0
vn 0.0 0.0 -1.0
vn 0.0 0.0 -1.0
vn 0.0 0.0 -1.0
vn 0.0 0.0 -1.0
vn -1.0 0.0 0.0
vn -1.0 0.0 0.0
vn -1.0 0.0 0.0
vn -1.0 0.0 0.0
vn -1.0 0.0 0.0
vn -1.0 0.0 0.0
vn 1.0 0.0 0.0
vn 1.0 0.0 0.0
vn 1.0 0.0 0.0
vn 1.0 0.0 0.0
vn 1.0 0.0 0.0
vn 1.0 0.0 0.0
vn 0.0 1.0 0.0
vn 0.0 1.0 0.0
vn 0.0 1.0 0.0
vn 0.0 1.0 0.0
vn 0.0 1.0 0.0
vn 0.0 1.0 0.0
vn 0.0 -0.781651 0.623716
vn 0.0 -1.0 0.0
vn 0.0 -1.0 0.0
vn 0.0 -0.781651 0.623716
vn 0.0 -0.781651 0.623716
vn 0.0 -1.0 0.0
vn 0.0 -0.781651 0.623716
vn 0.0 -0.781651 0.623716
vn 0.0 -0.221957 0.975057
vn 0.0 -0.781651 0.623716
vn 0.0 -0.221957 0.975057
vn 0.0 -0.221957 0.975057
vn 0.0 0.0 -1.0
vn 0.0 0.0 -1.0
vn 0.0 0.0 -1.0
vn 0.0 0.0 -1.0
vn 0.0 0.0 -1.0
vn 0.0 0.0 -1.0
vn -1.0 0.0 0.0
vn -1.0 0.0 0.0
vn -1.0 0.0 0.0
vn -1.0 0.0 0.0
vn -1.0 0.0 0.0
vn -1.0 0.0 0.0
vn 1.0 0.0 0.0
vn 1.0 0.0 0.0
vn 1.0 0.0 0.0
vn 1.0 0.0 0.0
vn 1.0 0.0 0.0
vn 1.0 0.0 0.0
vn 0.0 1.0 0.0
vn 0.0 1.0 0.0
vn 0.0 1.0 0.0
vn 0.0 1.0 0.0
vn 0.0 1.0 0.0
vn 0.0 1.0 0.0
vn 0.0 -0.781651 0.623716
vn 0.0 -1.0 0.0
vn 0.0 -1.0 0.0
vn 0.0 -0.781651 0.623716
vn 0.0 -0.781651 0.623716
vn 0.0 -1.0 0.0
vn 0.0 1.0 0.0
vn 0.0 1.0 0.0
vn 0.0 1.0 0.0
vn 0.0 1.0 0.0
vn 0.0 1.0 0.0
vn 0.0 1.0 0.0
vn 0.0 0.0 1.0
vn 0.0 0.0 1.0
vn 0.0 0.0 1.0
vn 0.0 0.0 1.0
vn 0.0 0.0 1.0
vn 0.0 0.0 1.0
vn 0.0 0.0 1.0
vn 0.0 0.0 1.0
vn 0.0 0.0 1.0
vn 0.0 0.0 1.0
vn 0.0 0.0 1.0
vn 0.0 0.0 1.0
vn 0.0 0.0 1.0
vn 0.0 0.0 1.0
vn 0.0 0.0 1.0
vn 0.0 0.0 1.0
vn 0.0 0.0 1.0
vn 0.0 0.0 1.0

# group, 90 grouped triangles

usemtl roof.jpg
o group
g group

f 5/1/1 1/2/2 2/3/3
f 2/4/4 6/5/5 5/6/6
f 8/7/7 4/8/8 3/9/9
f 3/10/10 7/11/11 8/12/12
f 6/13/13 2/14/14 4/15/15
f 4/16/16 8/17/17 6/18/18
f 19/19/19 18/20/20 17/21/21
f 20/22/22 19/23/23 17/24/24
f 21/25/25 20/26/26 17/27/27
f 22/28/28 21/29/29 17/30/30
f 23/31/31 22/32/32 17/33/33
f 24/34/34 23/35/35 17/36/36
f 10/37/37 18/38/38 19/39/39
f 19/40/40 11/41/41 10/42/42
f 9/43/43 17/44/44 18/45/45
f 18/46/46 10/47/47 9/48/48
f 11/49/49 19/50/50 20/51/51
f 20/52/52 12/53/53 11/54/54
f 12/55/55 20/56/56 21/57/57
f 21/58/58 13/59/59 12/60/60
f 13/61/61 21/62/62 22/63/63
f 22/64/64 14/65/65 13/66/66
f 14/67/67 22/68/68 23/69/69
f 23/70/70 15/71/71 14/72/72
f 15/73/73 23/74/74 24/75/75
f 24/76/76 16/77/77 15/78/78
f 16/79/79 24/80/80 17/81/81
f 17/82/82 9/83/83 16/84/84
f 9/85/85 10/86/86 11/87/87
f 9/88/88 11/89/89 12/90/90
f 9/91/91 12/92/92 13/93/93
f 9/94/94 13/95/95 14/96/96
f 9/97/97 14/98/98 15/99/99
f 9/100/100 15/101/101 16/102/102
f 25/103/103 26/104/104 27/105/105
f 26/106/106 28/107/107 27/108/108
f 29/109/109 30/110/110 31/111/111
f 30/112/112 32/113/113 31/114/114
f 27/115/115 30/116/116 25/117/117
f 27/118/118 32/119/119 30/120/120
f 31/121/121 26/122/122 29/123/123
f 31/124/124 28/125/125 26/126/126
f 27/127/127 31/128/128 32/129/129
f 27/130/130 28/131/131 31/132/132
f 26/133/133 30/134/134 29/135/135
f 26/136/136 25/137/137 30/138/138
f 33/139/139 34/140/140 35/141/141
f 34/142/142 36/143/143 35/144/144
f 37/145/145 38/146/146 39/147/147
f 38/148/148 40/149/149 39/150/150
f 35/151/151 38/152/152 33/153/153
f 35/154/154 40/155/155 38/156/156
f 39/157/157 34/158/158 37/159/159
f 39/160/160 36/161/161 34/162/162
f 35/163/163 39/164/164 40/165/165
f 35/166/166 36/167/167 39/168/168
f 34/169/169 38/170/170 37/171/171
f 34/172/172 33/173/173 38/174/174
f 41/175/175 42/176/176 43/177/177
f 42/178/178 44/179/179 43/180/180
f 45/181/181 46/182/182 47/183/183
f 46/184/184 48/185/185 47/186/186
f 43/187/187 46/188/188 41/189/189
f 43/190/190 48/191/191 46/192/192
f 47/193/193 42/194/194 45/195/195
f 47/196/196 44/197/197 42/198/198
f 43/199/199 47/200/200 48/201/201
f 43/202/202 44/203/203 47/204/204
f 42/205/205 46/206/206 45/207/207
f 42/208/208 41/209/209 46/210/210
f 49/211/211 50/212/212 51/213/213
f 50/214/214 52/215/215 51/216/216
f 53/217/217 54/218/218 55/219/219
f 54/220/220 56/221/221 55/222/222
f 51/223/223 54/224/224 49/225/225
f 51/226/226 56/227/227 54/228/228
f 55/229/229 50/230/230 53/231/231
f 55/232/232 52/233/233 50/234/234
f 51/235/235 55/236/236 56/237/237
f 51/238/238 52/239/239 55/240/240
f 50/241/241 54/242/242 53/243/243
f 50/244/244 49/245/245 54/246/246
f 8/247/247 7/248/248 5/249/249
f 5/250/250 6/251/251 8/252/252
f 60/253/253 59/254/254 58/255/255
f 57/256/256 58/257/257 59/258/258
f 64/259/259 63/260/260 62/261/261
f 61/262/262 62/263/263 63/264/264
f 68/265/265 67/266/266 66/267/267
f 65/268/268 66/269/269 67/270/270
