# Wavefront OBJ file
# Exported by Maverick Model 3D 1.3.15
# Mon Sep 14 12:09:51 2026

mtllib floor.mtl

# 26 Vertices
v 1.641 5.0 5.243
v 1.641 0.0 5.243
v -5.0 5.0 5.243
v -5.0 0.0 5.243
v 5.0 5.0 5.0
v 5.0 0.0 5.0
v 1.641 5.0 5.0
v 1.641 0.0 5.0
v -5.0 5.0 5.0
v -5.0 0.0 5.0
v -4.059 1.186 5.418
v -2.563 1.186 5.418
v -4.059 1.302 5.418
v -2.563 1.302 5.418
v -2.563 1.186 5.235
v -4.059 1.186 5.235
v -2.563 1.302 5.235
v -4.059 1.302 5.235
v -0.793 1.173 5.418
v 0.736 1.173 5.418
v -0.793 1.327 5.418
v 0.736 1.327 5.418
v 0.736 1.173 5.235
v -0.793 1.173 5.235
v 0.736 1.327 5.235
v -0.793 1.327 5.235

# 96 Texture Coordinates
vt 0.0 1.0
vt 0.0 0.0
vt 0.677387 0.0
vt 0.677387 0.0
vt 0.677387 1.0
vt 0.0 1.0
vt 0.682282 1.0
vt 0.682282 0.0
vt 1.0 0.0
vt 1.0 0.0
vt 1.0 1.0
vt 0.682282 1.0
vt 0.625749 0.999518
vt 0.625749 0.0
vt 0.673561 0.0
vt 0.673561 0.0
vt 0.673561 0.999518
vt 0.625749 0.999518
vt 0.047822 0.000537
vt 0.00001 0.000537
vt 0.00001 1.000055
vt 0.00001 1.000055
vt 0.047822 1.000055
vt 0.047822 0.000537
vt 0.674295 0.029739
vt 0.0 0.029739
vt 0.0 0.0
vt 0.0 0.0
vt 0.674295 0.0
vt 0.674295 0.029739
vt 0.0 1.0
vt 0.0 0.973873
vt 0.673183 0.973873
vt 0.673183 0.973873
vt 0.673183 1.0
vt 0.0 1.0
vt 0.0979 0.235933
vt 0.249639 0.235933
vt 0.0979 0.260135
vt 0.249639 0.235933
vt 0.249639 0.260135
vt 0.0979 0.260135
vt 0.0979 0.260135
vt 0.0979 0.235933
vt 0.0979 0.235933
vt 0.0979 0.260135
vt 0.0979 0.260135
vt 0.0979 0.235933
vt 0.249639 0.260135
vt 0.249639 0.235933
vt 0.249639 0.235933
vt 0.249639 0.260135
vt 0.249639 0.260135
vt 0.249639 0.235933
vt 0.0979 0.260135
vt 0.249639 0.260135
vt 0.0979 0.260135
vt 0.0979 0.260135
vt 0.249639 0.260135
vt 0.249639 0.260135
vt 0.249639 0.235933
vt 0.0979 0.235933
vt 0.249639 0.235933
vt 0.249639 0.235933
vt 0.0979 0.235933
vt 0.0979 0.235933
vt 0.0979 0.235933
vt 0.249639 0.235933
vt 0.0979 0.260135
vt 0.249639 0.235933
vt 0.249639 0.260135
vt 0.0979 0.260135
vt 0.0979 0.260135
vt 0.0979 0.235933
vt 0.0979 0.235933
vt 0.0979 0.260135
vt 0.0979 0.260135
vt 0.0979 0.235933
vt 0.249639 0.260135
vt 0.249639 0.235933
vt 0.249639 0.235933
vt 0.249639 0.260135
vt 0.249639 0.260135
vt 0.249639 0.235933
vt 0.0979 0.260135
vt 0.249639 0.260135
vt 0.0979 0.260135
vt 0.0979 0.260135
vt 0.249639 0.260135
vt 0.249639 0.260135
vt 0.249639 0.235933
vt 0.0979 0.235933
vt 0.249639 0.235933
vt 0.249639 0.235933
vt 0.0979 0.235933
vt 0.0979 0.235933

# 96 Vertex Normals
vn 0.0 0.0 1.0
vn 0.0 0.0 1.0
vn 0.0 0.0 1.0
vn 0.0 0.0 1.0
vn 0.0 0.0 1.0
vn 0.0 0.0 1.0
vn 0.0 0.0 1.0
vn 0.0 0.0 1.0
vn 0.0 0.0 1.0
vn 0.0 0.0 1.0
vn 0.0 0.0 1.0
vn 0.0 0.0 1.0
vn 1.0 0.0 0.0
vn 1.0 0.0 0.0
vn 1.0 0.0 0.0
vn 1.0 0.0 0.0
vn 1.0 0.0 0.0
vn 1.0 0.0 0.0
vn -1.0 0.0 0.0
vn -1.0 0.0 0.0
vn -1.0 0.0 0.0
vn -1.0 0.0 0.0
vn -1.0 0.0 0.0
vn -1.0 0.0 0.0
vn 0.0 -1.0 0.0
vn 0.0 -1.0 0.0
vn 0.0 -1.0 0.0
vn 0.0 -1.0 0.0
vn 0.0 -1.0 0.0
vn 0.0 -1.0 0.0
vn 0.0 1.0 0.0
vn 0.0 1.0 0.0
vn 0.0 1.0 0.0
vn 0.0 1.0 0.0
vn 0.0 1.0 0.0
vn 0.0 1.0 0.0
vn 0.0 0.0 1.0
vn 0.0 0.0 1.0
vn 0.0 0.0 1.0
vn 0.0 0.0 1.0
vn 0.0 0.0 1.0
vn 0.0 0.0 1.0
vn -1.0 0.0 0.0
vn -1.0 0.0 0.0
vn -1.0 0.0 0.0
vn -1.0 0.0 0.0
vn -1.0 0.0 0.0
vn -1.0 0.0 0.0
vn 1.0 0.0 0.0
vn 1.0 0.0 0.0
vn 1.0 0.0 0.0
vn 1.0 0.0 0.0
vn 1.0 0.0 0.0
vn 1.0 0.0 0.0
vn 0.0 1.0 0.0
vn 0.0 1.0 0.0
vn 0.0 1.0 0.0
vn 0.0 1.0 0.0
vn 0.0 1.0 0.0
vn 0.0 1.0 0.0
vn 0.0 -1.0 0.0
vn 0.0 -1.0 0.0
vn 0.0 -1.0 0.0
vn 0.0 -1.0 0.0
vn 0.0 -1.0 0.0
vn 0.0 -1.0 0.0
vn 0.0 0.0 1.0
vn 0.0 0.0 1.0
vn 0.0 0.0 1.0
vn 0.0 0.0 1.0
vn 0.0 0.0 1.0
vn 0.0 0.0 1.0
vn -1.0 0.0 0.0
vn -1.0 0.0 0.0
vn -1.0 0.0 0.0
vn -1.0 0.0 0.0
vn -1.0 0.0 0.0
vn -1.0 0.0 0.0
vn 1.0 0.0 0.0
vn 1.0 0.0 0.0
vn 1.0 0.0 0.0
vn 1.0 0.0 0.0
vn 1.0 0.0 0.0
vn 1.0 0.0 0.0
vn 0.0 1.0 0.0
vn 0.0 1.0 0.0
vn 0.0 1.0 0.0
vn 0.0 1.0 0.0
vn 0.0 1.0 0.0
vn 0.0 1.0 0.0
vn 0.0 -1.0 0.0
vn 0.0 -1.0 0.0
vn 0.0 -1.0 0.0
vn 0.0 -1.0 0.0
vn 0.0 -1.0 0.0
vn 0.0 -1.0 0.0

# group, 32 grouped triangles

usemtl floor.jpg
o group
g group

f 3/1/1 4/2/2 2/3/3
f 2/4/4 1/5/5 3/6/6
f 7/7/7 8/8/8 6/9/9
f 6/10/10 5/11/11 7/12/12
f 1/13/13 2/14/14 8/15/15
f 8/16/16 7/17/17 1/18/18
f 10/19/19 4/20/20 3/21/21
f 3/22/22 9/23/23 10/24/24
f 2/25/25 4/26/26 10/27/27
f 10/28/28 8/29/29 2/30/30
f 9/31/31 3/32/32 1/33/33
f 1/34/34 7/35/35 9/36/36
f 11/37/37 12/38/38 13/39/39
f 12/40/40 14/41/41 13/42/42
f 13/43/43 16/44/44 11/45/45
f 13/46/46 18/47/47 16/48/48
f 17/49/49 12/50/50 15/51/51
f 17/52/52 14/53/53 12/54/54
f 13/55/55 17/56/56 18/57/57
f 13/58/58 14/59/59 17/60/60
f 12/61/61 16/62/62 15/63/63
f 12/64/64 11/65/65 16/66/66
f 19/67/67 20/68/68 21/69/69
f 20/70/70 22/71/71 21/72/72
f 21/73/73 24/74/74 19/75/75
f 21/76/76 26/77/77 24/78/78
f 25/79/79 20/80/80 23/81/81
f 25/82/82 22/83/83 20/84/84
f 21/85/85 25/86/86 26/87/87
f 21/88/88 22/89/89 25/90/90
f 20/91/91 24/92/92 23/93/93
f 20/94/94 19/95/95 24/96/96
