# Wavefront OBJ file
# Exported by Maverick Model 3D 1.3.15
# Mon Sep 14 13:49:50 2026

mtllib roof.mtl

# 8 Vertices
v -5.0 0.0 5.25
v 5.0 0.0 5.25
v -5.0 0.5 5.25
v 5.0 0.5 5.25
v 5.0 0.0 -5.25
v -5.0 0.0 -5.25
v 5.0 0.5 -5.25
v -5.0 0.5 -5.25

# 36 Texture Coordinates
vt 0.0 0.787738
vt 2.988894 0.787738
vt 0.0 1.033715
vt 2.988894 0.787738
vt 2.988894 1.033715
vt 0.0 1.033715
vt 2.988894 0.787738
vt 0.0 0.787738
vt 2.988894 1.033715
vt 0.0 0.787738
vt 0.0 1.033715
vt 2.988894 1.033715
vt 0.0 1.04137
vt 2.982588 0.778987
vt 0.0 0.778987
vt 0.0 1.04137
vt 2.982588 1.04137
vt 2.982588 0.778987
vt 2.982588 1.04137
vt 0.0 0.778987
vt 2.982588 0.778987
vt 2.982588 1.04137
vt 0.0 1.04137
vt 0.0 0.778987
vt 0.002588 0.002529
vt 0.992503 0.809662
vt 0.002588 0.809662
vt 0.002588 0.002529
vt 0.992503 0.002529
vt 0.992503 0.809662
vt 0.992503 0.002529
vt 0.002588 0.809662
vt 0.992503 0.809662
vt 0.992503 0.002529
vt 0.002588 0.002529
vt 0.002588 0.809662

# 36 Vertex Normals
vn 0.0 0.0 1.0
vn 0.0 0.0 1.0
vn 0.0 0.0 1.0
vn 0.0 0.0 1.0
vn 0.0 0.0 1.0
vn 0.0 0.0 1.0
vn 0.0 0.0 -1.0
vn 0.0 0.0 -1.0
vn 0.0 0.0 -1.0
vn 0.0 0.0 -1.0
vn 0.0 0.0 -1.0
vn 0.0 0.0 -1.0
vn -1.0 0.0 0.0
vn -1.0 0.0 0.0
vn -1.0 0.0 0.0
vn -1.0 0.0 0.0
vn -1.0 0.0 0.0
vn -1.0 0.0 0.0
vn 1.0 0.0 0.0
vn 1.0 0.0 0.0
vn 1.0 0.0 0.0
vn 1.0 0.0 0.0
vn 1.0 0.0 0.0
vn 1.0 0.0 0.0
vn 0.0 1.0 0.0
vn 0.0 1.0 0.0
vn 0.0 1.0 0.0
vn 0.0 1.0 0.0
vn 0.0 1.0 0.0
vn 0.0 1.0 0.0
vn -0.0 -1.0 0.0
vn -0.0 -1.0 0.0
vn -0.0 -1.0 0.0
vn -0.0 -1.0 0.0
vn -0.0 -1.0 0.0
vn -0.0 -1.0 0.0

# group, 12 grouped triangles

usemtl roof.jpg
o group
g group

f 1/1/1 2/2/2 3/3/3
f 2/4/4 4/5/5 3/6/6
f 5/7/7 6/8/8 7/9/9
f 6/10/10 8/11/11 7/12/12
f 3/13/13 6/14/14 1/15/15
f 3/16/16 8/17/17 6/18/18
f 7/19/19 2/20/20 5/21/21
f 7/22/22 4/23/23 2/24/24
f 3/25/25 7/26/26 8/27/27
f 3/28/28 4/29/29 7/30/30
f 2/31/31 6/32/32 5/33/33
f 2/34/34 1/35/35 6/36/36
