# Wavefront OBJ file
# Exported by Maverick Model 3D 1.3.15
# Mon Sep 14 11:29:40 2026

mtllib floor.mtl

# 21 Vertices
v 5.0 0.0 5.126
v 0.001 0.0 5.126
v 0.001 5.0 5.126
v 5.0 5.0 5.126
v -5.0 0.0 5.0
v -4.168 0.0 5.0
v -3.335 0.0 5.367
v -2.502 0.0 5.47
v -1.67 0.0 5.367
v -0.837 0.0 5.0
v 0.001 0.0 5.0
v -5.0 5.0 5.0
v -4.168 5.0 5.0
v -3.335 5.0 5.367
v -2.502 5.0 5.47
v -1.67 5.0 5.367
v -0.837 5.0 5.0
v 0.001 5.0 5.0
v 5.0 0.0 5.126
v 5.0 0.0 5.0
v 5.0 5.0 5.0

# 84 Texture Coordinates
vt 0.999848 0.0
vt 0.999848 0.940972
vt 0.619313 0.940972
vt 0.999848 0.0
vt 0.619313 0.940972
vt 0.619313 0.0
vt 0.0 0.0
vt 0.103129 0.0
vt 0.0 0.949992
vt 0.103129 0.0
vt 0.103129 0.97038
vt 0.0 0.949992
vt 0.103129 0.0
vt 0.206257 0.021884
vt 0.103129 0.97038
vt 0.206257 0.021884
vt 0.206257 0.984613
vt 0.103129 0.97038
vt 0.206257 0.021884
vt 0.309386 0.029179
vt 0.206257 0.984613
vt 0.309386 0.029179
vt 0.309386 0.98846
vt 0.206257 0.984613
vt 0.309386 0.029179
vt 0.412515 0.02462
vt 0.309386 0.98846
vt 0.412515 0.02462
vt 0.412515 0.988844
vt 0.309386 0.98846
vt 0.412515 0.02462
vt 0.515644 0.0
vt 0.412515 0.988844
vt 0.515644 0.0
vt 0.515644 0.979997
vt 0.412515 0.988844
vt 0.515644 0.0
vt 0.619504 0.0
vt 0.515644 0.979997
vt 0.619504 0.0
vt 0.619504 0.965764
vt 0.515644 0.979997
vt 0.642585 0.0
vt 0.642585 0.941993
vt 0.615218 0.941993
vt 0.642585 0.0
vt 0.615218 0.941993
vt 0.615218 0.0
vt 0.320837 0.028498
vt 0.220632 0.022429
vt 0.120428 0.000753
vt 0.421042 0.022429
vt 0.320837 0.028498
vt 0.120428 0.000753
vt 0.521247 0.000753
vt 0.421042 0.022429
vt 0.120428 0.000753
vt 0.098879 0.002022
vt 0.206827 0.020892
vt 0.314776 0.026176
vt 0.098879 0.002022
vt 0.314776 0.026176
vt 0.422724 0.020892
vt 0.098879 0.002022
vt 0.422724 0.020892
vt 0.530673 0.002022
vt 0.615218 0.941993
vt 0.642585 0.941993
vt 0.642585 0.0
vt 0.615218 0.0
vt 0.615218 0.941993
vt 0.642585 0.0
vt 0.666772 0.058902
vt 0.66684 0.026924
vt 0.925441 0.058902
vt 0.925502 0.028932
vt 0.925441 0.058902
vt 0.66684 0.026924
vt 0.666772 0.058902
vt 0.925462 0.058913
vt 0.666834 0.026996
vt 0.925502 0.028932
vt 0.666834 0.026996
vt 0.925462 0.058913

# 84 Vertex Normals
vn -0.000021 0.000013 1.0
vn -0.000009 0.000025 1.0
vn -0.000021 0.000013 1.0
vn -0.000021 0.000013 1.0
vn -0.000021 0.000013 1.0
vn -0.000034 0.0 1.0
vn 0.0 0.0 1.0
vn -0.137058 0.0 0.990563
vn 0.0 0.0 1.0
vn -0.137058 0.0 0.990563
vn -0.274116 0.0 0.961697
vn 0.0 0.0 1.0
vn -0.137058 0.0 0.990563
vn -0.312876 0.0 0.949794
vn -0.274116 0.0 0.961697
vn -0.312876 0.0 0.949794
vn -0.218573 0.0 0.975821
vn -0.274116 0.0 0.961697
vn -0.312876 0.0 0.949794
vn -0.041311 0.0 0.999146
vn -0.218573 0.0 0.975821
vn -0.041311 0.0 0.999146
vn 0.041311 0.0 0.999146
vn -0.218573 0.0 0.975821
vn -0.041311 0.0 0.999146
vn 0.218573 0.0 0.975821
vn 0.041311 0.0 0.999146
vn 0.218573 0.0 0.975821
vn 0.312876 0.0 0.949794
vn 0.041311 0.0 0.999146
vn 0.218573 0.0 0.975821
vn 0.274116 0.0 0.961697
vn 0.312876 0.0 0.949794
vn 0.274116 0.0 0.961697
vn 0.137058 0.0 0.990563
vn 0.312876 0.0 0.949794
vn 0.274116 0.0 0.961697
vn 0.0 0.0 1.0
vn 0.137058 0.0 0.990563
vn 0.0 0.0 1.0
vn 0.0 0.0 1.0
vn 0.137058 0.0 0.990563
vn -1.0 0.0 0.0
vn -1.0 0.0 0.0
vn -1.0 0.0 0.0
vn -1.0 0.0 0.0
vn -1.0 0.0 0.0
vn -1.0 0.0 0.0
vn -0.0 -1.0 0.0
vn -0.0 -1.0 0.0
vn -0.0 -1.0 0.0
vn 0.0 -1.0 0.0
vn -0.0 -1.0 0.0
vn -0.0 -1.0 0.0
vn 0.0 -1.0 0.0
vn 0.0 -1.0 0.0
vn -0.0 -1.0 0.0
vn -0.0 1.0 0.0
vn -0.000001 1.0 0.0
vn -0.0 1.0 0.0
vn -0.0 1.0 0.0
vn -0.0 1.0 0.0
vn 0.0 1.0 0.0
vn -0.0 1.0 0.0
vn 0.0 1.0 0.0
vn 0.0 1.0 0.0
vn 1.0 0.0 0.0
vn 1.0 0.0 0.0
vn 1.0 0.0 0.0
vn 1.0 0.0 0.0
vn 1.0 0.0 0.0
vn 1.0 0.0 0.0
vn 0.0 -1.0 0.0
vn 0.0 -1.0 0.0
vn 0.0 -1.0 0.0
vn 0.0 -1.0 0.0
vn 0.0 -1.0 0.0
vn 0.0 -1.0 0.0
vn -0.0 1.0 0.0
vn -0.0 1.0 0.0
vn -0.0 1.0 0.0
vn 0.0 1.0 0.0
vn -0.0 1.0 0.0
vn -0.0 1.0 0.0

# group, 28 grouped triangles

usemtl floor.jpg
o group
g group

f 1/1/1 4/2/2 3/3/3
f 1/4/4 3/5/5 2/6/6
f 5/7/7 6/8/8 12/9/9
f 6/10/10 13/11/11 12/12/12
f 6/13/13 7/14/14 13/15/15
f 7/16/16 14/17/17 13/18/18
f 7/19/19 8/20/20 14/21/21
f 8/22/22 15/23/23 14/24/24
f 8/25/25 9/26/26 15/27/27
f 9/28/28 16/29/29 15/30/30
f 9/31/31 10/32/32 16/33/33
f 10/34/34 17/35/35 16/36/36
f 10/37/37 11/38/38 17/39/39
f 11/40/40 18/41/41 17/42/42
f 2/43/43 3/44/44 18/45/45
f 2/46/46 18/47/47 11/48/48
f 8/49/49 7/50/50 6/51/51
f 9/52/52 8/53/53 6/54/54
f 10/55/55 9/56/56 6/57/57
f 13/58/58 14/59/59 15/60/60
f 13/61/61 15/62/62 16/63/63
f 13/64/64 16/65/65 17/66/66
f 21/67/67 4/68/68 19/69/69
f 20/70/70 21/71/71 19/72/72
f 2/73/73 11/74/74 19/75/75
f 20/76/76 19/77/77 11/78/78
f 3/79/79 4/80/80 18/81/81
f 21/82/82 18/83/83 4/84/84
