# Wavefront OBJ file
# Exported by Maverick Model 3D 1.3.15
# Mon Sep 14 12:10:50 2026

mtllib floor.mtl

# 28 Vertices
v 5.0 5.0 5.0
v 5.0 -0.0 5.0
v -5.0 5.0 5.0
v -5.0 -0.0 5.0
v -4.14 1.229 5.148
v -2.205 1.229 5.148
v -4.14 0.979 5.148
v -2.205 0.979 5.148
v -2.205 1.229 4.991
v -4.14 1.229 4.991
v -2.205 0.979 4.991
v -4.14 0.979 4.991
v -1.117 1.197 5.148
v 0.847 1.197 5.148
v -1.117 0.969 5.148
v 0.847 0.969 5.148
v 0.847 1.197 4.991
v -1.117 1.197 4.991
v 0.847 0.969 4.991
v -1.117 0.969 4.991
v 1.966 1.206 5.148
v 3.927 1.206 5.148
v 1.966 0.972 5.148
v 3.927 0.972 5.148
v 3.927 1.206 4.991
v 1.966 1.206 4.991
v 3.927 0.972 4.991
v 1.966 0.972 4.991

# 96 Texture Coordinates
vt 0.0 1.0
vt 0.0 0.0
vt 1.0 0.0
vt 1.0 0.0
vt 1.0 1.0
vt 0.0 1.0
vt 0.090115 0.199385
vt 0.283109 0.234549
vt 0.090115 0.234549
vt 0.090115 0.199385
vt 0.283109 0.199385
vt 0.283109 0.234549
vt 0.090115 0.234549
vt 0.090115 0.234549
vt 0.090115 0.199385
vt 0.090115 0.234549
vt 0.090115 0.199385
vt 0.090115 0.199385
vt 0.283109 0.234549
vt 0.283109 0.234549
vt 0.283109 0.199385
vt 0.283109 0.234549
vt 0.283109 0.199385
vt 0.283109 0.199385
vt 0.094125 0.230818
vt 0.276273 0.230818
vt 0.094125 0.199999
vt 0.276273 0.230818
vt 0.276273 0.199999
vt 0.094125 0.199999
vt 0.276273 0.230818
vt 0.094125 0.230818
vt 0.276273 0.199999
vt 0.094125 0.230818
vt 0.094125 0.199999
vt 0.276273 0.199999
vt 0.389405 0.199479
vt 0.581532 0.236857
vt 0.389405 0.236857
vt 0.389405 0.199479
vt 0.581532 0.199479
vt 0.581532 0.236857
vt 0.389405 0.236857
vt 0.389405 0.236857
vt 0.389405 0.199479
vt 0.389405 0.236857
vt 0.389405 0.199479
vt 0.389405 0.199479
vt 0.581532 0.236857
vt 0.581532 0.236857
vt 0.581532 0.199479
vt 0.581532 0.236857
vt 0.581532 0.199479
vt 0.581532 0.199479
vt 0.392689 0.231552
vt 0.581062 0.231552
vt 0.392689 0.201691
vt 0.581062 0.231552
vt 0.581062 0.201691
vt 0.392689 0.201691
vt 0.581062 0.231552
vt 0.392689 0.231552
vt 0.581062 0.201691
vt 0.392689 0.231552
vt 0.392689 0.201691
vt 0.581062 0.201691
vt 0.701207 0.200817
vt 0.89169 0.234762
vt 0.701207 0.234762
vt 0.701207 0.200817
vt 0.89169 0.200817
vt 0.89169 0.234762
vt 0.701207 0.234762
vt 0.701207 0.234762
vt 0.701207 0.200817
vt 0.701207 0.234762
vt 0.701207 0.200817
vt 0.701207 0.200817
vt 0.89169 0.234762
vt 0.89169 0.234762
vt 0.89169 0.200817
vt 0.89169 0.234762
vt 0.89169 0.200817
vt 0.89169 0.200817
vt 0.710945 0.22843
vt 0.891522 0.22843
vt 0.710945 0.198727
vt 0.891522 0.22843
vt 0.891522 0.198727
vt 0.710945 0.198727
vt 0.891522 0.22843
vt 0.710945 0.22843
vt 0.891522 0.198727
vt 0.710945 0.22843
vt 0.710945 0.198727
vt 0.891522 0.198727

# 96 Vertex Normals
vn 0.0 0.0 1.0
vn 0.0 0.0 1.0
vn 0.0 0.0 1.0
vn 0.0 0.0 1.0
vn 0.0 0.0 1.0
vn 0.0 0.0 1.0
vn 0.0 0.0 1.0
vn 0.0 0.0 1.0
vn 0.0 0.0 1.0
vn 0.0 0.0 1.0
vn 0.0 0.0 1.0
vn 0.0 0.0 1.0
vn -1.0 0.0 0.0
vn -1.0 0.0 0.0
vn -1.0 0.0 0.0
vn -1.0 0.0 0.0
vn -1.0 0.0 0.0
vn -1.0 0.0 0.0
vn 1.0 0.0 0.0
vn 1.0 0.0 0.0
vn 1.0 0.0 0.0
vn 1.0 0.0 0.0
vn 1.0 0.0 0.0
vn 1.0 0.0 0.0
vn 0.0 -1.0 0.0
vn 0.0 -1.0 0.0
vn 0.0 -1.0 0.0
vn 0.0 -1.0 0.0
vn 0.0 -1.0 0.0
vn 0.0 -1.0 0.0
vn 0.0 1.0 0.0
vn 0.0 1.0 0.0
vn 0.0 1.0 0.0
vn 0.0 1.0 0.0
vn 0.0 1.0 0.0
vn 0.0 1.0 0.0
vn 0.0 0.0 1.0
vn 0.0 0.0 1.0
vn 0.0 0.0 1.0
vn 0.0 0.0 1.0
vn 0.0 0.0 1.0
vn 0.0 0.0 1.0
vn -1.0 0.0 0.0
vn -1.0 0.0 0.0
vn -1.0 0.0 0.0
vn -1.0 0.0 0.0
vn -1.0 0.0 0.0
vn -1.0 0.0 0.0
vn 1.0 0.0 0.0
vn 1.0 0.0 0.0
vn 1.0 0.0 0.0
vn 1.0 0.0 0.0
vn 1.0 0.0 0.0
vn 1.0 0.0 0.0
vn 0.0 -1.0 0.0
vn 0.0 -1.0 0.0
vn 0.0 -1.0 0.0
vn 0.0 -1.0 0.0
vn 0.0 -1.0 0.0
vn 0.0 -1.0 0.0
vn 0.0 1.0 0.0
vn 0.0 1.0 0.0
vn 0.0 1.0 0.0
vn 0.0 1.0 0.0
vn 0.0 1.0 0.0
vn 0.0 1.0 0.0
vn 0.0 0.0 1.0
vn 0.0 0.0 1.0
vn 0.0 0.0 1.0
vn 0.0 0.0 1.0
vn 0.0 0.0 1.0
vn 0.0 0.0 1.0
vn -1.0 0.0 0.0
vn -1.0 0.0 0.0
vn -1.0 0.0 0.0
vn -1.0 0.0 0.0
vn -1.0 0.0 0.0
vn -1.0 0.0 0.0
vn 1.0 0.0 0.0
vn 1.0 0.0 0.0
vn 1.0 0.0 0.0
vn 1.0 0.0 0.0
vn 1.0 0.0 0.0
vn 1.0 0.0 0.0
vn 0.0 -1.0 0.0
vn 0.0 -1.0 0.0
vn 0.0 -1.0 0.0
vn 0.0 -1.0 0.0
vn 0.0 -1.0 0.0
vn 0.0 -1.0 0.0
vn 0.0 1.0 0.0
vn 0.0 1.0 0.0
vn 0.0 1.0 0.0
vn 0.0 1.0 0.0
vn 0.0 1.0 0.0
vn 0.0 1.0 0.0

# group, 32 grouped triangles

usemtl floor.jpg
o group
g group

f 3/1/1 4/2/2 2/3/3
f 2/4/4 1/5/5 3/6/6
f 7/7/7 6/8/8 5/9/9
f 7/10/10 8/11/11 6/12/12
f 5/13/13 10/14/14 7/15/15
f 10/16/16 12/17/17 7/18/18
f 9/19/19 6/20/20 11/21/21
f 6/22/22 8/23/23 11/24/24
f 12/25/25 11/26/26 7/27/27
f 11/28/28 8/29/29 7/30/30
f 9/31/31 10/32/32 6/33/33
f 10/34/34 5/35/35 6/36/36
f 15/37/37 14/38/38 13/39/39
f 15/40/40 16/41/41 14/42/42
f 13/43/43 18/44/44 15/45/45
f 18/46/46 20/47/47 15/48/48
f 17/49/49 14/50/50 19/51/51
f 14/52/52 16/53/53 19/54/54
f 20/55/55 19/56/56 15/57/57
f 19/58/58 16/59/59 15/60/60
f 17/61/61 18/62/62 14/63/63
f 18/64/64 13/65/65 14/66/66
f 23/67/67 22/68/68 21/69/69
f 23/70/70 24/71/71 22/72/72
f 21/73/73 26/74/74 23/75/75
f 26/76/76 28/77/77 23/78/78
f 25/79/79 22/80/80 27/81/81
f 22/82/82 24/83/83 27/84/84
f 28/85/85 27/86/86 23/87/87
f 27/88/88 24/89/89 23/90/90
f 25/91/91 26/92/92 22/93/93
f 26/94/94 21/95/95 22/96/96
