# Wavefront OBJ file
# Exported by Maverick Model 3D 1.3.15
# Mon Sep 14 12:02:00 2026

mtllib shop.mtl

# 123 Vertices
v 5.0 5.0 5.0
v -5.0 5.0 5.0
v 5.0 -0.0 5.0
v -5.0 -0.0 5.0
v -4.993 5.0 5.145
v 4.991 5.0 5.145
v -4.993 4.901 5.145
v 4.991 4.901 5.145
v 4.991 5.0 5.0
v -4.993 5.0 5.0
v 4.991 4.751 5.0
v -4.993 4.751 5.0
v -2.213 3.548 5.006
v -2.213 3.07 6.373
v 2.691 3.548 5.006
v 2.691 3.07 6.373
v -2.213 3.548 5.006
v 2.691 3.548 5.006
v -2.213 3.005 6.374
v 2.691 3.005 6.374
v -2.213 3.005 6.374
v 2.691 3.005 6.374
v -2.305 3.709 5.165
v 2.757 3.709 5.165
v -2.305 4.679 5.165
v 2.757 4.679 5.165
v 2.757 3.709 4.996
v -2.305 3.709 4.996
v 2.757 4.679 4.996
v -2.305 4.679 4.996
v 0.719 3.078 6.377
v 2.617 3.039 6.352
v 2.617 3.009 6.364
v 2.617 2.654 4.92
v 2.617 2.623 4.932
v -2.14 3.039 6.352
v -2.14 3.009 6.364
v -2.14 2.654 4.92
v -2.14 2.623 4.932
v -4.393 -0.0 5.0
v -4.396 3.001 5.0
v -2.688 -0.0 5.0
v -2.685 2.997 5.0
v -3.671 3.692 5.0
v -3.384 3.692 5.0
v -4.356 3.293 5.0
v -2.849 3.45 5.0
v -3.11 3.614 5.0
v -2.712 3.268 5.0
v -4.189 3.471 5.0
v -3.949 3.621 5.0
v -0.137 -0.0 5.0
v 1.089 -0.0 5.0
v -0.137 2.647 5.0
v 1.089 2.647 5.0
v 3.428 -0.0 5.0
v 4.68 -0.0 5.0
v 3.428 2.833 5.0
v 4.68 2.833 5.0
v -4.393 -0.0 4.329
v -4.396 3.001 4.329
v -2.688 -0.0 4.329
v -2.685 2.997 4.329
v -3.671 3.692 4.329
v -3.384 3.692 4.329
v -4.356 3.293 4.329
v -2.849 3.45 4.329
v -3.11 3.614 4.329
v -2.712 3.268 4.329
v -4.189 3.471 4.329
v -3.949 3.621 4.329
v -0.137 -0.0 4.7
v 1.089 -0.0 4.7
v -0.137 2.647 4.7
v 1.089 2.647 4.7
v 3.429 -0.0 4.7
v 4.683 -0.0 4.7
v 3.429 2.832 4.7
v 4.683 2.832 4.7
v -4.773 0.546 4.787
v -4.77 0.278 4.787
v -2.261 0.546 4.787
v -2.261 0.278 4.787
v -4.773 0.546 4.329
v -2.261 0.546 4.329
v -4.77 0.278 5.249
v -4.77 -0.0 5.249
v -2.261 0.278 5.249
v -2.261 -0.0 5.249
v -2.259 -0.0 4.788
v -4.765 -0.0 4.788
v -0.294 0.293 4.964
v -0.292 0.158 4.964
v 1.327 0.293 4.964
v 1.327 0.158 4.964
v -0.294 0.293 4.682
v 1.327 0.293 4.682
v -0.292 0.158 5.249
v -0.292 0.014 5.249
v 1.327 0.158 5.249
v 1.327 0.014 5.249
v 1.328 0.013 4.965
v -0.288 0.013 4.965
v 3.298 0.3 4.964
v 3.3 0.161 4.964
v 4.859 0.3 4.964
v 4.859 0.161 4.964
v 3.298 0.3 4.682
v 4.859 0.3 4.682
v 3.3 0.161 5.249
v 3.3 0.015 5.249
v 4.859 0.161 5.249
v 4.859 0.015 5.249
v 4.861 0.013 4.965
v 3.304 0.013 4.965
v -3.663 3.695 5.139
v -3.399 3.695 5.139
v -3.765 4.345 5.139
v -3.285 4.345 5.139
v -3.399 3.695 4.99
v -3.663 3.695 4.99
v -3.285 4.345 4.99
v -3.765 4.345 4.99

# 465 Texture Coordinates
vt 0.290652 0.754395
vt 0.757941 0.816645
vt 0.569985 0.755473
vt 0.290652 0.816645
vt 0.290652 0.754395
vt 0.757941 0.754395
vt 0.757941 0.754395
vt 0.757941 0.816645
vt 0.290652 0.816645
vt 0.000221 0.987428
vt 0.998914 0.999908
vt 0.000221 0.999908
vt 0.000221 0.987428
vt 0.998914 0.987428
vt 0.998914 0.999908
vt 0.603778 0.527832
vt 0.000221 0.545701
vt 0.603778 0.545701
vt 0.603778 0.527832
vt 0.000221 0.527832
vt 0.000221 0.545701
vt 0.000221 0.999908
vt 0.000221 0.999908
vt 0.000221 0.987428
vt 0.000221 0.999908
vt 0.000221 0.970932
vt 0.000221 0.987428
vt 0.998914 0.999908
vt 0.998914 0.999908
vt 0.998914 0.970932
vt 0.998914 0.999908
vt 0.998914 0.987428
vt 0.998914 0.970932
vt 0.000221 0.970932
vt 0.998914 0.970932
vt 0.000221 0.987428
vt 0.998914 0.970932
vt 0.998914 0.987428
vt 0.000221 0.987428
vt 0.998914 0.999908
vt 0.000221 0.999908
vt 0.998914 0.999908
vt 0.000221 0.999908
vt 0.000221 0.999908
vt 0.998914 0.999908
vt 0.757941 0.754395
vt 0.290652 0.754395
vt 0.290652 0.816645
vt 0.290652 0.816645
vt 0.757941 0.816645
vt 0.757941 0.754395
vt 0.290652 0.754395
vt 0.290652 0.745897
vt 0.757941 0.745897
vt 0.757941 0.745897
vt 0.757941 0.754395
vt 0.290652 0.754395
vt 0.757941 0.745897
vt 0.290652 0.745897
vt 0.290652 0.754395
vt 0.290652 0.754395
vt 0.757941 0.754395
vt 0.757941 0.745897
vt 0.270117 0.830895
vt 0.770944 0.830895
vt 0.270117 0.952654
vt 0.770944 0.830895
vt 0.770944 0.952654
vt 0.270117 0.952654
vt 0.270117 0.952654
vt 0.270117 0.830895
vt 0.270117 0.830895
vt 0.270117 0.952654
vt 0.270117 0.952654
vt 0.270117 0.830895
vt 0.770944 0.952654
vt 0.770944 0.830895
vt 0.770944 0.830895
vt 0.770944 0.952654
vt 0.770944 0.952654
vt 0.770944 0.830895
vt 0.270117 0.952654
vt 0.770944 0.952654
vt 0.270117 0.952654
vt 0.270117 0.952654
vt 0.770944 0.952654
vt 0.770944 0.952654
vt 0.770944 0.830895
vt 0.270117 0.830895
vt 0.770944 0.830895
vt 0.770944 0.830895
vt 0.270117 0.830895
vt 0.270117 0.830895
vt 0.437209 0.424297
vt 0.437039 0.422597
vt 0.456861 0.401049
vt 0.456861 0.401049
vt 0.457031 0.402749
vt 0.437209 0.424297
vt 0.456861 0.401049
vt 0.437039 0.422597
vt 0.437209 0.424297
vt 0.437209 0.424297
vt 0.457031 0.402749
vt 0.456861 0.401049
vt 0.437209 0.424297
vt 0.437039 0.422597
vt 0.456861 0.401049
vt 0.456861 0.401049
vt 0.457031 0.402749
vt 0.437209 0.424297
vt 0.456861 0.401049
vt 0.437039 0.422597
vt 0.437209 0.424297
vt 0.437209 0.424297
vt 0.457031 0.402749
vt 0.456861 0.401049
vt 0.053424 0.359415
vt 0.053424 0.74119
vt 0.02267 0.74119
vt 0.02267 0.74119
vt 0.02267 0.359415
vt 0.053424 0.359415
vt 0.003477 0.741022
vt 0.019228 0.801254
vt 0.060101 0.781707
vt 0.060101 0.781707
vt 0.055845 0.738317
vt 0.003477 0.741022
vt 0.123466 0.880912
vt 0.165286 0.878969
vt 0.1589 0.832223
vt 0.1589 0.832223
vt 0.129852 0.834166
vt 0.123466 0.880912
vt 0.165286 0.878969
vt 0.210429 0.864721
vt 0.188077 0.823805
vt 0.188077 0.823805
vt 0.1589 0.832223
vt 0.165286 0.878969
vt 0.243567 0.839464
vt 0.259433 0.801254
vt 0.22367 0.77847
vt 0.22367 0.77847
vt 0.210359 0.802432
vt 0.243567 0.839464
vt 0.019228 0.801254
vt 0.044373 0.839464
vt 0.078859 0.803728
vt 0.078859 0.803728
vt 0.060101 0.781707
vt 0.019228 0.801254
vt 0.210429 0.864721
vt 0.243567 0.839464
vt 0.210359 0.802432
vt 0.210359 0.802432
vt 0.188077 0.823805
vt 0.210429 0.864721
vt 0.044373 0.839464
vt 0.078364 0.865369
vt 0.101356 0.822509
vt 0.101356 0.822509
vt 0.078859 0.803728
vt 0.044373 0.839464
vt 0.078364 0.865369
vt 0.123466 0.880912
vt 0.129852 0.834166
vt 0.129852 0.834166
vt 0.101356 0.822509
vt 0.078364 0.865369
vt 0.053424 0.740738
vt 0.053424 0.359415
vt 0.02267 0.359415
vt 0.02267 0.359415
vt 0.02267 0.740738
vt 0.053424 0.740738
vt 0.259433 0.801254
vt 0.265113 0.737785
vt 0.231266 0.73702
vt 0.231266 0.73702
vt 0.22367 0.77847
vt 0.259433 0.801254
vt 0.951733 0.531496
vt 0.951733 0.702947
vt 0.858449 0.702947
vt 0.858449 0.702947
vt 0.858449 0.531496
vt 0.951733 0.531496
vt 0.495354 0.506638
vt 0.594065 0.506638
vt 0.594065 0.428816
vt 0.594065 0.428816
vt 0.495354 0.428816
vt 0.495354 0.506638
vt 0.951733 0.702947
vt 0.951733 0.531496
vt 0.858449 0.531496
vt 0.858449 0.531496
vt 0.858449 0.702947
vt 0.951733 0.702947
vt 0.951733 0.703127
vt 0.951733 0.531496
vt 0.858449 0.531496
vt 0.858449 0.531496
vt 0.858449 0.703179
vt 0.951733 0.703127
vt 0.951733 0.531496
vt 0.951733 0.703127
vt 0.858449 0.703179
vt 0.858449 0.703179
vt 0.858449 0.531496
vt 0.951733 0.531496
vt 0.50921 0.378009
vt 0.584829 0.378009
vt 0.584829 0.378009
vt 0.584829 0.378009
vt 0.50921 0.378009
vt 0.50921 0.378009
vt 0.999783 1.0
vt 0.0 1.0
vt 0.18896 0.819953
vt 0.0 0.361546
vt 0.060692 0.361546
vt 0.060391 0.742242
vt 0.064369 0.779222
vt 0.0 1.0
vt 0.060391 0.742242
vt 0.060391 0.742242
vt 0.0 1.0
vt 0.0 0.361546
vt 0.0 1.0
vt 0.132873 0.829909
vt 0.161559 0.829909
vt 0.0 1.0
vt 0.161559 0.829909
vt 0.18896 0.819953
vt 0.228778 0.776054
vt 0.999783 1.0
vt 0.215077 0.799135
vt 0.0 1.0
vt 0.064369 0.779222
vt 0.081067 0.80185
vt 0.215077 0.799135
vt 0.999783 1.0
vt 0.18896 0.819953
vt 0.0 1.0
vt 0.081067 0.80185
vt 0.105043 0.820858
vt 0.0 1.0
vt 0.105043 0.820858
vt 0.132873 0.829909
vt 0.231194 0.361546
vt 0.486212 0.361546
vt 0.231484 0.741789
vt 0.228778 0.776054
vt 0.486212 0.697412
vt 0.999783 1.0
vt 0.231484 0.741789
vt 0.486212 0.697412
vt 0.228778 0.776054
vt 0.486212 0.361546
vt 0.486212 0.697412
vt 0.231484 0.741789
vt 0.999783 1.0
vt 0.486212 0.697412
vt 0.608764 0.697412
vt 0.608764 0.361546
vt 0.842577 0.361546
vt 0.608764 0.697412
vt 0.608764 0.697412
vt 0.842577 0.720976
vt 0.999783 1.0
vt 0.999783 0.361546
vt 0.999783 1.0
vt 0.967748 0.720976
vt 0.999783 0.361546
vt 0.967748 0.720976
vt 0.967748 0.361546
vt 0.608764 0.697412
vt 0.842577 0.361546
vt 0.842577 0.720976
vt 0.999783 1.0
vt 0.842577 0.720976
vt 0.967748 0.720976
vt 0.068888 0.362939
vt 0.222893 0.362939
vt 0.223155 0.731332
vt 0.223155 0.731332
vt 0.068615 0.73177
vt 0.068888 0.362939
vt 0.220711 0.764529
vt 0.208336 0.786891
vt 0.223155 0.731332
vt 0.223155 0.731332
vt 0.208336 0.786891
vt 0.184745 0.80706
vt 0.184745 0.80706
vt 0.159995 0.816706
vt 0.223155 0.731332
vt 0.159995 0.816706
vt 0.134085 0.816706
vt 0.223155 0.731332
vt 0.223155 0.731332
vt 0.134085 0.816706
vt 0.108948 0.807936
vt 0.108948 0.807936
vt 0.087291 0.789521
vt 0.223155 0.731332
vt 0.087291 0.789521
vt 0.072209 0.767599
vt 0.223155 0.731332
vt 0.068615 0.73177
vt 0.223155 0.731332
vt 0.072209 0.767599
vt 0.064409 0.417653
vt 0.064409 0.393303
vt 0.231838 0.393303
vt 0.231838 0.393303
vt 0.231838 0.417653
vt 0.064409 0.417653
vt 0.016943 0.58492
vt 0.016943 0.534172
vt 0.049156 0.534172
vt 0.049156 0.534172
vt 0.049156 0.58492
vt 0.016943 0.58492
vt 0.064409 0.393303
vt 0.064409 0.368818
vt 0.231838 0.368818
vt 0.231838 0.368818
vt 0.231838 0.393303
vt 0.064409 0.393303
vt 0.016943 0.534172
vt 0.016943 0.483046
vt 0.049156 0.483046
vt 0.049156 0.483046
vt 0.049156 0.534172
vt 0.016943 0.534172
vt 0.147333 0.196352
vt 0.147333 0.187025
vt 0.157441 0.187025
vt 0.147333 0.196352
vt 0.147333 0.187025
vt 0.157441 0.187025
vt 0.157441 0.187025
vt 0.147333 0.187025
vt 0.147333 0.196352
vt 0.157441 0.187025
vt 0.147333 0.187025
vt 0.147333 0.196352
vt 0.608764 0.697412
vt 0.486212 0.697412
vt 0.486212 0.361546
vt 0.486212 0.361546
vt 0.608764 0.361546
vt 0.608764 0.697412
vt 0.968082 0.720875
vt 0.842675 0.720875
vt 0.842675 0.361546
vt 0.842675 0.361546
vt 0.968082 0.361546
vt 0.968082 0.720875
vt 0.070512 0.418706
vt 0.070512 0.395991
vt 0.21123 0.395991
vt 0.21123 0.395991
vt 0.21123 0.418706
vt 0.070512 0.418706
vt 0.008532 0.58012
vt 0.008532 0.531367
vt 0.052542 0.531367
vt 0.052542 0.531367
vt 0.052542 0.58012
vt 0.008532 0.58012
vt 0.070512 0.395991
vt 0.070512 0.37315
vt 0.21123 0.37315
vt 0.21123 0.37315
vt 0.21123 0.395991
vt 0.070512 0.395991
vt 0.008532 0.531367
vt 0.008532 0.482252
vt 0.052542 0.482252
vt 0.052542 0.482252
vt 0.052542 0.531367
vt 0.008532 0.531367
vt 0.147333 0.196352
vt 0.147333 0.187025
vt 0.157441 0.187025
vt 0.147333 0.196352
vt 0.147333 0.187025
vt 0.157441 0.187025
vt 0.157441 0.187025
vt 0.147333 0.187025
vt 0.147333 0.196352
vt 0.157441 0.187025
vt 0.147333 0.187025
vt 0.147333 0.196352
vt 0.023579 0.41829
vt 0.023579 0.393898
vt 0.279501 0.393898
vt 0.279501 0.393898
vt 0.279501 0.41829
vt 0.023579 0.41829
vt 0.005382 0.583791
vt 0.005382 0.532955
vt 0.054621 0.532955
vt 0.054621 0.532955
vt 0.054621 0.583791
vt 0.005382 0.583791
vt 0.023579 0.393898
vt 0.023579 0.36937
vt 0.279501 0.36937
vt 0.279501 0.36937
vt 0.279501 0.393898
vt 0.023579 0.393898
vt 0.005382 0.532955
vt 0.005382 0.481741
vt 0.054621 0.481741
vt 0.054621 0.481741
vt 0.054621 0.532955
vt 0.005382 0.532955
vt 0.249677 0.419957
vt 0.249677 0.404637
vt 0.266942 0.404637
vt 0.249677 0.419957
vt 0.249677 0.404637
vt 0.266942 0.404637
vt 0.266942 0.404637
vt 0.249677 0.404637
vt 0.249677 0.419957
vt 0.266942 0.404637
vt 0.249677 0.404637
vt 0.249677 0.419957
vt 0.133967 0.824749
vt 0.160328 0.824749
vt 0.123826 0.91065
vt 0.160328 0.824749
vt 0.171719 0.91065
vt 0.123826 0.91065
vt 0.123826 0.91065
vt 0.133967 0.824749
vt 0.133967 0.824749
vt 0.123826 0.91065
vt 0.123826 0.91065
vt 0.133967 0.824749
vt 0.171719 0.91065
vt 0.160328 0.824749
vt 0.160328 0.824749
vt 0.171719 0.91065
vt 0.171719 0.91065
vt 0.160328 0.824749
vt 0.123826 0.91065
vt 0.171719 0.91065
vt 0.123826 0.91065
vt 0.123826 0.91065
vt 0.171719 0.91065
vt 0.171719 0.91065
vt 0.160328 0.824749
vt 0.133967 0.824749
vt 0.160328 0.824749
vt 0.160328 0.824749
vt 0.133967 0.824749
vt 0.133967 0.824749

# 465 Vertex Normals
vn 0.000956 -0.589989 -0.807411
vn 0.003137 -0.947362 -0.320148
vn 0.003137 -0.947362 -0.320148
vn 0.0 0.943912 0.330198
vn 0.0 0.390739 0.920501
vn 0.0 0.754803 0.655951
vn 0.0 0.754803 0.655951
vn 0.0 0.943912 0.330198
vn 0.0 0.943912 0.330198
vn 0.0 -0.374505 0.927225
vn 0.0 0.0 1.0
vn 0.0 0.0 1.0
vn 0.0 -0.374505 0.927225
vn 0.0 -0.374505 0.927225
vn 0.0 0.0 1.0
vn 0.0 0.0 -1.0
vn 0.0 0.0 -1.0
vn 0.0 0.0 -1.0
vn 0.0 0.0 -1.0
vn 0.0 0.0 -1.0
vn 0.0 0.0 -1.0
vn -1.0 0.0 0.0
vn -1.0 0.0 0.0
vn -1.0 0.0 0.0
vn -1.0 0.0 0.0
vn -1.0 0.0 0.0
vn -1.0 0.0 0.0
vn 1.0 0.0 0.0
vn 1.0 0.0 0.000002
vn 1.0 0.0 0.000002
vn 1.0 0.0 0.000002
vn 1.0 0.0 0.000004
vn 1.0 0.0 0.000002
vn 0.0 -0.6945 0.719493
vn 0.0 -0.6945 0.719493
vn 0.0 -0.374505 0.927225
vn 0.0 -0.6945 0.719493
vn 0.0 -0.374505 0.927225
vn 0.0 -0.374505 0.927225
vn 0.0 1.0 0.0
vn 0.0 1.0 0.0
vn 0.0 1.0 0.0
vn 0.0 1.0 0.0
vn 0.0 1.0 0.0
vn 0.0 1.0 0.0
vn -0.0 -0.754803 -0.655951
vn 0.000956 -0.589989 -0.807411
vn -0.0 -0.943912 -0.330198
vn -0.0 -0.943912 -0.330198
vn 0.0 -0.943912 -0.330198
vn -0.0 -0.754803 -0.655951
vn 0.0 0.390739 0.920501
vn 0.0 0.022504 0.999747
vn 0.0 0.022504 0.999747
vn 0.0 0.022504 0.999747
vn 0.0 0.754803 0.655951
vn 0.0 0.390739 0.920501
vn -0.0 -0.022504 -0.999747
vn 0.0 -0.022504 -0.999747
vn 0.000956 -0.589989 -0.807411
vn 0.000956 -0.589989 -0.807411
vn -0.0 -0.754803 -0.655951
vn -0.0 -0.022504 -0.999747
vn 0.0 0.0 1.0
vn 0.0 0.0 1.0
vn 0.0 0.0 1.0
vn 0.0 0.0 1.0
vn 0.0 0.0 1.0
vn 0.0 0.0 1.0
vn -1.0 0.0 0.0
vn -1.0 0.0 0.0
vn -1.0 0.0 0.0
vn -1.0 0.0 0.0
vn -1.0 0.0 0.0
vn -1.0 0.0 0.0
vn 1.0 0.0 0.0
vn 1.0 0.0 0.0
vn 1.0 0.0 0.0
vn 1.0 0.0 0.0
vn 1.0 0.0 0.0
vn 1.0 0.0 0.0
vn 0.0 1.0 0.0
vn 0.0 1.0 0.0
vn 0.0 1.0 0.0
vn 0.0 1.0 0.0
vn 0.0 1.0 0.0
vn 0.0 1.0 0.0
vn 0.0 -1.0 0.0
vn 0.0 -1.0 0.0
vn 0.0 -1.0 0.0
vn 0.0 -1.0 0.0
vn 0.0 -1.0 0.0
vn 0.0 -1.0 0.0
vn 1.0 0.0 0.0
vn 1.0 0.0 -0.0
vn 1.0 0.0 0.0
vn 1.0 0.0 0.0
vn 1.0 0.0 0.000001
vn 1.0 0.0 0.0
vn -1.0 0.0 0.0
vn -1.0 0.0 0.0
vn -1.0 0.0 0.0
vn -1.0 0.0 0.0
vn -1.0 0.0 0.0
vn -1.0 0.0 0.0
vn 1.0 0.0 0.0
vn 1.0 0.0 0.0
vn 1.0 0.0 0.0
vn 1.0 0.0 0.0
vn 1.0 0.0 0.0
vn 1.0 0.0 0.0
vn -1.0 0.0 0.0
vn -1.0 0.0 0.0
vn -1.0 0.0 0.0
vn -1.0 0.0 0.0
vn -1.0 0.0 0.0
vn -1.0 0.0 0.0
vn 1.0 0.001005 0.0
vn 0.995943 -0.08998 0.0
vn 0.99901 -0.044487 0.0
vn 0.99901 -0.044487 0.0
vn 1.0 0.001005 0.0
vn 1.0 0.001005 0.0
vn 0.995943 -0.08998 0.0
vn 0.852658 -0.522469 0.0
vn 0.943356 -0.331781 0.0
vn 0.943356 -0.331781 0.0
vn 0.99901 -0.044487 0.0
vn 0.995943 -0.08998 0.0
vn 0.083379 -0.996518 0.0
vn -0.185197 -0.982701 0.0
vn -0.092598 -0.995704 0.0
vn -0.092598 -0.995704 0.0
vn 0.166759 -0.985998 0.0
vn 0.083379 -0.996518 0.0
vn -0.185197 -0.982701 0.0
vn -0.450505 -0.892774 0.0
vn -0.364177 -0.93133 0.0
vn -0.364177 -0.93133 0.0
vn -0.092598 -0.995704 0.0
vn -0.185197 -0.982701 0.0
vn -0.720547 -0.693406 0.0
vn -0.961164 -0.275978 0.0
vn -0.893569 -0.448926 0.0
vn -0.893569 -0.448926 0.0
vn -0.630291 -0.776359 0.0
vn -0.720547 -0.693406 0.0
vn 0.852658 -0.522469 0.0
vn 0.601214 -0.799088 0.0
vn 0.668412 -0.743791 0.0
vn 0.668412 -0.743791 0.0
vn 0.943356 -0.331781 0.0
vn 0.852658 -0.522469 0.0
vn -0.450505 -0.892774 0.0
vn -0.720547 -0.693406 0.0
vn -0.630291 -0.776359 0.0
vn -0.630291 -0.776359 0.0
vn -0.364177 -0.93133 0.0
vn -0.450505 -0.892774 0.0
vn 0.601214 -0.799088 0.0
vn 0.345893 -0.938274 0.0
vn 0.440764 -0.897623 0.0
vn 0.440764 -0.897623 0.0
vn 0.668412 -0.743791 0.0
vn 0.601214 -0.799088 0.0
vn 0.345893 -0.938274 0.0
vn 0.083379 -0.996518 0.0
vn 0.166759 -0.985998 0.0
vn 0.166759 -0.985998 0.0
vn 0.440764 -0.897623 0.0
vn 0.345893 -0.938274 0.0
vn -0.999468 -0.032609 0.0
vn -1.0 0.000968 0.0
vn -1.0 0.000968 0.0
vn -1.0 0.000968 0.0
vn -0.997807 -0.066186 0.0
vn -0.999468 -0.032609 0.0
vn -0.961164 -0.275978 0.0
vn -0.999468 -0.032609 0.0
vn -0.997807 -0.066186 0.0
vn -0.997807 -0.066186 0.0
vn -0.893569 -0.448926 0.0
vn -0.961164 -0.275978 0.0
vn 1.0 0.0 0.0
vn 1.0 0.0 0.0
vn 1.0 0.0 0.0
vn 1.0 0.0 0.0
vn 1.0 0.0 0.0
vn 1.0 0.0 0.0
vn 0.0 -1.0 0.0
vn 0.0 -1.0 0.0
vn 0.0 -1.0 0.0
vn 0.0 -1.0 0.0
vn 0.0 -1.0 0.0
vn 0.0 -1.0 0.0
vn -1.0 0.0 0.0
vn -1.0 0.0 0.0
vn -1.0 0.0 0.0
vn -1.0 0.0 0.0
vn -1.0 0.0 0.0
vn -1.0 0.0 0.0
vn -0.999938 0.0 -0.011111
vn -0.999938 0.0 -0.01111
vn -0.999938 0.0 -0.011111
vn -0.999938 0.0 -0.011111
vn -0.999938 0.0 -0.011111
vn -0.999938 0.0 -0.011111
vn 0.999995 0.0 0.003246
vn 0.999995 0.0 0.003247
vn 0.999995 0.0 0.003246
vn 0.999995 0.0 0.003246
vn 0.999995 0.0 0.003246
vn 0.999995 0.0 0.003246
vn 0.0 -0.999997 0.002659
vn 0.0 -0.999997 0.002659
vn 0.0 -0.999997 0.002659
vn 0.0 -0.999997 0.002659
vn 0.0 -0.999996 0.002659
vn 0.0 -0.999997 0.002659
vn 0.0 0.0 1.0
vn 0.0 0.0 1.0
vn 0.0 0.0 1.0
vn 0.0 0.0 1.0
vn 0.0 0.0 1.0
vn 0.0 0.0 1.0
vn 0.0 0.0 1.0
vn 0.0 0.0 1.0
vn 0.0 0.0 1.0
vn 0.0 0.0 1.0
vn 0.0 0.0 1.0
vn 0.0 0.0 1.0
vn 0.0 0.0 1.0
vn 0.0 0.000001 1.0
vn 0.0 0.000001 1.0
vn 0.0 0.0 1.0
vn 0.0 0.000001 1.0
vn 0.0 0.0 1.0
vn 0.0 -0.000001 1.0
vn 0.0 0.0 1.0
vn 0.0 0.0 1.0
vn 0.0 0.0 1.0
vn 0.0 0.0 1.0
vn 0.0 0.0 1.0
vn 0.0 0.0 1.0
vn 0.0 0.0 1.0
vn 0.0 0.0 1.0
vn 0.0 0.0 1.0
vn 0.0 0.0 1.0
vn 0.0 0.0 1.0
vn 0.0 0.0 1.0
vn 0.0 0.0 1.0
vn 0.0 0.000001 1.0
vn 0.0 0.0 1.0
vn 0.0 0.0 1.0
vn 0.0 -0.0 1.0
vn 0.0 -0.000001 1.0
vn 0.0 -0.0 1.0
vn 0.0 0.0 1.0
vn 0.0 -0.0 1.0
vn 0.0 -0.0 1.0
vn 0.0 -0.000001 1.0
vn 0.0 0.0 1.0
vn 0.0 -0.0 1.0
vn 0.0 -0.0 1.0
vn 0.0 0.0 1.0
vn 0.0 -0.0 1.0
vn 0.0 0.0 1.0
vn 0.0 0.0 1.0
vn 0.0 0.0 1.0
vn 0.0 0.0 1.0
vn 0.0 0.0 1.0
vn 0.0 0.0 1.0
vn 0.0 0.0 1.0
vn 0.0 0.0 1.0
vn 0.0 0.0 1.0
vn 0.0 0.0 1.0
vn 0.0 0.0 1.0
vn 0.0 0.0 1.0
vn 0.0 0.0 1.0
vn 0.0 0.0 1.0
vn 0.0 0.0 1.0
vn 0.0 0.0 1.0
vn 0.0 0.0 1.0
vn 0.0 0.0 1.0
vn 0.0 0.0 1.0
vn 0.0 0.0 1.0
vn 0.0 0.0 1.0
vn 0.0 -0.0 1.0
vn 0.0 -0.0 1.0
vn 0.0 0.0 1.0
vn 0.0 0.0 1.0
vn 0.0 0.0 1.0
vn 0.0 -0.0 1.0
vn 0.0 -0.0 1.0
vn 0.0 -0.0 1.0
vn 0.0 -0.0 1.0
vn 0.0 -0.000001 1.0
vn 0.0 -0.000001 1.0
vn 0.0 -0.000001 1.0
vn 0.0 -0.0 1.0
vn 0.0 -0.000001 1.0
vn 0.0 -0.0 1.0
vn 0.0 -0.0 1.0
vn 0.0 -0.0 1.0
vn 0.0 -0.0 1.0
vn 0.0 -0.0 1.0
vn 0.0 -0.0 1.0
vn 0.0 -0.0 1.0
vn 0.0 -0.0 1.0
vn 0.0 -0.0 1.0
vn 0.0 0.0 1.0
vn 0.0 -0.0 1.0
vn 0.0 0.0 1.0
vn 0.0 -0.0 1.0
vn 0.0 0.0 1.0
vn 0.0 0.0 1.0
vn 0.0 0.0 1.0
vn 0.0 0.0 1.0
vn 0.0 0.0 1.0
vn 0.0 0.0 1.0
vn 0.0 0.0 1.0
vn 0.0 1.0 0.0
vn 0.0 1.0 0.0
vn 0.0 1.0 0.0
vn 0.0 1.0 0.0
vn 0.0 1.0 0.0
vn 0.0 1.0 0.0
vn 0.0 0.0 1.0
vn 0.0 0.0 1.0
vn 0.0 0.0 1.0
vn 0.0 0.0 1.0
vn 0.0 0.0 1.0
vn 0.0 0.0 1.0
vn 0.0 1.0 0.0
vn 0.0 1.0 0.0
vn 0.0 1.0 0.0
vn 0.0 1.0 0.0
vn 0.0 1.0 0.0
vn 0.0 1.0 0.0
vn 0.999982 0.005074 0.003058
vn 1.0 0.0 0.0
vn 0.999982 0.005074 0.003058
vn 0.999982 0.005074 0.003058
vn 0.999982 0.005074 0.003058
vn 0.99993 0.010148 0.006115
vn -0.999928 -0.010294 -0.006203
vn -1.0 0.0 0.0
vn -0.999928 -0.010294 -0.006203
vn -0.999711 -0.020586 -0.012405
vn -0.999928 -0.010294 -0.006203
vn -0.999928 -0.010294 -0.006203
vn 0.0 0.0 1.0
vn 0.0 0.0 1.0
vn 0.0 0.0 1.0
vn 0.0 0.0 1.0
vn 0.0 0.0 1.0
vn 0.0 0.0 1.0
vn 0.0 0.0 1.0
vn 0.0 0.0 1.0
vn 0.0 0.0 1.0
vn 0.0 0.0 1.0
vn 0.0 0.0 1.0
vn 0.0 0.0 1.0
vn 0.0 -0.000002 1.0
vn 0.0 -0.000005 1.0
vn 0.0 -0.000002 1.0
vn 0.0 -0.000002 1.0
vn 0.0 0.0 1.0
vn 0.0 -0.000002 1.0
vn 0.0 1.0 0.0
vn 0.0 1.0 0.0
vn 0.0 1.0 0.0
vn 0.0 1.0 0.0
vn 0.0 1.0 0.0
vn 0.0 1.0 0.0
vn 0.0 0.0 1.0
vn 0.0 0.0 1.0
vn 0.0 0.0 1.0
vn 0.0 0.0 1.0
vn 0.0 0.0 1.0
vn 0.0 0.0 1.0
vn 0.0 1.0 0.0
vn 0.0 1.0 0.0
vn 0.0 1.0 0.0
vn 0.0 1.0 0.0
vn 0.0 1.0 0.0
vn 0.0 1.0 0.0
vn 0.999975 0.006285 0.003162
vn 1.0 0.0 0.0
vn 0.999975 0.006285 0.003162
vn 0.999975 0.006285 0.003162
vn 0.999975 0.006285 0.003162
vn 0.999901 0.01257 0.006324
vn -0.999898 -0.012757 -0.006418
vn -1.0 0.0 0.0
vn -0.999898 -0.012757 -0.006418
vn -0.999592 -0.025511 -0.012835
vn -0.999898 -0.012757 -0.006418
vn -0.999898 -0.012757 -0.006418
vn 0.0 -0.0 1.0
vn 0.0 -0.0 1.0
vn 0.0 -0.0 1.0
vn 0.0 -0.0 1.0
vn 0.0 0.0 1.0
vn 0.0 -0.0 1.0
vn 0.0 1.0 0.0
vn 0.0 1.0 0.0
vn 0.0 1.0 0.0
vn 0.0 1.0 0.0
vn 0.0 1.0 0.0
vn 0.0 1.0 0.0
vn 0.0 0.0 1.0
vn 0.0 0.0 1.0
vn 0.0 0.0 1.0
vn 0.0 0.0 1.0
vn 0.0 0.0 1.0
vn 0.0 0.0 1.0
vn 0.0 1.0 0.0
vn 0.0 1.0 0.0
vn 0.0 1.0 0.0
vn 0.0 1.0 0.0
vn 0.0 1.0 0.0
vn 0.0 1.0 0.0
vn 0.999978 0.00591 0.003045
vn 1.0 0.0 0.0
vn 0.999978 0.00591 0.003045
vn 0.999978 0.00591 0.003045
vn 0.999978 0.00591 0.003045
vn 0.999912 0.01182 0.006089
vn -0.999909 -0.011997 -0.006182
vn -1.0 0.0 0.0
vn -0.999909 -0.011997 -0.006182
vn -0.999636 -0.023993 -0.012363
vn -0.999909 -0.011997 -0.006182
vn -0.999909 -0.011997 -0.006182
vn 0.0 -0.000001 1.0
vn 0.0 -0.0 1.0
vn 0.0 -0.0 1.0
vn 0.0 -0.0 1.0
vn 0.0 0.0 1.0
vn 0.0 -0.0 1.0
vn -0.988016 -0.154353 0.0
vn -0.650249 -0.759721 0.0
vn -0.650249 -0.759721 0.0
vn -0.988016 -0.154353 0.0
vn -0.988016 -0.154353 0.0
vn -0.650249 -0.759721 0.0
vn 0.984951 -0.172834 0.0
vn 0.643104 -0.765779 0.0
vn 0.643104 -0.765779 0.0
vn 0.984951 -0.172834 0.0
vn 0.984951 -0.172834 0.0
vn 0.643104 -0.765779 0.0
vn 0.0 1.0 0.0
vn 0.0 1.0 0.0
vn 0.0 1.0 0.0
vn 0.0 1.0 0.0
vn 0.0 1.0 0.0
vn 0.0 1.0 0.0
vn 0.643104 -0.765779 0.0
vn -0.650249 -0.759721 0.0
vn 0.643104 -0.765779 0.0
vn 0.643104 -0.765779 0.0
vn -0.650249 -0.759721 0.0
vn -0.650249 -0.759721 0.0

# group, 155 grouped triangles

usemtl shop.jpg
o group
g group

f 14/1/1 15/2/2 31/3/3
f 13/4/4 14/5/5 16/6/6
f 16/7/7 15/8/8 13/9/9
f 7/10/10 6/11/11 5/12/12
f 7/13/13 8/14/14 6/15/15
f 11/16/16 10/17/17 9/18/18
f 11/19/19 12/20/20 10/21/21
f 5/22/22 10/23/23 7/24/24
f 10/25/25 12/26/26 7/27/27
f 9/28/28 6/29/29 11/30/30
f 6/31/31 8/32/32 11/33/33
f 12/34/34 11/35/35 7/36/36
f 11/37/37 8/38/38 7/39/39
f 9/40/40 10/41/41 6/42/42
f 10/43/43 5/44/44 6/45/45
f 16/46/46 14/47/47 17/48/48
f 17/49/49 18/50/50 16/51/51
f 14/52/52 19/53/53 20/54/54
f 20/55/55 16/56/56 14/57/57
f 22/58/58 21/59/59 14/60/60
f 14/61/61 16/62/62 22/63/63
f 23/64/64 24/65/65 25/66/66
f 24/67/67 26/68/68 25/69/69
f 25/70/70 28/71/71 23/72/72
f 25/73/73 30/74/74 28/75/75
f 29/76/76 24/77/77 27/78/78
f 29/79/79 26/80/80 24/81/81
f 25/82/82 29/83/83 30/84/84
f 25/85/85 26/86/86 29/87/87
f 24/88/88 28/89/89 27/90/90
f 24/91/91 23/92/92 28/93/93
f 32/94/94 33/95/95 35/96/96
f 35/97/97 34/98/98 32/99/99
f 35/100/100 33/101/101 32/102/102
f 32/103/103 34/104/104 35/105/105
f 36/106/106 37/107/107 39/108/108
f 39/109/109 38/110/110 36/111/111
f 39/112/112 37/113/113 36/114/114
f 36/115/115 38/116/116 39/117/117
f 60/118/118 61/119/119 41/120/120
f 41/121/121 40/122/122 60/123/123
f 61/124/124 66/125/125 46/126/126
f 46/127/127 41/128/128 61/129/129
f 64/130/130 65/131/131 45/132/132
f 45/133/133 44/134/134 64/135/135
f 65/136/136 68/137/137 48/138/138
f 48/139/139 45/140/140 65/141/141
f 67/142/142 69/143/143 49/144/144
f 49/145/145 47/146/146 67/147/147
f 66/148/148 70/149/149 50/150/150
f 50/151/151 46/152/152 66/153/153
f 68/154/154 67/155/155 47/156/156
f 47/157/157 48/158/158 68/159/159
f 70/160/160 71/161/161 51/162/162
f 51/163/163 50/164/164 70/165/165
f 71/166/166 64/167/167 44/168/168
f 44/169/169 51/170/170 71/171/171
f 63/172/172 62/173/173 42/174/174
f 42/175/175 43/176/176 63/177/177
f 69/178/178 63/179/179 43/180/180
f 43/181/181 49/182/182 69/183/183
f 72/184/184 74/185/185 54/186/186
f 54/187/187 52/188/188 72/189/189
f 74/190/190 75/191/191 55/192/192
f 55/193/193 54/194/194 74/195/195
f 75/196/196 73/197/197 53/198/198
f 53/199/199 55/200/200 75/201/201
f 79/202/202 77/203/203 57/204/204
f 57/205/205 59/206/206 79/207/207
f 76/208/208 78/209/209 58/210/210
f 58/211/211 56/212/212 76/213/213
f 78/214/214 79/215/215 59/216/216
f 59/217/217 58/218/218 78/219/219
f 1/220/220 2/221/221 48/222/222
f 4/223/223 40/224/224 41/225/225
f 46/226/226 2/227/227 41/228/228
f 41/229/229 2/230/230 4/231/231
f 2/232/232 44/233/233 45/234/234
f 2/235/235 45/236/236 48/237/237
f 49/238/238 1/239/239 47/240/240
f 2/241/241 46/242/242 50/243/243
f 47/244/244 1/245/245 48/246/246
f 2/247/247 50/248/248 51/249/249
f 2/250/250 51/251/251 44/252/252
f 42/253/253 52/254/254 43/255/255
f 49/256/256 54/257/257 1/258/258
f 43/259/259 54/260/260 49/261/261
f 52/262/262 54/263/263 43/264/264
f 1/265/265 54/266/266 55/267/267
f 53/268/268 56/269/269 55/270/270
f 55/271/271 58/272/272 1/273/273
f 3/274/274 1/275/275 59/276/276
f 3/277/277 59/278/278 57/279/279
f 55/280/280 56/281/281 58/282/282
f 1/283/283 58/284/284 59/285/285
f 60/286/286 62/287/287 63/288/288
f 63/289/289 61/290/290 60/291/291
f 69/292/292 67/293/293 63/294/294
f 63/295/295 67/296/296 68/297/297
f 68/298/298 65/299/299 63/300/300
f 65/301/301 64/302/302 63/303/303
f 63/304/304 64/305/305 71/306/306
f 71/307/307 70/308/308 63/309/309
f 70/310/310 66/311/311 63/312/312
f 61/313/313 63/314/314 66/315/315
f 80/316/316 81/317/317 83/318/318
f 83/319/319 82/320/320 80/321/321
f 84/322/322 80/323/323 82/324/324
f 82/325/325 85/326/326 84/327/327
f 86/328/328 87/329/329 89/330/330
f 89/331/331 88/332/332 86/333/333
f 81/334/334 86/335/335 88/336/336
f 88/337/337 83/338/338 81/339/339
f 83/340/340 88/341/341 89/342/342
f 83/343/343 89/344/344 90/345/345
f 87/346/346 86/347/347 81/348/348
f 91/349/349 87/350/350 81/351/351
f 75/352/352 74/353/353 72/354/354
f 72/355/355 73/356/356 75/357/357
f 79/358/358 78/359/359 76/360/360
f 76/361/361 77/362/362 79/363/363
f 92/364/364 93/365/365 95/366/366
f 95/367/367 94/368/368 92/369/369
f 96/370/370 92/371/371 94/372/372
f 94/373/373 97/374/374 96/375/375
f 98/376/376 99/377/377 101/378/378
f 101/379/379 100/380/380 98/381/381
f 93/382/382 98/383/383 100/384/384
f 100/385/385 95/386/386 93/387/387
f 95/388/388 100/389/389 101/390/390
f 95/391/391 101/392/392 102/393/393
f 99/394/394 98/395/395 93/396/396
f 103/397/397 99/398/398 93/399/399
f 104/400/400 105/401/401 107/402/402
f 107/403/403 106/404/404 104/405/405
f 108/406/406 104/407/407 106/408/408
f 106/409/409 109/410/410 108/411/411
f 110/412/412 111/413/413 113/414/414
f 113/415/415 112/416/416 110/417/417
f 105/418/418 110/419/419 112/420/420
f 112/421/421 107/422/422 105/423/423
f 107/424/424 112/425/425 113/426/426
f 107/427/427 113/428/428 114/429/429
f 111/430/430 110/431/431 105/432/432
f 115/433/433 111/434/434 105/435/435
f 116/436/436 117/437/437 118/438/438
f 117/439/439 119/440/440 118/441/441
f 118/442/442 121/443/443 116/444/444
f 118/445/445 123/446/446 121/447/447
f 122/448/448 117/449/449 120/450/450
f 122/451/451 119/452/452 117/453/453
f 118/454/454 122/455/455 123/456/456
f 118/457/457 119/458/458 122/459/459
f 117/460/460 121/461/461 120/462/462
f 117/463/463 116/464/464 121/465/465
