# Wavefront OBJ file
# Exported by Maverick Model 3D 1.3.15
# Mon Sep 14 11:55:56 2026

mtllib shop.mtl

# 54 Vertices
v 5.0 5.0 5.0
v 5.0 0.0 5.0
v -5.0 5.0 5.0
v -5.0 0.0 5.0
v -4.466 3.992 5.145
v 4.666 3.992 5.145
v -4.466 3.905 5.145
v 4.666 3.905 5.145
v 4.666 3.992 4.988
v -4.466 3.992 4.988
v 4.666 3.905 4.988
v -4.466 3.905 4.988
v -3.959 3.448 5.006
v -3.959 2.693 6.373
v 3.994 3.448 5.006
v 3.994 2.693 6.373
v -3.959 3.448 5.006
v 3.994 3.448 5.006
v -3.959 2.59 6.374
v 3.994 2.59 6.374
v -3.959 2.59 6.374
v 3.994 2.59 6.374
v -3.138 4.015 5.154
v 3.766 4.015 5.154
v -3.138 4.814 5.154
v 3.766 4.814 5.154
v 3.766 4.015 4.981
v -3.138 4.015 4.981
v 3.766 4.814 4.981
v -3.138 4.814 4.981
v -4.995 5.0 5.145
v 5.0 5.0 5.145
v -4.995 4.935 5.145
v 5.0 4.935 5.145
v 5.0 5.0 4.998
v -4.995 5.0 4.998
v 5.0 4.887 4.998
v -4.995 4.887 4.998
v -4.3 0.865 5.084
v -3.197 0.865 5.084
v -4.3 0.824 5.084
v -3.197 0.824 5.084
v -3.197 0.865 4.988
v -4.3 0.865 4.988
v -3.197 0.824 4.988
v -4.3 0.824 4.988
v 4.008 0.865 5.084
v 4.89 0.865 5.084
v 4.008 0.824 5.084
v 4.89 0.824 5.084
v 4.89 0.865 4.988
v 4.008 0.865 4.988
v 4.89 0.824 4.988
v 4.008 0.824 4.988

# 180 Texture Coordinates
vt 0.001146 0.13035
vt 0.001146 0.021016
vt 0.629804 0.021016
vt 0.629804 0.021016
vt 0.629804 0.13035
vt 0.001146 0.13035
vt 0.0 1.0
vt 0.0 0.131472
vt 0.99903 0.131472
vt 0.99903 0.131472
vt 0.99903 1.0
vt 0.0 1.0
vt 0.009207 0.991609
vt 0.009207 0.97649
vt 0.539408 0.97649
vt 0.009207 0.991609
vt 0.009207 0.97649
vt 0.539408 0.97649
vt 0.009207 0.991609
vt 0.539408 0.991609
vt 0.009207 0.97649
vt 0.539408 0.991609
vt 0.539408 0.97649
vt 0.009207 0.97649
vt 0.009207 0.991609
vt 0.539408 0.991609
vt 0.009207 0.97649
vt 0.539408 0.991609
vt 0.539408 0.97649
vt 0.009207 0.97649
vt 0.009207 0.97649
vt 0.539408 0.97649
vt 0.009207 0.991609
vt 0.539408 0.97649
vt 0.539408 0.991609
vt 0.009207 0.991609
vt 0.539408 0.991609
vt 0.009207 0.991609
vt 0.539408 0.97649
vt 0.009207 0.991609
vt 0.009207 0.97649
vt 0.539408 0.97649
vt 0.629804 0.021016
vt 0.001146 0.021016
vt 0.001146 0.13035
vt 0.001146 0.13035
vt 0.629804 0.13035
vt 0.629804 0.021016
vt 0.001146 0.021016
vt 0.001146 0.006092
vt 0.629804 0.006092
vt 0.629804 0.006092
vt 0.629804 0.021016
vt 0.001146 0.021016
vt 0.629804 0.006092
vt 0.001146 0.006092
vt 0.001146 0.021016
vt 0.001146 0.021016
vt 0.629804 0.021016
vt 0.629804 0.006092
vt 0.183249 0.829707
vt 0.873024 0.829707
vt 0.183249 0.956366
vt 0.873024 0.829707
vt 0.873024 0.956366
vt 0.183249 0.956366
vt 0.183249 0.956366
vt 0.183249 0.829707
vt 0.183249 0.829707
vt 0.183249 0.956366
vt 0.183249 0.956366
vt 0.183249 0.829707
vt 0.873024 0.956366
vt 0.873024 0.829707
vt 0.873024 0.829707
vt 0.873024 0.956366
vt 0.873024 0.956366
vt 0.873024 0.829707
vt 0.183249 0.956366
vt 0.873024 0.956366
vt 0.183249 0.956366
vt 0.183249 0.956366
vt 0.873024 0.956366
vt 0.873024 0.956366
vt 0.873024 0.829707
vt 0.183249 0.829707
vt 0.873024 0.829707
vt 0.873024 0.829707
vt 0.183249 0.829707
vt 0.183249 0.829707
vt 0.009207 0.991609
vt 0.009207 0.97649
vt 0.539408 0.97649
vt 0.009207 0.991609
vt 0.009207 0.97649
vt 0.539408 0.97649
vt 0.009207 0.991609
vt 0.539408 0.991609
vt 0.009207 0.97649
vt 0.539408 0.991609
vt 0.539408 0.97649
vt 0.009207 0.97649
vt 0.009207 0.991609
vt 0.539408 0.991609
vt 0.009207 0.97649
vt 0.539408 0.991609
vt 0.539408 0.97649
vt 0.009207 0.97649
vt 0.009207 0.97649
vt 0.539408 0.97649
vt 0.009207 0.991609
vt 0.539408 0.97649
vt 0.539408 0.991609
vt 0.009207 0.991609
vt 0.539408 0.991609
vt 0.009207 0.991609
vt 0.539408 0.97649
vt 0.009207 0.991609
vt 0.009207 0.97649
vt 0.539408 0.97649
vt 0.070826 0.272387
vt 0.179586 0.28219
vt 0.070826 0.28219
vt 0.070826 0.272387
vt 0.179586 0.272387
vt 0.179586 0.28219
vt 0.070826 0.28219
vt 0.070826 0.28219
vt 0.070826 0.272387
vt 0.070826 0.28219
vt 0.070826 0.272387
vt 0.070826 0.272387
vt 0.179586 0.28219
vt 0.179586 0.28219
vt 0.179586 0.272387
vt 0.179586 0.28219
vt 0.179586 0.272387
vt 0.179586 0.272387
vt 0.908523 0.475133
vt 0.983508 0.475133
vt 0.908523 0.454864
vt 0.983508 0.475133
vt 0.983508 0.454864
vt 0.908523 0.454864
vt 0.983508 0.475133
vt 0.908523 0.475133
vt 0.983508 0.454864
vt 0.908523 0.475133
vt 0.908523 0.454864
vt 0.983508 0.454864
vt 0.070826 0.272387
vt 0.179586 0.28219
vt 0.070826 0.28219
vt 0.070826 0.272387
vt 0.179586 0.272387
vt 0.179586 0.28219
vt 0.070826 0.28219
vt 0.070826 0.28219
vt 0.070826 0.272387
vt 0.070826 0.28219
vt 0.070826 0.272387
vt 0.070826 0.272387
vt 0.179586 0.28219
vt 0.179586 0.28219
vt 0.179586 0.272387
vt 0.179586 0.28219
vt 0.179586 0.272387
vt 0.179586 0.272387
vt 0.908523 0.475133
vt 0.983508 0.475133
vt 0.908523 0.454864
vt 0.983508 0.475133
vt 0.983508 0.454864
vt 0.908523 0.454864
vt 0.983508 0.475133
vt 0.908523 0.475133
vt 0.983508 0.454864
vt 0.908523 0.475133
vt 0.908523 0.454864
vt 0.983508 0.454864

# 180 Vertex Normals
vn 0.0 0.875435 0.483337
vn 0.0 0.342078 0.939671
vn 0.0 0.667964 0.744193
vn 0.0 0.667964 0.744193
vn 0.0 0.875434 0.483337
vn 0.0 0.875435 0.483337
vn 0.0 0.0 1.0
vn 0.0 0.0 1.0
vn 0.0 0.0 1.0
vn 0.0 0.0 1.0
vn 0.0 0.0 1.0
vn 0.0 0.0 1.0
vn 0.0 0.0 1.0
vn 0.0 0.0 1.0
vn 0.0 0.0 1.0
vn 0.0 0.0 1.0
vn 0.0 0.0 1.0
vn 0.0 0.0 1.0
vn -1.0 0.0 0.0
vn -1.0 0.0 0.0
vn -1.0 0.0 0.0
vn -1.0 0.0 0.0
vn -1.0 0.0 0.0
vn -1.0 0.0 0.0
vn 1.0 0.0 0.0
vn 1.0 0.0 0.0
vn 1.0 0.0 0.0
vn 1.0 0.0 0.0
vn 1.0 0.0 0.0
vn 1.0 0.0 0.0
vn 0.0 -1.0 0.0
vn 0.0 -1.0 0.0
vn 0.0 -1.0 0.0
vn 0.0 -1.0 0.0
vn 0.0 -1.0 0.0
vn 0.0 -1.0 0.0
vn 0.0 1.0 0.0
vn 0.0 1.0 0.0
vn 0.0 1.0 0.0
vn 0.0 1.0 0.0
vn 0.0 1.0 0.0
vn 0.0 1.0 0.0
vn -0.0 -0.667964 -0.744193
vn -0.0 -0.342078 -0.939671
vn -0.0 -0.875435 -0.483337
vn -0.0 -0.875435 -0.483337
vn 0.0 -0.875434 -0.483337
vn -0.0 -0.667964 -0.744193
vn 0.0 0.342078 0.939671
vn 0.0 0.014263 0.999898
vn 0.0 0.014263 0.999898
vn 0.0 0.014263 0.999898
vn 0.0 0.667964 0.744193
vn 0.0 0.342078 0.939671
vn -0.0 -0.014263 -0.999898
vn 0.0 -0.014263 -0.999898
vn -0.0 -0.342078 -0.939671
vn -0.0 -0.342078 -0.939671
vn -0.0 -0.667964 -0.744193
vn -0.0 -0.014263 -0.999898
vn 0.0 0.0 1.0
vn 0.0 0.0 1.0
vn 0.0 0.0 1.0
vn 0.0 0.0 1.0
vn 0.0 0.0 1.0
vn 0.0 0.0 1.0
vn -1.0 0.0 0.0
vn -1.0 0.0 0.0
vn -1.0 0.0 0.0
vn -1.0 0.0 0.0
vn -1.0 0.0 0.0
vn -1.0 0.0 0.0
vn 1.0 0.0 0.0
vn 1.0 0.0 0.0
vn 1.0 0.0 0.0
vn 1.0 0.0 0.0
vn 1.0 0.0 0.0
vn 1.0 0.0 0.0
vn 0.0 1.0 0.0
vn 0.0 1.0 0.0
vn 0.0 1.0 0.0
vn 0.0 1.0 0.0
vn 0.0 1.0 0.0
vn 0.0 1.0 0.0
vn 0.0 -1.0 0.0
vn 0.0 -1.0 0.0
vn 0.0 -1.0 0.0
vn 0.0 -1.0 0.0
vn 0.0 -1.0 0.0
vn 0.0 -1.0 0.0
vn 0.0 -0.588303 0.80864
vn 0.0 0.0 1.0
vn 0.0 0.0 1.0
vn 0.0 -0.588303 0.80864
vn 0.0 -0.588303 0.80864
vn 0.0 0.0 1.0
vn -1.0 0.0 0.0
vn -1.0 0.0 0.0
vn -1.0 0.0 0.0
vn -1.0 0.0 0.0
vn -1.0 0.0 0.0
vn -1.0 0.0 0.0
vn 1.0 0.0 0.0
vn 1.0 0.0 0.0
vn 1.0 0.0 0.0
vn 1.0 0.0 0.0
vn 1.0 0.0 0.0
vn 1.0 0.0 0.0
vn 0.0 -0.951452 0.307798
vn 0.0 -0.951452 0.307798
vn 0.0 -0.588303 0.80864
vn 0.0 -0.951452 0.307798
vn 0.0 -0.588303 0.80864
vn 0.0 -0.588303 0.80864
vn 0.0 1.0 0.0
vn 0.0 1.0 0.0
vn 0.0 1.0 0.0
vn 0.0 1.0 0.0
vn 0.0 1.0 0.0
vn 0.0 1.0 0.0
vn 0.0 0.0 1.0
vn 0.0 0.0 1.0
vn 0.0 0.0 1.0
vn 0.0 0.0 1.0
vn 0.0 0.0 1.0
vn 0.0 0.0 1.0
vn -1.0 0.0 0.0
vn -1.0 0.0 0.0
vn -1.0 0.0 0.0
vn -1.0 0.0 0.0
vn -1.0 0.0 0.0
vn -1.0 0.0 0.0
vn 1.0 0.0 0.0
vn 1.0 0.0 0.0
vn 1.0 0.0 0.0
vn 1.0 0.0 0.0
vn 1.0 0.0 0.0
vn 1.0 0.0 0.0
vn 0.0 -1.0 0.0
vn 0.0 -1.0 0.0
vn 0.0 -1.0 0.0
vn 0.0 -1.0 0.0
vn 0.0 -1.0 0.0
vn 0.0 -1.0 0.0
vn 0.0 1.0 0.0
vn 0.0 1.0 0.0
vn 0.0 1.0 0.0
vn 0.0 1.0 0.0
vn 0.0 1.0 0.0
vn 0.0 1.0 0.0
vn 0.0 0.0 1.0
vn 0.0 0.0 1.0
vn 0.0 0.0 1.0
vn 0.0 0.0 1.0
vn 0.0 0.0 1.0
vn 0.0 0.0 1.0
vn -1.0 0.0 0.0
vn -1.0 0.0 0.0
vn -1.0 0.0 0.0
vn -1.0 0.0 0.0
vn -1.0 0.0 0.0
vn -1.0 0.0 0.0
vn 1.0 0.0 0.0
vn 1.0 0.0 0.0
vn 1.0 0.0 0.0
vn 1.0 0.0 0.0
vn 1.0 0.0 0.0
vn 1.0 0.0 0.0
vn 0.0 -1.0 0.0
vn 0.0 -1.0 0.0
vn 0.0 -1.0 0.0
vn 0.0 -1.0 0.0
vn 0.0 -1.0 0.0
vn 0.0 -1.0 0.0
vn 0.0 1.0 0.0
vn 0.0 1.0 0.0
vn 0.0 1.0 0.0
vn 0.0 1.0 0.0
vn 0.0 1.0 0.0
vn 0.0 1.0 0.0

# group, 60 grouped triangles

usemtl shop.jpg
o group
g group

f 13/1/1 14/2/2 16/3/3
f 16/4/4 15/5/5 13/6/6
f 3/7/7 4/8/8 2/9/9
f 2/10/10 1/11/11 3/12/12
f 7/13/13 6/14/14 5/15/15
f 7/16/16 8/17/17 6/18/18
f 5/19/19 10/20/20 7/21/21
f 10/22/22 12/23/23 7/24/24
f 9/25/25 6/26/26 11/27/27
f 6/28/28 8/29/29 11/30/30
f 12/31/31 11/32/32 7/33/33
f 11/34/34 8/35/35 7/36/36
f 9/37/37 10/38/38 6/39/39
f 10/40/40 5/41/41 6/42/42
f 16/43/43 14/44/44 17/45/45
f 17/46/46 18/47/47 16/48/48
f 14/49/49 19/50/50 20/51/51
f 20/52/52 16/53/53 14/54/54
f 22/55/55 21/56/56 14/57/57
f 14/58/58 16/59/59 22/60/60
f 23/61/61 24/62/62 25/63/63
f 24/64/64 26/65/65 25/66/66
f 25/67/67 28/68/68 23/69/69
f 25/70/70 30/71/71 28/72/72
f 29/73/73 24/74/74 27/75/75
f 29/76/76 26/77/77 24/78/78
f 25/79/79 29/80/80 30/81/81
f 25/82/82 26/83/83 29/84/84
f 24/85/85 28/86/86 27/87/87
f 24/88/88 23/89/89 28/90/90
f 33/91/91 32/92/92 31/93/93
f 33/94/94 34/95/95 32/96/96
f 31/97/97 36/98/98 33/99/99
f 36/100/100 38/101/101 33/102/102
f 35/103/103 32/104/104 37/105/105
f 32/106/106 34/107/107 37/108/108
f 38/109/109 37/110/110 33/111/111
f 37/112/112 34/113/113 33/114/114
f 35/115/115 36/116/116 32/117/117
f 36/118/118 31/119/119 32/120/120
f 41/121/121 40/122/122 39/123/123
f 41/124/124 42/125/125 40/126/126
f 39/127/127 44/128/128 41/129/129
f 44/130/130 46/131/131 41/132/132
f 43/133/133 40/134/134 45/135/135
f 40/136/136 42/137/137 45/138/138
f 46/139/139 45/140/140 41/141/141
f 45/142/142 42/143/143 41/144/144
f 43/145/145 44/146/146 40/147/147
f 44/148/148 39/149/149 40/150/150
f 49/151/151 48/152/152 47/153/153
f 49/154/154 50/155/155 48/156/156
f 47/157/157 52/158/158 49/159/159
f 52/160/160 54/161/161 49/162/162
f 51/163/163 48/164/164 53/165/165
f 48/166/166 50/167/167 53/168/168
f 54/169/169 53/170/170 49/171/171
f 53/172/172 50/173/173 49/174/174
f 51/175/175 52/176/176 48/177/177
f 52/178/178 47/179/179 48/180/180
