# Wavefront OBJ file
# Exported by Maverick Model 3D 1.3.15
# Tue Sep 22 14:13:27 2026

mtllib floor.mtl

# 36 Vertices
v 5.0 5.0 5.0
v 5.0 0.0 5.0
v -5.0 5.0 5.0
v -5.0 0.0 5.0
v -5.0 4.386 5.015
v 5.0 4.386 5.015
v -5.0 4.475 5.066
v 5.0 4.475 5.066
v 5.0 4.386 4.993
v -5.0 4.386 4.993
v 5.0 4.475 4.993
v -5.0 4.475 4.993
v -3.801 0.739 5.13
v -1.934 0.739 5.13
v -3.801 0.897 5.13
v -1.934 0.897 5.13
v -1.934 0.739 4.985
v -3.801 0.739 4.985
v -1.934 0.897 4.985
v -3.801 0.897 4.985
v -0.978 0.704 5.13
v 0.859 0.704 5.13
v -0.978 0.884 5.13
v 0.859 0.884 5.13
v 0.859 0.704 4.985
v -0.978 0.704 4.985
v 0.859 0.884 4.985
v -0.978 0.884 4.985
v 1.843 0.774 5.13
v 3.701 0.774 5.13
v 1.843 0.947 5.13
v 3.701 0.947 5.13
v 3.701 0.774 4.985
v 1.843 0.774 4.985
v 3.701 0.947 4.985
v 1.843 0.947 4.985

# 132 Texture Coordinates
vt 0.0 1.0
vt 0.0 0.0
vt 1.0 0.0
vt 1.0 0.0
vt 1.0 1.0
vt 0.0 1.0
vt 0.000128 0.863402
vt 0.995599 0.874691
vt 0.000128 0.899201
vt 0.995599 0.874691
vt 0.995599 0.91049
vt 0.000128 0.899201
vt 0.995599 0.874691
vt 0.000128 0.863402
vt 0.995599 0.91049
vt 0.000128 0.863402
vt 0.000128 0.899201
vt 0.995599 0.91049
vt 0.000128 0.899201
vt 0.000128 0.863402
vt 0.000128 0.863402
vt 0.000128 0.899201
vt 0.000128 0.899201
vt 0.000128 0.863402
vt 0.995599 0.91049
vt 0.995599 0.874691
vt 0.995599 0.874691
vt 0.995599 0.91049
vt 0.995599 0.91049
vt 0.995599 0.874691
vt 0.000128 0.899201
vt 0.995599 0.91049
vt 0.000128 0.899201
vt 0.000128 0.899201
vt 0.995599 0.91049
vt 0.995599 0.91049
vt 0.995599 0.874691
vt 0.000128 0.863402
vt 0.995599 0.874691
vt 0.995599 0.874691
vt 0.000128 0.863402
vt 0.000128 0.863402
vt 0.121485 0.142704
vt 0.303081 0.142704
vt 0.121485 0.178028
vt 0.303081 0.142704
vt 0.303081 0.178028
vt 0.121485 0.178028
vt 0.121485 0.178028
vt 0.121485 0.142704
vt 0.121485 0.142704
vt 0.121485 0.178028
vt 0.121485 0.178028
vt 0.121485 0.142704
vt 0.303081 0.178028
vt 0.303081 0.142704
vt 0.303081 0.142704
vt 0.303081 0.178028
vt 0.303081 0.178028
vt 0.303081 0.142704
vt 0.121485 0.178028
vt 0.303081 0.178028
vt 0.121485 0.178028
vt 0.121485 0.178028
vt 0.303081 0.178028
vt 0.303081 0.178028
vt 0.303081 0.142704
vt 0.121485 0.142704
vt 0.303081 0.142704
vt 0.303081 0.142704
vt 0.121485 0.142704
vt 0.121485 0.142704
vt 0.121485 0.142704
vt 0.303081 0.142704
vt 0.121485 0.178028
vt 0.303081 0.142704
vt 0.303081 0.178028
vt 0.121485 0.178028
vt 0.121485 0.178028
vt 0.121485 0.142704
vt 0.121485 0.142704
vt 0.121485 0.178028
vt 0.121485 0.178028
vt 0.121485 0.142704
vt 0.303081 0.178028
vt 0.303081 0.142704
vt 0.303081 0.142704
vt 0.303081 0.178028
vt 0.303081 0.178028
vt 0.303081 0.142704
vt 0.121485 0.178028
vt 0.303081 0.178028
vt 0.121485 0.178028
vt 0.121485 0.178028
vt 0.303081 0.178028
vt 0.303081 0.178028
vt 0.303081 0.142704
vt 0.121485 0.142704
vt 0.303081 0.142704
vt 0.303081 0.142704
vt 0.121485 0.142704
vt 0.121485 0.142704
vt 0.121485 0.142704
vt 0.303081 0.142704
vt 0.121485 0.178028
vt 0.303081 0.142704
vt 0.303081 0.178028
vt 0.121485 0.178028
vt 0.121485 0.178028
vt 0.121485 0.142704
vt 0.121485 0.142704
vt 0.121485 0.178028
vt 0.121485 0.178028
vt 0.121485 0.142704
vt 0.303081 0.178028
vt 0.303081 0.142704
vt 0.303081 0.142704
vt 0.303081 0.178028
vt 0.303081 0.178028
vt 0.303081 0.142704
vt 0.121485 0.178028
vt 0.303081 0.178028
vt 0.121485 0.178028
vt 0.121485 0.178028
vt 0.303081 0.178028
vt 0.303081 0.178028
vt 0.303081 0.142704
vt 0.121485 0.142704
vt 0.303081 0.142704
vt 0.303081 0.142704
vt 0.121485 0.142704
vt 0.121485 0.142704

# 132 Vertex Normals
vn 0.0 0.0 1.0
vn 0.0 0.0 1.0
vn 0.0 0.0 1.0
vn 0.0 0.0 1.0
vn 0.0 0.0 1.0
vn 0.0 0.0 1.0
vn 0.0 -0.865214 0.501402
vn 0.0 -0.865214 0.501402
vn 0.0 -0.497191 0.867641
vn 0.0 -0.865214 0.501402
vn 0.0 -0.497191 0.867641
vn 0.0 -0.497191 0.867641
vn 0.0 0.0 -1.0
vn 0.0 0.0 -1.0
vn 0.0 0.0 -1.0
vn 0.0 0.0 -1.0
vn 0.0 0.0 -1.0
vn 0.0 0.0 -1.0
vn -1.0 0.0 0.0
vn -1.0 0.0 0.0
vn -1.0 0.0 0.0
vn -1.0 0.0 0.0
vn -1.0 0.0 0.0
vn -1.0 0.0 0.0
vn 1.0 0.0 0.0
vn 1.0 0.0 0.0
vn 1.0 0.0 0.0
vn 1.0 0.0 0.0
vn 1.0 0.0 0.0
vn 1.0 0.0 0.0
vn 0.0 1.0 0.0
vn 0.0 1.0 0.0
vn 0.0 1.0 0.0
vn 0.0 1.0 0.0
vn 0.0 1.0 0.0
vn 0.0 1.0 0.0
vn 0.0 -0.865214 0.501402
vn 0.0 -1.0 0.0
vn 0.0 -1.0 0.0
vn 0.0 -0.865214 0.501402
vn 0.0 -0.865214 0.501402
vn 0.0 -1.0 0.0
vn 0.0 0.0 1.0
vn 0.0 0.0 1.0
vn 0.0 0.0 1.0
vn 0.0 0.0 1.0
vn 0.0 0.0 1.0
vn 0.0 0.0 1.0
vn -1.0 0.0 0.0
vn -1.0 0.0 0.0
vn -1.0 0.0 0.0
vn -1.0 0.0 0.0
vn -1.0 0.0 0.0
vn -1.0 0.0 0.0
vn 1.0 0.0 0.0
vn 1.0 0.0 0.0
vn 1.0 0.0 0.0
vn 1.0 0.0 0.0
vn 1.0 0.0 0.0
vn 1.0 0.0 0.0
vn 0.0 1.0 0.0
vn 0.0 1.0 0.0
vn 0.0 1.0 0.0
vn 0.0 1.0 0.0
vn 0.0 1.0 0.0
vn 0.0 1.0 0.0
vn 0.0 -1.0 0.0
vn 0.0 -1.0 0.0
vn 0.0 -1.0 0.0
vn 0.0 -1.0 0.0
vn 0.0 -1.0 0.0
vn 0.0 -1.0 0.0
vn 0.0 0.0 1.0
vn 0.0 0.0 1.0
vn 0.0 0.0 1.0
vn 0.0 0.0 1.0
vn 0.0 0.0 1.0
vn 0.0 0.0 1.0
vn -1.0 0.0 0.0
vn -1.0 0.0 0.0
vn -1.0 0.0 0.0
vn -1.0 0.0 0.0
vn -1.0 0.0 0.0
vn -1.0 0.0 0.0
vn 1.0 0.0 0.0
vn 1.0 0.0 0.0
vn 1.0 0.0 0.0
vn 1.0 0.0 0.0
vn 1.0 0.0 0.0
vn 1.0 0.0 0.0
vn 0.0 1.0 0.0
vn 0.0 1.0 0.0
vn 0.0 1.0 0.0
vn 0.0 1.0 0.0
vn 0.0 1.0 0.0
vn 0.0 1.0 0.0
vn 0.0 -1.0 0.0
vn 0.0 -1.0 0.0
vn 0.0 -1.0 0.0
vn 0.0 -1.0 0.0
vn 0.0 -1.0 0.0
vn 0.0 -1.0 0.0
vn 0.0 0.0 1.0
vn 0.0 0.0 1.0
vn 0.0 0.0 1.0
vn 0.0 0.0 1.0
vn 0.0 0.0 1.0
vn 0.0 0.0 1.0
vn -1.0 0.0 0.0
vn -1.0 0.0 0.0
vn -1.0 0.0 0.0
vn -1.0 0.0 0.0
vn -1.0 0.0 0.0
vn -1.0 0.0 0.0
vn 1.0 0.0 0.0
vn 1.0 0.0 0.0
vn 1.0 0.0 0.0
vn 1.0 0.0 0.0
vn 1.0 0.0 0.0
vn 1.0 0.0 0.0
vn 0.0 1.0 0.0
vn 0.0 1.0 0.0
vn 0.0 1.0 0.0
vn 0.0 1.0 0.0
vn 0.0 1.0 0.0
vn 0.0 1.0 0.0
vn 0.0 -1.0 0.0
vn 0.0 -1.0 0.0
vn 0.0 -1.0 0.0
vn 0.0 -1.0 0.0
vn 0.0 -1.0 0.0
vn 0.0 -1.0 0.0

# group, 44 grouped triangles

usemtl floor.jpg
o group
g group

f 3/1/1 4/2/2 2/3/3
f 2/4/4 1/5/5 3/6/6
f 5/7/7 6/8/8 7/9/9
f 6/10/10 8/11/11 7/12/12
f 9/13/13 10/14/14 11/15/15
f 10/16/16 12/17/17 11/18/18
f 7/19/19 10/20/20 5/21/21
f 7/22/22 12/23/23 10/24/24
f 11/25/25 6/26/26 9/27/27
f 11/28/28 8/29/29 6/30/30
f 7/31/31 11/32/32 12/33/33
f 7/34/34 8/35/35 11/36/36
f 6/37/37 10/38/38 9/39/39
f 6/40/40 5/41/41 10/42/42
f 13/43/43 14/44/44 15/45/45
f 14/46/46 16/47/47 15/48/48
f 15/49/49 18/50/50 13/51/51
f 15/52/52 20/53/53 18/54/54
f 19/55/55 14/56/56 17/57/57
f 19/58/58 16/59/59 14/60/60
f 15/61/61 19/62/62 20/63/63
f 15/64/64 16/65/65 19/66/66
f 14/67/67 18/68/68 17/69/69
f 14/70/70 13/71/71 18/72/72
f 21/73/73 22/74/74 23/75/75
f 22/76/76 24/77/77 23/78/78
f 23/79/79 26/80/80 21/81/81
f 23/82/82 28/83/83 26/84/84
f 27/85/85 22/86/86 25/87/87
f 27/88/88 24/89/89 22/90/90
f 23/91/91 27/92/92 28/93/93
f 23/94/94 24/95/95 27/96/96
f 22/97/97 26/98/98 25/99/99
f 22/100/100 21/101/101 26/102/102
f 29/103/103 30/104/104 31/105/105
f 30/106/106 32/107/107 31/108/108
f 31/109/109 34/110/110 29/111/111
f 31/112/112 36/113/113 34/114/114
f 35/115/115 30/116/116 33/117/117
f 35/118/118 32/119/119 30/120/120
f 31/121/121 35/122/122 36/123/123
f 31/124/124 32/125/125 35/126/126
f 30/127/127 34/128/128 33/129/129
f 30/130/130 29/131/131 34/132/132
